<?xml version="1.0" encoding="UTF-8"?>
<!-- Generated by jsxcad -->
<!DOCTYPE svg PUBLIC "-//W3C//DTD SVG 1.1 Tiny//EN" "http://www.w3.org/Graphics/SVG/1.1/DTD/svg11-tiny.dtd">
<svg baseProfile="tiny" height="19.59492973614499mm" width="39.898214418809346mm" viewBox="0 0 39.898214418809346 19.59492973614499" version="1.1" stroke="black" stroke-width=".1" fill="none" xmlns="http://www.w3.org/2000/svg">
<path fill="#a52a2a" stroke="#a52a2a" d="M25.35552 18.21 L19.94911 19.79746 L-10.05089 15.79746 L-10.05089 3.79746 L17.13178 0.20254 L22.76643 0.20254 L27.5066 3.24886 L29.84732 8.37432 L29.04543 13.95161 M15.90712 11.11079 L19.94911 14.04746 L23.9911 11.11079 L23.48649 9.55776 L22.44719 6.35914 L18.19764 6.35914 L17.45102 6.35914 L17.36009 6.63898 L15.95652 10.95873 z"/>
<path fill="#a52a2a" stroke="#a52a2a" d="M22.76643 0.20253513192752234 L22.76643 0.20253513192752234 L17.13178 0.20253513192752057 L17.13178 0.20253513192752057 z"/>
<path fill="#a52a2a" stroke="#a52a2a" d="M23.99109850559075 11.110790485562998 L23.99109850559075 11.110790485562998 L23.48648847317263 9.557760496096284 L22.447193322455696 6.359138920468703 L22.447193322455696 6.359138920468703 L23.48648847317263 9.557760496096284 z"/>
<path fill="#a52a2a" stroke="#a52a2a" d="M29.847322675335242 8.374318778215333 L29.847322675335242 8.374318778215333 L27.506603377230554 3.2488584576704826 L27.506603377230554 3.2488584576704826 z"/>
<path fill="#a52a2a" stroke="#a52a2a" d="M17.4510206743949 6.359140219124186 L17.4510206743949 6.359140219124186 L17.360094719543394 6.638981533472607 L15.956523039145614 10.958730987478269 L15.907116446174879 11.11078884529222 L15.907116446174879 11.11078884529222 L15.956523039145614 10.958730987478269 L17.360094719543394 6.638981533472607 z"/>
<path fill="#a52a2a" stroke="#a52a2a" d="M-10.050890686482777 15.797465148620834 L-10.050890686482777 15.797465148620834 L19.949109313517223 19.797465148620834 L19.949109313517223 19.797465148620834 z"/>
<path fill="#a52a2a" stroke="#a52a2a" d="M-10.050892790595327 10.42142 L-10.050892790595327 10.05146 L-10.050892790595327 10.04138 L-10.050892790595327 9.80651 L-10.050892790595327 9.73646 L-10.050892790595327 9.42146 L-10.050892790595327 9.42146 L-10.050892790595327 9.42146 L-10.050892790595327 9.42146 L-10.050892790595327 3.79746 L-10.050892790595327 3.79746 L-10.050892790595327 15.79746 L-10.050892790595327 15.79746 L-10.050892790595327 10.80146 L-10.050892790595327 10.80146 L-10.050892790595327 10.80146 L-10.050892790595327 10.80146 L-10.050892790595327 10.80146 z"/>
<path fill="#a52a2a" stroke="#a52a2a" d="M23.9910977211801 11.110786863473491 L23.9910977211801 11.110786863473491 L19.94911135077906 14.047461859187877 L19.94911135077906 14.047461859187877 z"/>
<path fill="#a52a2a" stroke="#a52a2a" d="M-10.05088941522969 3.797464421677777 L-10.05088941522969 3.797464421677777 L17.131779395468424 0.20253542889953727 L17.131779395468424 0.20253542889953727 z"/>
<path fill="#a52a2a" stroke="#a52a2a" d="M17.45102 6.359142641978969 L17.45102 6.359142641978969 L18.19764 6.359142641978969 L22.44719 6.359142641978969 L22.44719 6.359142641978969 L18.19764 6.359142641978969 z"/>
<path fill="#a52a2a" stroke="#a52a2a" d="M27.506601987147636 3.248856907937918 L27.506601987147636 3.248856907937918 L22.766433026012873 0.20253529143205878 L22.766433026012873 0.20253529143205878 z"/>
<path fill="#a52a2a" stroke="#a52a2a" d="M25.355517460707574 18.20999779969059 L25.355517460707574 18.20999779969059 L29.045430853206756 13.951610739307865 L29.045430853206756 13.951610739307865 z"/>
<path fill="#a52a2a" stroke="#a52a2a" d="M29.045427924472616 13.951609701584214 L29.045427924472616 13.951609701584214 L29.847321100139823 8.374320158176227 L29.847321100139823 8.374320158176227 z"/>
<path fill="#a52a2a" stroke="#a52a2a" d="M15.90712035056595 11.110789517487362 L15.90712035056595 11.110789517487362 L19.94910672096699 14.047464513201747 L19.94910672096699 14.047464513201747 z"/>
<path fill="#a52a2a" stroke="#a52a2a" d="M25.355519686696713 18.209998932987006 L25.355519686696713 18.209998932987006 L19.94911109444077 19.79746372732297 L19.94911109444077 19.79746372732297 z"/>
<path fill="#a52a2a" stroke="#a52a2a" d="M15.95652 10.95873 L15.90712 11.11079 L19.94911 14.04746 L23.9911 11.11079 L23.48649 9.55776 L22.44719 6.35914 L18.19764 6.35914 L17.45102 6.35914 L17.36009 6.63898 z"/>
<path fill="#a52a2a" stroke="#a52a2a" d="M12.99911 9.421464868072494 L12.99911 9.421464868072494 L12.78911 9.421464868072494 L10.99911 9.421464868072494 L10.89911 9.421464868072494 L10.78911 9.421464868072494 L10.37367 9.421464868072494 L9.91101 9.421464868072494 L8.99911 9.421464868072494 L8.89911 9.421464868072494 L8.78911 9.421464868072494 L6.99911 9.421464868072494 L6.89911 9.421464868072494 L6.78911 9.421464868072494 L4.99911 9.421464868072494 L4.89911 9.421464868072494 L4.78911 9.421464868072494 L2.99911 9.421464868072494 L2.89911 9.421464868072494 L2.78911 9.421464868072494 L0.99911 9.421464868072494 L0.89911 9.421464868072494 L0.78911 9.421464868072494 L-1.00089 9.421464868072494 L-1.10089 9.421464868072494 L-1.21089 9.421464868072494 L-3.00089 9.421464868072494 L-3.10089 9.421464868072494 L-3.21089 9.421464868072494 L-5.00089 9.421464868072494 L-5.10089 9.421464868072494 L-5.21089 9.421464868072494 L-7.00089 9.421464868072494 L-7.10089 9.421464868072494 L-7.21089 9.421464868072494 L-9.00089 9.421464868072494 L-9.10089 9.421464868072494 L-9.21089 9.421464868072494 L-10.05089 9.421464868072494 L-10.05089 9.421464868072494 L-10.05089 9.421464868072494 L-10.05089 9.421464868072494 L-9.10089 9.421464868072494 L-9.00089 9.421464868072494 L-7.10089 9.421464868072494 L-7.00089 9.421464868072494 L-5.10089 9.421464868072494 L-5.00089 9.421464868072494 L-3.10089 9.421464868072494 L-3.00089 9.421464868072494 L-1.10089 9.421464868072494 L-1.00089 9.421464868072494 L0.89911 9.421464868072494 L0.99911 9.421464868072494 L2.89911 9.421464868072494 L2.99911 9.421464868072494 L4.89911 9.421464868072494 L4.99911 9.421464868072494 L6.89911 9.421464868072494 L6.99911 9.421464868072494 L8.89911 9.421464868072494 L8.99911 9.421464868072494 L10.89911 9.421464868072494 L10.99911 9.421464868072494 z"/>
<path fill="#a52a2a" stroke="#a52a2a" d="M-8.89089 10.051464868072495 L-8.45377 10.051464868072495 L-8.45377 10.051464868072495 L-8.45377 10.051464868072495 L-8.45377 10.051464868072495 L-9.00089 10.051464868072495 L-9.10089 10.051464868072495 L-9.64802 10.051464868072495 L-9.64802 10.051464868072495 L-9.64802 10.051464868072495 L-9.64802 10.051464868072495 L-9.64802 10.051464868072495 L-9.64802 10.051464868072495 L-9.10089 10.051464868072495 L-9.00089 10.051464868072495 z"/>
<path fill="#a52a2a" stroke="#a52a2a" d="M-9.648020331937362 10.051460107852986 L-9.648020331937362 10.051460107852986 L-9.648020331937362 10.051460107852986 L-9.648020331937362 10.051460107852986 L-9.648020331937362 10.051460107852986 L-9.648020331937362 10.051460107852986 L-9.527812782415207 10.421420904061502 L-9.527812782415207 10.421420904061502 L-9.547792160223134 10.359930701899044 z"/>
<path fill="#a52a2a" stroke="#a52a2a" d="M-9.52780858528571 10.42142194718717 L-10.050888649220939 10.801461859187878 L-10.050888649220939 10.801461859187878 L-9.998581235923455 10.763458298897302 L-9.52780858528571 10.42142194718717 z"/>
<path fill="#a52a2a" stroke="#a52a2a" d="M-8.573972265819162 10.421419263790725 L-8.573972265819162 10.421419263790725 L-8.453765671212036 10.05146140650847 L-8.453765671212036 10.05146140650847 L-8.453765671212036 10.05146140650847 L-8.453765671212036 10.05146140650847 L-8.459750212572468 10.069879930931016 L-8.461224857604307 10.074418421668684 z"/>
<path fill="#a52a2a" stroke="#a52a2a" d="M-6.45377 10.051464868072495 L-6.45377 10.051464868072495 L-6.45377 10.051464868072495 L-6.45377 10.051464868072495 L-7.00089 10.051464868072495 L-7.10089 10.051464868072495 L-7.64802 10.051464868072495 L-7.64802 10.051464868072495 L-7.64802 10.051464868072495 L-7.64802 10.051464868072495 L-7.60272 10.051464868072495 L-7.10089 10.051464868072495 L-7.00089 10.051464868072495 L-6.89089 10.051464868072495 z"/>
<path fill="#a52a2a" stroke="#a52a2a" d="M-7.648020331937363 10.051460107852987 L-7.648020331937363 10.051460107852987 L-7.648020331937363 10.051460107852987 L-7.527812782415207 10.421420904061502 L-7.527812782415207 10.421420904061502 L-7.547792160223134 10.359930701899044 L-7.629061178308405 10.109810382855608 L-7.6305231127201685 10.10531101138409 L-7.648020331937363 10.051460107852987 z"/>
<path fill="#a52a2a" stroke="#a52a2a" d="M-7.527808585285709 10.42142194718717 L-7.527808585285709 10.42142194718717 L-8.050888649220939 10.801461859187878 L-8.050888649220939 10.801461859187878 L-7.998581235923454 10.763458298897302 z"/>
<path fill="#a52a2a" stroke="#a52a2a" d="M-8.573973342968236 10.421424601201041 L-8.573973342968236 10.421424601201041 L-8.521667719473141 10.459426861124063 L-8.050893279033007 10.801464513201747 L-8.050893279033007 10.801464513201747 z"/>
<path fill="#a52a2a" stroke="#a52a2a" d="M-4.45377 10.051464868072495 L-4.45377 10.051464868072495 L-4.45377 10.051464868072495 L-4.45377 10.051464868072495 L-5.00089 10.051464868072495 L-5.10089 10.051464868072495 L-5.64802 10.051464868072495 L-5.64802 10.051464868072495 L-5.64802 10.051464868072495 L-5.64802 10.051464868072495 L-5.64802 10.051464868072495 L-5.10089 10.051464868072495 L-5.00089 10.051464868072495 L-4.89089 10.051464868072495 z"/>
<path fill="#a52a2a" stroke="#a52a2a" d="M-6.573972265819163 10.421419263790725 L-6.573972265819163 10.421419263790725 L-6.453765671212036 10.05146140650847 L-6.453765671212036 10.05146140650847 L-6.453765671212036 10.05146140650847 L-6.453765671212036 10.05146140650847 L-6.460267157429503 10.07147092360714 L-6.461865895554643 10.076391333615138 L-6.463304392737492 10.080818572713067 L-6.47034626104091 10.10249121486145 L-6.4871311015248185 10.15414964209289 L-6.488485547304645 10.15831819757146 L-6.5642244448823535 10.391418555770175 z"/>
<path fill="#a52a2a" stroke="#a52a2a" d="M-4.573972265819163 10.421419263790725 L-4.573972265819163 10.421419263790725 L-4.453765671212036 10.05146140650847 L-4.453765671212036 10.05146140650847 L-4.453765671212036 10.05146140650847 L-4.453765671212036 10.05146140650847 L-4.460883803235897 10.073368764253747 L-4.462629116768224 10.078740286979398 L-4.473530071756087 10.112289976685032 L-4.4900129446468355 10.163019043226242 L-4.491471940132339 10.16750936961279 L-4.492784360210654 10.171548583281677 L-4.49920473395136 10.19130846184596 L-4.5145119904771684 10.238419353254761 L-4.5157471919200125 10.242220912400494 L-4.56516745042585 10.394320828406858 z"/>
<path fill="#a52a2a" stroke="#a52a2a" d="M-6.5739733429682365 10.421424601201041 L-6.5739733429682365 10.421424601201041 L-6.533726719490596 10.450665484766166 L-6.521667719473142 10.459426861124063 L-6.050893279033007 10.801464513201747 L-6.050893279033007 10.801464513201747 z"/>
<path fill="#a52a2a" stroke="#a52a2a" d="M-5.648020331937363 10.051460107852987 L-5.648020331937363 10.051460107852987 L-5.648020331937363 10.051460107852987 L-5.648020331937363 10.051460107852987 L-5.648020331937363 10.051460107852987 L-5.527812782415207 10.421420904061502 L-5.527812782415207 10.421420904061502 L-5.547792160223134 10.359930701899044 L-5.601037267394484 10.196059112122644 L-5.602375108712947 10.19194165992146 L-5.618976196844475 10.140848764279863 L-5.6259545862286995 10.119371490156036 L-5.6273813277065035 10.114980431397992 L-5.628967355211569 10.110099140656144 L-5.646935599742997 10.054798570269831 z"/>
<path fill="#a52a2a" stroke="#a52a2a" d="M-5.605640104620056 10.477969856002844 L-5.531990036708722 10.424459949474777 L-5.527808585285709 10.42142194718717 L-5.527808585285709 10.42142194718717 L-6.050888649220939 10.801461859187878 L-6.050888649220939 10.801461859187878 L-5.998581235923454 10.763458298897302 z"/>
<path fill="#a52a2a" stroke="#a52a2a" d="M-2.45377 10.051464868072495 L-2.45377 10.051464868072495 L-2.45377 10.051464868072495 L-2.45377 10.051464868072495 L-3.00089 10.051464868072495 L-3.10089 10.051464868072495 L-3.64802 10.051464868072495 L-3.64802 10.051464868072495 L-3.64802 10.051464868072495 L-3.64802 10.051464868072495 L-3.64802 10.051464868072495 L-3.10089 10.051464868072495 L-3.00089 10.051464868072495 L-2.89089 10.051464868072495 z"/>
<path fill="#a52a2a" stroke="#a52a2a" d="M-2.573972265819163 10.421419263790725 L-2.573972265819163 10.421419263790725 L-2.4537656712120364 10.05146140650847 L-2.4537656712120364 10.05146140650847 L-2.4537656712120364 10.05146140650847 L-2.4537656712120364 10.05146140650847 L-2.461628435976881 10.075660508181915 L-2.4635486850828054 10.081570427242493 L-2.4773119398050607 10.123929369719127 L-2.4934439866335874 10.173578704664225 L-2.4950202424448404 10.178429921224895 L-2.504868719246036 10.208740416142188 L-2.5197596867791967 10.254570101771607 L-2.5210760006988018 10.25862129945173 L-2.522261388757554 10.262269548765316 L-2.528061222850577 10.28011960267176 L-2.5418899405032582 10.322680019331662 L-2.5430049426940897 10.326111643218299 L-2.5663010410892784 10.397809661729587 z"/>
<path fill="#a52a2a" stroke="#a52a2a" d="M-4.5739733429682365 10.421424601201041 L-4.5739733429682365 10.421424601201041 L-4.529799245560929 10.4535189616037 L-4.525438163934862 10.45668747287314 L-4.521667719473142 10.459426861124063 L-4.449331564820945 10.511982153791257 L-4.050893279033007 10.801464513201747 L-4.050893279033007 10.801464513201747 z"/>
<path fill="#a52a2a" stroke="#a52a2a" d="M-2.5739733429682365 10.421424601201041 L-2.5739733429682365 10.421424601201041 L-2.5250206118886003 10.456990842192406 L-2.5216677194731423 10.459426861124063 L-2.512400120526881 10.466160165891019 L-2.4371690716931207 10.520818722295195 L-2.433259443215979 10.523659233652538 L-2.3649381999536847 10.573297522448796 L-2.0565587633530473 10.797348297901491 L-2.050893279033007 10.801464513201747 L-2.050893279033007 10.801464513201747 z"/>
<path fill="#a52a2a" stroke="#a52a2a" d="M-3.598307877532178 10.204459310368398 L-3.6145826059266026 10.15437084671688 L-3.6253731333562667 10.121161018089165 L-3.6271047813534913 10.115831553555925 L-3.6448365212221856 10.06125886967657 L-3.6480203319373627 10.051460107852987 L-3.6480203319373627 10.051460107852987 L-3.6480203319373627 10.051460107852987 L-3.6480203319373627 10.051460107852987 L-3.6480203319373627 10.051460107852987 L-3.5278127824152077 10.421420904061502 L-3.5278127824152077 10.421420904061502 L-3.5477921602231337 10.359930701899044 L-3.5730124015655362 10.282310780315944 L-3.5742241657794653 10.278581353543798 L-3.589258769793552 10.232309600281694 L-3.595581426596133 10.21285046352918 L-3.5968713643605614 10.208880443307619 z"/>
<path fill="#a52a2a" stroke="#a52a2a" d="M-3.6164012470285076 10.485788283612507 L-3.6125903563791546 10.483019509486173 L-3.5398901860382703 10.430199743940287 L-3.52780858528571 10.42142194718717 L-3.52780858528571 10.42142194718717 L-4.050888649220939 10.801461859187878 L-4.050888649220939 10.801461859187878 L-3.9985812359234543 10.763458298897302 L-3.6834603235868495 10.534509554620909 z"/>
<path fill="#a52a2a" stroke="#a52a2a" d="M-0.45377 10.051464868072495 L-1.00089 10.051464868072495 L-1.10089 10.051464868072495 L-1.64802 10.051464868072495 L-1.64802 10.051464868072495 L-1.64802 10.051464868072495 L-1.64802 10.051464868072495 L-1.64802 10.051464868072495 L-1.10089 10.051464868072495 L-1.00089 10.051464868072495 L-0.89089 10.051464868072495 L-0.45377 10.051464868072495 L-0.45377 10.051464868072495 L-0.45377 10.051464868072495 z"/>
<path fill="#a52a2a" stroke="#a52a2a" d="M-0.5739733429682367 10.421424601201041 L-0.5739733429682367 10.421424601201041 L-0.5216677194731425 10.459426861124063 L-0.5190785493401096 10.461308003337953 L-0.4965236847751021 10.477695071657832 L-0.4223591167921065 10.531578784368623 L-0.41118042233739227 10.53970058129755 L-0.34453235274034144 10.588123238269269 L-0.3410694221295406 10.590639204629547 L-0.28054959036900584 10.634609436191305 L-0.05120733796890008 10.801236336028522 L-0.05089327903300736 10.801464513201747 L-0.05089327903300736 10.801464513201747 z"/>
<path fill="#a52a2a" stroke="#a52a2a" d="M-0.5739722658191633 10.421419263790725 L-0.5739722658191633 10.421419263790725 L-0.45376567121203637 10.05146140650847 L-0.45376567121203637 10.05146140650847 L-0.45376567121203637 10.05146140650847 L-0.45376567121203637 10.05146140650847 L-0.4625441104501736 10.078478664433778 L-0.4646822757462345 10.085059260565224 L-0.48188046629653025 10.137989848491072 L-0.497587407353624 10.186330842401873 L-0.4993053898157471 10.191618248742705 L-0.5115978933474532 10.229450684492905 L-0.5260041700312778 10.273788645074703 L-0.5274113681214564 10.27811955547039 L-0.5362073667359853 10.305190855599342 L-0.5495064289115578 10.346121160316972 L-0.5506820452764977 10.349739335449382 L-0.5517413562307154 10.352999559333927 L-0.5569206506760555 10.368939788582534 L-0.5676916347180939 10.402089468847892 L-0.5692708294556086 10.406949730493535 L-0.5702656323944285 10.410011419121075 z"/>
<path fill="#a52a2a" stroke="#a52a2a" d="M-1.9985812359234543 10.763458298897302 L-1.7612870876386146 10.591054008521555 L-1.7008011569807402 10.547108407552626 L-1.6973673721900184 10.544613616870148 L-1.6318018390938667 10.49697746870445 L-1.6209080577549662 10.489062673270949 L-1.5493374151875847 10.437063557689076 L-1.5278085852857097 10.42142194718717 L-1.5278085852857097 10.42142194718717 L-2.050888649220939 10.801461859187878 L-2.050888649220939 10.801461859187878 L-2.045490232564188 10.797539679902854 z"/>
<path fill="#a52a2a" stroke="#a52a2a" d="M-1.5652053280373048 10.3063384819873 L-1.566364339940881 10.302771410132273 L-1.5676513387790487 10.29881043499568 L-1.5822305670252368 10.253940184237667 L-1.591900214411546 10.224180069666534 L-1.5934471551413616 10.219419075649395 L-1.6093358645396036 10.170518656307463 L-1.622933000467046 10.12867097491084 L-1.6248376000266347 10.122809220201383 L-1.642285960774766 10.069108687576163 L-1.6480203319373627 10.051460107852987 L-1.6480203319373627 10.051460107852987 L-1.6480203319373627 10.051460107852987 L-1.6480203319373627 10.051460107852987 L-1.6480203319373627 10.051460107852987 L-1.5278127824152077 10.421420904061502 L-1.5278127824152077 10.421420904061502 L-1.5449884906516167 10.368559509582981 L-1.5460732228459826 10.365221047166138 L-1.5477921602231337 10.359930701899044 L-1.5595442816688905 10.323761391198554 z"/>
<path fill="#a52a2a" stroke="#a52a2a" d="M1.54623 10.051464868072495 L1.54623 10.051464868072495 L1.54623 10.051464868072495 L1.54623 10.051464868072495 L1.54623 10.051464868072495 L0.99911 10.051464868072495 L0.89911 10.051464868072495 L0.35198 10.051464868072495 L0.35198 10.051464868072495 L0.35198 10.051464868072495 L0.35198 10.051464868072495 L0.35198 10.051464868072495 L0.35198 10.051464868072495 L0.89911 10.051464868072495 L0.99911 10.051464868072495 L1.10911 10.051464868072495 L1.54221 10.051464868072495 z"/>
<path fill="#a52a2a" stroke="#a52a2a" d="M1.426026657031763 10.421424601201041 L1.426026657031763 10.421424601201041 L1.4502707509121482 10.439038966458094 L1.4550202387643973 10.442489671368998 L1.4592825825626734 10.445586445407425 L1.4783322805268573 10.459426861124063 L1.480122037472415 10.460727195659803 L1.488502785770965 10.466816165715208 L1.5232201434637955 10.492039802539024 L1.5294988656832866 10.496601561253016 L1.5334667858005855 10.499484423965962 L1.596030352000023 10.544939515513532 L1.6156772322135224 10.559213809531267 L1.6802910779368334 10.606158516347229 L1.690027975484543 10.61323278650647 L1.7480978211274658 10.655422998960761 L1.7511205989568968 10.657619175606555 L1.8038390192156724 10.695921349933815 L1.9491067209669926 10.801464513201747 L1.9491067209669926 10.801464513201747 z"/>
<path fill="#a52a2a" stroke="#a52a2a" d="M1.4260277341808365 10.421419263790725 L1.4260277341808365 10.421419263790725 L1.5462343287879634 10.05146140650847 L1.5462343287879634 10.05146140650847 L1.5462343287879634 10.05146140650847 L1.5462343287879634 10.05146140650847 L1.5462343287879634 10.05146140650847 L1.5461405056911282 10.051750164309007 L1.5362959227312216 10.082048675215066 L1.5338880438496998 10.089459364408238 L1.5191045649484773 10.134958234044708 L1.5124955900990718 10.15529856713633 L1.4972987611314619 10.202069597467212 L1.4954175988007878 10.207859219803082 L1.4802793999960528 10.2544498050469 L1.4664506823433718 10.2970102217068 L1.464939889462545 10.301659964084203 L1.4541200469514437 10.334960015255449 L1.4414385854972935 10.373989540400208 L1.4401975062019272 10.377809189715887 L1.4324549406890934 10.401638356130237 L1.4305630517495784 10.407460991573545 z"/>
<path fill="#a52a2a" stroke="#a52a2a" d="M0.21785085671653662 10.606211179169152 L0.2762799627655656 10.563759948751198 L0.2859990148607502 10.556698644072146 L0.34977954629392544 10.51035937552716 L0.3689618831885583 10.496422591986684 L0.42937822183872315 10.452527552570965 L0.43317126703555114 10.449771743924824 L0.43917816630917056 10.445407476141094 L0.47219141471429 10.42142194718717 L0.47219141471429 10.42142194718717 L-0.05088864922093924 10.801461859187878 L-0.05088864922093924 10.801461859187878 L-0.05059243573757157 10.801246647494843 L0.0014187640765455384 10.763458298897302 L0.16088793811201002 10.647597162054648 L0.2147923879820556 10.608433286775327 z"/>
<path fill="#a52a2a" stroke="#a52a2a" d="M0.4141468509530509 10.242791023187376 L0.4124670003511499 10.237620974644992 L0.3970454224258525 10.190158238147038 L0.38009446314713097 10.137988549835589 L0.3779797350799844 10.13148008607773 L0.3608822003940754 10.078859285048624 L0.35342205908677604 10.055899330962148 L0.3519796680626371 10.051460107852987 L0.3519796680626371 10.051460107852987 L0.3519796680626371 10.051460107852987 L0.3519796680626371 10.051460107852987 L0.3519796680626371 10.051460107852987 L0.3519796680626371 10.051460107852987 L0.4721872175847922 10.421420904061502 L0.4721872175847922 10.421420904061502 L0.4701721904670043 10.415219288274125 L0.4651687865102897 10.399820394286706 L0.4641446684900323 10.396668483115636 L0.46300813890034204 10.393170604707935 L0.45220783977686607 10.359930701899044 L0.450121471876129 10.353509521758454 L0.4415765983744637 10.327211105255135 L0.4402084870595353 10.323000491584155 L0.42616574705800714 10.27978138186462 z"/>
<path fill="#a52a2a" stroke="#a52a2a" d="M2.419819653026511 10.260250112738518 L2.4049677722686007 10.214540723833808 L2.3984887683650196 10.194600400182463 L2.383954504746604 10.1498685363191 L2.3815798347878094 10.142560053680693 L2.371861328932438 10.112649568203675 L2.3649210714084354 10.091289651878297 L2.351979668062637 10.051460107852987 L2.351979668062637 10.051460107852987 L2.351979668062637 10.051460107852987 L2.351979668062637 10.051460107852987 L2.351979668062637 10.051460107852987 L2.351979668062637 10.051460107852987 L2.472187217584792 10.421420904061502 L2.472187217584792 10.421420904061502 L2.4616693426668506 10.389050213580486 L2.452207839776866 10.359930701899044 L2.4512296412994097 10.356920116548887 L2.4497706458139064 10.35242979016234 L2.4363748216152374 10.311201682559203 L2.421651956888123 10.265889364168505 z"/>
<path fill="#a52a2a" stroke="#a52a2a" d="M3.54623 10.051464868072495 L3.54623 10.051464868072495 L2.99911 10.051464868072495 L2.89911 10.051464868072495 L2.35198 10.051464868072495 L2.35198 10.051464868072495 L2.35198 10.051464868072495 L2.35198 10.051464868072495 L2.35198 10.051464868072495 L2.35198 10.051464868072495 L2.79634 10.051464868072495 L2.89911 10.051464868072495 L2.99911 10.051464868072495 L3.10911 10.051464868072495 L3.54623 10.051464868072495 L3.54623 10.051464868072495 z"/>
<path fill="#a52a2a" stroke="#a52a2a" d="M3.426026657031763 10.421424601201041 L3.426026657031763 10.421424601201041 L3.454840608561345 10.442359162387167 L3.4783322805268573 10.459426861124063 L3.498511506264544 10.474087926804712 L3.505439157288536 10.479121159892822 L3.510356974976285 10.482694163587949 L3.540971983818977 10.504937269507424 L3.548431980367156 10.51035727425845 L3.586919782521708 10.538320299333188 L3.5909620499292987 10.541257178514373 L3.5945998554605714 10.543900198941456 L3.6123582409007247 10.556802421192439 L3.6194994232304287 10.561990793855209 L3.649083642127407 10.583484987041684 L3.654441612596526 10.587377780451295 L3.657818895549481 10.589831520145724 L3.7111327082551826 10.628566272406529 L3.727878149202147 10.640732547404701 L3.782941272665774 10.680738248325836 L3.7912411285890597 10.68676844663042 L3.840727994995274 10.722722759652255 L3.843299319675781 10.724590936385953 L3.8882389291679047 10.757241473873934 L3.9491067209669923 10.801464513201747 L3.9491067209669923 10.801464513201747 z"/>
<path fill="#a52a2a" stroke="#a52a2a" d="M3.4260277341808365 10.421419263790725 L3.4260277341808365 10.421419263790725 L3.546234328787963 10.05146140650847 L3.546234328787963 10.05146140650847 L3.546234328787963 10.05146140650847 L3.546234328787963 10.05146140650847 L3.534784174935367 10.08670135651873 L3.532022531065361 10.095200822392988 L3.5295501441684416 10.102810046843166 L3.5270513811163453 10.110500448751903 L3.505396046547808 10.177148715445513 L3.499339209489398 10.195789743147534 L3.4908363616892446 10.221958817841173 L3.488752932714769 10.22837095289679 L3.475980587090044 10.267680190757119 L3.4702716371675955 10.285250531947996 L3.457141632713098 10.325660530500642 L3.4555135795065204 10.33067116305217 L3.442436327362375 10.370918806687698 L3.4304887720403676 10.407689601011729 L3.4291822298145758 10.411710724510673 L3.428308581042795 10.414399538952855 z"/>
<path fill="#a52a2a" stroke="#a52a2a" d="M2.3563592372793645 10.505578950205106 L2.363320789406016 10.500521086524168 L2.380551584604564 10.488002181021072 L2.3840680515729398 10.48544731822022 L2.387971134965111 10.482611562145458 L2.424911857299897 10.455772556353997 L2.4320191385269414 10.450608814284056 L2.4610305657121008 10.429530778635907 L2.4656700153690077 10.426160021153624 L2.4721914147142896 10.42142194718717 L2.4721914147142896 10.42142194718717 L1.9491113507790605 10.801461859187878 L1.9491113507790605 10.801461859187878 L2.0014187640765453 10.763458298897302 L2.083067719145217 10.704136860672714 L2.130387722747242 10.669756865630475 L2.1330803859906458 10.667800531270546 L2.184373064992551 10.630534218600333 L2.1928995423914937 10.624339370155925 L2.2489012630580167 10.58365173845022 L2.2657388967477994 10.571418481503617 L2.31878088650763 10.532881220173074 L2.3221111781879817 10.530461621636636 L2.3273817111968644 10.526632355260427 z"/>
<path fill="#a52a2a" stroke="#a52a2a" d="M5.54623 10.051464868072495 L5.54623 10.051464868072495 L4.99911 10.051464868072495 L4.89911 10.051464868072495 L4.35198 10.051464868072495 L4.35198 10.051464868072495 L4.35198 10.051464868072495 L4.35198 10.051464868072495 L4.35198 10.051464868072495 L4.35198 10.051464868072495 L4.89911 10.051464868072495 L4.99911 10.051464868072495 L5.10911 10.051464868072495 L5.30462 10.051464868072495 L5.54623 10.051464868072495 L5.54623 10.051464868072495 L5.54623 10.051464868072495 z"/>
<path fill="#a52a2a" stroke="#a52a2a" d="M5.426026657031763 10.421424601201041 L5.426026657031763 10.421424601201041 L5.429570480017827 10.42399933931214 L5.468828549539777 10.452521996387226 L5.475280356877348 10.457209508800469 L5.478332280526857 10.459426861124063 L5.512331117407477 10.48412846202055 L5.5267996573549105 10.494640471610506 L5.573331548137013 10.528447869172203 L5.578382004755212 10.532117240691171 L5.58177058807572 10.534579190583209 L5.614397220057045 10.558283826263223 L5.650491537931751 10.58450788321854 L5.65622006917453 10.588669904789427 L5.660280182034647 10.591619749450803 L5.685590756765796 10.61000895840124 L5.6917594407899434 10.614490769686611 L5.7235688141312675 10.637601632208282 L5.726910406179171 10.64002944094233 L5.729917128358468 10.642213952475485 L5.744592654526643 10.65287634635752 L5.750500815972474 10.657168876910237 L5.774948930593408 10.674931471911897 L5.779379604227184 10.678150544734546 L5.782171005298377 10.680178616325488 L5.826241609595314 10.71219778458211 L5.840079066190773 10.722251285278137 L5.8855980124796865 10.755322735587026 L5.8924608267785485 10.760308862036952 L5.933358168863081 10.790022520343747 L5.935489340762219 10.791570907362962 L5.949106720966992 10.801464513201747 L5.949106720966992 10.801464513201747 z"/>
<path fill="#a52a2a" stroke="#a52a2a" d="M5.4260277341808365 10.421419263790725 L5.4260277341808365 10.421419263790725 L5.546234328787963 10.05146140650847 L5.546234328787963 10.05146140650847 L5.546234328787963 10.05146140650847 L5.546234328787963 10.05146140650847 L5.546234328787963 10.05146140650847 L5.538635399756056 10.074848505290134 L5.532731015957357 10.093020330104554 L5.529498346773117 10.102969462834022 L5.504037706926691 10.181329254935317 L5.496158337700482 10.205579459886144 L5.482403899757012 10.247911267107861 L5.4800780882672795 10.255069378840384 L5.477995614207832 10.261478574969741 L5.475886763993208 10.267968948557655 L5.457641973108768 10.324120641101901 L5.452537913287668 10.33982932198606 L5.445372906805978 10.361880944478514 L5.443618776494866 10.367279602459082 L5.43285756414664 10.400399208543265 L5.428045700224885 10.415208602918375 z"/>
<path fill="#a52a2a" stroke="#a52a2a" d="M4.429206876207285 10.289141014981778 L4.420957137531229 10.263750930072483 L4.415069358193894 10.245630208535445 L4.393923180799812 10.18054896649549 L4.391470337290516 10.172999890407667 L4.38904291502137 10.165529052852142 L4.386330129620427 10.15717995788377 L4.370246941260963 10.107680993844559 L4.360996521793563 10.079211130137777 L4.351979668062636 10.051460107852987 L4.351979668062636 10.051460107852987 L4.351979668062636 10.051460107852987 L4.351979668062636 10.051460107852987 L4.351979668062636 10.051460107852987 L4.351979668062636 10.051460107852987 L4.472187217584792 10.421420904061502 L4.472187217584792 10.421420904061502 L4.463212389555377 10.393799223586392 L4.461656632046776 10.389011094314338 L4.452207839776865 10.359930701899044 L4.449052389228098 10.350219223692731 L4.443555477643263 10.333301469402775 L4.431220948410045 10.295339691842894 z"/>
<path fill="#a52a2a" stroke="#a52a2a" d="M4.334639476806884 10.521359279886452 L4.340257969854319 10.517277205744188 L4.375361943970944 10.491772675646462 L4.406702018710821 10.469002778517075 L4.409928817280801 10.466658372126677 L4.414747897140761 10.463157105662562 L4.458672772337305 10.431243815794945 L4.47219141471429 10.42142194718717 L4.47219141471429 10.42142194718717 L3.9491113507790607 10.801461859187878 L3.9491113507790607 10.801461859187878 L4.001418764076545 10.763458298897302 L4.005240955093451 10.76068131457336 L4.0459812677100375 10.731081744853176 L4.048298614897201 10.729398093569548 L4.092461411936955 10.697311943364497 L4.099800069922238 10.691980096239703 L4.148018224539527 10.656947556288305 L4.162509365222068 10.64641912630313 L4.208178795893956 10.613238342690211 L4.211051089340413 10.611151499348448 L4.2155918011695315 10.607852479097177 L4.240538360211993 10.589727743025433 L4.246527414033087 10.585376440721895 L4.261359969669209 10.574599958253247 L4.264389292583611 10.572399026324872 L4.267748730084041 10.569958252110633 L4.299551558340394 10.546852144871544 L4.305679796176909 10.542399719461583 L4.330648955954477 10.524258562994618 z"/>
<path fill="#a52a2a" stroke="#a52a2a" d="M6.441605913455901 10.327301327798665 L6.428390902683352 10.286629706700399 L6.420791018736416 10.263239668992473 L6.396061346095872 10.187129562626938 L6.392902956620843 10.177409039335652 L6.387122665915446 10.159619133791562 L6.377596655010063 10.130301086853114 L6.351979668062636 10.051460107852987 L6.351979668062636 10.051460107852987 L6.351979668062636 10.051460107852987 L6.351979668062636 10.051460107852987 L6.351979668062636 10.051460107852987 L6.351979668062636 10.051460107852987 L6.472187217584792 10.421420904061502 L6.472187217584792 10.421420904061502 L6.470055885056282 10.414861337026261 L6.465217644979352 10.399970765192592 L6.452207839776865 10.359930701899044 L6.447843563940431 10.346498842005557 L6.445829491737671 10.34030016514444 L6.443834962922536 10.334161636645678 z"/>
<path fill="#a52a2a" stroke="#a52a2a" d="M7.54623 10.051464868072495 L7.54623 10.051464868072495 L7.54623 10.051464868072495 L7.54623 10.051464868072495 L7.54623 10.051464868072495 L6.99911 10.051464868072495 L6.89911 10.051464868072495 L6.35198 10.051464868072495 L6.35198 10.051464868072495 L6.35198 10.051464868072495 L6.35198 10.051464868072495 L6.35198 10.051464868072495 L6.35198 10.051464868072495 L6.55876 10.051464868072495 L6.89911 10.051464868072495 L6.99911 10.051464868072495 L7.10911 10.051464868072495 L7.49915 10.051464868072495 z"/>
<path fill="#a52a2a" stroke="#a52a2a" d="M7.426026657031763 10.421424601201041 L7.426026657031763 10.421424601201041 L7.432391026909099 10.426048586580881 L7.450508672755357 10.439211826795528 L7.478332280526857 10.459426861124063 L7.504152600047086 10.478186421342196 L7.523967810096086 10.492583014144154 L7.532672127895691 10.498907071202842 L7.5515891869294265 10.512651119095636 L7.55831936229784 10.517540877721723 L7.599320197492742 10.54732972817456 L7.61750089026174 10.560538774659836 L7.627898016981503 10.568092729390806 L7.658930577870459 10.590639204629547 L7.664021480676289 10.594337962023925 L7.693299975524737 10.615610033687307 L7.704739192557768 10.623921111348889 L7.741500284689502 10.650629608158516 L7.745490805541907 10.653528891266681 L7.748167413135176 10.655473560513972 L7.773952041750356 10.674207189771725 L7.802471569598959 10.694927839632369 L7.807000981060524 10.69821864968603 L7.81020993417798 10.700550090596236 L7.830209529712614 10.715080647295055 L7.835080356127759 10.71861950983219 L7.860217845740826 10.736882965083376 L7.862858762429045 10.738801703370285 L7.865232611453975 10.740526405641962 L7.876828857954952 10.748951571890155 L7.881497453431938 10.752343505050238 L7.900818974341992 10.766381411697138 L7.904317595857843 10.768923309017797 L7.906523115047274 10.77052571250525 L7.941350510935447 10.795829296757688 L7.949106720966992 10.801464513201747 L7.949106720966992 10.801464513201747 z"/>
<path fill="#a52a2a" stroke="#a52a2a" d="M7.4260277341808365 10.421419263790725 L7.4260277341808365 10.421419263790725 L7.546234328787963 10.05146140650847 L7.546234328787963 10.05146140650847 L7.546234328787963 10.05146140650847 L7.546234328787963 10.05146140650847 L7.546234328787963 10.05146140650847 L7.544382481538727 10.057160806300809 L7.529774893126129 10.102118340676093 L7.525878703677667 10.11410957879934 L7.522418346609478 10.124759462780853 L7.511166565559392 10.1593888840826 L7.483642040126116 10.244100662877157 L7.475749960279833 10.268389987094135 L7.4709478680518915 10.283169307288068 L7.4683191340539725 10.291259718637079 L7.4476156218077145 10.354978577439091 L7.441207958687082 10.374699336737226 L7.430023624578657 10.409121177696996 L7.42813269055417 10.414940874214043 L7.426440129332195 10.420150042022577 z"/>
<path fill="#a52a2a" stroke="#a52a2a" d="M6.05929113406389 10.721411560905034 L6.097581460562863 10.693592010292319 L6.099986245210262 10.69184483197529 L6.1037905907746435 10.689080813131538 L6.124710938059649 10.67388129112834 L6.129738793942741 10.670228340004593 L6.142173110016435 10.661194280570392 L6.144710533594282 10.659350734429523 L6.147531080485554 10.657301487160781 L6.174197804465861 10.637926978106506 L6.179329153459324 10.634198834836718 L6.2002721014794355 10.618982892438302 L6.203620238612313 10.616550328421674 L6.2083292802769305 10.61312900938618 L6.237758259508353 10.591747604418764 L6.264041332545059 10.572651834090927 L6.266751841240988 10.570682534250805 L6.270789353365997 10.56774910998465 L6.3076200375054405 10.540990051621812 L6.31894921634313 10.53275892138885 L6.347700120949972 10.511870166473356 L6.3526696851929065 10.508259566705208 L6.382660155768594 10.486470214397078 L6.392621884989571 10.479232594465564 L6.409922272195829 10.466663127409259 L6.448439220170459 10.438678926656719 L6.454700096937425 10.434130133422919 L6.47219141471429 10.42142194718717 L6.47219141471429 10.42142194718717 L5.94911135077906 10.801461859187878 L5.94911135077906 10.801461859187878 L5.9615813577578045 10.792401868793295 L5.963521599086337 10.790992200953523 L6.000549758881359 10.764089668128662 L6.001418764076545 10.763458298897302 L6.0067071425379535 10.7596160670409 L6.047133396218647 10.730244674493944 z"/>
<path fill="#a52a2a" stroke="#a52a2a" d="M9.54623 10.051464868072495 L9.54623 10.051464868072495 L9.54623 10.051464868072495 L9.54623 10.051464868072495 L8.99911 10.051464868072495 L8.89911 10.051464868072495 L8.35198 10.051464868072495 L8.35198 10.051464868072495 L8.35198 10.051464868072495 L8.35198 10.051464868072495 L8.35198 10.051464868072495 L8.35198 10.051464868072495 L8.89911 10.051464868072495 L8.99911 10.051464868072495 L9.06704 10.051464868072495 L9.10911 10.051464868072495 L9.38688 10.051464868072495 L9.54623 10.051464868072495 z"/>
<path fill="#a52a2a" stroke="#a52a2a" d="M9.426026657031763 10.421424601201041 L9.426026657031763 10.421424601201041 L9.462143575641576 10.447665078551578 L9.478332280526857 10.459426861124063 L9.484489664183451 10.463900462211823 L9.49276691937163 10.46991424012119 L9.51123073545405 10.483328987734337 L9.521279902135264 10.490630134699252 L9.565559282455332 10.522800987615506 L9.599151867657241 10.547207429390337 L9.622789268723148 10.564381006516237 L9.663540881707286 10.593988786434029 L9.670381095271042 10.598958492488737 L9.67648018728748 10.603389742220896 L9.682637570944074 10.607863343308658 L9.695940892212954 10.617528771974218 L9.735342901032906 10.646156007070754 L9.749898878440575 10.656731543694113 L9.75629239413799 10.661376704751753 L9.770188142373604 10.671472556803382 L9.775133316079042 10.675065435808758 L9.805246915020016 10.696944246110672 L9.8185972275615 10.706643815934223 L9.82623030922776 10.7121895743845 L9.849021305833586 10.728748202674257 L9.852769149560201 10.73147117052996 L9.874268833641997 10.747091605354065 L9.882667427393072 10.753193540889662 L9.909669021241989 10.772811347144827 L9.912599606328603 10.774940541842192 L9.914568993477213 10.776371385359763 L9.933508653246054 10.790131853647779 L9.949106720966991 10.801464513201747 L9.949106720966991 10.801464513201747 z"/>
<path fill="#a52a2a" stroke="#a52a2a" d="M8.188926866991611 10.6272256877839 L8.192939988579125 10.624309984280515 L8.21715018135685 10.60672024961629 L8.22518951470182 10.600879332044357 L8.239159610227725 10.59072946352449 L8.270261763124392 10.568132426732536 L8.27531221974259 10.564463055213569 L8.289439344736444 10.554199098107087 L8.295897697158987 10.549506830411262 L8.310510176404422 10.538890242799857 L8.349449431707896 10.510599217813025 L8.362400037655643 10.501190051828548 L8.36835994565666 10.496859925202811 L8.374238961282414 10.492588570327893 L8.380807351900298 10.487816355203448 L8.419439093352853 10.45974875210726 L8.441430676771203 10.44377093149565 L8.472191414714288 10.42142194718717 L8.472191414714288 10.42142194718717 L7.94911135077906 10.801461859187878 L7.94911135077906 10.801461859187878 L7.956068147623131 10.796407450421967 L7.98697936994919 10.773949132809456 L7.988919611277722 10.772539464969684 L7.992000680747309 10.77030093696829 L8.001418764076544 10.763458298897302 L8.008890060992275 10.758030083948668 L8.01293887348484 10.7550884494849 L8.02298149508108 10.747792057802567 L8.025031774604953 10.746302442534175 L8.027308675604484 10.744648177125956 L8.048842260788941 10.729003111709023 L8.052989811109292 10.725989740014246 L8.069890491721813 10.713710676797014 L8.072601000417741 10.711741376956894 L8.07640059069954 10.70898081302817 L8.100159330328344 10.691719078276039 L8.121380646379297 10.676300889664779 L8.123570109918592 10.674710151289963 L8.126826054308651 10.672344569221764 L8.156567302673576 10.650736287448677 L8.165711773254552 10.644092440675504 z"/>
<path fill="#a52a2a" stroke="#a52a2a" d="M9.426027734180837 10.421419263790725 L9.426027734180837 10.421419263790725 L9.546234328787962 10.05146140650847 L9.546234328787962 10.05146140650847 L9.546234328787962 10.05146140650847 L9.546234328787962 10.05146140650847 L9.546234328787962 10.05146140650847 L9.538241593077293 10.07606051762219 L9.525167279859408 10.116299116172746 L9.523276345834923 10.122118812689793 L9.520267470693343 10.131379178178449 L9.475532044089697 10.269060664165002 L9.465729486831302 10.299229833261382 L9.454477705781217 10.333859254563128 L9.451475663407187 10.343098590955579 L9.44881078156028 10.351300253944329 L9.440144753891575 10.377971544633006 z"/>
<path fill="#a52a2a" stroke="#a52a2a" d="M8.452207839776865 10.359930701899044 L8.446768603439876 10.343190453769889 L8.420528137918506 10.262430605026951 L8.409701462639854 10.229109524759503 L8.406355426971153 10.218811485867143 L8.402585314627226 10.207208273172935 L8.388383288598437 10.163498931469595 L8.375922682260684 10.125149128480672 L8.351979668062636 10.051460107852986 L8.351979668062636 10.051460107852986 L8.351979668062636 10.051460107852986 L8.351979668062636 10.051460107852986 L8.351979668062636 10.051460107852986 L8.351979668062636 10.051460107852986 L8.472187217584791 10.421420904061502 L8.472187217584791 10.421420904061502 L8.461227632434053 10.387690769268806 L8.458754290622105 10.380078605892367 L8.454228744747176 10.366150407856365 z"/>
<path fill="#a52a2a" stroke="#a52a2a" d="M12.351979668062636 10.051460107852986 L12.472187217584791 10.421420904061502 L12.472187217584791 10.421420904061502 L12.45401082855704 10.365479730785497 L12.452207839776865 10.359930701899044 L12.44803216504913 10.347079296532893 L12.438453401833394 10.317598894677326 L12.41902028396394 10.257789907734521 L12.372621611219758 10.114989476482965 L12.357259618372362 10.067710123998335 L12.35636936513922 10.064970206278772 L12.351979668062636 10.051460107852986 L12.351979668062636 10.051460107852986 L12.351979668062636 10.051460107852986 L12.351979668062636 10.051460107852986 L12.351979668062636 10.051460107852986 L12.351979668062636 10.051460107852986 L12.351979668062636 10.051460107852986 z"/>
<path fill="#a52a2a" stroke="#a52a2a" d="M11.54623 10.051464868072495 L11.54623 10.051464868072495 L10.99911 10.051464868072495 L10.89911 10.051464868072495 L10.35198 10.051464868072495 L10.35198 10.051464868072495 L10.35198 10.051464868072495 L10.35198 10.051464868072495 L10.35198 10.051464868072495 L10.35198 10.051464868072495 L10.89911 10.051464868072495 L10.99911 10.051464868072495 L11.10911 10.051464868072495 L11.27461 10.051464868072495 L11.54623 10.051464868072495 L11.54623 10.051464868072495 L11.54623 10.051464868072495 z"/>
<path fill="#a52a2a" stroke="#a52a2a" d="M12.999107209404672 10.05146 L12.999107209404672 10.05146 L12.999107209404672 10.04165 L12.999107209404672 9.98846 L12.999107209404672 9.42146 L12.999107209404672 9.42146 z"/>
<path fill="#a52a2a" stroke="#a52a2a" d="M11.426026657031763 10.421424601201041 L11.426026657031763 10.421424601201041 L11.429866693501195 10.424214551005173 L11.478332280526857 10.459426861124063 L11.54922663827205 10.510934627021571 L11.598781306883582 10.546938201229063 L11.627770133333636 10.567999816481992 L11.633817478794887 10.572393470141133 L11.673190341794761 10.60099952955987 L11.683551777609475 10.608527553330456 L11.692709338360393 10.61518091066879 L11.722138317591815 10.636562315636207 L11.792098833416691 10.687391605664171 L11.806369897708548 10.697760140792104 L11.811651731084984 10.701597617365923 L11.823438908156568 10.710161502793557 L11.82986156967406 10.714827839528999 L11.858131875311901 10.7353674188546 L11.879579812838513 10.750950257605686 L11.894668135770369 10.761912565891958 L11.920690686228758 10.780819055487143 L11.925058312939795 10.783992322039163 L11.928950095964412 10.786819867916318 L11.932882325176662 10.78967679966888 L11.941379656755524 10.795850472435488 L11.949106720966991 10.801464513201747 L11.949106720966991 10.801464513201747 z"/>
<path fill="#a52a2a" stroke="#a52a2a" d="M10.176259384357289 10.636429152640504 L10.205670518136186 10.61506071315328 L10.222420714365732 10.60289098324008 L10.245838039040954 10.585877300971422 L10.276048586007327 10.563928053806048 L10.282801362110847 10.559021874784744 L10.295109584339064 10.550079427891802 L10.30058889337108 10.54609847685596 L10.315259664256672 10.535439537888953 L10.38468128947239 10.485001774806484 L10.412691072531914 10.464651476213538 L10.421269296486042 10.458419031696108 L10.43090091112099 10.45142125405046 L10.466776942407403 10.42535579158483 L10.472191414714288 10.42142194718717 L10.472191414714288 10.42142194718717 L9.94911135077906 10.801461859187878 L9.94911135077906 10.801461859187878 L9.962560401148334 10.791690552133314 L9.978719960213535 10.77994994523863 L9.980381833511226 10.778742523611703 L9.982867510533888 10.776936573543852 L10.001418764076544 10.763458298897302 L10.00550802275674 10.760487278558125 L10.012480875250944 10.755421204679577 L10.030151823230863 10.742582509461995 L10.033203746880371 10.740365157138402 L10.051640206945105 10.7269702848355 L10.05776844478162 10.72251785942554 L10.068401703542204 10.71479234472469 L10.092079550795741 10.69758938172338 L10.095930887632727 10.694791221721639 L10.106680729673625 10.686981004309585 L10.111603302643955 10.683404545699432 L10.122730250543485 10.675320344843522 L10.152379306165592 10.653779045018865 L10.162242297558779 10.646613162318365 L10.166778254105315 10.643317596982122 L10.171260674294276 10.64006092808645 z"/>
<path fill="#a52a2a" stroke="#a52a2a" d="M11.426027734180837 10.421419263790725 L11.426027734180837 10.421419263790725 L11.546234328787962 10.05146140650847 L11.546234328787962 10.05146140650847 L11.546234328787962 10.05146140650847 L11.546234328787962 10.05146140650847 L11.546234328787962 10.05146140650847 L11.527448126721369 10.109279391334875 L11.516972277504939 10.141520740006213 L11.510376968190634 10.161819014905422 L11.47512942063215 10.270299811751974 L11.437958685041478 10.384699572744076 L11.42878254528329 10.412940827012674 L11.4274574145849 10.417019159947712 z"/>
<path fill="#a52a2a" stroke="#a52a2a" d="M10.420066884298086 10.26101101235292 L10.418266834444172 10.255471028551437 L10.40576714133117 10.217000928837807 L10.354003511959208 10.057688858895279 L10.351979668062636 10.051460107852986 L10.351979668062636 10.051460107852986 L10.351979668062636 10.051460107852986 L10.351979668062636 10.051460107852986 L10.351979668062636 10.051460107852986 L10.351979668062636 10.051460107852986 L10.472187217584791 10.421420904061502 L10.472187217584791 10.421420904061502 L10.464746619665117 10.398521098337381 L10.452207839776865 10.359930701899044 L10.422922351264926 10.269799236027714 z"/>
<path fill="#a52a2a" stroke="#a52a2a" d="M12.35198 10.051464868072495 L12.35198 10.051464868072495 L12.35198 10.051464868072495 L12.35198 10.051464868072495 L12.35198 10.051464868072495 L12.35198 10.051464868072495 L12.35198 10.051464868072495 L12.35198 10.051464868072495 L12.66163 10.051464868072495 L12.99911 10.051464868072495 L12.99911 10.051464868072495 z"/>
<path fill="#a52a2a" stroke="#a52a2a" d="M12.472191414714288 10.42142194718717 L12.472191414714288 10.42142194718717 L11.94911135077906 10.801461859187878 L11.94911135077906 10.801461859187878 L11.955309180623287 10.796958872224705 L11.962079802179332 10.792039727723209 L11.96520131783655 10.789771813846405 L11.968277632023558 10.787536740760038 L11.97171141681428 10.785041950077561 L11.991908488004492 10.770367918916719 L12.001418764076544 10.763458298897302 L12.003410751960262 10.762011034984509 L12.019489418650199 10.750329199840646 L12.040230135732152 10.73526018681928 L12.044869585389058 10.731889429336999 L12.053326470780293 10.7257451424458 L12.057090370157042 10.72301050947746 L12.067162137573359 10.715692942117325 L12.114830101213936 10.681060139309032 L12.134070729748727 10.667081004412955 L12.139961045742032 10.662801439340427 L12.146569882547551 10.65799983834057 L12.171208927739091 10.640098524159471 L12.174927625645626 10.637396731981568 L12.192488535430202 10.62463798419261 L12.22159870044315 10.603488211313449 L12.28735991939249 10.555709889053281 L12.293620796159455 10.551161095819479 L12.29754172500415 10.548312374264526 L12.324491572297884 10.52873216408238 L12.430756971822987 10.45152583207191 z"/>
</svg>