<?xml version="1.0" encoding="UTF-8"?>
<!-- Generated by jsxcad -->
<!DOCTYPE svg PUBLIC "-//W3C//DTD SVG 1.1 Tiny//EN" "http://www.w3.org/Graphics/SVG/1.1/DTD/svg11-tiny.dtd">
<svg baseProfile="tiny" height="20.000000000000014mm" width="39.51056516295156mm" viewBox="-30.000000000000014 -10.000000000000007 39.51056516295156 20.000000000000014" version="1.1" stroke="black" stroke-width=".1" fill="none" xmlns="http://www.w3.org/2000/svg">
<path fill="#a52a2a" stroke="#a52a2a" d="M-15.535898384862245 -2.4999999999999996 L-15.535898384862245 -2.4999999999999996 L-15.535898384862245 -2.4999999999999996 L-15.535898384862245 -2.4999999999999996 L-15.102885682970024 -2.2499999999999982 L-15.102885682970024 -2.2499999999999982 L-15.535898384862245 -2.4999999999999996 L-15.535898384862245 -2.4999999999999996 z"/>
<path fill="#a52a2a" stroke="#a52a2a" d="M-22.46410161513775 2.5000000000000004 L-22.46410161513775 2.5000000000000004 L-22.46410161513775 2.5000000000000004 L-22.46410161513775 2.5000000000000004 L-22.46410161513775 2.5000000000000004 L-22.46410161513775 2.5000000000000004 L-22.46410161513775 2.5000000000000004 L-22.89711431702997 2.25 L-22.89711431702997 2.25 L-22.46410161513775 2.5000000000000004 z"/>
<path fill="#a52a2a" stroke="#a52a2a" d="M-22.46410161513775 -2.5000000000000018 L-22.69097707212763 -2.3690133938343743 L-22.781570591230366 -2.3167092011935755 L-22.897114317029967 -2.250000000000002 L-22.897114317029967 -2.250000000000002 L-22.785513435908133 -2.314432798757493 L-22.46410161513775 -2.5000000000000018 L-22.46410161513775 -2.5000000000000018 L-22.46410161513775 -2.5000000000000018 L-22.46410161513775 -2.5000000000000018 z"/>
<path fill="#a52a2a" stroke="#a52a2a" d="M-22.89711431702997 -0.8499999999999998 L-22.89711431702997 -0.8499999999999998 L-22.89711431702997 -0.8499999999999998 L-22.89711431702997 -0.8499999999999998 L-22.89711431702997 -0.8499999999999998 L-22.89711431702997 -0.8499999999999998 L-22.89711431702997 -2.25 L-22.89711431702997 -2.25 L-22.89711431702997 -1.6326412291957688 L-22.89711431702997 -0.9392304845413261 z"/>
<path fill="#a52a2a" stroke="#a52a2a" d="M-22.89711431702997 0.6499999999999999 L-22.89711431702997 0.6499999999999999 L-22.89711431702997 0.6499999999999999 L-22.89711431702997 0.6499999999999999 L-22.89711431702997 0.6499999999999999 L-22.89711431702997 0.6499999999999999 L-22.89711431702997 1.9881133534875592 L-22.89711431702997 2.249999999999999 L-22.89711431702997 2.249999999999999 L-22.89711431702997 0.8887433846098214 L-22.89711431702997 0.6499999999999999 z"/>
<path fill="#a52a2a" stroke="#a52a2a" d="M-15.535898384862243 2.4999999999999987 L-15.535898384862243 2.4999999999999987 L-15.535898384862243 2.4999999999999987 L-15.102885682970022 2.2499999999999982 L-15.102885682970022 2.2499999999999982 L-15.535898384862243 2.4999999999999987 L-15.535898384862243 2.4999999999999987 z"/>
<path fill="#a52a2a" stroke="#a52a2a" d="M-15.102885682970026 0.7499999999999998 L-15.102885682970026 0.6499999999999999 L-15.102885682970026 0.6499999999999999 L-15.102885682970026 0.6499999999999999 L-15.102885682970026 0.6499999999999999 L-15.102885682970026 0.6499999999999999 L-15.102885682970026 0.6499999999999999 L-15.102885682970026 0.6499999999999999 L-15.102885682970026 0.9965052583543976 L-15.102885682970026 1.6281169072128787 L-15.102885682970026 1.644602206558987 L-15.102885682970026 1.6487273678026797 L-15.102885682970026 1.8080138539085686 L-15.102885682970026 1.8389651410106813 L-15.102885682970026 2.042186826478926 L-15.102885682970026 2.067993708731121 L-15.102885682970026 2.119058939519368 L-15.102885682970026 2.2499999999999996 L-15.102885682970026 2.2499999999999996 L-15.102885682970026 1.2242785792574935 L-15.102885682970026 1.1392304845413264 z"/>
<path fill="#a52a2a" stroke="#a52a2a" d="M-15.102885682970026 -0.85 L-15.102885682970026 -1.0967064371832427 L-15.102885682970026 -2.2499999999999996 L-15.102885682970026 -2.2499999999999996 L-15.102885682970026 -2.1842016598330947 L-15.102885682970026 -2.165777829960092 L-15.102885682970026 -2.136965573922169 L-15.102885682970026 -2.116772631866262 L-15.102885682970026 -1.6281169072128778 L-15.102885682970026 -1.5954366758525995 L-15.102885682970026 -1.5761819918235926 L-15.102885682970026 -1.4679245616680983 L-15.102885682970026 -0.85 L-15.102885682970026 -0.85 L-15.102885682970026 -0.85 z"/>
<path fill="#a52a2a" stroke="#a52a2a" d="M-22.89711431702997 0.6499999999999999 L-22.89711431702997 0.6499999999999999 L-22.89711431702997 0.6499999999999999 L-23.358616057902076 0.6499999999999999 L-23.37567521383281 0.6499999999999999 L-23.985655302923742 0.6499999999999999 L-23.99249533936414 0.6499999999999999 L-24.23707285857085 0.6499999999999999 L-24.248885923986528 0.6499999999999999 L-24.67128283060655 0.6499999999999999 L-24.674728308019457 0.6499999999999999 L-24.79792740578363 0.6499999999999999 L-24.815303005828056 0.6499999999999999 L-25.436598110119306 0.6499999999999999 L-25.590795006249746 0.6499999999999999 L-25.649688130874242 0.6499999999999999 L-26.046846583736524 0.6499999999999999 L-26.172727272727272 0.6499999999999999 L-26.570216414528527 0.6499999999999999 L-26.7100260707997 0.6499999999999999 L-27.338627052690512 0.6499999999999999 L-27.56251522077836 0.6499999999999999 L-27.585624112102913 0.6499999999999999 L-27.88310889132455 0.6499999999999999 L-28 0.6499999999999999 L-28 0.6499999999999999 L-28 0.6499999999999999 L-28 0.6499999999999999 L-28 0.6499999999999999 L-28 0.6499999999999999 L-28 0.6499999999999999 L-28 0.6499999999999999 L-26.849999999999998 0.6499999999999999 L-26.44782608695652 0.6499999999999999 L-26.23333333333333 0.6499999999999999 L-26 0.6499999999999999 L-22.89711431702997 0.6499999999999999 L-22.89711431702997 0.6499999999999999 L-22.89711431702997 0.6499999999999999 L-22.89711431702997 0.6499999999999999 z"/>
<path fill="#a52a2a" stroke="#a52a2a" d="M-15.102885682970026 0.6499999999999999 L-15.102885682970026 0.6499999999999999 L-15.102885682970026 0.6499999999999999 L-14.909141201199514 0.6499999999999999 L-10 0.6499999999999999 L-10 0.6499999999999999 L-10 0.6499999999999999 L-10 0.6499999999999999 L-10 0.6499999999999999 L-10 0.6499999999999999 L-14.01027500100807 0.6499999999999999 L-15.102885682970026 0.6499999999999999 L-15.102885682970026 0.6499999999999999 L-15.102885682970026 0.6499999999999999 L-15.102885682970026 0.6499999999999999 z"/>
<path fill="#a52a2a" stroke="#a52a2a" d="M-22.464101615137753 2.5 L-24.999999999999996 2.5 L-28 2.5 L-28 2.5 L-28 2.5 L-28 2.5 L-27.81445855765802 2.5 L-27.777777777777775 2.5 L-27.422399733193895 2.5 L-27.18181818181818 2.5 L-26.94762155113772 2.5 L-26.852208109008643 2.5 L-25.866025403784437 2.5 L-25.67047128034924 2.5 L-24.999999999999996 2.5 L-24.611781715544904 2.5 L-23.643559351908507 2.5 L-22.464101615137753 2.5 L-22.464101615137753 2.5 L-22.464101615137753 2.5 L-22.464101615137753 2.5 L-22.464101615137753 2.5 L-22.464101615137753 2.5 L-22.464101615137753 2.5 z"/>
<path fill="#a52a2a" stroke="#a52a2a" d="M-15.535898384862245 2.5 L-15.535898384862245 2.5 L-15.535898384862245 2.5 L-15.535898384862245 2.5 L-15.535898384862245 2.5 L-10 2.5 L-10 2.5 z"/>
<path fill="#a52a2a" stroke="#a52a2a" d="M-10 -2.5 L-10 -0.85 L-10 -0.85 L-10 -0.85 L-10 -0.9252074993050414 L-10 -2.5 z"/>
<path fill="#a52a2a" stroke="#a52a2a" d="M-10 0.6499999999999999 L-10 0.6499999999999999 L-10 0.6499999999999999 L-10 2.5 L-10 2.5 L-10 0.8759828925227933 L-10 0.778968522326666 L-10 0.6983855717411489 L-10 0.6896551724137937 L-10 0.6499999999999999 L-10 0.6499999999999999 L-10 0.6499999999999999 z"/>
<path fill="#a52a2a" stroke="#a52a2a" d="M-22.89711431702997 -0.85 L-22.89711431702997 -0.85 L-22.89711431702997 -0.85 L-22.89711431702997 -0.85 L-23.4 -0.85 L-27.23333333333333 -0.85 L-27.62173913043478 -0.85 L-28 -0.85 L-28 -0.85 L-28 -0.85 L-28 -0.85 L-28 -0.85 L-28 -0.85 L-28 -0.85 L-27.938771324027144 -0.85 L-27.400082669760934 -0.85 L-27.387978012400453 -0.85 L-27.270703257687774 -0.85 L-26.132425803993595 -0.85 L-26.07432308969908 -0.85 L-25.354545454545452 -0.85 L-25.31648850205988 -0.85 L-24.597309682011964 -0.85 L-24.56802762563442 -0.85 L-24.288806219127952 -0.85 L-23.963365926403963 -0.85 L-23.93190200199919 -0.85 L-23.867369141265577 -0.85 L-23.86113003351788 -0.85 L-23.63987451100263 -0.85 L-23.618483284439108 -0.85 L-23.490371250568927 -0.85 L-23.47798523863631 -0.85 L-23.1584718586363 -0.85 L-23.127580954653617 -0.85 L-22.89711431702997 -0.85 L-22.89711431702997 -0.85 z"/>
<path fill="#a52a2a" stroke="#a52a2a" d="M-15.102885682970026 -0.85 L-15.102885682970026 -0.85 L-15.102885682970026 -0.85 L-11.376253097075663 -0.85 L-11.196012562189864 -0.85 L-10.871875000000003 -0.85 L-10.565339214155587 -0.85 L-10.06382862095305 -0.85 L-10 -0.85 L-10 -0.85 L-10 -0.85 L-15.102885682970026 -0.85 z"/>
<path fill="#a52a2a" stroke="#a52a2a" d="M-28 -0.85 L-28 -0.85 L-28 -0.85 L-28 -0.85 L-28 -0.85 L-28 -1.3333333333333333 L-28 -2 L-28 -2.0999999999999996 L-28 -2.5 L-28 -2.5 L-28 -2.5 L-28 -2.5 L-28 -2.5 L-28 -0.85 L-28 -0.85 z"/>
<path fill="#a52a2a" stroke="#a52a2a" d="M-28 2.5 L-28 2.5 L-28 0.6499999999999999 L-28 0.6499999999999999 L-28 0.6499999999999999 L-28 0.6499999999999999 L-28 0.6499999999999999 L-28 0.6499999999999999 L-28 0.6499999999999999 L-28 0.6499999999999999 L-28 2.5 L-28 2.5 z"/>
<path fill="#a52a2a" stroke="#a52a2a" d="M-22.785513435908136 -2.3144327987574913 L-22.89711431702997 -2.25 L-22.89711431702997 -0.8499999999999999 L-23.127580954653617 -0.8499999999999999 L-23.1584718586363 -0.8499999999999999 L-23.47798523863631 -0.8499999999999999 L-23.490371250568927 -0.8499999999999999 L-23.618483284439108 -0.8499999999999999 L-23.63987451100263 -0.8499999999999999 L-23.86113003351788 -0.8499999999999999 L-23.867369141265577 -0.8499999999999999 L-23.93190200199919 -0.8499999999999999 L-23.963365926403963 -0.8499999999999999 L-24.288806219127952 -0.8499999999999999 L-24.56802762563442 -0.8499999999999999 L-24.597309682011964 -0.8499999999999999 L-25.31648850205988 -0.8499999999999999 L-25.354545454545452 -0.8499999999999999 L-26.07432308969908 -0.8499999999999999 L-26.132425803993595 -0.8499999999999999 L-27.270703257687774 -0.8499999999999999 L-27.387978012400453 -0.8499999999999999 L-27.400082669760934 -0.8499999999999999 L-27.938771324027144 -0.8499999999999999 L-28 -0.8499999999999999 L-28 -2.4999999999999996 L-27.195987083184757 -2.4999999999999996 L-26.732050807568875 -2.4999999999999996 L-25.721687836487032 -1.9166666666666665 L-24.999999999999996 -1.4999999999999998 L-23.556624327025933 -2.333333333333333 L-23.26794919243112 -2.4999999999999996 L-23.139086014734076 -2.4999999999999996 L-23.02623513903746 -2.4999999999999996 L-22.979274057836307 -2.4999999999999996 L-22.969961956720347 -2.4999999999999996 L-22.938034752894193 -2.4999999999999996 L-22.91954816792014 -2.4999999999999996 L-22.87344234108031 -2.4999999999999996 L-22.464101615137753 -2.4999999999999996 z"/>
<path fill="#a52a2a" stroke="#a52a2a" d="M-15.102885682970026 -1.6281169072128776 L-15.102885682970026 -2.116772631866262 L-15.102885682970026 -2.136965573922169 L-15.102885682970026 -2.1657778299600916 L-15.102885682970026 -2.1842016598330942 L-15.102885682970026 -2.249999999999999 L-15.535898384862245 -2.4999999999999996 L-10 -2.4999999999999996 L-10 -0.9252074993050414 L-10 -0.8499999999999999 L-10.06382862095305 -0.8499999999999999 L-10.565339214155587 -0.8499999999999999 L-10.871875000000003 -0.8499999999999999 L-11.196012562189864 -0.8499999999999999 L-11.376253097075663 -0.8499999999999999 L-15.102885682970026 -0.8499999999999999 L-15.102885682970026 -1.467924561668098 L-15.102885682970026 -1.5761819918235924 L-15.102885682970026 -1.5954366758525995 z"/>
<path fill="#a52a2a" stroke="#a52a2a" d="M-22.89711431702997 0.8887433846098215 L-22.897114317029974 2.249999999999999 L-22.464101615137753 2.4999999999999996 L-23.643559351908507 2.4999999999999996 L-24.611781715544904 2.4999999999999996 L-24.999999999999996 2.4999999999999996 L-25.67047128034924 2.4999999999999996 L-25.866025403784437 2.4999999999999996 L-26.852208109008643 2.4999999999999996 L-26.94762155113772 2.4999999999999996 L-27.18181818181818 2.4999999999999996 L-27.422399733193895 2.4999999999999996 L-27.777777777777775 2.4999999999999996 L-27.81445855765802 2.4999999999999996 L-28 2.4999999999999996 L-28 0.6499999999999999 L-27.88310889132455 0.6499999999999999 L-27.585624112102913 0.6499999999999999 L-27.56251522077836 0.6499999999999999 L-27.338627052690512 0.6499999999999999 L-26.7100260707997 0.6499999999999999 L-26.570216414528527 0.6499999999999999 L-26.172727272727272 0.6499999999999999 L-26.046846583736524 0.6499999999999999 L-25.649688130874242 0.6499999999999999 L-25.590795006249746 0.6499999999999999 L-25.436598110119306 0.6499999999999999 L-24.815303005828056 0.6499999999999999 L-24.79792740578363 0.6499999999999999 L-24.674728308019457 0.6499999999999999 L-24.67128283060655 0.6499999999999999 L-24.248885923986528 0.6499999999999999 L-24.23707285857085 0.6499999999999999 L-23.99249533936414 0.6499999999999999 L-23.985655302923742 0.6499999999999999 L-23.37567521383281 0.6499999999999999 L-23.358616057902076 0.6499999999999999 L-22.89711431702997 0.6499999999999999 z"/>
<path fill="#a52a2a" stroke="#a52a2a" d="M-15.102885682970026 1.6281169072128785 L-15.102885682970026 0.9965052583543976 L-15.102885682970026 0.6499999999999999 L-14.01027500100807 0.6499999999999999 L-10 0.6499999999999999 L-10 0.6896551724137937 L-10 0.6983855717411489 L-10 0.7789685223266659 L-10 0.8759828925227933 L-10 2.4999999999999996 L-15.535898384862245 2.4999999999999996 L-15.102885682970026 2.249999999999999 L-15.102885682970026 2.1190589395193675 L-15.102885682970026 2.067993708731121 L-15.102885682970026 2.0421868264789254 L-15.102885682970026 1.838965141010681 L-15.102885682970026 1.8080138539085684 L-15.102885682970026 1.6487273678026797 L-15.102885682970026 1.6446022065589867 z"/>
<path fill="#a52a2a" stroke="#a52a2a" d="M-22.464101615137753 -2.4999999999999996 L-23.26794919243112 -2.4999999999999996 L-24.999999999999996 -1.4999999999999998 L-26.732050807568875 -2.4999999999999996 L-28 -2.4999999999999996 L-28 -2.0999999999999996 L-28 -1.9999999999999996 L-28 -1.333333333333333 L-28 -0.8499999999999999 L-27.62173913043478 -0.8499999999999999 L-27.23333333333333 -0.8499999999999999 L-23.4 -0.8499999999999999 L-22.89711431702997 -0.8499999999999999 L-22.89711431702997 -0.9392304845413262 L-22.89711431702997 -1.6326412291957688 L-22.89711431702997 -2.25 L-22.781570591230366 -2.316709201193574 L-22.690977072127634 -2.369013393834374 z"/>
<path fill="#a52a2a" stroke="#a52a2a" d="M-15.535898384862245 -2.4999999999999996 L-15.102885682970026 -2.249999999999999 L-15.102885682970026 -1.0967064371832425 L-15.102885682970026 -0.8499999999999999 L-10 -0.8499999999999999 L-10 -2.4999999999999996 z"/>
<path fill="#a52a2a" stroke="#a52a2a" d="M-22.464101615137753 2.4999999999999996 L-22.897114317029974 2.249999999999999 L-22.89711431702997 1.988113353487559 L-22.89711431702997 0.6499999999999999 L-26 0.6499999999999999 L-26.23333333333333 0.6499999999999999 L-26.44782608695652 0.6499999999999999 L-26.849999999999998 0.6499999999999999 L-28 0.6499999999999999 L-28 2.4999999999999996 L-24.999999999999996 2.4999999999999996 z"/>
<path fill="#a52a2a" stroke="#a52a2a" d="M-15.102885682970026 0.6499999999999999 L-15.102885682970026 0.7499999999999998 L-15.102885682970026 1.1392304845413261 L-15.102885682970026 1.2242785792574933 L-15.102885682970026 2.249999999999999 L-15.535898384862245 2.4999999999999996 L-10 2.4999999999999996 L-10 0.6499999999999999 L-14.909141201199514 0.6499999999999999 z"/>
<path fill="#a52a2a" stroke="#a52a2a" d="M-23.267949192431118 -2.500000000000001 L-23.267949192431118 -2.500000000000001 L-23.556624327025933 -2.3333333333333335 L-24.999999999999996 -1.5000000000000009 L-24.999999999999996 -1.5000000000000009 L-23.267949192431118 -2.500000000000001 z"/>
<path fill="#a52a2a" stroke="#a52a2a" d="M-24.999999999999996 -1.4999999999999998 L-25.72168783648703 -1.9166666666666659 L-26.732050807568875 -2.499999999999999 L-26.732050807568875 -2.499999999999999 L-26.732050807568875 -2.499999999999999 L-24.999999999999996 -1.4999999999999998 z"/>
<path fill="#a52a2a" stroke="#a52a2a" d="M-28 -2.5 L-28 -2.5 L-28 -2.5 L-28 -2.5 L-28 -2.5 L-26.732050807568875 -2.5 L-26.732050807568875 -2.5 L-26.732050807568875 -2.5 L-27.195987083184757 -2.5 z"/>
<path fill="#a52a2a" stroke="#a52a2a" d="M-22.464101615137753 -2.5 L-22.464101615137753 -2.5 L-22.464101615137753 -2.5 L-22.464101615137753 -2.5 L-22.87344234108031 -2.5 L-22.91954816792014 -2.5 L-22.938034752894193 -2.5 L-22.969961956720347 -2.5 L-22.979274057836307 -2.5 L-23.02623513903746 -2.5 L-23.139086014734076 -2.5 L-23.26794919243112 -2.5 L-23.26794919243112 -2.5 L-23.26794919243112 -2.5 L-22.464101615137753 -2.5 z"/>
<path fill="#a52a2a" stroke="#a52a2a" d="M-15.535898384862245 -2.5 L-10 -2.5 L-10 -2.5 L-15.535898384862245 -2.5 L-15.535898384862245 -2.5 L-15.535898384862245 -2.5 L-15.535898384862245 -2.5 L-15.535898384862245 -2.5 z"/>
<path fill="#a52a2a" stroke="#a52a2a" d="M-20.29903810567665 -3.750000000000002 L-22.54903810567665 -2.4509618943233447 L-22.89711431702997 -2.2500000000000013 L-22.89711431702997 -2.2500000000000013 L-22.379293945158086 -2.548963731092105 L-22.210441763918336 -2.6464505833841314 L-22.198233489175742 -2.6534990340931093 L-21.831065843032977 -2.865483373431354 L-21.757333015890836 -2.9080530410299814 L-20.64341715320575 -3.5511726642058106 L-20.337700108630607 -3.7276784821871254 L-19.607475033859018 -4.149274125675516 L-19.45783676019396 -4.23566782325711 L-19.143382505222466 -4.417218072012725 L-18.999999999999996 -4.5 L-18.999999999999996 -4.5 L-19.044913494658072 -4.474069181768914 L-19.68841297082949 -4.102544585977962 L-19.805464018881267 -4.0349651318763415 L-19.837173618309755 -4.016657586110408 z"/>
<path fill="#a52a2a" stroke="#a52a2a" d="M-15.450961894323338 -2.45096189432334 L-15.620695068003199 -2.548957387837817 L-16.40192378864668 -2.9999999999999987 L-16.412026282846575 -3.005832677745795 L-18.128167068055465 -3.9966470220534434 L-18.999999999999993 -4.499999999999997 L-18.999999999999993 -4.499999999999997 L-18.856691666128867 -4.417260894862386 L-18.605057311562867 -4.271979732516347 L-18.428835572308024 -4.1702380639205 L-16.75810192300048 -3.2056395417486243 L-15.102885682970024 -2.249999999999999 L-15.102885682970024 -2.249999999999999 z"/>
<path fill="#a52a2a" stroke="#a52a2a" d="M-17.70096189432334 3.7499999999999987 L-16.47424817978401 3.0417565066921104 L-15.582210071560002 2.526738064781575 L-15.450961894323338 2.4509618943233398 L-15.102885682970024 2.2499999999999982 L-15.102885682970024 2.2499999999999982 L-18.36578244857023 4.133834325957237 L-18.428835572308024 4.1702380639205 L-18.720634055422398 4.3387079966957085 L-18.999999999999996 4.499999999999998 L-18.999999999999996 4.499999999999998 z"/>
<path fill="#a52a2a" stroke="#a52a2a" d="M-19.86394806389112 4.001199352746605 L-19.82381862008044 4.02436809793313 L-19.603867415653305 4.151356985017719 L-19.524741237970158 4.19704050500303 L-19.45876869153558 4.235129772446157 L-18.999999999999996 4.500000000000001 L-18.999999999999996 4.500000000000001 L-19.338951791187505 4.304306092115588 L-19.607475033859018 4.149274125675516 L-19.699299664108448 4.096259150682771 L-20.876399556617027 3.4166602108798627 L-21.302754717430822 3.1705039440136327 L-21.358381724576134 3.1383876764640735 L-21.743880458810725 2.915819878481473 L-21.77178664139986 2.8997082364515814 L-21.783560571279242 2.8929105548662988 L-21.826981377882234 2.867841540485632 L-21.831065843032977 2.865483373431354 L-21.99456454682681 2.771087352783831 L-22.220289093920854 2.640765224756378 L-22.89711431702997 2.2500000000000004 L-22.89711431702997 2.2500000000000004 L-22.549038105676658 2.4509618943233407 L-21.598076211353312 3 z"/>
<path fill="#a52a2a" stroke="#a52a2a" d="M-22.89711431702997 0.6499999999999999 L-22.89711431702997 0.6499999999999999 L-22.89711431702997 0.6499999999999999 L-22.89711431702997 0.6499999999999999 L-22.89711431702997 0.6499999999999999 L-22.89711431702997 0.6499999999999999 L-22.89711431702997 2.102885682970026 L-22.89711431702997 2.249999999999999 L-22.89711431702997 2.249999999999999 z"/>
<path fill="#a52a2a" stroke="#a52a2a" d="M-22.89711431702997 -0.8499999999999999 L-22.89711431702997 -0.8499999999999999 L-22.89711431702997 -0.8499999999999999 L-22.89711431702997 -0.8499999999999999 L-22.89711431702997 -0.8499999999999999 L-22.89711431702997 -0.8499999999999999 L-22.89711431702997 -0.8499999999999999 L-22.89711431702997 -0.8499999999999999 L-22.89711431702997 -2.25 L-22.89711431702997 -2.25 L-22.89711431702997 -2.1028856829700255 L-22.89711431702997 -0.8499999999999999 z"/>
<path fill="#a52a2a" stroke="#a52a2a" d="M-15.102885682970026 0.7499999999999998 L-15.102885682970026 0.6499999999999999 L-15.102885682970026 0.6499999999999999 L-15.102885682970026 0.6499999999999999 L-15.102885682970026 0.6499999999999999 L-15.102885682970026 0.6499999999999999 L-15.102885682970026 0.6499999999999999 L-15.102885682970026 0.6499999999999999 L-15.102885682970026 0.6499999999999999 L-15.102885682970026 0.6499999999999999 L-15.102885682970026 0.6499999999999999 L-15.102885682970026 0.6499999999999999 L-15.102885682970026 0.6499999999999999 L-15.102885682970026 0.6614958340002689 L-15.102885682970026 1.6053082719276857 L-15.102885682970026 1.6281169072128787 L-15.102885682970026 1.6425532828187097 L-15.102885682970026 1.6487273678026797 L-15.102885682970026 1.6895180814185482 L-15.102885682970026 1.7841938236044328 L-15.102885682970026 1.8389651410106813 L-15.102885682970026 2.0050532741326523 L-15.102885682970026 2.067993708731121 L-15.102885682970026 2.2499999999999996 L-15.102885682970026 2.2499999999999996 L-15.102885682970026 2.102885682970026 L-15.102885682970026 2.03778749815273 L-15.102885682970026 1.8411080262554587 z"/>
<path fill="#a52a2a" stroke="#a52a2a" d="M-15.102885682970026 -0.85 L-15.102885682970026 -0.85 L-15.102885682970026 -0.85 L-15.102885682970026 -0.85 L-15.102885682970026 -0.85 L-15.102885682970026 -0.85 L-15.102885682970026 -1.8525421492831182 L-15.102885682970026 -2.0176613174276485 L-15.102885682970026 -2.102885682970026 L-15.102885682970026 -2.2499999999999996 L-15.102885682970026 -2.2499999999999996 L-15.102885682970026 -2.1842016598330947 L-15.102885682970026 -2.030860511039837 L-15.102885682970026 -1.6281169072128778 L-15.102885682970026 -1.5781029463123777 L-15.102885682970026 -1.4679245616680983 L-15.102885682970026 -1.0895440831786158 L-15.102885682970026 -0.85 L-15.102885682970026 -0.85 z"/>
<path fill="#a52a2a" stroke="#a52a2a" d="M-15.102885682970026 0.6499999999999999 L-15.102885682970026 0.6499999999999999 L-15.102885682970026 0.6499999999999999 L-15.102885682970026 0.6499999999999999 L-15.102885682970026 0.6499999999999999 L-15.102885682970026 0.6499999999999999 L-15.102885682970026 0.6499999999999999 L-15.102885682970026 0.6499999999999999 L-15.102885682970026 0.6499999999999999 L-15.102885682970026 0.6499999999999999 L-13.742420148322605 0.6499999999999999 L-13.649999999999999 0.6499999999999999 L-13.269238815542511 0.6499999999999999 L-13.269238815542511 0.6499999999999999 L-13.269238815542511 0.6499999999999999 L-13.269238815542511 0.6499999999999999 L-13.269238815542511 0.6499999999999999 L-13.269238815542511 0.6499999999999999 L-13.540570288306924 0.6499999999999999 L-15.102885682970026 0.6499999999999999 L-15.102885682970026 0.6499999999999999 z"/>
<path fill="#a52a2a" stroke="#a52a2a" d="M-22.89711431702997 0.6499999999999999 L-22.89711431702997 0.6499999999999999 L-22.89711431702997 0.6499999999999999 L-22.89711431702997 0.6499999999999999 L-22.89711431702997 0.6499999999999999 L-23.358616057902076 0.6499999999999999 L-23.440459890014782 0.6499999999999999 L-23.985655302923742 0.6499999999999999 L-24.23707285857085 0.6499999999999999 L-24.67128283060655 0.6499999999999999 L-24.730761184457485 0.6499999999999999 L-24.730761184457485 0.6499999999999999 L-24.730761184457485 0.6499999999999999 L-24.730761184457485 0.6499999999999999 L-24.730761184457485 0.6499999999999999 L-24.730761184457485 0.6499999999999999 L-24.730761184457485 0.6499999999999999 L-24.562154137085326 0.6499999999999999 L-24.349999999999998 0.6499999999999999 L-22.89711431702997 0.6499999999999999 z"/>
<path fill="#a52a2a" stroke="#a52a2a" d="M-19.57872038220178 5.172513655429089 L-19.86772512306065 5.132274876939346 L-21.71622018084162 4.874904762703898 L-21.71622018084162 4.874904762703898 L-21.71622018084162 4.874904762703898 L-21.71622018084162 4.874904762703898 L-21.71622018084162 4.874904762703898 L-17.650437316139563 5.440992833072374 L-17.650437316139563 5.440992833072374 L-17.650437316139563 5.440992833072374 L-17.650437316139563 5.440992833072374 L-18.344374413998732 5.344374413998737 L-18.999999999999996 5.253090192677966 z"/>
<path fill="#a52a2a" stroke="#a52a2a" d="M-21.71622018084162 4.874904762703899 L-21.71622018084162 4.874904762703899 L-23.242640687119284 4.242640687119286 L-23.242640687119284 4.242640687119286 L-22.4122704029604 4.586591320609497 L-21.71622018084162 4.874904762703899 L-21.71622018084162 4.874904762703899 L-21.71622018084162 4.874904762703899 z"/>
<path fill="#a52a2a" stroke="#a52a2a" d="M-13.269238815542511 0.6499999999999999 L-13.269238815542511 0.6499999999999999 L-13.269238815542511 0.6499999999999999 L-14.757359312880713 4.242640687119284 L-14.757359312880713 4.242640687119284 L-14.75444002825242 4.23559291057723 L-13.723083601352128 1.74567823711389 L-13.635463661818916 1.5341449907584974 L-13.585786437626904 1.4142135623730945 L-13.564231048099149 1.362174248632956 L-13.556596081217945 1.3437418080400825 L-13.269238815542511 0.6499999999999999 L-13.269238815542511 0.6499999999999999 L-13.269238815542511 0.6499999999999999 z"/>
<path fill="#a52a2a" stroke="#a52a2a" d="M-17.650437316139563 5.440992833072373 L-17.650437316139563 5.440992833072373 L-17.650437316139563 5.440992833072373 L-17.650437316139563 5.440992833072373 L-16.171572875253805 4.828427124746189 L-15.431137392183192 4.521728705596066 L-14.757359312880713 4.242640687119284 L-14.757359312880713 4.242640687119284 z"/>
<path fill="#a52a2a" stroke="#a52a2a" d="M-24.3207050501581 1.6399630807598589 L-23.828427124746188 2.8284271247461903 L-23.73054269035659 3.064741053794782 L-23.67278119277152 3.2041896446476357 L-23.657183086916916 3.241846803349151 L-23.514517938095373 3.586270940512096 L-23.345834438214105 3.993508933674017 L-23.30858204192116 4.083444174035343 L-23.242640687119284 4.242640687119285 L-23.242640687119284 4.242640687119285 L-24.730761184457485 0.6499999999999998 L-24.730761184457485 0.6499999999999998 L-24.730761184457485 0.6499999999999998 L-24.730761184457485 0.6499999999999998 L-24.730761184457485 0.6499999999999998 L-24.730761184457485 0.6499999999999998 L-24.730761184457485 0.6499999999999998 L-24.704945044287165 0.7123256757273129 L-24.483373373557164 1.2472470082413476 z"/>
<path fill="#a52a2a" stroke="#a52a2a" d="M-13.35208152801713 -0.85 L-13.35208152801713 -0.85 L-13.35208152801713 -0.85 L-13.35208152801713 -0.85 L-13.85 -0.85 L-13.964864864864865 -0.85 L-15.102885682970026 -0.85 L-15.102885682970026 -0.85 L-15.102885682970026 -0.85 L-15.102885682970026 -0.85 L-15.102885682970026 -0.85 L-15.102885682970026 -0.85 L-15.102885682970026 -0.85 L-15.102885682970026 -0.85 L-13.505919516091764 -0.85 L-13.35208152801713 -0.85 L-13.35208152801713 -0.85 z"/>
<path fill="#a52a2a" stroke="#a52a2a" d="M-22.89711431702997 -0.85 L-22.89711431702997 -0.85 L-22.89711431702997 -0.85 L-22.89711431702997 -0.85 L-22.89711431702997 -0.85 L-22.89711431702997 -0.85 L-24.15 -0.85 L-24.330798551621115 -0.85 L-24.647918471982866 -0.85 L-24.647918471982866 -0.85 L-24.647918471982866 -0.85 L-24.647918471982866 -0.85 L-24.647918471982866 -0.85 L-24.647918471982866 -0.85 L-24.597309682011964 -0.85 L-24.56088855868515 -0.85 L-24.288806219127952 -0.85 L-23.93190200199919 -0.85 L-23.86113003351788 -0.85 L-23.618483284439108 -0.85 L-23.47798523863631 -0.85 L-23.173317213775423 -0.85 L-23.127580954653617 -0.85 L-22.89711431702997 -0.85 L-22.89711431702997 -0.85 L-22.89711431702997 -0.85 z"/>
<path fill="#a52a2a" stroke="#a52a2a" d="M-21.63227866714877 -4.909674476121603 L-21.63227866714877 -4.909674476121603 L-21.63227866714877 -4.909674476121603 L-21.63227866714877 -4.909674476121603 L-21.63227866714877 -4.909674476121603 L-21.63227866714877 -4.909674476121603 L-20.977626652363234 -5.003196192519537 L-20.01372551263724 -5.140896355337536 L-19.83333333333333 -5.166666666666666 L-18.999999999999996 -5.285714285714286 L-18.374999999999996 -5.375 L-17.717782666402282 -5.468888190513959 L-17.717782666402282 -5.468888190513959 L-17.717782666402282 -5.468888190513959 L-17.717782666402282 -5.468888190513959 L-21.63227866714877 -4.909674476121603 L-21.63227866714877 -4.909674476121603 z"/>
<path fill="#a52a2a" stroke="#a52a2a" d="M-15.102885682970026 -2.249999999999999 L-16.758101923000485 -3.205639541748625 L-18.428835572308028 -4.170238063920501 L-18.60505731156287 -4.271979732516348 L-18.85669166612887 -4.4172608948623875 L-18.999999999999996 -4.499999999999999 L-19.14338250522247 -4.417218072012723 L-19.457836760193963 -4.235667823257107 L-19.60747503385902 -4.149274125675515 L-20.33770010863061 -3.727678482187124 L-20.64341715320575 -3.55117266420581 L-21.757333015890836 -2.908053041029981 L-21.83106584303298 -2.8654833734313523 L-22.198233489175742 -2.6534990340931084 L-22.210441763918336 -2.64645058338413 L-22.379293945158086 -2.5489637310921043 L-22.89711431702997 -2.25 L-22.89711431702997 -0.8499999999999999 L-23.127580954653617 -0.8499999999999999 L-23.173317213775423 -0.8499999999999999 L-23.47798523863631 -0.8499999999999999 L-23.618483284439108 -0.8499999999999999 L-23.86113003351788 -0.8499999999999999 L-23.93190200199919 -0.8499999999999999 L-24.288806219127952 -0.8499999999999999 L-24.56088855868515 -0.8499999999999999 L-24.597309682011964 -0.8499999999999999 L-24.647918471982866 -0.8499999999999999 L-24.414213562373092 -1.414213562373094 L-24.18339050839197 -1.9714697098026979 L-23.802236140542224 -2.1915292866835507 L-23.556624327025933 -2.333333333333333 L-22.8349364905389 -2.7499999999999996 L-22.8349364905389 -3.0501032626278435 L-22.8349364905389 -4.091868697745183 L-22.8349364905389 -4.401313422481368 L-22.8349364905389 -4.411517294779305 L-22.8225003224876 -4.416668524250105 L-22.07863429182205 -4.7247879227404175 L-21.828427124746188 -4.828427124746189 L-21.63227866714877 -4.909674476121603 L-17.717782666402282 -5.468888190513958 L-17.585786437626904 -5.414213562373094 L-15.653115814440882 -4.613675178649382 L-15.180255545294393 -4.417810042061515 L-14.757359312880714 -4.242640687119284 L-14.75444002825242 -4.235592910577229 L-14.171572875253808 -2.8284271247461894 L-13.768341398655012 -1.8549402251656466 L-13.556596081217945 -1.3437418080400814 L-13.497793235902556 -1.2017791813735417 L-13.35208152801713 -0.8499999999999999 L-13.505919516091764 -0.8499999999999999 L-15.102885682970026 -0.8499999999999999 L-15.102885682970026 -1.0895440831786158 L-15.102885682970026 -1.467924561668098 L-15.102885682970026 -1.5781029463123775 L-15.102885682970026 -1.6281169072128776 L-15.102885682970026 -2.030860511039837 L-15.102885682970026 -2.1842016598330947 z"/>
<path fill="#a52a2a" stroke="#a52a2a" d="M-13.556596081217945 1.3437418080400823 L-13.564231048099149 1.362174248632956 L-13.585786437626904 1.4142135623730947 L-13.635463661818916 1.5341449907584974 L-13.723083601352128 1.7456782371138901 L-14.75444002825242 4.23559291057723 L-14.757359312880714 4.242640687119284 L-15.431137392183194 4.521728705596066 L-16.17157287525381 4.828427124746189 L-17.650437316139563 5.440992833072373 L-21.71622018084162 4.874904762703898 L-22.4122704029604 4.586591320609496 L-23.242640687119284 4.242640687119285 L-23.30858204192116 4.083444174035343 L-23.3458344382141 3.9935089336740166 L-23.514517938095373 3.586270940512096 L-23.657183086916916 3.2418468033491514 L-23.67278119277152 3.204189644647636 L-23.73054269035659 3.064741053794782 L-23.828427124746188 2.82842712474619 L-24.3207050501581 1.6399630807598586 L-24.483373373557164 1.2472470082413476 L-24.704945044287165 0.7123256757273129 L-24.730761184457485 0.6499999999999999 L-24.67128283060655 0.6499999999999999 L-24.23707285857085 0.6499999999999999 L-23.985655302923742 0.6499999999999999 L-23.440459890014782 0.6499999999999999 L-23.358616057902076 0.6499999999999999 L-22.89711431702997 0.6499999999999999 L-22.897114317029974 2.249999999999999 L-22.220289093920854 2.6407652247563775 L-21.99456454682681 2.77108735278383 L-21.83106584303298 2.8654833734313523 L-21.826981377882234 2.8678415404856312 L-21.783560571279246 2.8929105548662974 L-21.77178664139986 2.899708236451581 L-21.74388045881073 2.9158198784814706 L-21.358381724576137 3.1383876764640717 L-21.302754717430826 3.170503944013631 L-20.87639955661703 3.4166602108798614 L-19.699299664108448 4.096259150682771 L-19.60747503385902 4.1492741256755155 L-19.338951791187505 4.304306092115587 L-18.999999999999996 4.499999999999999 L-18.7206340554224 4.33870799669571 L-18.428835572308028 4.170238063920501 L-18.365782448570233 4.133834325957238 L-15.102885682970026 2.249999999999999 L-15.102885682970026 2.067993708731121 L-15.102885682970026 2.0050532741326523 L-15.102885682970026 1.838965141010681 L-15.102885682970026 1.7841938236044326 L-15.102885682970026 1.689518081418548 L-15.102885682970026 1.6487273678026795 L-15.102885682970026 1.6425532828187095 L-15.102885682970026 1.6281169072128785 L-15.102885682970026 1.6053082719276854 L-15.102885682970026 0.6614958340002689 L-15.102885682970026 0.6499999999999999 L-13.540570288306924 0.6499999999999999 L-13.269238815542511 0.6499999999999999 z"/>
<path fill="#a52a2a" stroke="#a52a2a" d="M-22.8349364905389 -4.411517294779305 L-22.8349364905389 -4.401313422481368 L-22.8349364905389 -4.091868697745183 L-22.8349364905389 -3.050103262627844 L-22.8349364905389 -2.75 L-22.8349364905389 -2.75 L-22.8349364905389 -4.411517294779305 L-22.8349364905389 -4.411517294779305 z"/>
<path fill="#a52a2a" stroke="#a52a2a" d="M-22.8349364905389 -2.75 L-23.556624327025933 -2.333333333333334 L-23.80223614054222 -2.191529286683552 L-24.18339050839197 -1.971469709802699 L-24.18339050839197 -1.971469709802699 L-24.18339050839197 -1.971469709802699 L-24.18339050839197 -1.971469709802699 L-22.8349364905389 -2.75 z"/>
<path fill="#a52a2a" stroke="#a52a2a" d="M-24.647918471982866 -0.8499999999999999 L-24.647918471982866 -0.8499999999999999 L-24.647918471982866 -0.8499999999999999 L-24.647918471982866 -0.8499999999999999 L-24.18339050839197 -1.9714697098026979 L-24.18339050839197 -1.9714697098026979 L-24.18339050839197 -1.9714697098026979 L-24.18339050839197 -1.9714697098026979 L-24.414213562373092 -1.414213562373094 L-24.647918471982866 -0.8499999999999999 L-24.647918471982866 -0.8499999999999999 z"/>
<path fill="#a52a2a" stroke="#a52a2a" d="M-21.63227866714877 -4.909674476121603 L-21.63227866714877 -4.909674476121603 L-21.63227866714877 -4.909674476121603 L-21.63227866714877 -4.909674476121603 L-21.63227866714877 -4.909674476121603 L-21.63227866714877 -4.909674476121603 L-21.63227866714877 -4.909674476121603 L-21.63227866714877 -4.909674476121603 L-21.828427124746185 -4.828427124746191 L-22.078634291822045 -4.724787922740418 L-22.8225003224876 -4.416668524250106 L-22.834936490538897 -4.411517294779307 L-22.834936490538897 -4.411517294779307 L-22.834936490538897 -4.411517294779307 z"/>
<path fill="#a52a2a" stroke="#a52a2a" d="M-15.180255545294393 -4.4178100420615145 L-15.653115814440882 -4.613675178649382 L-17.5857864376269 -5.414213562373094 L-17.717782666402282 -5.468888190513958 L-17.717782666402282 -5.468888190513958 L-17.717782666402282 -5.468888190513958 L-17.717782666402282 -5.468888190513958 L-14.757359312880713 -4.242640687119284 L-14.757359312880713 -4.242640687119284 z"/>
<path fill="#a52a2a" stroke="#a52a2a" d="M-13.497793235902556 -1.2017791813735417 L-13.556596081217945 -1.3437418080400811 L-13.768341398655012 -1.8549402251656464 L-14.171572875253808 -2.8284271247461894 L-14.75444002825242 -4.235592910577229 L-14.757359312880713 -4.242640687119284 L-14.757359312880713 -4.242640687119284 L-13.35208152801713 -0.8499999999999999 L-13.35208152801713 -0.8499999999999999 L-13.35208152801713 -0.8499999999999999 L-13.35208152801713 -0.8499999999999999 L-13.35208152801713 -0.8499999999999999 L-13.35208152801713 -0.8499999999999999 z"/>
<path fill="#a52a2a" stroke="#a52a2a" d="M-13.964864864864865 -0.85 L-13.85 -0.85 L-13.35208152801713 -0.85 L-14.757359312880714 -4.242640687119284 L-17.717782666402282 -5.468888190513958 L-18.374999999999996 -5.374999999999999 L-18.999999999999996 -5.285714285714285 L-19.833333333333332 -5.166666666666665 L-20.013725512637244 -5.140896355337535 L-20.977626652363234 -5.003196192519536 L-21.63227866714877 -4.909674476121603 L-22.8349364905389 -4.411517294779305 L-22.8349364905389 -2.75 L-24.18339050839197 -1.9714697098026976 L-24.647918471982866 -0.85 L-24.330798551621115 -0.85 L-24.15 -0.85 L-22.89711431702997 -0.85 L-22.89711431702997 -2.1028856829700255 L-22.89711431702997 -2.25 L-22.549038105676654 -2.450961894323343 L-20.299038105676654 -3.75 L-19.83717361830976 -4.016657586110407 L-19.805464018881267 -4.034965131876341 L-19.688412970829493 -4.1025445859779595 L-19.044913494658072 -4.474069181768913 L-18.999999999999996 -4.499999999999999 L-18.12816706805547 -3.9966470220534447 L-16.412026282846575 -3.005832677745795 L-16.40192378864668 -2.9999999999999996 L-15.620695068003199 -2.548957387837817 L-15.45096189432334 -2.4509618943233407 L-15.102885682970026 -2.249999999999999 L-15.102885682970026 -2.102885682970026 L-15.102885682970026 -2.0176613174276485 L-15.102885682970026 -1.852542149283118 L-15.102885682970026 -0.85 z"/>
<path fill="#a52a2a" stroke="#a52a2a" d="M-15.102885682970026 2.249999999999999 L-15.45096189432334 2.4509618943233407 L-15.582210071560002 2.526738064781575 L-16.47424817978401 3.0417565066921113 L-17.70096189432334 3.749999999999999 L-18.999999999999996 4.499999999999999 L-19.458768691535585 4.235129772446155 L-19.52474123797016 4.197040505003028 L-19.60386741565331 4.151356985017717 L-19.82381862008044 4.024368097933129 L-19.86394806389112 4.001199352746604 L-21.598076211353312 2.9999999999999996 L-22.549038105676658 2.45096189432334 L-22.897114317029974 2.249999999999999 L-22.89711431702997 2.102885682970026 L-22.89711431702997 0.6499999999999999 L-24.349999999999998 0.6499999999999999 L-24.562154137085326 0.6499999999999999 L-24.730761184457485 0.6499999999999999 L-23.242640687119284 4.242640687119285 L-21.71622018084162 4.874904762703898 L-19.86772512306065 5.132274876939345 L-19.57872038220178 5.172513655429088 L-18.999999999999996 5.253090192677966 L-18.344374413998736 5.344374413998736 L-17.650437316139563 5.440992833072373 L-14.757359312880714 4.242640687119284 L-13.269238815542511 0.6499999999999999 L-13.649999999999999 0.6499999999999999 L-13.742420148322605 0.6499999999999999 L-15.102885682970026 0.6499999999999999 L-15.102885682970026 0.7499999999999998 L-15.102885682970026 1.8411080262554587 L-15.102885682970026 2.03778749815273 L-15.102885682970026 2.102885682970026 z"/>
<path fill="#a52a2a" stroke="#a52a2a" d="M-30 0.6499999999999999 L-30 0.6499999999999999 L-30 0.6499999999999999 L-28.54090909090909 0.6499999999999999 L-28 0.6499999999999999 L-28 0.6499999999999999 L-28 0.6499999999999999 z"/>
<path fill="#a52a2a" stroke="#a52a2a" d="M-30 -0.85 L-30 -0.85 L-30 -0.85 L-30 -0.85 L-28 -0.85 L-28 -0.85 L-28 -0.85 L-28 -0.85 L-28.13181818181818 -0.85 z"/>
<path fill="#a52a2a" stroke="#a52a2a" d="M-6 0.15 L-6 -0.6035533905932733 L-6 -0.6035533905932733 L-6 -0.6035533905932733 L-6 -0.6035533905932733 L-6 0.6035533905932742 L-6 0.6035533905932742 L-6 0.6035533905932742 L-6 0.6035533905932742 L-6 0.6035533905932742 L-6 0.20223874377923284 z"/>
<path fill="#a52a2a" stroke="#a52a2a" d="M-30 -0.5499999999999999 L-30 -0.85 L-30 -0.85 L-30 -0.85 L-30 -0.85 L-30 -6 L-30 -6 L-30 6 L-30 6 L-30 0.6499999999999999 L-30 0.6499999999999999 L-30 0.6499999999999999 L-30 0.35 z"/>
<path fill="#a52a2a" stroke="#a52a2a" d="M-23.754331029065487 3.2191873156902044 L-24.675240473580832 2.6875 L-24.999999999999996 2.5 L-24.999999999999996 2.5 L-23.70096189432334 3.2500000000000013 L-23.70096189432334 3.2500000000000013 z"/>
<path fill="#a52a2a" stroke="#a52a2a" d="M-24.675240473580832 5.312499999999998 L-23.765503740463714 4.78726325224314 L-23.70096189432334 4.749999999999999 L-23.70096189432334 4.749999999999999 L-23.765503740463714 4.78726325224314 L-24.999999999999993 5.4999999999999964 L-24.999999999999993 5.4999999999999964 z"/>
<path fill="#a52a2a" stroke="#a52a2a" d="M-25.97427857925749 4.937500000000002 L-25.612281367992164 5.1464991873699315 L-24.999999999999996 5.500000000000001 L-24.999999999999996 5.500000000000001 L-25.612281367992164 5.1464991873699315 L-26.299038105676654 4.750000000000001 L-26.299038105676654 4.750000000000001 z"/>
<path fill="#a52a2a" stroke="#a52a2a" d="M-23.700961894323342 3.25 L-23.700961894323342 4.749999999999999 L-23.700961894323342 4.749999999999999 L-23.700961894323342 4.598564720908032 L-23.700961894323342 4.598564720908032 L-23.700961894323342 4.598564720908032 L-23.700961894323342 4.598564720908032 L-23.700961894323342 4.076465087331838 L-23.700961894323342 3.625 L-23.700961894323342 3.25 z"/>
<path fill="#a52a2a" stroke="#a52a2a" d="M-26.299038105676658 4.236828740877279 L-26.299038105676658 4.236828740877279 L-26.299038105676658 4.749999999999999 L-26.299038105676658 4.749999999999999 L-26.299038105676658 3.2499999999999996 L-26.299038105676658 3.2499999999999996 L-26.299038105676658 3.687179421733638 L-26.299038105676658 4.030254256091803 L-26.299038105676658 4.236828740877279 L-26.299038105676658 4.236828740877279 L-26.299038105676658 4.236828740877279 z"/>
<path fill="#a52a2a" stroke="#a52a2a" d="M-26.29903810567665 3.249999999999997 L-26.29903810567665 3.249999999999997 L-24.999999999999993 2.4999999999999973 L-24.999999999999993 2.4999999999999973 L-25.974278579257486 3.0624999999999973 z"/>
<path fill="#a52a2a" stroke="#a52a2a" d="M-27.165063509461092 -5.250000000000002 L-26.53003533327988 -5.616633688461222 L-24.999999999999996 -6.5 L-24.999999999999996 -6.5 L-25.621380519690675 -6.141245789687397 L-26.53003533327988 -5.616633688461222 L-27.165063509461092 -5.250000000000002 z"/>
<path fill="#a52a2a" stroke="#a52a2a" d="M-22.8349364905389 -5.249999999999998 L-24.444381484484683 -6.179213500500493 L-24.999999999999996 -6.499999999999998 L-24.999999999999996 -6.499999999999998 L-22.8349364905389 -5.249999999999998 z"/>
<path fill="#a52a2a" stroke="#a52a2a" d="M-22.8349364905389 -2.7500000000000004 L-22.8349364905389 -2.7500000000000004 L-24.999999999999996 -1.5000000000000002 L-24.999999999999996 -1.5000000000000002 L-23.55662432702593 -2.3333333333333353 z"/>
<path fill="#a52a2a" stroke="#a52a2a" d="M-22.8349364905389 -4.7378662156372995 L-22.8349364905389 -4.7378662156372995 L-22.8349364905389 -4.7378662156372995 L-22.8349364905389 -5.208394253720291 L-22.8349364905389 -5.249999999999999 L-22.8349364905389 -5.249999999999999 L-22.8349364905389 -5.208394253720291 L-22.8349364905389 -3.971680274986792 L-22.8349364905389 -2.75 L-22.8349364905389 -2.75 L-22.8349364905389 -3.050103262627844 L-22.8349364905389 -4.091868697745183 L-22.8349364905389 -4.416666666666666 L-22.8349364905389 -4.7378662156372995 z"/>
<path fill="#a52a2a" stroke="#a52a2a" d="M-27.165063509461095 -4.014850645678458 L-27.165063509461095 -3.8464484615100862 L-27.165063509461095 -3.5833333333333326 L-27.165063509461095 -2.7499999999999996 L-27.165063509461095 -2.7499999999999996 L-27.165063509461095 -5.197472905114239 L-27.165063509461095 -5.249999999999999 L-27.165063509461095 -5.249999999999999 L-27.165063509461095 -5.197472905114239 L-27.165063509461095 -4.119276641505557 L-27.165063509461095 -4.119276641505557 L-27.165063509461095 -4.119276641505557 L-27.165063509461095 -4.119276641505557 L-27.165063509461095 -4.119276641505557 L-27.165063509461095 -4.119276641505557 z"/>
<path fill="#a52a2a" stroke="#a52a2a" d="M-24.999999999999996 -1.4999999999999993 L-27.165063509461095 -2.7499999999999996 L-27.165063509461095 -2.7499999999999996 L-25.72168783648703 -1.9166666666666645 L-24.999999999999996 -1.4999999999999993 z"/>
<path fill="#a52a2a" stroke="#a52a2a" d="M-9.33333333333333 -6.666666666666666 L-20.977626652363234 -5.003196192519537 L-22.8349364905389 -4.7378662156372995 L-22.8349364905389 -4.7378662156372995 L-22.8349364905389 -4.7378662156372995 L-22.8349364905389 -4.7378662156372995 L4.898587196589412e-16 -7.999999999999999 L4.898587196589412e-16 -7.999999999999999 L-1.2362731311954875 -7.823389552686359 z"/>
<path fill="#a52a2a" stroke="#a52a2a" d="M-27.165063509461095 -4.119276641505557 L-27.165063509461095 -4.119276641505557 L-27.165063509461095 -4.119276641505557 L-27.165063509461095 -4.119276641505557 L-27.165063509461095 -4.119276641505557 L-27.999999999999996 -4 L-27.999999999999996 -4 L-27.165063509461095 -4.119276641505557 z"/>
<path fill="#a52a2a" stroke="#a52a2a" d="M-27.999999999999996 4 L-27.999999999999996 4 L-26.299038105676654 4.23682874087728 L-26.299038105676654 4.23682874087728 L-26.299038105676654 4.23682874087728 L-26.299038105676654 4.23682874087728 L-26.299038105676654 4.23682874087728 z"/>
<path fill="#a52a2a" stroke="#a52a2a" d="M-23.70096189432334 4.598564720908032 L-23.173194324475503 4.672046983773566 L-19.57872038220178 5.172513655429089 L-2.7361611466053493 7.517540966287267 L-2.7361611466053493 7.517540966287267 L-23.70096189432334 4.598564720908032 L-23.70096189432334 4.598564720908032 L-23.70096189432334 4.598564720908032 z"/>
<path fill="#a52a2a" stroke="#a52a2a" d="M-6 -0.6035533905932733 L-5.639805794138641 -1.4731391274719732 L-4.912781620888678 -3.22833074670512 L-4.419417382415923 -4.41941738241592 L-4.419417382415923 -4.41941738241592 L-6 -0.6035533905932733 L-6 -0.6035533905932733 L-6 -0.6035533905932733 z"/>
<path fill="#a52a2a" stroke="#a52a2a" d="M5.029611588277281 -2.9462782549439472 L5.257208093229089 -2.3968116859405777 L5.877852522924732 -0.8984434863580428 L6.25 0 L6.25 0 L4.419417382415922 -4.41941738241592 L4.419417382415922 -4.41941738241592 L4.422070011665955 -4.413013368904543 z"/>
<path fill="#a52a2a" stroke="#a52a2a" d="M3.8270212473354783e-16 -6.25 L1.473139127471974 -5.63980579413864 L2.785186240883489 -5.09633808529112 L4.419417382415921 -4.419417382415921 L4.419417382415921 -4.419417382415921 L3.8270212473354783e-16 -6.25 z"/>
<path fill="#a52a2a" stroke="#a52a2a" d="M5.106352250646629 -6.141439775086396 L3.428200584994876 -6.752237029967882 L1.4319955424304593 -7.4787962469534275 L4.898587196589412e-16 -8 L4.898587196589412e-16 -8 L5.142300877492314 -6.128355544951824 L5.142300877492314 -6.128355544951824 z"/>
<path fill="#a52a2a" stroke="#a52a2a" d="M-2.946278254943948 -5.02961158827728 L-2.785186240883488 -5.09633808529112 L3.827021247335478e-16 -6.249999999999999 L3.827021247335478e-16 -6.249999999999999 L-4.419417382415922 -4.419417382415921 L-4.419417382415922 -4.419417382415921 z"/>
<path fill="#a52a2a" stroke="#a52a2a" d="M2.946278254943948 5.02961158827728 L2.7824112759524007 5.0974875134006865 L1.7698740954641135 5.516894145965949 L3.8270212473354783e-16 6.25 L3.8270212473354783e-16 6.25 L4.419417382415921 4.419417382415921 L4.419417382415921 4.419417382415921 z"/>
<path fill="#a52a2a" stroke="#a52a2a" d="M-1.769874095464115 5.516894145965949 L-2.6615060612397876 5.147568093096282 L-4.41941738241592 4.419417382415922 L-4.41941738241592 4.419417382415922 L3.8270212473354783e-16 6.249999999999999 L3.8270212473354783e-16 6.249999999999999 L-1.4731391274719732 5.63980579413864 z"/>
<path fill="#a52a2a" stroke="#a52a2a" d="M-1.3616017476939324 7.5175409662872665 L-0.980043764272373 7.5175409662872665 L-0.9120537155351162 7.5175409662872665 L0.9800437642723732 7.5175409662872665 L2.73616114660535 7.5175409662872665 L2.73616114660535 7.5175409662872665 L-2.7361611466053493 7.5175409662872665 L-2.7361611466053493 7.5175409662872665 z"/>
<path fill="#a52a2a" stroke="#a52a2a" d="M4.133508507828736 6.345027310858177 L5.4661653129633585 5.226795477183823 L5.877852522924731 4.881348891144832 L6.928203230275508 4 L6.928203230275508 4 L2.73616114660535 7.5175409662872665 L2.73616114660535 7.5175409662872665 L4.101001056222348 6.372304301511611 z"/>
<path fill="#a52a2a" stroke="#a52a2a" d="M7.878462024097663 -1.3891854213354424 L7.878462024097663 -1.3891854213354424 L6.92820323027551 3.9999999999999987 L6.92820323027551 3.9999999999999987 L7.244956161549561 2.2036048595548516 z"/>
<path fill="#a52a2a" stroke="#a52a2a" d="M-6 0.6035533905932742 L-6 0.6035533905932742 L-6 0.6035533905932742 L-6 0.6035533905932742 L-4.419417382415921 4.419417382415921 L-4.419417382415921 4.419417382415921 L-5.02961158827728 2.946278254943948 L-5.720953973044083 1.2772300933965757 L-5.910620620405653 0.8193343010064398 L-6 0.6035533905932742 z"/>
<path fill="#a52a2a" stroke="#a52a2a" d="M5.877852522924732 0.8984434863580428 L5.63980579413864 1.4731391274719736 L5.110279155630963 2.751529519795045 L4.419417382415922 4.41941738241592 L4.419417382415922 4.41941738241592 L6.25 0 L6.25 0 z"/>
<path fill="#a52a2a" stroke="#a52a2a" d="M-28 0.6499999999999999 L-28 0.6499999999999999 L-28 0.6499999999999999 L-28 4 L-28 4 z"/>
<path fill="#a52a2a" stroke="#a52a2a" d="M-28 -0.85 L-28 -4 L-28 -4 L-28 -1.3333333333333333 L-28 -0.85 L-28 -0.85 L-28 -0.85 z"/>
<path fill="#a52a2a" stroke="#a52a2a" d="M5.877852522924732 -4.854342723471989 L5.581133330895481 -5.368275439647436 L5.142300877492315 -6.128355544951823 L5.142300877492315 -6.128355544951823 L7.878462024097664 -1.3891854213354424 L7.878462024097664 -1.3891854213354424 L6.9664083085625474 -2.968908795874236 z"/>
<path fill="#a52a2a" stroke="#a52a2a" d="M-23.754331029065487 3.219187315690204 L-23.700961894323342 3.2499999999999996 L-23.700961894323342 3.6249999999999996 L-23.700961894323342 4.0764650873318375 L-23.700961894323342 4.598564720908031 L-2.7361611466053497 7.5175409662872665 L2.7361611466053506 7.517540966287266 L6.92820323027551 3.9999999999999987 L7.878462024097664 -1.3891854213354424 L5.142300877492315 -6.128355544951822 L4.898587196589413e-16 -7.999999999999999 L-22.8349364905389 -4.737866215637299 L-22.8349364905389 -4.416666666666666 L-22.8349364905389 -4.091868697745183 L-22.8349364905389 -3.0501032626278435 L-22.8349364905389 -2.75 L-23.556624327025933 -2.333333333333333 L-24.999999999999996 -1.4999999999999998 L-25.721687836487032 -1.9166666666666663 L-27.165063509461095 -2.75 L-27.165063509461095 -3.583333333333333 L-27.165063509461095 -3.8464484615100862 L-27.165063509461095 -4.014850645678457 L-27.165063509461095 -4.119276641505556 L-28 -3.9999999999999996 L-28 -0.8499999999999999 L-30 -0.8499999999999999 L-30 -0.5499999999999999 L-30 0.35 L-30 0.6499999999999999 L-28 0.6499999999999999 L-28 3.9999999999999996 L-26.299038105676658 4.236828740877279 L-26.299038105676658 4.030254256091803 L-26.299038105676658 3.6871794217336378 L-26.299038105676658 3.249999999999999 L-25.97427857925749 3.062499999999999 L-24.999999999999996 2.4999999999999996 L-24.675240473580832 2.6874999999999996 M-4.419417382415923 -4.41941738241592 L3.827021247335479e-16 -6.249999999999998 L4.419417382415922 -4.41941738241592 L6.25 0 L4.419417382415922 4.41941738241592 L3.827021247335479e-16 6.249999999999998 L-4.419417382415921 4.419417382415921 L-6 0.6035533905932741 L-6 -0.6035533905932732 z"/>
<path fill="#a52a2a" stroke="#a52a2a" d="M3.0616169978683826e-16 -5 L3.0616169978683826e-16 -5 L3.9091574123401482 -3.1174490092936673 L3.9091574123401482 -3.1174490092936673 z"/>
<path fill="#a52a2a" stroke="#a52a2a" d="M-3.909157412340147 -3.117449009293669 L-3.909157412340147 -3.117449009293669 L3.0616169978683826e-16 -4.999999999999999 L3.0616169978683826e-16 -4.999999999999999 z"/>
<path fill="#a52a2a" stroke="#a52a2a" d="M6.123233995736765e-16 -9.999999999999998 L6.123233995736765e-16 -9.999999999999998 L-29.999999999999996 -6 L-29.999999999999996 -6 z"/>
<path fill="#a52a2a" stroke="#a52a2a" d="M2.1694186955877894 4.504844339512095 L2.1694186955877894 4.504844339512095 L-2.1694186955877917 4.504844339512094 L-2.1694186955877917 4.504844339512094 z"/>
<path fill="#a52a2a" stroke="#a52a2a" d="M-4.8746395609091175 1.1126046697815724 L-4.8746395609091175 1.1126046697815724 L-3.909157412340148 -3.1174490092936686 L-3.909157412340148 -3.1174490092936686 z"/>
<path fill="#a52a2a" stroke="#a52a2a" d="M6.123233995736765e-16 10 L6.123233995736765e-16 10 L5.87785252292473 8.090169943749475 L5.87785252292473 8.090169943749475 z"/>
<path fill="#a52a2a" stroke="#a52a2a" d="M3.909157412340149 -3.117449009293667 L3.909157412340149 -3.117449009293667 L4.8746395609091175 1.1126046697815721 L4.8746395609091175 1.1126046697815721 z"/>
<path fill="#a52a2a" stroke="#a52a2a" d="M-2.169418695587792 4.504844339512093 L-2.169418695587792 4.504844339512093 L-4.874639560909118 1.1126046697815724 L-4.874639560909118 1.1126046697815724 z"/>
<path fill="#a52a2a" stroke="#a52a2a" d="M-29.999999999999996 6 L-29.999999999999996 6 L6.123233995736765e-16 9.999999999999998 L6.123233995736765e-16 9.999999999999998 z"/>
<path fill="#a52a2a" stroke="#a52a2a" d="M4.874639560909118 1.1126046697815721 L4.874639560909118 1.1126046697815721 L2.16941869558779 4.504844339512095 L2.16941869558779 4.504844339512095 z"/>
<path fill="#a52a2a" stroke="#a52a2a" d="M5.877852522924732 8.090169943749473 L5.877852522924732 8.090169943749473 L9.510565162951535 3.0901699437494736 L9.510565162951535 3.0901699437494736 z"/>
<path fill="#a52a2a" stroke="#a52a2a" d="M5.87785252292473 -8.090169943749475 L5.87785252292473 -8.090169943749475 L6.123233995736765e-16 -10 L6.123233995736765e-16 -10 z"/>
<path fill="#a52a2a" stroke="#a52a2a" d="M9.510565162951535 -3.0901699437494736 L9.510565162951535 -3.0901699437494736 L5.877852522924732 -8.090169943749473 L5.877852522924732 -8.090169943749473 z"/>
<path fill="#a52a2a" stroke="#a52a2a" d="M9.510565162951535 3.090169943749474 L9.510565162951535 3.090169943749474 L9.510565162951535 -3.090169943749474 L9.510565162951535 -3.090169943749474 z"/>
<path fill="#a52a2a" stroke="#a52a2a" d="M-6 -0.6035533905932733 L-6 0.14999999999999997 L-6 0.20223874377923282 L-6 0.6035533905932742 L-5.910620620405653 0.8193343010064398 L-5.720953973044083 1.2772300933965757 L-5.02961158827728 2.9462782549439477 L-4.419417382415921 4.419417382415921 L-2.6615060612397876 5.1475680930962815 L-1.769874095464115 5.516894145965948 L-1.4731391274719734 5.63980579413864 L3.827021247335479e-16 6.249999999999999 L1.7698740954641137 5.516894145965949 L2.7824112759524007 5.0974875134006865 L2.946278254943948 5.02961158827728 L4.419417382415922 4.41941738241592 L5.110279155630963 2.751529519795045 L5.63980579413864 1.4731391274719736 L5.877852522924732 0.8984434863580427 L6.25 0 L5.877852522924732 -0.8984434863580427 L5.257208093229089 -2.3968116859405777 L5.029611588277281 -2.9462782549439472 L4.422070011665955 -4.413013368904544 L4.419417382415922 -4.41941738241592 L2.785186240883489 -5.096338085291119 L1.4731391274719743 -5.639805794138638 L3.827021247335479e-16 -6.249999999999999 L-2.785186240883488 -5.09633808529112 L-2.9462782549439486 -5.02961158827728 L-4.419417382415923 -4.41941738241592 L-4.912781620888678 -3.2283307467051205 L-5.639805794138641 -1.473139127471973 M4.874639560909118 1.1126046697815721 L2.16941869558779 4.504844339512095 L-2.169418695587792 4.504844339512093 L-4.874639560909118 1.1126046697815724 L-3.909157412340148 -3.117449009293668 L3.061616997868383e-16 -4.999999999999999 L3.909157412340149 -3.1174490092936664 z"/>
<path fill="#a52a2a" stroke="#a52a2a" d="M-28.13181818181818 -0.8499999999999999 L-28 -0.8499999999999999 L-28 -1.3333333333333333 L-28 -3.999999999999999 L-27.165063509461095 -4.119276641505557 L-27.165063509461095 -5.19747290511424 L-27.165063509461095 -5.249999999999999 L-26.53003533327988 -5.616633688461221 L-25.621380519690675 -6.141245789687397 L-24.999999999999996 -6.499999999999999 L-24.444381484484687 -6.179213500500493 L-22.8349364905389 -5.249999999999999 L-22.8349364905389 -5.208394253720291 L-22.8349364905389 -4.737866215637299 L-20.977626652363234 -5.003196192519536 L-9.333333333333332 -6.666666666666666 L-1.2362731311954878 -7.823389552686358 L4.898587196589413e-16 -7.999999999999998 L1.4319955424304593 -7.478796246953427 L3.4282005849948765 -6.7522370299678816 L5.10635225064663 -6.141439775086395 L5.142300877492315 -6.128355544951823 L5.581133330895481 -5.3682754396474355 L5.877852522924732 -4.854342723471989 L6.9664083085625474 -2.968908795874236 L7.878462024097664 -1.3891854213354424 L7.244956161549561 2.2036048595548516 L6.92820323027551 3.999999999999999 L5.877852522924732 4.881348891144832 L5.466165312963359 5.226795477183822 L4.133508507828736 6.3450273108581765 L4.101001056222349 6.37230430151161 L2.7361611466053506 7.517540966287266 L0.9800437642723732 7.517540966287266 L-0.9120537155351163 7.517540966287266 L-0.980043764272373 7.517540966287266 L-1.3616017476939326 7.517540966287266 L-2.7361611466053497 7.5175409662872665 L-19.57872038220178 5.172513655429088 L-23.173194324475507 4.672046983773565 L-23.700961894323342 4.598564720908031 L-23.700961894323342 4.749999999999999 L-23.76550374046372 4.787263252243142 L-24.675240473580832 5.312499999999999 L-24.999999999999996 5.499999999999999 L-25.612281367992164 5.14649918736993 L-25.97427857925749 4.937499999999999 L-26.299038105676658 4.749999999999999 L-26.299038105676658 4.236828740877279 L-28 3.999999999999999 L-28 0.6499999999999999 L-28.54090909090909 0.6499999999999999 L-30 0.6499999999999999 L-30 5.999999999999999 L6.123233995736766e-16 9.999999999999998 L5.877852522924732 8.090169943749473 L9.510565162951535 3.0901699437494736 L9.510565162951535 -3.0901699437494736 L5.877852522924732 -8.090169943749473 L6.123233995736766e-16 -9.999999999999998 L-30 -5.999999999999999 L-30 -0.8499999999999999 z"/>
<path fill="#a52a2a" stroke="#a52a2a" d="M6.123233995736766e-16 9.999999999999998 L-30 5.999999999999999 L-30 -5.999999999999999 L6.123233995736766e-16 -9.999999999999998 L5.877852522924732 -8.090169943749473 L9.510565162951535 -3.0901699437494736 L9.510565162951535 3.0901699437494736 L5.877852522924732 8.090169943749473 M-27.165063509461095 -5.249999999999999 L-27.165063509461095 -5.19747290511424 L-27.165063509461095 -2.75 L-24.999999999999996 -1.4999999999999998 L-22.8349364905389 -2.75 L-22.8349364905389 -3.971680274986792 L-22.8349364905389 -5.208394253720291 L-22.8349364905389 -5.249999999999999 L-24.999999999999996 -6.499999999999999 L-26.53003533327988 -5.616633688461221 z"/>
<path fill="#a52a2a" stroke="#a52a2a" d="M-23.484455543377226 -4.874999999999997 L-24.133974596215555 -5.249999999999997 L-24.999999999999996 -5.749999999999998 L-24.999999999999996 -5.749999999999998 L-23.484455543377226 -4.874999999999997 z"/>
<path fill="#a52a2a" stroke="#a52a2a" d="M-23.48445554337723 -3.125 L-23.48445554337723 -4.874999999999999 L-23.48445554337723 -4.874999999999999 L-23.48445554337723 -3.125 z"/>
<path fill="#a52a2a" stroke="#a52a2a" d="M-24.999999999999996 -5.750000000000001 L-25.866025403784434 -5.250000000000001 L-26.515544456622763 -4.875000000000001 L-26.515544456622763 -4.875000000000001 L-24.999999999999996 -5.750000000000001 z"/>
<path fill="#a52a2a" stroke="#a52a2a" d="M-23.48445554337723 -3.1250000000000004 L-24.999999999999993 -2.2500000000000018 L-24.999999999999993 -2.2500000000000018 L-23.48445554337723 -3.1250000000000004 z"/>
<path fill="#a52a2a" stroke="#a52a2a" d="M-26.515544456622766 -4.875 L-26.515544456622766 -4.125 L-26.515544456622766 -3.1249999999999996 L-26.515544456622766 -3.1249999999999996 L-26.515544456622766 -4.875 z"/>
<path fill="#a52a2a" stroke="#a52a2a" d="M-26.515544456622763 -3.124999999999998 L-25.649519052838325 -2.6249999999999996 L-24.999999999999996 -2.2499999999999996 L-24.999999999999996 -2.2499999999999996 L-26.515544456622763 -3.124999999999998 z"/>
<path fill="#a52a2a" stroke="#a52a2a" d="M-23.48445554337723 -4.874999999999999 L-24.999999999999996 -5.749999999999999 L-26.515544456622766 -4.874999999999999 L-26.515544456622766 -3.1249999999999996 L-24.999999999999996 -2.2499999999999996 L-23.48445554337723 -3.1249999999999996 z"/>
<path fill="#a52a2a" stroke="#a52a2a" d="M-24.999999999999996 -6.5 L-27.165063509461095 -5.25 L-27.165063509461095 -5.25 L-24.999999999999996 -6.5 z"/>
<path fill="#a52a2a" stroke="#a52a2a" d="M-22.8349364905389 -5.249999999999999 L-24.999999999999996 -6.499999999999998 L-24.999999999999996 -6.499999999999998 L-22.8349364905389 -5.249999999999999 z"/>
<path fill="#a52a2a" stroke="#a52a2a" d="M-24.999999999999996 -1.5000000000000013 L-22.8349364905389 -2.7500000000000004 L-22.8349364905389 -2.7500000000000004 L-24.999999999999996 -1.5000000000000013 z"/>
<path fill="#a52a2a" stroke="#a52a2a" d="M-22.8349364905389 -2.75 L-22.8349364905389 -5.249999999999999 L-22.8349364905389 -5.249999999999999 L-22.8349364905389 -2.75 z"/>
<path fill="#a52a2a" stroke="#a52a2a" d="M-27.165063509461095 -5.249999999999999 L-27.165063509461095 -2.75 L-27.165063509461095 -2.75 L-27.165063509461095 -5.249999999999999 z"/>
<path fill="#a52a2a" stroke="#a52a2a" d="M-27.165063509461095 -2.7499999999999996 L-24.999999999999996 -1.4999999999999987 L-24.999999999999996 -1.4999999999999987 L-27.165063509461095 -2.7499999999999996 z"/>
<path fill="#a52a2a" stroke="#a52a2a" d="M-27.165063509461095 -5.25 L-27.165063509461095 -2.75 L-24.999999999999996 -1.4999999999999998 L-22.8349364905389 -2.75 L-22.8349364905389 -5.249999999999999 L-24.999999999999996 -6.499999999999999 M-26.515544456622766 -3.1249999999999996 L-26.515544456622766 -4.125 L-26.515544456622766 -4.874999999999999 L-26.515544456622766 -4.874999999999999 L-25.866025403784437 -5.25 L-24.999999999999996 -5.749999999999999 L-24.13397459621556 -5.249999999999999 L-23.48445554337723 -4.874999999999999 L-23.48445554337723 -3.125 L-23.48445554337723 -3.1249999999999996 L-24.999999999999996 -2.2499999999999996 L-25.649519052838325 -2.6249999999999996 z"/>
<path fill="#a52a2a" stroke="#a52a2a" d="M-27.165063509461095 -5.249999999999999 L-24.999999999999996 -6.499999999999999 L-22.8349364905389 -5.249999999999999 L-22.8349364905389 -2.7499999999999996 L-24.999999999999996 -1.4999999999999998 L-27.165063509461095 -2.7499999999999996 z"/>
<path fill="#a52a2a" stroke="#a52a2a" d="M-23.48445554337723 -4.874999999999999 L-23.48445554337723 -4.874999999999999 L-24.999999999999993 -5.749999999999997 L-24.999999999999993 -5.749999999999997 z"/>
<path fill="#a52a2a" stroke="#a52a2a" d="M-23.48445554337723 -3.125 L-23.48445554337723 -3.125 L-23.48445554337723 -4.874999999999999 L-23.48445554337723 -4.874999999999999 z"/>
<path fill="#a52a2a" stroke="#a52a2a" d="M-24.999999999999993 -5.750000000000002 L-24.999999999999993 -5.750000000000002 L-26.515544456622763 -4.875000000000002 L-26.515544456622763 -4.875000000000002 z"/>
<path fill="#a52a2a" stroke="#a52a2a" d="M-24.999999999999993 -2.2500000000000018 L-24.999999999999993 -2.2500000000000018 L-23.48445554337723 -3.1250000000000004 L-23.48445554337723 -3.1250000000000004 z"/>
<path fill="#a52a2a" stroke="#a52a2a" d="M-26.515544456622766 -4.875 L-26.515544456622766 -4.875 L-26.515544456622766 -3.1249999999999996 L-26.515544456622766 -3.1249999999999996 z"/>
<path fill="#a52a2a" stroke="#a52a2a" d="M-26.515544456622766 -3.1249999999999996 L-26.515544456622766 -3.1249999999999996 L-24.999999999999996 -2.2499999999999996 L-24.999999999999996 -2.2499999999999996 z"/>
<path fill="#a52a2a" stroke="#a52a2a" d="M-23.48445554337723 -4.874999999999999 L-24.999999999999996 -5.749999999999999 L-26.515544456622766 -4.874999999999999 L-26.515544456622766 -3.1249999999999996 L-24.999999999999996 -2.2499999999999996 L-23.48445554337723 -3.1249999999999996 z"/>
<path fill="#a52a2a" stroke="#a52a2a" d="M-23.48445554337723 -4.874999999999999 L-23.48445554337723 -3.1249999999999996 L-24.999999999999996 -2.2499999999999996 L-26.515544456622766 -3.1249999999999996 L-26.515544456622766 -4.874999999999999 L-24.999999999999996 -5.749999999999999 z"/>
<path fill="#a52a2a" stroke="#a52a2a" d="M-23.70096189432334 3.2500000000000018 L-23.70096189432334 3.2500000000000018 L-24.999999999999996 2.5000000000000018 L-24.999999999999996 2.5000000000000018 z"/>
<path fill="#a52a2a" stroke="#a52a2a" d="M-24.999999999999996 5.499999999999997 L-24.999999999999996 5.499999999999997 L-23.70096189432334 4.749999999999997 L-23.70096189432334 4.749999999999997 z"/>
<path fill="#a52a2a" stroke="#a52a2a" d="M-26.29903810567665 4.750000000000002 L-26.29903810567665 4.750000000000002 L-24.999999999999993 5.500000000000002 L-24.999999999999993 5.500000000000002 z"/>
<path fill="#a52a2a" stroke="#a52a2a" d="M-23.700961894323342 4.749999999999999 L-23.700961894323342 4.749999999999999 L-23.700961894323342 3.25 L-23.700961894323342 3.25 z"/>
<path fill="#a52a2a" stroke="#a52a2a" d="M-26.299038105676658 3.2499999999999996 L-26.299038105676658 3.2499999999999996 L-26.299038105676658 4.749999999999999 L-26.299038105676658 4.749999999999999 z"/>
<path fill="#a52a2a" stroke="#a52a2a" d="M-24.999999999999993 2.4999999999999973 L-24.999999999999993 2.4999999999999973 L-26.29903810567665 3.249999999999997 L-26.29903810567665 3.249999999999997 z"/>
<path fill="#a52a2a" stroke="#a52a2a" d="M-23.700961894323342 3.2499999999999996 L-24.999999999999996 2.4999999999999996 L-26.299038105676658 3.249999999999999 L-26.299038105676658 4.749999999999999 L-24.999999999999996 5.499999999999999 L-23.700961894323342 4.749999999999999 z"/>
<path fill="#a52a2a" stroke="#a52a2a" d="M-24.999999999999996 2.4999999999999996 L-23.700961894323342 3.2499999999999996 L-23.700961894323342 4.749999999999999 L-24.999999999999996 5.499999999999999 L-26.299038105676658 4.749999999999999 L-26.299038105676658 3.249999999999999 z"/>
</svg>