<?xml version="1.0" encoding="UTF-8"?>
<!-- Generated by jsxcad -->
<!DOCTYPE svg PUBLIC "-//W3C//DTD SVG 1.1 Tiny//EN" "http://www.w3.org/Graphics/SVG/1.1/DTD/svg11-tiny.dtd">
<svg baseProfile="tiny" height="20.000000000000014mm" width="40.00000000000002mm" viewBox="0 0 40.00000000000002 20.000000000000014" version="1.1" stroke="black" stroke-width=".1" fill="none" xmlns="http://www.w3.org/2000/svg">
<path fill="#a52a2a" stroke="#a52a2a" d="M8.25037 10.37011 L8.25037 11.5875 L9.7017 12.42542 L9.83087 12.5 L-10 12.5 L-10 7.5 L9.83087 7.5 L8.25037 8.4125 L8.25037 9.85698 z"/>
<path fill="#a52a2a" stroke="#a52a2a" d="M9.83087 7.500000000000007 L9.83087 7.500000000000007 L9.83087 7.500000000000007 L-10 7.500000000000007 L-10 7.500000000000007 L10 7.500000000000007 L10 7.500000000000007 z"/>
<path fill="#a52a2a" stroke="#a52a2a" d="M9.83087 12.500000000000007 L9.83087 12.500000000000007 L10 12.500000000000007 L10 12.500000000000007 L-10 12.500000000000007 L-10 12.500000000000007 L9.83087 12.500000000000007 L9.83087 12.500000000000007 z"/>
<path fill="#a52a2a" stroke="#a52a2a" d="M8.2503698357461 11.587500284496096 L9.83086892622275 12.50000185983675 L9.83086892622275 12.50000185983675 L9.83086892622275 12.50000185983675 L9.83086892622275 12.50000185983675 L9.70169733891563 12.425424609133332 L8.2503698357461 11.587500284496096 z"/>
<path fill="#a52a2a" stroke="#a52a2a" d="M10.00000000000001 12.5 L10.00000000000001 11.10313 L10.00000000000001 11.02346 L10.00000000000001 11.02346 L10.00000000000001 11.02346 L10.00000000000001 11.02346 L10.00000000000001 12.5 z"/>
<path fill="#a52a2a" stroke="#a52a2a" d="M9.335650502388814 10.540779308521117 L9.335650502388814 10.540779308521117 L9.890429901470025 10.943850135614873 L10.000001202137986 11.023458345399009 L10.000001202137986 11.023458345399009 L10.000001202137986 11.023458345399009 L10.000001202137986 11.023458345399009 L9.96414956138907 10.997410603696153 z"/>
<path fill="#a52a2a" stroke="#a52a2a" d="M10.00000000000001 8.58422 L10.00000000000001 8.55705 L10.00000000000001 7.96147 L10.00000000000001 7.5 L10.00000000000001 7.5 L10.00000000000001 8.58422 z"/>
<path fill="#a52a2a" stroke="#a52a2a" d="M10 8.584220259843848 L10 8.584220259843848 L9.97138 8.584220259843848 L9.97138 8.584220259843848 L9.98356 8.584220259843848 L9.98431 8.584220259843848 z"/>
<path fill="#a52a2a" stroke="#a52a2a" d="M9.83010367066866 9.019011192672545 L9.954723399581285 8.635471104590918 L9.971376285108136 8.584218792958463 L9.971376285108136 8.584218792958463 L9.75946684890082 9.23640897614581 L9.335650915412447 10.540780297435534 L9.335650915412447 10.540780297435534 L9.392160945775737 10.366860307301165 L9.674704264824634 9.497281385725524 z"/>
<path fill="#a52a2a" stroke="#a52a2a" d="M9.83087 12.5 L8.25037 11.5875 L8.25037 8.4125 L9.83087 7.5 L10 7.5 L10 7.96147 L10 8.55705 L10 8.58422 L9.98431 8.58422 L9.98356 8.58422 L9.97138 8.58422 L9.95472 8.63547 L9.8301 9.01901 L9.6747 9.49728 L9.39216 10.36686 L9.33565 10.54078 L9.96415 10.99741 L10 11.02346 L10 11.10313 L10 12.5 z"/>
<path fill="#a52a2a" stroke="#a52a2a" d="M8.250369342984417 8.4125 L8.250369342984417 8.4125 L8.250369342984417 11.5875 L8.250369342984417 11.5875 L8.250369342984417 10.37011 L8.250369342984417 9.85698 z"/>
<path fill="#a52a2a" stroke="#a52a2a" d="M8.250369835746108 8.412499715503913 L8.250369835746108 8.412499715503913 L9.830868926222758 7.499998140163259 L9.830868926222758 7.499998140163259 L9.830868926222758 7.499998140163259 z"/>
<path fill="#a52a2a" stroke="#a52a2a" d="M-9.999999999999998 8.934999999999999 L-9.999999999999998 8.934999999999999 L-9.47691993606477 9.315039912000705 L-9.47691993606477 9.315039912000705 L-9.651279957376513 9.188359941333804 L-9.72565330138264 9.134324543963379 z"/>
<path fill="#a52a2a" stroke="#a52a2a" d="M-9.564633640673529 10.415001182926536 L-9.564633640673529 10.415001182926536 L-9.564633640673529 10.415001182926536 L-9.564633640673529 10.415001182926536 L-9.564633640673529 10.415001182926536 L-9.564633640673529 10.415001182926536 L-9.476918827607404 10.684959619066554 L-9.476918827607404 10.684959619066554 L-9.543517733275912 10.479989263496698 z"/>
<path fill="#a52a2a" stroke="#a52a2a" d="M-8.95 10.415000000000006 L-9.05 10.415000000000006 L-9.56463 10.415000000000006 L-9.56463 10.415000000000006 L-9.56463 10.415000000000006 L-9.56463 10.415000000000006 L-9.56463 10.415000000000006 L-9.56463 10.415000000000006 L-9.05 10.415000000000006 L-8.95 10.415000000000006 L-8.43537 10.415000000000006 L-8.43537 10.415000000000006 L-8.43537 10.415000000000006 L-8.43537 10.415000000000006 z"/>
<path fill="#a52a2a" stroke="#a52a2a" d="M-9.476919936064764 10.684960087999302 L-9.999999999999991 11.065000000000008 L-9.999999999999991 11.065000000000008 L-9.82563997868825 10.938320029333106 L-9.476919936064764 10.684960087999302 z"/>
<path fill="#a52a2a" stroke="#a52a2a" d="M-7.564633640673529 10.415001182926536 L-7.564633640673529 10.415001182926536 L-7.564633640673529 10.415001182926536 L-7.564633640673529 10.415001182926536 L-7.476918827607404 10.684959619066554 L-7.476918827607404 10.684959619066554 L-7.513270650747881 10.573080211440802 L-7.534527255700161 10.50765910832293 L-7.5435177332759125 10.479989263496698 z"/>
<path fill="#a52a2a" stroke="#a52a2a" d="M-8.43537 9.585000000000006 L-8.43537 9.585000000000006 L-8.43537 9.585000000000006 L-8.43537 9.585000000000006 L-8.43537 9.585000000000006 L-8.95 9.585000000000006 L-9.05 9.585000000000006 L-9.56463 9.585000000000006 L-9.56463 9.585000000000006 L-9.56463 9.585000000000006 L-9.56463 9.585000000000006 L-9.56463 9.585000000000006 L-9.56463 9.585000000000006 L-9.56463 9.585000000000006 L-9.56463 9.585000000000006 L-9.56463 9.585000000000006 L-9.05 9.585000000000006 L-8.95 9.585000000000006 L-8.43537 9.585000000000006 L-8.43537 9.585000000000006 z"/>
<path fill="#a52a2a" stroke="#a52a2a" d="M-7.999999999999993 8.93500000000001 L-7.999999999999993 8.93500000000001 L-8.174360021311735 9.061679970666912 L-8.210357391161043 9.087833590758772 L-8.523080063935222 9.315039912000715 L-8.523080063935222 9.315039912000715 z"/>
<path fill="#a52a2a" stroke="#a52a2a" d="M-8.43536635932645 10.415001182926542 L-8.43536635932645 10.415001182926542 L-8.453129398287816 10.46967019550814 L-8.523081172392576 10.684959619066559 L-8.523081172392576 10.684959619066559 L-8.43536635932645 10.415001182926542 L-8.43536635932645 10.415001182926542 z"/>
<path fill="#a52a2a" stroke="#a52a2a" d="M-8.523080063935227 10.684960087999292 L-8.523080063935227 10.684960087999292 L-8.348720042623485 10.811640058666194 L-7.999999999999999 11.064999999999998 L-7.999999999999999 11.064999999999998 z"/>
<path fill="#a52a2a" stroke="#a52a2a" d="M-7.825639978688249 10.938320029333106 L-7.476919936064764 10.684960087999302 L-7.476919936064764 10.684960087999302 L-7.999999999999992 11.065000000000008 L-7.999999999999992 11.065000000000008 z"/>
<path fill="#a52a2a" stroke="#a52a2a" d="M-6.95 10.415000000000006 L-7.05 10.415000000000006 L-7.56463 10.415000000000006 L-7.56463 10.415000000000006 L-7.56463 10.415000000000006 L-7.56463 10.415000000000006 L-7.05 10.415000000000006 L-6.95 10.415000000000006 L-6.73003 10.415000000000006 L-6.43537 10.415000000000006 L-6.43537 10.415000000000006 L-6.43537 10.415000000000006 L-6.43537 10.415000000000006 z"/>
<path fill="#a52a2a" stroke="#a52a2a" d="M-6.43537 9.585000000000006 L-6.43537 9.585000000000006 L-6.43537 9.585000000000006 L-6.43537 9.585000000000006 L-6.43537 9.585000000000006 L-6.95 9.585000000000006 L-7.05 9.585000000000006 L-7.56463 9.585000000000006 L-7.56463 9.585000000000006 L-7.56463 9.585000000000006 L-7.56463 9.585000000000006 L-7.56463 9.585000000000006 L-7.56463 9.585000000000006 L-7.56463 9.585000000000006 L-7.05 9.585000000000006 L-6.95 9.585000000000006 L-6.43537 9.585000000000006 L-6.43537 9.585000000000006 z"/>
<path fill="#a52a2a" stroke="#a52a2a" d="M-5.999999999999993 8.93500000000001 L-5.999999999999993 8.93500000000001 L-6.174360021311736 9.061679970666912 L-6.189998535220305 9.07304201609629 L-6.217682958976382 9.093155927318403 L-6.399920528882567 9.225559272055595 L-6.523080063935222 9.315039912000715 L-6.523080063935222 9.315039912000715 z"/>
<path fill="#a52a2a" stroke="#a52a2a" d="M-3.564633640673529 10.415001182926536 L-3.564633640673529 10.415001182926536 L-3.564633640673529 10.415001182926536 L-3.564633640673529 10.415001182926536 L-3.4769188276074043 10.684959619066554 L-3.4769188276074043 10.684959619066554 L-3.49826242288897 10.619270787244348 L-3.4988770846841297 10.617379052756453 L-3.5257214853918204 10.53476048263306 L-3.5435177332759125 10.479989263496698 z"/>
<path fill="#a52a2a" stroke="#a52a2a" d="M-6.4353663593264505 10.415001182926542 L-6.4353663593264505 10.415001182926542 L-6.446832162725383 10.450289297287926 L-6.455143470490576 10.475868872369256 L-6.503534688038662 10.624801725960864 L-6.522161604077994 10.682129478803466 L-6.523081172392576 10.684959619066559 L-6.523081172392576 10.684959619066559 L-6.4353663593264505 10.415001182926542 L-6.4353663593264505 10.415001182926542 z"/>
<path fill="#a52a2a" stroke="#a52a2a" d="M-6.523080063935228 10.684960087999292 L-6.523080063935228 10.684960087999292 L-6.3639992961259475 10.800539031200481 L-6.348720042623485 10.811640058666194 L-5.999999999999999 11.064999999999998 L-5.999999999999999 11.064999999999998 z"/>
<path fill="#a52a2a" stroke="#a52a2a" d="M-5.825639978688249 10.938320029333106 L-5.727049896819426 10.866690142015877 L-5.611002398276397 10.782376699055725 L-5.544158642826158 10.733811867989537 L-5.476919936064764 10.684960087999302 L-5.476919936064764 10.684960087999302 L-5.999999999999992 11.065000000000008 L-5.999999999999992 11.065000000000008 z"/>
<path fill="#a52a2a" stroke="#a52a2a" d="M-5.515450841745453 10.566370273499675 L-5.530686757488313 10.519478946444087 L-5.5435177332759125 10.479989263496698 L-5.564633640673529 10.415001182926536 L-5.564633640673529 10.415001182926536 L-5.564633640673529 10.415001182926536 L-5.564633640673529 10.415001182926536 L-5.476918827607404 10.684959619066554 L-5.476918827607404 10.684959619066554 L-5.506957765639112 10.592509274012139 z"/>
<path fill="#a52a2a" stroke="#a52a2a" d="M-4.95 10.415000000000006 L-5.05 10.415000000000006 L-5.56463 10.415000000000006 L-5.56463 10.415000000000006 L-5.56463 10.415000000000006 L-5.56463 10.415000000000006 L-5.05 10.415000000000006 L-4.96433 10.415000000000006 L-4.95 10.415000000000006 L-4.43537 10.415000000000006 L-4.43537 10.415000000000006 L-4.43537 10.415000000000006 L-4.43537 10.415000000000006 z"/>
<path fill="#a52a2a" stroke="#a52a2a" d="M-4.523080063935228 10.684960087999292 L-4.523080063935228 10.684960087999292 L-4.514629723628968 10.691099619607908 L-4.475737459598097 10.71935650343675 L-4.348720042623485 10.811640058666194 L-4.339481589497303 10.81835218775535 L-4.254091335786988 10.880391838553061 L-4.170908391068495 10.940827785495765 L-4.0304306233570575 11.042890857977383 L-3.9999999999999996 11.064999999999998 L-3.9999999999999996 11.064999999999998 z"/>
<path fill="#a52a2a" stroke="#a52a2a" d="M-4.43537 9.585000000000006 L-4.43537 9.585000000000006 L-4.43537 9.585000000000006 L-4.43537 9.585000000000006 L-4.43537 9.585000000000006 L-4.95 9.585000000000006 L-5.05 9.585000000000006 L-5.56463 9.585000000000006 L-5.56463 9.585000000000006 L-5.56463 9.585000000000006 L-5.56463 9.585000000000006 L-5.56463 9.585000000000006 L-5.56463 9.585000000000006 L-5.56463 9.585000000000006 L-5.05 9.585000000000006 L-4.95 9.585000000000006 L-4.43537 9.585000000000006 L-4.43537 9.585000000000006 z"/>
<path fill="#a52a2a" stroke="#a52a2a" d="M-3.754880049675897 10.886909931626992 L-3.6620297994174047 10.819450276078257 L-3.6360702958817543 10.8005895927537 L-3.5898215284130752 10.766987896319876 L-3.476919936064764 10.684960087999302 L-3.476919936064764 10.684960087999302 L-3.9999999999999925 11.065000000000008 L-3.9999999999999925 11.065000000000008 L-3.9771798575740878 11.048420196032449 L-3.8740490638761456 10.973491288463947 L-3.8256399786882493 10.938320029333106 L-3.814640914436588 10.930328741386012 z"/>
<path fill="#a52a2a" stroke="#a52a2a" d="M-2.5230800639352284 10.684960087999292 L-2.5230800639352284 10.684960087999292 L-2.406378881305117 10.769748460248588 L-2.4035630896964277 10.771794252602302 L-2.3487200426234853 10.811640058666194 L-2.3060394886783673 10.84264929622615 L-2.1590516219892018 10.949442232476612 L-2.100536868282327 10.991955689560415 L-2.0681077119565803 11.015516850778404 L-1.9999999999999998 11.064999999999998 L-1.9999999999999998 11.064999999999998 z"/>
<path fill="#a52a2a" stroke="#a52a2a" d="M-4.4353663593264505 10.415001182926542 L-4.4353663593264505 10.415001182926542 L-4.4353663593264505 10.415001182926542 L-4.4576754424653995 10.483661480832758 L-4.458276438725457 10.485511157128242 L-4.511543073295666 10.649449001425705 L-4.523081172392576 10.684959619066559 L-4.523081172392576 10.684959619066559 L-4.4353663593264505 10.415001182926542 z"/>
<path fill="#a52a2a" stroke="#a52a2a" d="M-2.95 10.415000000000006 L-3.05 10.415000000000006 L-3.56463 10.415000000000006 L-3.56463 10.415000000000006 L-3.56463 10.415000000000006 L-3.56463 10.415000000000006 L-3.55429 10.415000000000006 L-3.19862 10.415000000000006 L-3.05 10.415000000000006 L-2.95 10.415000000000006 L-2.43537 10.415000000000006 L-2.43537 10.415000000000006 L-2.43537 10.415000000000006 L-2.43537 10.415000000000006 z"/>
<path fill="#a52a2a" stroke="#a52a2a" d="M-2.435366359326455 9.584998817073458 L-2.52308117239258 9.31504038093344 L-2.52308117239258 9.31504038093344 L-2.5129180173781505 9.346319355807111 L-2.5047103044036056 9.371580098906726 L-2.504164999380161 9.37325837520012 L-2.503917768108587 9.374019274814518 L-2.4890199678078755 9.419869989540144 L-2.474697742527074 9.463949266502583 L-2.456482266724072 9.520010736503295 L-2.435366359326455 9.584998817073458 L-2.435366359326455 9.584998817073458 L-2.435366359326455 9.584998817073458 L-2.435366359326455 9.584998817073458 L-2.435366359326455 9.584998817073458 L-2.435366359326455 9.584998817073458 L-2.435366359326455 9.584998817073458 z"/>
<path fill="#a52a2a" stroke="#a52a2a" d="M-1.4881608369636772 10.650360271945981 L-1.519050941453279 10.555290305896712 L-1.5315408628724685 10.51685028036426 L-1.5435177332759125 10.479989263496698 L-1.5646336406735293 10.415001182926536 L-1.5646336406735293 10.415001182926536 L-1.5646336406735293 10.415001182926536 L-1.5646336406735293 10.415001182926536 L-1.5646336406735293 10.415001182926536 L-1.4769188276074043 10.684959619066554 L-1.4769188276074043 10.684959619066554 L-1.4833030534991218 10.665310992142006 z"/>
<path fill="#a52a2a" stroke="#a52a2a" d="M-2.43537 9.585000000000006 L-2.43537 9.585000000000006 L-2.43537 9.585000000000006 L-2.43537 9.585000000000006 L-2.95 9.585000000000006 L-3.05 9.585000000000006 L-3.56463 9.585000000000006 L-3.56463 9.585000000000006 L-3.56463 9.585000000000006 L-3.56463 9.585000000000006 L-3.56463 9.585000000000006 L-3.56463 9.585000000000006 L-3.56463 9.585000000000006 L-3.05 9.585000000000006 L-2.95 9.585000000000006 L-2.43537 9.585000000000006 L-2.43537 9.585000000000006 L-2.43537 9.585000000000006 L-2.43537 9.585000000000006 z"/>
<path fill="#a52a2a" stroke="#a52a2a" d="M-0.95 10.415000000000006 L-1.05 10.415000000000006 L-1.56463 10.415000000000006 L-1.56463 10.415000000000006 L-1.56463 10.415000000000006 L-1.56463 10.415000000000006 L-1.56463 10.415000000000006 L-1.43292 10.415000000000006 L-1.05 10.415000000000006 L-0.95 10.415000000000006 L-0.69322 10.415000000000006 L-0.43537 10.415000000000006 L-0.43537 10.415000000000006 L-0.43537 10.415000000000006 L-0.43537 10.415000000000006 z"/>
<path fill="#a52a2a" stroke="#a52a2a" d="M-1.5332517713173146 10.725887561990872 L-1.4792015923468762 10.686617808322547 L-1.476919936064764 10.684960087999302 L-1.476919936064764 10.684960087999302 L-1.9999999999999925 11.065000000000008 L-1.9999999999999925 11.065000000000008 L-1.9516135155472034 11.029845161264387 L-1.9289034113166414 11.01334530472545 L-1.888448011815869 10.983952736500692 L-1.8256399786882493 10.938320029333106 L-1.7896782997439924 10.912192340201628 L-1.7263200756396613 10.866159895890938 L-1.7245077179589963 10.864843140959977 L-1.6460903167428873 10.807869564040814 z"/>
<path fill="#a52a2a" stroke="#a52a2a" d="M-2.435366359326451 10.415001182926542 L-2.435366359326451 10.415001182926542 L-2.4609501373511504 10.493739955371906 L-2.4656974932575064 10.508350814490008 L-2.472630918013958 10.529689701719184 L-2.488630054970399 10.578929982139034 L-2.521680807069948 10.680649737767077 L-2.523081172392576 10.684959619066559 L-2.523081172392576 10.684959619066559 L-2.435366359326451 10.415001182926542 L-2.435366359326451 10.415001182926542 z"/>
<path fill="#a52a2a" stroke="#a52a2a" d="M-0.5230800639352284 10.684960087999292 L-0.5230800639352284 10.684960087999292 L-0.5134888954879124 10.69192847976953 L-0.4540985915008801 10.735078061367275 L-0.3487200426234853 10.811640058666194 L-0.30950896437414016 10.84012857458329 L-0.2870706830894481 10.856430940191965 L-0.25768869513062936 10.877778204001388 L-0.2545201882008057 10.880080259036186 L-0.180297328577652 10.934006323102578 L-0.030899921958505605 11.042549892585097 L5.1129847806328237e-17 11.064999999999998 L5.1129847806328237e-17 11.064999999999998 z"/>
<path fill="#a52a2a" stroke="#a52a2a" d="M-0.43536635932645534 9.584998817073458 L-0.5230811723925803 9.31504038093344 L-0.5230811723925803 9.31504038093344 L-0.5025985152627208 9.378079517579614 L-0.4903714746614407 9.415710479146547 L-0.4894225912654219 9.418630841953172 L-0.4749742888800858 9.463098144344652 L-0.45648226672407216 9.520010736503295 L-0.43536635932645534 9.584998817073458 L-0.43536635932645534 9.584998817073458 L-0.43536635932645534 9.584998817073458 L-0.43536635932645534 9.584998817073458 L-0.43536635932645534 9.584998817073458 L-0.43536635932645534 9.584998817073458 z"/>
<path fill="#a52a2a" stroke="#a52a2a" d="M0.4353663593264705 10.415001182926536 L0.4353663593264705 10.415001182926536 L0.4353663593264705 10.415001182926536 L0.4353663593264705 10.415001182926536 L0.4353663593264705 10.415001182926536 L0.5230811723925956 10.684959619066554 L0.5230811723925956 10.684959619066554 L0.5117023593229479 10.649939233409505 L0.49037147466145586 10.584289520853446 L0.45648226672408737 10.479989263496698 L0.4430962142192303 10.438791230074736 z"/>
<path fill="#a52a2a" stroke="#a52a2a" d="M1.05 10.415000000000006 L0.95 10.415000000000006 L0.43537 10.415000000000006 L0.43537 10.415000000000006 L0.43537 10.415000000000006 L0.43537 10.415000000000006 L0.43537 10.415000000000006 L0.73731 10.415000000000006 L0.95 10.415000000000006 L1.05 10.415000000000006 L1.56463 10.415000000000006 L1.56463 10.415000000000006 L1.56463 10.415000000000006 L1.56463 10.415000000000006 z"/>
<path fill="#a52a2a" stroke="#a52a2a" d="M0.3169285147346941 10.834737955707684 L0.4276293431761569 10.754309095959536 L0.4937319770790774 10.706282721215896 L0.5116004007145726 10.693300551536293 L0.5230800639352358 10.684960087999302 L0.5230800639352358 10.684960087999302 L7.336735258369952e-15 11.065000000000008 L7.336735258369952e-15 11.065000000000008 L0.02060153306653848 11.050032110085064 L0.11729181979446243 10.979782504732196 L0.16360363418588014 10.94613500202774 L0.16556172096693694 10.944712368707778 L0.1743600213117504 10.938320029333106 L0.18356932861785386 10.931629075921752 L0.19722060992528734 10.921710839490137 L0.28285354076139285 10.859494873439964 z"/>
<path fill="#a52a2a" stroke="#a52a2a" d="M1.4769199360647713 10.684960087999292 L1.4769199360647713 10.684960087999292 L1.4983095819512247 10.700500575394775 L1.6512799573765147 10.811640058666194 L1.6636916727151019 10.820657697705174 L1.7650910011076437 10.894328622093537 L1.818370912710685 10.933038743761513 L1.8353233398783912 10.945355403051765 L1.8614803190696187 10.964359560838343 L1.9559989877107733 11.03303139329659 L2 11.064999999999998 L2 11.064999999999998 z"/>
<path fill="#a52a2a" stroke="#a52a2a" d="M-0.4353663593264512 10.415001182926542 L-0.4353663593264512 10.415001182926542 L-0.4353663593264512 10.415001182926542 L-0.4507283521738458 10.462280535411173 L-0.4653496061215456 10.507280127978866 L-0.47086995493529527 10.52427001464241 L-0.4911708437240066 10.586749725857452 L-0.5230811723925761 10.684959619066559 L-0.5230811723925761 10.684959619066559 L-0.4353663593264512 10.415001182926542 z"/>
<path fill="#a52a2a" stroke="#a52a2a" d="M3.476919936064771 10.684960087999292 L3.476919936064771 10.684960087999292 L3.6512799573765142 10.811640058666194 L3.8636001906012036 10.965899737659948 L3.8674515274381887 10.968697897661691 L3.955529689109325 11.032690427904303 L4 11.064999999999998 L4 11.064999999999998 z"/>
<path fill="#a52a2a" stroke="#a52a2a" d="M2.44677777896813 10.740396943011888 L2.5230800639352355 10.684960087999302 L2.5230800639352355 10.684960087999302 L2.000000000000007 11.065000000000008 L2.000000000000007 11.065000000000008 L2.0263413646768695 11.04586187831657 L2.0813997328579146 11.005859632310463 L2.0962792797666396 10.995049008683825 L2.1058526027614315 10.988093582393777 L2.1355016583835384 10.966552282569118 L2.17436002131175 10.938320029333106 L2.190299503986267 10.926739317295665 L2.275319196922922 10.864968894659228 L2.3082289522176698 10.841058557851344 L2.384358152066695 10.785747456538008 L2.426459369215022 10.75515913179896 z"/>
<path fill="#a52a2a" stroke="#a52a2a" d="M1.5646336406735486 10.415001182926542 L1.5646336406735486 10.415001182926542 L1.5284215601727087 10.526450506930843 L1.5218291897846672 10.54673973674508 L1.5082477034035604 10.588539253790582 L1.4839626799220742 10.663280870759467 L1.4769188276074237 10.684959619066559 L1.4769188276074237 10.684959619066559 L1.5646336406735486 10.415001182926542 L1.5646336406735486 10.415001182926542 z"/>
<path fill="#a52a2a" stroke="#a52a2a" d="M2.504710304403621 10.628419901093267 L2.5039177681086024 10.625980725185475 L2.456482266724087 10.479989263496698 L2.4353663593264705 10.415001182926536 L2.4353663593264705 10.415001182926536 L2.4353663593264705 10.415001182926536 L2.4353663593264705 10.415001182926536 L2.4353663593264705 10.415001182926536 L2.523081172392595 10.684959619066554 L2.523081172392595 10.684959619066554 z"/>
<path fill="#a52a2a" stroke="#a52a2a" d="M3.05 10.415000000000006 L2.95 10.415000000000006 L2.43537 10.415000000000006 L2.43537 10.415000000000006 L2.43537 10.415000000000006 L2.43537 10.415000000000006 L2.43537 10.415000000000006 L2.95 10.415000000000006 L3.05 10.415000000000006 L3.56463 10.415000000000006 L3.56463 10.415000000000006 L3.56463 10.415000000000006 L3.56463 10.415000000000006 z"/>
<path fill="#a52a2a" stroke="#a52a2a" d="M5.05 10.415000000000006 L4.95 10.415000000000006 L4.43537 10.415000000000006 L4.43537 10.415000000000006 L4.43537 10.415000000000006 L4.43537 10.415000000000006 L4.95 10.415000000000006 L5.05 10.415000000000006 L5.56463 10.415000000000006 L5.56463 10.415000000000006 L5.56463 10.415000000000006 L5.56463 10.415000000000006 L5.56463 10.415000000000006 z"/>
<path fill="#a52a2a" stroke="#a52a2a" d="M7.0500000000000105 10.415 L7.0500000000000105 10.415 L7.0500000000000105 10.39444 L7.0500000000000105 10.36783 L7.0500000000000105 10.32839 L7.0500000000000105 10.32614 L7.0500000000000105 10.27712 L7.0500000000000105 10.19323 L7.0500000000000105 10.18133 L7.0500000000000105 10.13833 L7.0500000000000105 10.03104 L7.0500000000000105 9.585 L7.0500000000000105 9.585 z"/>
<path fill="#a52a2a" stroke="#a52a2a" d="M4.523081172392599 9.315040380933446 L4.523081172392599 9.315040380933446 L4.4353663593264745 9.584998817073464 L4.4353663593264745 9.584998817073464 L4.4353663593264745 9.584998817073464 L4.4353663593264745 9.584998817073464 L4.4353663593264745 9.584998817073464 L4.4353663593264745 9.584998817073464 L4.4353663593264745 9.584998817073464 L4.446995342593958 9.549208486717044 z"/>
<path fill="#a52a2a" stroke="#a52a2a" d="M5.56463 9.585000000000006 L5.56463 9.585000000000006 L5.56463 9.585000000000006 L5.56463 9.585000000000006 L5.05 9.585000000000006 L4.95 9.585000000000006 L4.43537 9.585000000000006 L4.43537 9.585000000000006 L4.43537 9.585000000000006 L4.43537 9.585000000000006 L4.43537 9.585000000000006 L4.43537 9.585000000000006 L4.43537 9.585000000000006 L4.95 9.585000000000006 L5.05 9.585000000000006 L5.56463 9.585000000000006 z"/>
<path fill="#a52a2a" stroke="#a52a2a" d="M4.523080063935235 10.684960087999302 L4.523080063935235 10.684960087999302 L4.000000000000007 11.065000000000008 L4.000000000000007 11.065000000000008 L4.022200359441489 11.048870494728767 L4.064741729371185 11.017962380275234 L4.066560632136821 11.016640870061693 L4.17436002131175 10.938320029333106 L4.355560256187248 10.806670352611496 z"/>
<path fill="#a52a2a" stroke="#a52a2a" d="M3.5646336406735486 10.415001182926542 L3.5646336406735486 10.415001182926542 L3.5613100873187347 10.425230028371576 L3.518924864348763 10.55567833132576 L3.4769188276074234 10.684959619066559 L3.4769188276074234 10.684959619066559 L3.5646336406735486 10.415001182926542 L3.5646336406735486 10.415001182926542 z"/>
<path fill="#a52a2a" stroke="#a52a2a" d="M6.43536635932647 10.415001182926536 L6.43536635932647 10.415001182926536 L6.43536635932647 10.415001182926536 L6.43536635932647 10.415001182926536 L6.523081172392595 10.684959619066554 L6.523081172392595 10.684959619066554 L6.503800507782851 10.62561983501135 L6.464611806148132 10.505009413146897 L6.45752203429068 10.483189339018889 L6.456482266724087 10.479989263496698 L6.4555304444018065 10.477059855605098 L6.4487035533622645 10.456048845442611 L6.444685180650557 10.443681565901556 L6.444171174719783 10.442099618310404 z"/>
<path fill="#a52a2a" stroke="#a52a2a" d="M4.43536635932647 10.415001182926536 L4.43536635932647 10.415001182926536 L4.43536635932647 10.415001182926536 L4.43536635932647 10.415001182926536 L4.523081172392595 10.684959619066554 L4.523081172392595 10.684959619066554 L4.456482266724087 10.479989263496698 L4.444431116611431 10.442899637190951 L4.4410518720200045 10.432499391743827 z"/>
<path fill="#a52a2a" stroke="#a52a2a" d="M5.564633640673544 9.584998817073458 L5.476918827607419 9.31504038093344 L5.476918827607419 9.31504038093344 L5.491932933318853 9.361249046906929 L5.502681435047005 9.394329533724962 L5.543517733275928 9.520010736503295 L5.564633640673544 9.584998817073458 L5.564633640673544 9.584998817073458 L5.564633640673544 9.584998817073458 L5.564633640673544 9.584998817073458 z"/>
<path fill="#a52a2a" stroke="#a52a2a" d="M7.05 10.415000000000006 L6.43537 10.415000000000006 L6.43537 10.415000000000006 L6.43537 10.415000000000006 L6.43537 10.415000000000006 L6.74607 10.415000000000006 L7.05 10.415000000000006 z"/>
<path fill="#a52a2a" stroke="#a52a2a" d="M6.523081172392599 9.315040380933446 L6.523081172392599 9.315040380933446 L6.4353663593264745 9.584998817073464 L6.4353663593264745 9.584998817073464 L6.4353663593264745 9.584998817073464 L6.4353663593264745 9.584998817073464 L6.4353663593264745 9.584998817073464 L6.454821959509815 9.525120636683333 z"/>
<path fill="#a52a2a" stroke="#a52a2a" d="M6.43537 9.585000000000006 L6.43537 9.585000000000006 L6.43537 9.585000000000006 L6.43537 9.585000000000006 L7.05 9.585000000000006 L7.05 9.585000000000006 L6.43537 9.585000000000006 z"/>
<path fill="#a52a2a" stroke="#a52a2a" d="M5.564633640673549 10.415001182926542 L5.564633640673549 10.415001182926542 L5.559772918282731 10.429960948207537 L5.5509710418156795 10.457050338506434 L5.548391166286822 10.46499037894956 L5.5391348689669 10.493478332826284 L5.486296279094385 10.656098791004478 L5.476918827607423 10.684959619066559 L5.476918827607423 10.684959619066559 L5.564633640673549 10.415001182926542 L5.564633640673549 10.415001182926542 L5.564633640673549 10.415001182926542 z"/>
<path fill="#a52a2a" stroke="#a52a2a" d="M6.523080063935235 10.684960087999302 L6.523080063935235 10.684960087999302 L6.000000000000007 11.065000000000008 L6.000000000000007 11.065000000000008 L6.17436002131175 10.938320029333106 z"/>
<path fill="#a52a2a" stroke="#a52a2a" d="M5.476919936064771 10.684960087999292 L5.476919936064771 10.684960087999292 L5.651279957376514 10.811640058666194 L6 11.064999999999998 L6 11.064999999999998 z"/>
<path fill="#a52a2a" stroke="#a52a2a" d="M-9.476918827607399 9.315040380933446 L-9.476918827607399 9.315040380933446 L-9.564633640673524 9.584998817073464 L-9.564633640673524 9.584998817073464 L-9.564633640673524 9.584998817073464 L-9.564633640673524 9.584998817073464 L-9.564633640673524 9.584998817073464 L-9.564633640673524 9.584998817073464 L-9.564633640673524 9.584998817073464 L-9.564633640673524 9.584998817073464 L-9.564633640673524 9.584998817073464 z"/>
<path fill="#a52a2a" stroke="#a52a2a" d="M-8.435366359326455 9.584998817073458 L-8.52308117239258 9.31504038093344 L-8.52308117239258 9.31504038093344 L-8.456482266724072 9.520010736503295 L-8.435366359326455 9.584998817073458 L-8.435366359326455 9.584998817073458 L-8.435366359326455 9.584998817073458 L-8.435366359326455 9.584998817073458 L-8.435366359326455 9.584998817073458 L-8.435366359326455 9.584998817073458 z"/>
<path fill="#a52a2a" stroke="#a52a2a" d="M-7.4769188276074 9.315040380933446 L-7.4769188276074 9.315040380933446 L-7.564633640673525 9.584998817073464 L-7.564633640673525 9.584998817073464 L-7.564633640673525 9.584998817073464 L-7.564633640673525 9.584998817073464 L-7.564633640673525 9.584998817073464 L-7.564633640673525 9.584998817073464 L-7.564633640673525 9.584998817073464 z"/>
<path fill="#a52a2a" stroke="#a52a2a" d="M-7.999999999999999 8.934999999999999 L-7.999999999999999 8.934999999999999 L-7.47691993606477 9.315039912000705 L-7.47691993606477 9.315039912000705 L-7.651279957376514 9.188359941333804 z"/>
<path fill="#a52a2a" stroke="#a52a2a" d="M-5.4769188276074 9.315040380933446 L-5.4769188276074 9.315040380933446 L-5.564633640673525 9.584998817073464 L-5.564633640673525 9.584998817073464 L-5.564633640673525 9.584998817073464 L-5.564633640673525 9.584998817073464 L-5.564633640673525 9.584998817073464 L-5.564633640673525 9.584998817073464 L-5.564633640673525 9.584998817073464 L-5.502681435046986 9.394329533724969 L-5.491932933318833 9.361249046906934 z"/>
<path fill="#a52a2a" stroke="#a52a2a" d="M-6.435366359326455 9.584998817073458 L-6.52308117239258 9.31504038093344 L-6.52308117239258 9.31504038093344 L-6.4564822667240716 9.520010736503295 L-6.435366359326455 9.584998817073458 L-6.435366359326455 9.584998817073458 L-6.435366359326455 9.584998817073458 L-6.435366359326455 9.584998817073458 L-6.435366359326455 9.584998817073458 L-6.435366359326455 9.584998817073458 z"/>
<path fill="#a52a2a" stroke="#a52a2a" d="M-4.435366359326455 9.584998817073458 L-4.52308117239258 9.31504038093344 L-4.52308117239258 9.31504038093344 L-4.5129180173781505 9.346319355807111 L-4.489422591265422 9.418630841953172 L-4.474974288880086 9.463098144344652 L-4.4564822667240716 9.520010736503295 L-4.435366359326455 9.584998817073458 L-4.435366359326455 9.584998817073458 L-4.435366359326455 9.584998817073458 L-4.435366359326455 9.584998817073458 L-4.435366359326455 9.584998817073458 L-4.435366359326455 9.584998817073458 z"/>
<path fill="#a52a2a" stroke="#a52a2a" d="M-5.999999999999999 8.934999999999999 L-5.999999999999999 8.934999999999999 L-5.47691993606477 9.315039912000705 L-5.47691993606477 9.315039912000705 L-5.651279957376514 9.188359941333804 z"/>
<path fill="#a52a2a" stroke="#a52a2a" d="M-3.4769188276074 9.315040380933446 L-3.4769188276074 9.315040380933446 L-3.564633640673525 9.584998817073464 L-3.564633640673525 9.584998817073464 L-3.564633640673525 9.584998817073464 L-3.564633640673525 9.584998817073464 L-3.564633640673525 9.584998817073464 L-3.564633640673525 9.584998817073464 L-3.564633640673525 9.584998817073464 L-3.5189248643487394 9.444321668674245 L-3.510749405381894 9.419160193203133 z"/>
<path fill="#a52a2a" stroke="#a52a2a" d="M-3.999999999999993 8.93500000000001 L-3.999999999999993 8.93500000000001 L-4.064741729371171 8.982037619724784 L-4.066560632136807 8.983359129938325 L-4.174360021311736 9.061679970666912 L-4.332068584221721 9.176261948651625 L-4.355560256187234 9.19332964738852 L-4.507239319088494 9.303530937194287 L-4.523080063935222 9.315039912000715 L-4.523080063935222 9.315039912000715 z"/>
<path fill="#a52a2a" stroke="#a52a2a" d="M-3.8636001906012027 9.034100262340049 L-3.867451527438188 9.031302102338307 L-3.999999999999999 8.934999999999999 L-3.999999999999999 8.934999999999999 L-3.4769199360647707 9.315039912000705 L-3.4769199360647707 9.315039912000705 L-3.651279957376514 9.188359941333804 z"/>
<path fill="#a52a2a" stroke="#a52a2a" d="M-0.43537 9.585000000000006 L-0.43537 9.585000000000006 L-0.43537 9.585000000000006 L-0.95 9.585000000000006 L-1.05 9.585000000000006 L-1.56463 9.585000000000006 L-1.56463 9.585000000000006 L-1.56463 9.585000000000006 L-1.56463 9.585000000000006 L-1.56463 9.585000000000006 L-1.56463 9.585000000000006 L-1.56463 9.585000000000006 L-1.05 9.585000000000006 L-0.95 9.585000000000006 L-0.43537 9.585000000000006 L-0.43537 9.585000000000006 L-0.43537 9.585000000000006 L-0.43537 9.585000000000006 z"/>
<path fill="#a52a2a" stroke="#a52a2a" d="M-1.4769188276074001 9.315040380933446 L-1.4769188276074001 9.315040380933446 L-1.564633640673525 9.584998817073464 L-1.564633640673525 9.584998817073464 L-1.564633640673525 9.584998817073464 L-1.564633640673525 9.584998817073464 L-1.564633640673525 9.584998817073464 L-1.564633640673525 9.584998817073464 L-1.564633640673525 9.584998817073464 L-1.5302509251080354 9.479179699414177 L-1.5284215601726852 9.473549493069164 L-1.5218291897846437 9.453260263254927 z"/>
<path fill="#a52a2a" stroke="#a52a2a" d="M-1.9999999999999931 8.93500000000001 L-1.9999999999999931 8.93500000000001 L-2.081399732857901 8.994140367689555 L-2.0962792797666254 9.004950991316193 L-2.174360021311736 9.061679970666912 L-2.1902995039862527 9.073260682704353 L-2.426459369215008 9.244840868201058 L-2.446777778968116 9.25960305698813 L-2.465398624518483 9.273131893187891 L-2.5230800639352218 9.315039912000715 L-2.5230800639352218 9.315039912000715 z"/>
<path fill="#a52a2a" stroke="#a52a2a" d="M6.808792837314614e-15 8.93500000000001 L6.808792837314614e-15 8.93500000000001 L-0.15572133030884325 9.04813816898696 L-0.1743600213117363 9.061679970666912 L-0.18356932861783976 9.068370924078266 L-0.1972206099252732 9.07828916050988 L-0.2828535407613788 9.140505126560054 L-0.34116785333248295 9.182872954634359 L-0.4536001470793462 9.264559797562645 L-0.49373197707906336 9.293717278784122 L-0.5036889510174575 9.300951443800606 L-0.5116004007145585 9.306699448463725 L-0.5230800639352217 9.315039912000715 L-0.5230800639352217 9.315039912000715 z"/>
<path fill="#a52a2a" stroke="#a52a2a" d="M-1.651279957376514 9.188359941333804 L-1.6636916727151014 9.179342302294822 L-1.8353233398783908 9.054644596948233 L-1.8614803190696183 9.035640439161654 L-1.9999999999999993 8.934999999999999 L-1.9999999999999993 8.934999999999999 L-1.476919936064771 9.315039912000705 L-1.476919936064771 9.315039912000705 z"/>
<path fill="#a52a2a" stroke="#a52a2a" d="M1.56463 9.585000000000006 L1.56463 9.585000000000006 L1.56463 9.585000000000006 L1.56463 9.585000000000006 L1.56463 9.585000000000006 L1.56463 9.585000000000006 L1.56463 9.585000000000006 L1.05 9.585000000000006 L0.95 9.585000000000006 L0.43537 9.585000000000006 L0.43537 9.585000000000006 L0.43537 9.585000000000006 L0.43537 9.585000000000006 L0.43537 9.585000000000006 L0.43537 9.585000000000006 L0.43537 9.585000000000006 L0.95 9.585000000000006 L1.05 9.585000000000006 z"/>
<path fill="#a52a2a" stroke="#a52a2a" d="M0.5230811723925997 9.315040380933446 L0.5230811723925997 9.315040380933446 L0.4353663593264747 9.584998817073464 L0.4353663593264747 9.584998817073464 L0.4353663593264747 9.584998817073464 L0.4353663593264747 9.584998817073464 L0.4353663593264747 9.584998817073464 L0.4353663593264747 9.584998817073464 L0.4353663593264747 9.584998817073464 L0.4653496061215691 9.492719872021139 L0.466090345021264 9.490440112104203 L0.47086995493531875 9.475729985357598 L0.47516876784132733 9.462499599647378 z"/>
<path fill="#a52a2a" stroke="#a52a2a" d="M0.3487200426234859 9.188359941333804 L0.30950896437414077 9.159871425416707 L0.28707068308944866 9.143569059808032 L0.24176051282366567 9.110649294158778 L5.790722688616656e-16 8.934999999999999 L5.790722688616656e-16 8.934999999999999 L0.523080063935229 9.315039912000705 L0.523080063935229 9.315039912000705 L0.5178321316614526 9.311227066019715 L0.45409859150088067 9.264921938632723 z"/>
<path fill="#a52a2a" stroke="#a52a2a" d="M1.5646336406735446 9.584998817073458 L1.4769188276074194 9.31504038093344 L1.4769188276074194 9.31504038093344 L1.4783778230929225 9.319530707319986 L1.4833030534991372 9.334689007857987 L1.4857666236172722 9.34227109705325 L1.4881608369636923 9.349639728054012 L1.507607620368248 9.409490773189225 L1.510577408734578 9.418630841953172 L1.519050941453294 9.444709694103281 L1.5245585796469696 9.461660461500674 L1.5435177332759278 9.520010736503295 L1.5646336406735446 9.584998817073458 L1.5646336406735446 9.584998817073458 L1.5646336406735446 9.584998817073458 L1.5646336406735446 9.584998817073458 L1.5646336406735446 9.584998817073458 L1.5646336406735446 9.584998817073458 z"/>
<path fill="#a52a2a" stroke="#a52a2a" d="M3.56463 9.585000000000006 L3.56463 9.585000000000006 L3.56463 9.585000000000006 L3.25806 9.585000000000006 L3.05 9.585000000000006 L2.95 9.585000000000006 L2.43537 9.585000000000006 L2.43537 9.585000000000006 L2.43537 9.585000000000006 L2.43537 9.585000000000006 L2.43537 9.585000000000006 L2.43537 9.585000000000006 L2.43537 9.585000000000006 L2.95 9.585000000000006 L3.05 9.585000000000006 L3.56463 9.585000000000006 L3.56463 9.585000000000006 L3.56463 9.585000000000006 L3.56463 9.585000000000006 z"/>
<path fill="#a52a2a" stroke="#a52a2a" d="M2.5230811723925997 9.315040380933446 L2.5230811723925997 9.315040380933446 L2.4353663593264745 9.584998817073464 L2.4353663593264745 9.584998817073464 L2.4353663593264745 9.584998817073464 L2.4353663593264745 9.584998817073464 L2.4353663593264745 9.584998817073464 L2.4353663593264745 9.584998817073464 L2.4353663593264745 9.584998817073464 L2.460950137351174 9.5062600446281 L2.461668393936982 9.50404947815849 L2.46569749325753 9.491649185509997 L2.467344134936704 9.486581343522376 L2.4753603078762882 9.46191010003507 L2.4854491831815073 9.430859734599581 z"/>
<path fill="#a52a2a" stroke="#a52a2a" d="M2.0000000000000067 8.93500000000001 L2.0000000000000067 8.93500000000001 L1.8256399786882636 9.061679970666912 L1.5691278026037414 9.248046975543517 L1.4883995992854413 9.306699448463725 L1.4769199360647782 9.315039912000715 L1.4769199360647782 9.315039912000715 z"/>
<path fill="#a52a2a" stroke="#a52a2a" d="M3.5646336406735446 9.584998817073458 L3.4769188276074194 9.31504038093344 L3.4769188276074194 9.31504038093344 L3.536641983767323 9.498849355434922 L3.5435177332759276 9.520010736503295 L3.5646336406735446 9.584998817073458 L3.5646336406735446 9.584998817073458 L3.5646336406735446 9.584998817073458 L3.5646336406735446 9.584998817073458 L3.5646336406735446 9.584998817073458 L3.5646336406735446 9.584998817073458 z"/>
<path fill="#a52a2a" stroke="#a52a2a" d="M2.0000000000000004 8.934999999999999 L2.0000000000000004 8.934999999999999 L2.523080063935229 9.315039912000705 L2.523080063935229 9.315039912000705 L2.3487200426234858 9.188359941333804 z"/>
<path fill="#a52a2a" stroke="#a52a2a" d="M4.523080063935229 9.315039912000705 L4.523080063935229 9.315039912000705 L4.40601307581404 9.229985766505164 L4.348720042623485 9.188359941333804 L4 8.934999999999999 L4 8.934999999999999 z"/>
<path fill="#a52a2a" stroke="#a52a2a" d="M4.000000000000006 8.93500000000001 L4.000000000000006 8.93500000000001 L3.8256399786882636 9.061679970666912 L3.476919936064778 9.315039912000715 L3.476919936064778 9.315039912000715 z"/>
<path fill="#a52a2a" stroke="#a52a2a" d="M6 8.934999999999999 L6 8.934999999999999 L6.523080063935229 9.315039912000705 L6.523080063935229 9.315039912000705 L6.348720042623485 9.188359941333804 L6.217682958976389 9.093155927318392 L6.189998535220312 9.073042016096279 L6.037520059131577 8.962259918612366 z"/>
<path fill="#a52a2a" stroke="#a52a2a" d="M6.000000000000006 8.93500000000001 L6.000000000000006 8.93500000000001 L5.885018982307742 9.018538599266776 L5.8256399786882636 9.061679970666912 L5.476919936064777 9.315039912000715 L5.476919936064777 9.315039912000715 z"/>
<path fill="#a52a2a" stroke="#a52a2a" d="M8.75024 12.68116 L7.55317 10.60777 L7.96891 8.25 L9.80293 6.71108 L12.19707 6.71108 L14.03109 8.25 L14.44683 10.60777 L13.24976 12.68116 L11 13.5 M13.74963 8.4125 L12.89427 7.91866 L11 6.825 L10.37129 7.18799 L10.37029 7.18856 L10.05532 7.37041 L9.87175 7.47639 L9.10573 7.91866 L8.25037 8.4125 L8.25037 9.40019 L8.25037 10.02436 L8.25037 10.39749 L8.25037 10.58157 L8.25037 10.60777 L8.25037 11.5875 L8.97158 12.00389 L9.38339 12.24165 L9.56241 12.34501 L9.60548 12.36987 L10.14464 12.68116 L11 13.175 L11.85536 12.68116 L13.74963 11.5875 L13.74963 10.86153 L13.74963 10.83881 L13.74963 10.68777 L13.74963 10.60777 L13.74963 10.58157 L13.74963 10.14214 L13.74963 10.02436 L13.74963 10.02275 L13.74963 9.40019 z"/>
<path fill="#a52a2a" stroke="#a52a2a" d="M8.750241823666459 12.68115498951758 L8.750241823666459 12.68115498951758 L10.999999999999998 13.500000000000002 L10.999999999999998 13.500000000000002 z"/>
<path fill="#a52a2a" stroke="#a52a2a" d="M14.446827457596914 10.607770448294259 L14.446827457596914 10.607770448294259 L14.0310889460152 8.250000185845957 L14.0310889460152 8.250000185845957 z"/>
<path fill="#a52a2a" stroke="#a52a2a" d="M7.968910449020774 8.250000535122119 L7.968910449020774 8.250000535122119 L9.8029277380559 6.711077304319992 L9.8029277380559 6.711077304319992 z"/>
<path fill="#a52a2a" stroke="#a52a2a" d="M7.55317 10.60777 L8.75024 12.68116 L11 13.5 L13.24976 12.68116 L14.44683 10.60777 L14.03109 8.25 L12.19707 6.71108 L9.80293 6.71108 L7.96891 8.25 M9.89043 10.94385 L9.42785 10.60777 L9.33565 10.54078 L9.75947 9.23641 L9.97138 8.58422 L11.34287 8.58422 L12.02862 8.58422 L12.45244 9.88859 L12.66435 10.54078 L12.57215 10.60777 L11.55478 11.34693 L11 11.75 z"/>
<path fill="#a52a2a" stroke="#a52a2a" d="M11.000000000000004 13.500000000000009 L13.249758176333541 12.681154989517587 L13.249758176333541 12.681154989517587 L11.000000000000004 13.500000000000009 z"/>
<path fill="#a52a2a" stroke="#a52a2a" d="M14.031089550979233 8.25000053512211 L12.197072261944108 6.711077304319981 L12.197072261944108 6.711077304319981 L14.031089550979233 8.25000053512211 z"/>
<path fill="#a52a2a" stroke="#a52a2a" d="M13.249755548917475 12.681157430166305 L14.446827254893783 10.607768415112186 L14.446827254893783 10.607768415112186 L13.249755548917475 12.681157430166305 z"/>
<path fill="#a52a2a" stroke="#a52a2a" d="M12.19707 6.711075827249328 L9.80293 6.711075827249328 L9.80293 6.711075827249328 L12.19707 6.711075827249328 z"/>
<path fill="#a52a2a" stroke="#a52a2a" d="M7.968911053984819 8.25000018584596 L7.553172542403105 10.607770448294263 L7.553172542403105 10.607770448294263 L7.968911053984819 8.25000018584596 z"/>
<path fill="#a52a2a" stroke="#a52a2a" d="M7.553172745106231 10.607768415112178 L8.750244451082539 12.681157430166296 L8.750244451082539 12.681157430166296 L7.553172745106231 10.607768415112178 z"/>
<path fill="#a52a2a" stroke="#a52a2a" d="M12.367678019219095 9.62772064359473 L12.523077425063121 10.105990836647708 L12.66434908458757 10.540780297435527 L12.66434908458757 10.540780297435527 L12.452439648380254 9.88859011424818 L12.028623714891882 8.584218792958458 L12.028623714891882 8.584218792958458 L12.045276600418733 8.635471104590911 L12.08513374525517 8.758138783092825 z"/>
<path fill="#a52a2a" stroke="#a52a2a" d="M9.97138 8.584220259843848 L9.98431 8.584220259843848 L10.15424 8.584220259843848 L11 8.584220259843848 L11.06857 8.584220259843848 L11.57146 8.584220259843848 L12.01569 8.584220259843848 L12.02862 8.584220259843848 L12.02862 8.584220259843848 L11.34287 8.584220259843848 L9.97138 8.584220259843848 z"/>
<path fill="#a52a2a" stroke="#a52a2a" d="M9.83010367066866 9.019011192672545 L9.954723399581285 8.635471104590918 L9.971376285108136 8.584218792958463 L9.971376285108136 8.584218792958463 L9.75946684890082 9.23640897614581 L9.335650915412447 10.540780297435534 L9.335650915412447 10.540780297435534 L9.392160945775737 10.366860307301165 L9.674704264824634 9.497281385725524 z"/>
<path fill="#a52a2a" stroke="#a52a2a" d="M9.366388639596794 10.563111872434376 L9.335650502388814 10.540779308521117 L9.335650502388814 10.540779308521117 L9.427851823842806 10.607767489695734 L9.890429901470025 10.943850135614873 L11 11.749999999999998 L11 11.749999999999998 L10.852057480457802 11.642513467852327 L10.112347848227003 11.105082961661447 L9.736237805528416 10.831823020431012 L9.427851823842806 10.607767489695734 z"/>
<path fill="#a52a2a" stroke="#a52a2a" d="M13.749630657015603 11.5875 L13.749630657015603 11.5875 L13.749630657015603 8.4125 L13.749630657015603 8.4125 L13.749630657015603 9.40019 L13.749630657015603 10.02275 L13.749630657015603 10.02436 L13.749630657015603 10.14214 L13.749630657015603 10.58157 L13.749630657015603 10.60777 L13.749630657015603 10.68777 L13.749630657015603 10.83881 L13.749630657015603 10.86153 z"/>
<path fill="#a52a2a" stroke="#a52a2a" d="M8.250369342984417 8.4125 L8.250369342984417 8.4125 L8.250369342984417 11.5875 L8.250369342984417 11.5875 L8.250369342984417 10.60777 L8.250369342984417 10.58157 L8.250369342984417 10.39749 L8.250369342984417 10.02436 L8.250369342984417 9.40019 z"/>
<path fill="#a52a2a" stroke="#a52a2a" d="M8.2503698357461 11.587500284496096 L8.2503698357461 11.587500284496096 L11 13.174999999999999 L11 13.174999999999999 L10.144641007297546 12.681158255309471 L9.605478483325516 12.369872626957262 L9.562411287556476 12.345007769886765 L9.383390094688895 12.24164983599402 L8.971579494687001 12.003890875227784 z"/>
<path fill="#a52a2a" stroke="#a52a2a" d="M8.250369835746108 8.412499715503913 L8.250369835746108 8.412499715503913 L9.10572882844856 7.918657970813384 L9.871752356114433 7.476394080909906 L10.05532054226097 7.370410939223551 L10.37029140210007 7.1885624285085585 L10.371288219340148 7.1879869158066665 L11.000000000000005 6.82500000000001 L11.000000000000005 6.82500000000001 z"/>
<path fill="#a52a2a" stroke="#a52a2a" d="M11.000000000000005 13.17500000000001 L13.749630164253903 11.587500284496105 L13.749630164253903 11.587500284496105 L11.855358992702458 12.68115825530948 L11.000000000000005 13.17500000000001 z"/>
<path fill="#a52a2a" stroke="#a52a2a" d="M10.999999999999998 6.825 L10.999999999999998 6.825 L12.894271171551443 7.918657970813375 L13.749630164253896 8.412499715503904 L13.749630164253896 8.412499715503904 z"/>
<path fill="#a52a2a" stroke="#a52a2a" d="M-10 16 L-10 4 L17.77479 0.25072 L20 0 L22.22521 0.25072 L24.33884 0.99031 L26.2349 2.18169 L27.81831 3.7651 L29.00969 5.66116 L29.74928 7.77479 L30 10 L29.74928 12.22521 L29.00969 14.33884 L27.81831 16.2349 L26.2349 17.81831 L24.33884 19.00969 L22.22521 19.74928 L20 20 L17.77479 19.74928 M16.31939 7.875 L15.98784 9.11238 L15.75 10 L15.92051 10.63634 L16.30061 12.05491 L16.31939 12.125 L17.57567 13.38128 L17.875 13.68061 L20 14.25 L22.125 13.68061 L22.9331 12.87251 L23.68061 12.125 L24.00922 10.89862 L24.25 10 L23.97397 8.96986 L23.68061 7.875 L23.04706 7.24145 L22.125 6.31939 L20.92053 5.99666 L20 5.75 L17.875 6.31939 L16.8956 7.2988 M11 6.825 L10.63175 7.03761 L9.31261 7.79921 L9.03278 7.96078 L8.66912 8.17073 L8.52713 8.25271 L8.4478 8.29852 L8.25037 8.4125 L8.25037 9.63181 L8.25037 10.17366 L8.25037 10.8472 L8.25037 11.5875 L8.4478 11.70148 L8.69166 11.84228 L9.06131 12.0557 L9.17245 12.11986 L10.55317 12.91702 L10.63175 12.96239 L11 13.175 L11.62035 12.81684 L11.7605 12.73592 L13.24454 11.87911 L13.37431 11.80419 L13.74963 11.5875 L13.74963 11.08555 L13.74963 10.76947 L13.74963 10.73643 L13.74963 10.46611 L13.74963 10.35058 L13.74963 9.53389 L13.74963 9.15127 L13.74963 9.10859 L13.74963 8.8138 L13.74963 8.67207 L13.74963 8.4125 L11.62035 7.18316 z"/>
<path fill="#a52a2a" stroke="#a52a2a" d="M23.68060898304194 12.12499898304194 L23.68060898304194 12.12499898304194 L22.93309898304194 12.872508983041941 L22.12499898304194 13.68060898304194 L22.12499898304194 13.68060898304194 L22.93309898304194 12.872508983041941 z"/>
<path fill="#a52a2a" stroke="#a52a2a" d="M24.338838666472004 19.00968787770235 L24.338838666472004 19.00968787770235 L26.234901612588413 17.818312566419756 L26.234901612588413 17.818312566419756 z"/>
<path fill="#a52a2a" stroke="#a52a2a" d="M27.818311421633823 16.234901421633822 L26.234901421633822 17.818311421633823 L26.234901421633822 17.818311421633823 L27.818311421633823 16.234901421633822 z"/>
<path fill="#a52a2a" stroke="#a52a2a" d="M29.00968787770235 14.338838666472004 L27.81831256641976 16.234901612588413 L27.81831256641976 16.234901612588413 L29.00968787770235 14.338838666472004 z"/>
<path fill="#a52a2a" stroke="#a52a2a" d="M24.250000000000007 9.999999999999996 L23.973974496103317 8.969858795272748 L23.680608102330417 7.875000508479031 L23.680608102330417 7.875000508479031 L23.973974496103317 8.969858795272748 L24.250000000000007 9.999999999999996 z"/>
<path fill="#a52a2a" stroke="#a52a2a" d="M30.000000000000007 9.999999999999998 L30.000000000000007 9.999999999999998 L29.749279059346655 7.7747901059861775 L29.749279059346655 7.7747901059861775 z"/>
<path fill="#a52a2a" stroke="#a52a2a" d="M29.74927901172623 12.225209654188053 L29.009688009834157 14.338839303610852 L29.009688009834157 14.338839303610852 L29.74927901172623 12.225209654188053 z"/>
<path fill="#a52a2a" stroke="#a52a2a" d="M22.12499898304193 6.3193910169580665 L22.12499898304193 6.3193910169580665 L23.047058983041932 7.241451016958066 L23.68060898304193 7.875001016958066 L23.68060898304193 7.875001016958066 L23.047058983041932 7.241451016958066 z"/>
<path fill="#a52a2a" stroke="#a52a2a" d="M26.234901612588406 2.1816874335802496 L26.234901612588406 2.1816874335802496 L24.338838666471997 0.9903121222976583 L24.338838666471997 0.9903121222976583 z"/>
<path fill="#a52a2a" stroke="#a52a2a" d="M22.124999491520963 6.319391897669593 L20.920531182472843 5.9966555869512685 L19.999999999999996 5.7500000000000036 L19.999999999999996 5.7500000000000036 L20.920531182472843 5.9966555869512685 L22.124999491520963 6.319391897669593 z"/>
<path fill="#a52a2a" stroke="#a52a2a" d="M22.225209654188046 0.25072098827378303 L24.338839303610847 0.9903119901658548 L24.338839303610847 0.9903119901658548 L22.225209654188046 0.25072098827378303 z"/>
<path fill="#a52a2a" stroke="#a52a2a" d="M16.319391016958075 7.875001016958078 L16.319391016958075 7.875001016958078 L16.895596016958077 7.298796016958076 L17.875001016958077 6.319391016958076 L17.875001016958077 6.319391016958076 L16.895596016958077 7.298796016958076 z"/>
<path fill="#a52a2a" stroke="#a52a2a" d="M19.999999999999996 14.250000000000004 L19.999999999999996 14.250000000000004 L17.87500050847903 13.680608102330414 L17.87500050847903 13.680608102330414 z"/>
<path fill="#a52a2a" stroke="#a52a2a" d="M16.31939101695807 12.124998983041927 L17.57567101695807 13.381278983041929 L17.875001016958066 13.68060898304193 L17.875001016958066 13.68060898304193 L17.57567101695807 13.381278983041929 L16.31939101695807 12.124998983041927 z"/>
<path fill="#a52a2a" stroke="#a52a2a" d="M22.225209654188053 19.74927901172623 L22.225209654188053 19.74927901172623 L24.338839303610854 19.009688009834157 L24.338839303610854 19.009688009834157 z"/>
<path fill="#a52a2a" stroke="#a52a2a" d="M20 14.250000000000009 L22.124999491520967 13.68060810233042 L22.124999491520967 13.68060810233042 L20 14.250000000000009 z"/>
<path fill="#a52a2a" stroke="#a52a2a" d="M20 20.000000000000007 L20 20.000000000000007 L22.225209894013823 19.749279059346655 L22.225209894013823 19.749279059346655 z"/>
<path fill="#a52a2a" stroke="#a52a2a" d="M24.00921579836162 10.898618874174387 L24.250000000000007 10.000000000000002 L24.250000000000007 10.000000000000002 L24.00921579836162 10.898618874174387 L23.68060810233042 12.124999491520969 L23.68060810233042 12.124999491520969 z"/>
<path fill="#a52a2a" stroke="#a52a2a" d="M17.774790105986174 19.74927905934665 L17.774790105986174 19.74927905934665 L19.999999999999996 20.000000000000004 L19.999999999999996 20.000000000000004 z"/>
<path fill="#a52a2a" stroke="#a52a2a" d="M8.2503698357461 11.587500284496096 L8.2503698357461 11.587500284496096 L8.372130628689124 11.657798911078494 L8.951912300520524 11.992536015381564 L9.62518116787305 12.38124797718454 L9.951849863449922 12.56985023651167 L10.676019974111059 12.987950044840957 L11 13.174999999999999 L11 13.174999999999999 L10.631749669450693 12.96239057252819 L10.553168883165844 12.9170219344135 L9.172448477725442 12.119862636656874 L9.061311382772038 12.055697604968573 L8.6916603119342 11.842279459714115 L8.447797123507776 11.701484982230678 z"/>
<path fill="#a52a2a" stroke="#a52a2a" d="M20 5.750000000000009 L17.875000508479033 6.319391897669598 L17.875000508479033 6.319391897669598 L20 5.750000000000009 z"/>
<path fill="#a52a2a" stroke="#a52a2a" d="M19.999999999999996 6.2564920007247585e-15 L22.22520989401382 0.25072094065335726 L22.22520989401382 0.25072094065335726 L19.999999999999996 6.2564920007247585e-15 z"/>
<path fill="#a52a2a" stroke="#a52a2a" d="M20 7.776214815781804e-15 L20 7.776214815781804e-15 L17.774790105986177 0.25072094065336037 L17.774790105986177 0.25072094065336037 z"/>
<path fill="#a52a2a" stroke="#a52a2a" d="M27.818311421633815 3.7650985783661812 L27.818311421633815 3.7650985783661812 L26.234901421633815 2.1816885783661815 L26.234901421633815 2.1816885783661815 z"/>
<path fill="#a52a2a" stroke="#a52a2a" d="M29.009687877702344 5.661161333527998 L29.009687877702344 5.661161333527998 L27.818312566419753 3.7650983874115886 L27.818312566419753 3.7650983874115886 z"/>
<path fill="#a52a2a" stroke="#a52a2a" d="M29.009688009834154 5.661160696389147 L29.749279011726227 7.774790345811949 L29.749279011726227 7.774790345811949 L29.009688009834154 5.661160696389147 z"/>
<path fill="#a52a2a" stroke="#a52a2a" d="M30.00000000000001 10 L29.74927905934666 12.225209894013823 L29.74927905934666 12.225209894013823 L30.00000000000001 10 z"/>
<path fill="#a52a2a" stroke="#a52a2a" d="M24.325127656218932 16.730027295132455 L24.325127656218932 16.730027295132455 L24.770553284812166 16.34406379087532 L24.898750348827548 16.232980402568455 L25.074731567283425 16.080491808741495 L26.04599649651177 15.238885956759049 L26.04599649651177 15.238885956759049 z"/>
<path fill="#a52a2a" stroke="#a52a2a" d="M24.00922 10.89862 L24.25 10 L23.97397 8.96986 L23.68061 7.875 L23.04706 7.24145 L22.125 6.31939 L20.92053 5.99666 L20 5.75 L17.875 6.31939 L16.8956 7.2988 L16.31939 7.875 L15.98784 9.11238 L15.75 10 L15.92051 10.63634 L16.30061 12.05491 L16.31939 12.125 L17.57567 13.38128 L17.875 13.68061 L20 14.25 L22.125 13.68061 L22.9331 12.87251 L23.68061 12.125 z"/>
<path fill="#a52a2a" stroke="#a52a2a" d="M27.277056311396308 13.323318916928235 L27.277056311396308 13.323318916928235 L27.490894933997858 12.595051448752487 L27.609863687601635 12.189881082777536 L27.736106114870097 11.759938859222933 L27.827787897346283 11.447699382605162 L27.91857106346154 11.138520312260482 L27.91857106346154 11.138520312260482 z"/>
<path fill="#a52a2a" stroke="#a52a2a" d="M23.290199017371997 4.68614107789157 L23.290199017371997 4.68614107789157 L23.52203897468096 4.897491124721407 L23.530068819229445 4.9048112952435945 L23.985729329311567 5.320200735710163 L24.158368256433096 5.477581912601783 L24.31968695629038 5.6246433387904045 L24.74009976699478 6.007900255594549 L24.987607188918886 6.233533083609088 L24.987607188918886 6.233533083609088 L23.985729329311567 5.320200735710163 z"/>
<path fill="#a52a2a" stroke="#a52a2a" d="M20 16.250000000000007 L20 16.250000000000007 L22.257760272937134 15.827951460084709 L22.257760272937134 15.827951460084709 L22.160760714107035 15.846083820135235 L21.505170896573816 15.9686347962463 L20.75235991722361 16.10935955718544 z"/>
<path fill="#a52a2a" stroke="#a52a2a" d="M14.936205317553691 6.38653766841878 L14.136287679337764 7.992988844447511 L13.98858831225644 8.289609159603563 L13.98858831225644 8.289609159603563 L14.0378234323987 8.19073170913147 L14.136287679337764 7.992988844447511 L14.340139280362939 7.583599641663321 L14.402925562047693 7.457507790162328 L14.936205317553691 6.38653766841878 L14.961599310140503 6.335539656490786 L15.01239327222708 6.233531629375481 L15.01239327222708 6.233531629375481 z"/>
<path fill="#a52a2a" stroke="#a52a2a" d="M21.14843 3.8564181269756213 L21.14843 3.8564181269756213 L18.85157 3.85641812697562 L18.85157 3.85641812697562 L19.23379 3.85641812697562 L19.61719 3.8564181269756204 L20 3.8564181269756204 L20.76621 3.8564181269756213 z"/>
<path fill="#a52a2a" stroke="#a52a2a" d="M24.325127656218925 3.269972704867552 L24.325127656218925 3.269972704867552 L26.045996496511762 4.761114043240958 L26.045996496511762 4.761114043240958 L25.472373041436164 4.264066489995557 L25.116960328372773 3.956099621037616 L24.77055328481216 3.655936209124684 z"/>
<path fill="#a52a2a" stroke="#a52a2a" d="M27.277057190176567 6.676681805763872 L27.277057190176567 6.676681805763872 L27.127047243048946 6.443261771784857 L26.86670293170741 6.038158115906051 L26.345840193746024 5.227679875486988 L26.17525165885657 4.962238933917614 L26.04599571245899 4.761112755435294 L26.04599571245899 4.761112755435294 z"/>
<path fill="#a52a2a" stroke="#a52a2a" d="M15.987837258981966 9.11237926554643 L16.3193918976696 7.8750005084790375 L16.3193918976696 7.8750005084790375 L15.987837258981966 9.11237926554643 L15.75000000000001 10.000000000000002 L15.75000000000001 10.000000000000002 z"/>
<path fill="#a52a2a" stroke="#a52a2a" d="M15.920507004200374 10.63634080272209 L15.750000000000021 9.999999999999993 L15.750000000000021 9.999999999999993 L15.920507004200374 10.63634080272209 L16.300611376211133 12.054909631245337 L16.319391897669597 12.124999491520963 L16.319391897669597 12.124999491520963 L16.300611376211133 12.054909631245337 z"/>
<path fill="#a52a2a" stroke="#a52a2a" d="M-10 16.000000000000004 L-10 16.000000000000004 L17.7747901282421 19.749279049978032 L17.7747901282421 19.749279049978032 z"/>
<path fill="#a52a2a" stroke="#a52a2a" d="M17.774790128242103 0.2507209500219785 L17.774790128242103 0.2507209500219785 L-9.999999999999998 4.000000000000008 L-9.999999999999998 4.000000000000008 z"/>
<path fill="#a52a2a" stroke="#a52a2a" d="M14.405228228463196 12.785860504045676 L14.405228228463196 12.785860504045676 L14.352294756255107 12.599818646728744 L14.301718205895492 12.422060510466743 L14.283349220069487 12.357500221909362 L14.246423296431622 12.227719062084336 L14.117900913426944 11.776009740107625 L13.911896938963048 11.051980870940103 L13.860852766342447 10.872579212907711 L13.832790310644437 10.773949911614036 L13.776662018173282 10.576679425780192 L13.776662018173282 10.576679425780192 L13.860852766342447 10.872579212907711 L14.246423296431622 12.227719062084336 z"/>
<path fill="#a52a2a" stroke="#a52a2a" d="M19.999999999999996 18.000000000000004 L19.999999999999996 18.000000000000004 L-8 14.000000000000005 L-8 14.000000000000005 L-3.9188194000000007 14.583025800000005 L-3.4653594000000005 14.647805800000004 L-2.195119800000001 14.829268600000004 L-2.1205894000000005 14.839915800000005 L1.333329599999999 15.333332800000004 L17.369129799999996 17.624161400000002 L17.709860399999997 17.672837200000004 L17.808840399999998 17.686977200000005 L18.565530599999995 17.795075800000003 z"/>
<path fill="#a52a2a" stroke="#a52a2a" d="M16.709800844585626 4.686142180126808 L16.709800844585626 4.686142180126808 L16.94555083227013 4.594812148336851 L17.2474900982216 4.477840253539181 L17.423719469758375 4.409568631288592 L17.84080026040578 4.2479906721847955 L18.85156878362668 3.8564168601785287 L18.85156878362668 3.8564168601785287 z"/>
<path fill="#a52a2a" stroke="#a52a2a" d="M15.789402527225146 14.618805918391242 L15.789402527225146 14.618805918391242 L16.212982691806907 14.881075652582576 L17.742239243627004 15.827951221584328 L17.742239243627004 15.827951221584328 L17.650396970140065 15.77108489339181 L17.232490961189715 15.512328447625302 L16.930281189400922 15.32520807905155 L16.212982691806907 14.881075652582576 L16.07178872929927 14.793652052252135 z"/>
<path fill="#a52a2a" stroke="#a52a2a" d="M13.988589393637513 8.28960994381224 L13.88034431303919 9.457760399661938 L13.776661133289144 10.576680105014702 L13.776661133289144 10.576680105014702 L13.78772981713399 10.457229983054967 L13.81122188695663 10.20371017485228 L13.870675860766173 9.562099616443499 L13.88034431303919 9.457760399661938 L13.916425757079102 9.068379606835478 L13.949505752193 8.711389606382713 L13.988589393637513 8.28960994381224 z"/>
<path fill="#a52a2a" stroke="#a52a2a" d="M-9.476918827607399 9.315040380933446 L-9.476918827607399 9.315040380933446 L-9.564633640673524 9.584998817073464 L-9.564633640673524 9.584998817073464 L-9.564633640673524 9.584998817073464 L-9.564633640673524 9.584998817073464 L-9.564633640673524 9.584998817073464 L-9.564633640673524 9.584998817073464 L-9.564633640673524 9.584998817073464 L-9.564633640673524 9.584998817073464 L-9.564633640673524 9.584998817073464 L-9.545788808444055 9.527000387159994 L-9.488290807909497 9.35003973749429 z"/>
<path fill="#a52a2a" stroke="#a52a2a" d="M-7.999999999999989 8.935 L-7.999999999999989 8.935 L-7.999999999999989 6 L-7.999999999999989 6 L-7.999999999999989 8.66667 L-7.999999999999989 8.935 L-7.999999999999989 8.935 L-7.999999999999989 8.935 z"/>
<path fill="#a52a2a" stroke="#a52a2a" d="M14.40522736474745 12.785861990050346 L14.40522736474745 12.785861990050346 L14.98909429432167 13.559026757078804 L15.789403470590221 14.61880737913192 L15.789403470590221 14.61880737913192 L15.52263374516737 14.26554717178088 L14.98909429432167 13.559026757078804 L14.794473587506337 13.30130729084097 z"/>
<path fill="#a52a2a" stroke="#a52a2a" d="M24.325128746346806 16.730027254882412 L24.325128746346806 16.730027254882412 L22.253861510208658 17.675943306895693 L22.253861510208658 17.675943306895693 L22.94427990457086 17.360639791039333 L23.540640476506354 17.08829104340338 z"/>
<path fill="#a52a2a" stroke="#a52a2a" d="M22.257760756373 15.827951221584339 L22.257760756373 15.827951221584339 L23.366598670238993 15.141387852362236 L24.210597472774857 14.618805918391251 L24.210597472774857 14.618805918391251 L24.13158065623158 14.667731059850396 L23.92926844009898 14.792997480673353 L23.496231580467185 15.061122552542148 L23.366598670238993 15.141387852362236 L22.996989933786406 15.370239893061378 L22.86171075275973 15.454001215748713 z"/>
<path fill="#a52a2a" stroke="#a52a2a" d="M25.59477263525256 12.785861990050359 L25.59477263525256 12.785861990050359 L25.517550618163817 12.888120466815646 L25.449252453690505 12.97856185294106 L25.15821209056639 13.363961578722456 L25.05952049415837 13.49465037317108 L24.842341839890263 13.782241389420632 L24.641417549433406 14.048308149418013 L24.210596529409788 14.61880737913193 L24.210596529409788 14.61880737913193 L25.15821209056639 13.363961578722456 z"/>
<path fill="#a52a2a" stroke="#a52a2a" d="M27.277057190176574 13.323318194236132 L27.277057190176574 13.323318194236132 L26.045995712458996 15.23888724456471 L26.045995712458996 15.23888724456471 L26.14573348567517 15.08369224010741 L26.34584019374603 14.772320124513016 L26.456351596163195 14.600361025791798 L27.127047243048953 13.556738228215146 z"/>
<path fill="#a52a2a" stroke="#a52a2a" d="M26.223337981826738 10.576679425780197 L26.223337981826738 10.576679425780197 L26.16674544816973 10.775581550137938 L26.155711876035088 10.814360533778004 L26.020457781205298 11.28972936869848 L26.00077989362858 11.358889969734722 L25.878562195011032 11.788440624534484 L25.77297228870917 12.159550651193902 L25.59477177153682 12.785860504045683 L25.59477177153682 12.785860504045683 L26.020457781205298 11.28972936869848 z"/>
<path fill="#a52a2a" stroke="#a52a2a" d="M26.223338866710876 10.5766801050147 L26.223338866710876 10.5766801050147 L26.088660581898697 9.123269946079144 L26.011410606362507 8.289609943812238 L26.011410606362507 8.289609943812238 L26.03492681902597 8.543390294760652 L26.03715998570951 8.567490001324208 L26.088660581898697 9.123269946079144 L26.100516008072297 9.251210369906575 L26.133553315124587 9.607739692808467 L26.1699015719672 9.999999854335787 z"/>
<path fill="#a52a2a" stroke="#a52a2a" d="M27.918571535047473 8.86148 L27.918571535047473 8.86148 L27.91857153504747 11.13852 L27.91857153504747 11.13852 L27.91857153504747 10.37951 L27.91857153504747 10 z"/>
<path fill="#a52a2a" stroke="#a52a2a" d="M21.14843121637332 3.856416860178522 L21.14843121637332 3.856416860178522 L21.36531129734632 3.940436651163115 L21.38563062030303 3.9483083988133 L21.799068090814103 4.108474928176886 L22.15919973959422 4.247990672184789 L22.296110003492068 4.301029990985923 L22.87096065144426 4.523728318428515 L23.290199155414374 4.686142180126802 L23.290199155414374 4.686142180126802 L21.799068090814103 4.108474928176886 z"/>
<path fill="#a52a2a" stroke="#a52a2a" d="M22.253860542940398 2.324056223766561 L22.253860542940398 2.324056223766561 L22.191120634526758 2.3150355867694468 L21.770229908524435 2.254520636226527 L21.502570429471977 2.2160370129567806 L21.433959672844118 2.206172275419123 L19.999999999999996 2.0000000000000044 L19.999999999999996 2.0000000000000044 z"/>
<path fill="#a52a2a" stroke="#a52a2a" d="M22.253861510208655 2.3240566931043163 L22.253861510208655 2.3240566931043163 L24.3251287463468 3.2699727451175984 L24.3251287463468 3.2699727451175984 L23.634702077680927 2.9546654505133656 L23.54064047650635 2.91170895659663 z"/>
<path fill="#a52a2a" stroke="#a52a2a" d="M27.277056311396304 6.676681083071766 L27.277056311396304 6.676681083071766 L27.918571063461535 8.861479687739518 L27.918571063461535 8.861479687739518 L27.82778789734628 8.552300617394836 L27.72262845692077 8.19416045308894 L27.70473164712765 8.133209516359683 L27.307308463423457 6.7797104511795805 z"/>
<path fill="#a52a2a" stroke="#a52a2a" d="M26.011411687743575 8.289609159603556 L26.011411687743575 8.289609159603556 L25.402081528724647 7.065909238785574 L24.98760672777294 6.233531629375471 L24.98760672777294 6.233531629375471 L25.1019683875595 6.463200802899967 L25.125765657032446 6.510992162540883 L25.402081528724647 7.065909238785574 L25.440841299957363 7.143749352698146 L25.605191581730956 7.473809212391568 L25.764372964630002 7.793488523789662 z"/>
<path fill="#a52a2a" stroke="#a52a2a" d="M16.70980098262801 4.68614107789158 L16.70980098262801 4.68614107789158 L15.01239281108112 6.233533083609098 L15.01239281108112 6.233533083609098 L15.578190395368898 5.717740433699022 z"/>
<path fill="#a52a2a" stroke="#a52a2a" d="M14.93621 6.38654 L14.13629 7.99299 L13.98859 8.28961 L13.88034 9.45776 L13.77666 10.57668 L13.86085 10.87258 L14.24642 12.22772 L14.40523 12.78586 L14.98909 13.55903 L15.7894 14.61881 L16.21298 14.88108 L17.74224 15.82795 L20 16.25 L22.25776 15.82795 L23.3666 15.14139 L24.2106 14.61881 L25.15821 13.36396 L25.59477 12.78586 L26.02046 11.28973 L26.22334 10.57668 L26.08866 9.12327 L26.01141 8.28961 L25.40208 7.06591 L24.98761 6.23353 L23.98573 5.3202 L23.2902 4.68614 L21.79907 4.10847 L21.14843 3.85642 L18.85157 3.85642 L16.7098 4.68614 L15.01239 6.23353 z"/>
<path fill="#a52a2a" stroke="#a52a2a" d="M8.25037 10 L8.25037 10.25651 L8.25037 10.75734 L8.25037 11.44542 L8.25037 11.57703 L8.25037 11.5875 L8.37213 11.6578 L8.95191 11.99254 L9.62518 12.38125 L9.95185 12.56985 L10.67602 12.98795 L11 13.175 L11.3911 12.9492 L12.37482 12.38125 L12.38371 12.37612 L12.96686 12.03943 L13.32975 11.82992 L13.74963 11.5875 L13.74963 10.88849 L13.74963 10.88165 L13.74963 10.86812 L13.74963 10.58093 L13.74963 10.5758 L13.74963 10.571 L13.74963 10 L13.74963 9.54633 L13.74963 9.45032 L13.74963 9.43711 L13.74963 8.41268 L13.74963 8.4125 L13.63011 8.34349 L13.59901 8.32554 L13.5877 8.31901 L13.43736 8.23221 L12.81734 7.87424 L12.37482 7.61875 L11 6.825 L9.67299 7.59115 L9.62518 7.61875 L9.30748 7.80218 L8.35542 8.35185 L8.25037 8.4125 L8.25037 8.56805 L8.25037 9.41525 L8.25037 9.47195 z"/>
<path fill="#a52a2a" stroke="#a52a2a" d="M13.749630657015603 11.5875 L13.749630657015603 11.5875 L13.749630657015603 10.88849 L13.749630657015603 10.88165 L13.749630657015603 10.86812 L13.749630657015603 10.58093 L13.749630657015603 10.5758 L13.749630657015603 10.571 L13.749630657015603 10 L13.749630657015603 9.54633 L13.749630657015603 9.45032 L13.749630657015603 9.43711 L13.749630657015603 8.41268 L13.749630657015603 8.4125 L13.749630657015603 8.4125 L13.749630657015603 8.67207 L13.749630657015603 8.8138 L13.749630657015603 9.10859 L13.749630657015603 9.15127 L13.749630657015603 9.53389 L13.749630657015603 10.35058 L13.749630657015603 10.46611 L13.749630657015603 10.73643 L13.749630657015603 10.76947 L13.749630657015603 11.08555 z"/>
<path fill="#a52a2a" stroke="#a52a2a" d="M11.000000000000005 6.82500000000001 L11.000000000000005 6.82500000000001 L9.67298981844528 7.591149685538004 L9.625181167873055 7.618752022815471 L9.307478647964967 7.802177658206629 L8.35541955611587 8.351849231170135 L8.250369835746108 8.412499715503913 L8.250369835746108 8.412499715503913 L8.447797123507783 8.298515017769331 L8.527130935381464 8.252711620128222 L8.669121816682589 8.170733146586546 L9.032777833444861 7.960776247416421 L9.312612195689585 7.799213803045922 L10.6317496694507 7.0376094274718195 z"/>
<path fill="#a52a2a" stroke="#a52a2a" d="M8.250369342984417 10 L8.250369342984417 10.25651 L8.250369342984417 10.75734 L8.250369342984417 11.44542 L8.250369342984417 11.57703 L8.250369342984417 11.5875 L8.250369342984417 11.5875 L8.250369342984417 10.8472 L8.250369342984417 10.17366 L8.250369342984417 9.63181 L8.250369342984417 8.4125 L8.250369342984417 8.4125 L8.250369342984417 8.56805 L8.250369342984417 9.41525 L8.250369342984417 9.47195 z"/>
<path fill="#a52a2a" stroke="#a52a2a" d="M13.749630164253903 11.587500284496105 L13.749630164253903 11.587500284496105 L13.374310641880877 11.804191111770294 L13.244541830255113 11.879113170094847 L11.76050221714684 12.735923840210976 L11.620350329309723 12.81684057038117 L11.000000000000005 13.17500000000001 L11.000000000000005 13.17500000000001 L11.391099268087268 12.949198732289961 L12.374818832126953 12.381247977184549 L12.38370768728766 12.376115994264726 L12.966861233887753 12.039432137156279 L13.329749225061192 11.82991865776661 z"/>
<path fill="#a52a2a" stroke="#a52a2a" d="M13.749630164253896 8.412499715503904 L13.749630164253896 8.412499715503904 L13.630107957696314 8.343493537373744 L13.599010379697349 8.325539342344896 L13.587700306753993 8.319009468686495 L13.437359804229748 8.23221033908402 L12.817339247333392 7.874241303656806 L12.374818832126948 7.618752022815461 L10.999999999999998 6.825 L10.999999999999998 6.825 L11.620350329309716 7.183159429618839 z"/>
<path fill="#a52a2a" stroke="#a52a2a" d="M-9.476919936064764 10.684960087999302 L-9.999999999999991 11.065000000000008 L-9.999999999999991 11.065000000000008 L-9.82563997868825 10.938320029333106 L-9.476919936064764 10.684960087999302 z"/>
<path fill="#a52a2a" stroke="#a52a2a" d="M-8.95 10.415000000000006 L-9.05 10.415000000000006 L-9.56463 10.415000000000006 L-9.56463 10.415000000000006 L-9.56463 10.415000000000006 L-9.56463 10.415000000000006 L-9.56463 10.415000000000006 L-9.56463 10.415000000000006 L-9.05 10.415000000000006 L-8.95 10.415000000000006 L-8.47682 10.415000000000006 L-8.43537 10.415000000000006 L-8.43537 10.415000000000006 L-8.43537 10.415000000000006 L-8.43537 10.415000000000006 L-8.43537 10.415000000000006 L-8.43537 10.415000000000006 L-8.43537 10.415000000000006 z"/>
<path fill="#a52a2a" stroke="#a52a2a" d="M-9.543517733275912 10.479989263496698 L-9.564633640673529 10.415001182926536 L-9.564633640673529 10.415001182926536 L-9.564633640673529 10.415001182926536 L-9.564633640673529 10.415001182926536 L-9.564633640673529 10.415001182926536 L-9.564633640673529 10.415001182926536 L-9.476918827607404 10.684959619066554 L-9.476918827607404 10.684959619066554 z"/>
<path fill="#a52a2a" stroke="#a52a2a" d="M-8.43537 9.585000000000006 L-8.43537 9.585000000000006 L-8.43537 9.585000000000006 L-8.43537 9.585000000000006 L-8.43537 9.585000000000006 L-8.499 9.585000000000006 L-8.59281 9.585000000000006 L-8.95 9.585000000000006 L-9.05 9.585000000000006 L-9.56463 9.585000000000006 L-9.56463 9.585000000000006 L-9.56463 9.585000000000006 L-9.56463 9.585000000000006 L-9.56463 9.585000000000006 L-9.56463 9.585000000000006 L-9.56463 9.585000000000006 L-9.56463 9.585000000000006 L-9.56463 9.585000000000006 L-9.05 9.585000000000006 L-8.95 9.585000000000006 L-8.43537 9.585000000000006 L-8.43537 9.585000000000006 L-8.43537 9.585000000000006 L-8.43537 9.585000000000006 z"/>
<path fill="#a52a2a" stroke="#a52a2a" d="M-8.435366359326455 9.584998817073458 L-8.52308117239258 9.31504038093344 L-8.52308117239258 9.31504038093344 L-8.488080856105668 9.422760278165594 L-8.459179402578679 9.511709805886046 L-8.456482266724072 9.520010736503295 L-8.435366359326455 9.584998817073458 L-8.435366359326455 9.584998817073458 L-8.435366359326455 9.584998817073458 L-8.435366359326455 9.584998817073458 L-8.435366359326455 9.584998817073458 L-8.435366359326455 9.584998817073458 L-8.435366359326455 9.584998817073458 L-8.435366359326455 9.584998817073458 z"/>
<path fill="#a52a2a" stroke="#a52a2a" d="M-8.523080063935222 9.315039912000715 L-7.999999999999993 8.93500000000001 L-7.999999999999993 8.93500000000001 L-7.999999999999993 8.93500000000001 L-7.999999999999993 8.93500000000001 L-7.999999999999993 8.93500000000001 L-8.091269269336058 9.001311005672637 L-8.174360021311735 9.061679970666912 L-8.24092065344855 9.110039100605228 L-8.326207414048493 9.172003559256899 L-8.523080063935222 9.315039912000715 z"/>
<path fill="#a52a2a" stroke="#a52a2a" d="M-8.43536635932645 10.415001182926542 L-8.43536635932645 10.415001182926542 L-8.464777924942924 10.505520674226913 L-8.523081172392576 10.684959619066559 L-8.523081172392576 10.684959619066559 L-8.43536635932645 10.415001182926542 L-8.43536635932645 10.415001182926542 L-8.43536635932645 10.415001182926542 L-8.43536635932645 10.415001182926542 L-8.43536635932645 10.415001182926542 z"/>
<path fill="#a52a2a" stroke="#a52a2a" d="M-9.999999999999998 8.934999999999999 L-9.999999999999998 8.934999999999999 L-9.47691993606477 9.315039912000705 L-9.47691993606477 9.315039912000705 L-9.651279957376513 9.188359941333804 z"/>
<path fill="#000000" stroke="#000000" d="M11 13 L8.87868 12.12132 L8 10 L8.87868 7.87868 L11 7 L13.12132 7.87868 L14 10 L13.12132 12.12132 z"/>
<path fill="#000000" stroke="#000000" d="M13.121320414713185 12.121320171779825 L13.121320414713185 12.121320171779825 L14.00000000000001 10.000000000000004 L14.00000000000001 10.000000000000004 z"/>
<path fill="#000000" stroke="#000000" d="M11.000000000000004 13.000000000000009 L11.000000000000004 13.000000000000009 L13.121320171779825 12.121320414713184 L13.121320171779825 12.121320414713184 z"/>
<path fill="#000000" stroke="#000000" d="M10.999999999999998 7.000000000000002 L10.999999999999998 7.000000000000002 L13.12132017177982 7.878679585286828 L13.12132017177982 7.878679585286828 z"/>
<path fill="#000000" stroke="#000000" d="M13.12132041471318 7.878679828220176 L13.12132041471318 7.878679828220176 L14.000000000000005 9.999999999999996 L14.000000000000005 9.999999999999996 z"/>
<path fill="#000000" stroke="#000000" d="M8.00000000000001 10.000000000000004 L8.00000000000001 10.000000000000004 L8.878679585286836 7.878679828220183 L8.878679585286836 7.878679828220183 z"/>
<path fill="#000000" stroke="#000000" d="M8.87867982822018 7.878679585286835 L8.87867982822018 7.878679585286835 L11.000000000000004 7.00000000000001 L11.000000000000004 7.00000000000001 z"/>
<path fill="#000000" stroke="#000000" d="M8.87867958528683 12.121320171779818 L8.87867958528683 12.121320171779818 L8.000000000000005 9.999999999999996 L8.000000000000005 9.999999999999996 z"/>
<path fill="#000000" stroke="#000000" d="M8.878679828220177 12.121320414713175 L8.878679828220177 12.121320414713175 L10.999999999999998 13.000000000000002 L10.999999999999998 13.000000000000002 z"/>
<path fill="#000000" stroke="#000000" d="M8.87868 12.12132 L11 13 L13.12132 12.12132 L14 10 L13.12132 7.87868 L11 7 L8.87868 7.87868 L8 10 z"/>
<path fill="#000000" stroke="#000000" d="M12.02862 8.58422 L12.66435 10.54078 L11 11.75 L9.33565 10.54078 L9.97138 8.58422 z"/>
<path fill="#000000" stroke="#000000" d="M11.000000000000005 11.750000000000009 L11.000000000000005 11.750000000000009 L12.664349497611191 10.540779308521126 L12.664349497611191 10.540779308521126 z"/>
<path fill="#000000" stroke="#000000" d="M9.971376285108136 8.584218792958463 L9.971376285108136 8.584218792958463 L9.335650915412447 10.540780297435534 L9.335650915412447 10.540780297435534 z"/>
<path fill="#000000" stroke="#000000" d="M9.335650502388814 10.540779308521117 L9.335650502388814 10.540779308521117 L11 11.749999999999998 L11 11.749999999999998 z"/>
<path fill="#000000" stroke="#000000" d="M12.02862 8.584220259843848 L12.02862 8.584220259843848 L9.97138 8.584220259843848 L9.97138 8.584220259843848 z"/>
<path fill="#000000" stroke="#000000" d="M12.028623714891882 8.584218792958458 L12.028623714891882 8.584218792958458 L12.66434908458757 10.540780297435527 L12.66434908458757 10.540780297435527 z"/>
<path fill="#000000" stroke="#000000" d="M12.66435 10.54078 L12.02862 8.58422 L9.97138 8.58422 L9.33565 10.54078 L11 11.75 z"/>
<path fill="#c0c0c0" stroke="#c0c0c0" d="M8.25037 11.5875 L8.25037 8.4125 L11 6.825 L13.74963 8.4125 L13.74963 11.5875 L11 13.175 z"/>
<path fill="#c0c0c0" stroke="#c0c0c0" d="M13.749630657015603 11.5875 L13.749630657015603 11.5875 L13.749630657015603 8.4125 L13.749630657015603 8.4125 z"/>
<path fill="#c0c0c0" stroke="#c0c0c0" d="M10.999999999999998 6.825 L10.999999999999998 6.825 L13.749630164253896 8.412499715503904 L13.749630164253896 8.412499715503904 z"/>
<path fill="#c0c0c0" stroke="#c0c0c0" d="M8.2503698357461 11.587500284496096 L8.2503698357461 11.587500284496096 L11 13.174999999999999 L11 13.174999999999999 z"/>
<path fill="#c0c0c0" stroke="#c0c0c0" d="M11.000000000000005 13.17500000000001 L11.000000000000005 13.17500000000001 L13.749630164253903 11.587500284496105 L13.749630164253903 11.587500284496105 z"/>
<path fill="#c0c0c0" stroke="#c0c0c0" d="M8.250369835746108 8.412499715503913 L8.250369835746108 8.412499715503913 L11.000000000000005 6.82500000000001 L11.000000000000005 6.82500000000001 z"/>
<path fill="#c0c0c0" stroke="#c0c0c0" d="M8.250369342984417 8.4125 L8.250369342984417 8.4125 L8.250369342984417 11.5875 L8.250369342984417 11.5875 z"/>
<path fill="#c0c0c0" stroke="#c0c0c0" d="M8.25037 8.4125 L8.25037 11.5875 L11 13.175 L13.74963 11.5875 L13.74963 8.4125 L11 6.825 z"/>
</svg>