<?xml version="1.0" encoding="UTF-8"?>
<!-- Generated by jsxcad -->
<!DOCTYPE svg PUBLIC "-//W3C//DTD SVG 1.1 Tiny//EN" "http://www.w3.org/Graphics/SVG/1.1/DTD/svg11-tiny.dtd">
<svg baseProfile="tiny" height="20.000000000000014mm" width="39.8480775301221mm" viewBox="-30.000000000000014 -10.000000000000007 9.848077530122087 10.000000000000007" version="1.1" stroke="black" stroke-width=".1" fill="none" xmlns="http://www.w3.org/2000/svg">
<path fill="#a52a2a" stroke="#a52a2a" d="M-21.792931927204812 20.000000000000014 L-21.792931927204812 18.817751222079927 L-21.792931927204812 18.445543088818336 L-21.792931927204812 18.387500000000014 L-21.792931927204812 18.387500000000014 L-21.792931927204812 21.61250000000001 L-21.792931927204812 21.61250000000001 z"/>
<path fill="#a52a2a" stroke="#a52a2a" d="M-20.396465963602406 17.58125000000001 L-20.255736835487433 17.50000000000001 L-20.255736835487433 17.50000000000001 L-20.255736835487433 17.50000000000001 L-20.255736835487433 17.50000000000001 L-20.255736835487433 17.50000000000001 L-20.255736835487433 17.50000000000001 L-21.792931927204812 18.387500000000014 L-21.792931927204812 18.387500000000014 L-21.33861327787509 18.12519900551163 L-21.26651336080991 18.0835720989855 L-21.185168918422733 18.03660786327618 L-20.9164547472697 17.88146566422591 L-20.561232160882966 17.676377808353294 z"/>
<path fill="#a52a2a" stroke="#a52a2a" d="M-17.60353403639759 22.41875000000001 L-17.74426316451256 22.50000000000001 L-17.74426316451256 22.50000000000001 L-17.74426316451256 22.50000000000001 L-17.74426316451256 22.50000000000001 L-17.74426316451256 22.50000000000001 L-17.74426316451256 22.50000000000001 L-16.20706807279518 21.61250000000001 L-16.20706807279518 21.61250000000001 z"/>
<path fill="#a52a2a" stroke="#a52a2a" d="M-21.267475558439767 21.915872375953917 L-21.429800957205778 21.822153763280046 L-21.58589291011689 21.732034032248478 L-21.792931927204812 21.61250000000001 L-21.792931927204812 21.61250000000001 L-20.255736835487433 22.500000000000014 L-20.255736835487433 22.500000000000014 L-20.255736835487433 22.500000000000014 L-20.255736835487433 22.500000000000014 L-20.255736835487433 22.500000000000014 L-20.396465963602406 22.418750000000014 L-20.44367410012777 22.391494369669154 L-20.4467321666318 22.38972879414985 L-20.748423815260715 22.215547039601688 L-20.765237119195806 22.205839874048795 L-20.794172104083078 22.18913425273513 L-20.870096629037516 22.145299207814592 L-20.95948023113837 22.09369356108052 z"/>
<path fill="#a52a2a" stroke="#a52a2a" d="M-17.74426316451256 17.500000000000014 L-17.74426316451256 17.500000000000014 L-17.74426316451256 17.500000000000014 L-17.613460646981174 17.57551886870744 L-17.60353403639759 17.581250000000015 L-16.727303131335795 18.08714214890971 L-16.20706807279518 18.387500000000014 L-16.20706807279518 18.387500000000014 L-17.74426316451256 17.500000000000014 z"/>
<path fill="#a52a2a" stroke="#a52a2a" d="M-16.207068072795185 18.421856086839043 L-16.207068072795185 18.797015760169536 L-16.207068072795185 19.432805198795396 L-16.207068072795185 19.90912860074672 L-16.207068072795185 20.000000000000014 L-16.207068072795185 20.546128889416394 L-16.207068072795185 20.684881059654405 L-16.207068072795185 20.73184671276454 L-16.207068072795185 20.827129124377514 L-16.207068072795185 20.90470288414067 L-16.207068072795185 21.019988934699715 L-16.207068072795185 21.07367508742785 L-16.207068072795185 21.098019554209085 L-16.207068072795185 21.24562251852502 L-16.207068072795185 21.27487515829949 L-16.207068072795185 21.61250000000001 L-16.207068072795185 21.61250000000001 L-16.207068072795185 18.387500000000014 L-16.207068072795185 18.387500000000014 z"/>
<path fill="#a52a2a" stroke="#a52a2a" d="M-18.439339828220177 17.500000000000014 L-17.744263164512564 17.500000000000014 L-16.207068072795185 18.387500000000014 L-16.207068072795185 21.61250000000001 L-17.744263164512564 22.500000000000014 L-18.999999999999996 22.500000000000014 L-20.255736835487436 22.500000000000014 L-21.792931927204812 21.61250000000001 L-21.792931927204812 18.387500000000014 L-20.255736835487433 17.500000000000014 L-19.418578945162476 17.500000000000014 L-18.999999999999996 17.500000000000014 L-18.58142105483752 17.500000000000014 M-20.701938128226764 19.628927194770192 L-20.686575632505775 19.696234686307633 L-20.680359391974164 19.72346981558447 L-20.649804054318334 19.857341496855852 L-20.54842842871859 20.30149713315875 L-20.531648831139574 20.375013353606462 L-20.43578884471888 20.79500339571753 L-20.368205094319052 21.091107153252796 L-20.14017091193254 21.200922627710668 L-19.729709383636827 21.398590481734832 L-19.27364101886381 21.618221430650568 L-19.149204317357714 21.678146987744032 L-19.041525604656012 21.730002322767042 L-18.999999999999996 21.750000000000014 L-18.999999999999996 21.75000000000001 L-18.843101904961184 21.674441859690067 L-18.615067722574675 21.5646263852322 L-18.361504289317775 21.44251667151798 L-17.905435924544758 21.22288572260224 L-17.631794905680945 21.091107153252796 L-17.624815195569276 21.06052704518917 L-17.601264360793515 20.957344096197144 L-17.570936440203692 20.824468794194054 L-17.476540524715617 20.410893265954783 L-17.474099488081347 20.400198385670507 L-17.46305064809419 20.35179025476258 L-17.40259722268615 20.0869264921969 L-17.335013472286324 19.79082273466163 L-17.31342436749422 19.69623468630763 L-17.293876153681808 19.61058836557646 L-17.451680704158886 19.412707718175515 L-17.543838928039023 19.29714496064038 L-17.735728895017623 19.05652255285381 L-18.051337995971778 18.660761258051917 L-18.24070345654427 18.423304481170778 L-18.49380230436285 18.423304481170778 L-18.949380230436283 18.423304481170778 L-18.999999999999996 18.423304481170778 L-19.455577926073435 18.423304481170778 L-19.759296543455726 18.423304481170778 L-19.917101093932803 18.621185128571728 L-20.20114928479154 18.977370293893433 L-20.27213825015356 19.066387640869113 L-20.45616107196097 19.297144960640377 L-20.516758385745696 19.373131588695326 L-20.70612384631819 19.61058836557646 z"/>
<path fill="#a52a2a" stroke="#a52a2a" d="M-17.293876153681808 19.61058836557646 L-17.293876153681808 19.61058836557646 L-17.31342436749422 19.69623468630763 L-17.33501347228632 19.790822734661628 L-17.40259722268615 20.086926492196895 L-17.46305064809419 20.35179025476258 L-17.474099488081347 20.400198385670507 L-17.476540524715617 20.41089326595478 L-17.570936440203692 20.824468794194054 L-17.601264360793515 20.95734409619714 L-17.624815195569276 21.060527045189165 L-17.631794905680945 21.091107153252796 L-17.631794905680945 21.091107153252796 L-17.58469323612942 20.884741255268747 L-17.524037394949772 20.618990651262568 L-17.519155321681232 20.597600890694018 L-17.497057641706917 20.50078462887817 L-17.376150790890836 19.971057103746798 z"/>
<path fill="#a52a2a" stroke="#a52a2a" d="M-20.680359391974164 19.72346981558447 L-20.686575632505775 19.69623468630763 L-20.701938128226764 19.62892719477019 L-20.70612384631819 19.61058836557646 L-20.70612384631819 19.61058836557646 L-20.69775241013534 19.64726602396392 L-20.65459493763014 19.836351265592473 L-20.593484262318476 20.10409462813524 L-20.559925067160442 20.251127069030655 L-20.368205094319052 21.091107153252796 L-20.368205094319052 21.091107153252796 L-20.43578884471888 20.795003395717526 L-20.531648831139574 20.37501335360646 L-20.54842842871859 20.301497133158747 L-20.649804054318334 19.857341496855852 z"/>
<path fill="#a52a2a" stroke="#a52a2a" d="M-19.273641018863806 21.61822143065057 L-19.729709383636823 21.398590481734832 L-20.14017091193254 21.200922627710668 L-20.36820509431905 21.091107153252796 L-20.36820509431905 21.091107153252796 L-19.91213672954603 21.310738102168536 L-18.999999999999996 21.750000000000014 L-18.999999999999996 21.750000000000014 L-19.041525604656012 21.730002322767042 L-19.149204317357714 21.678146987744032 z"/>
<path fill="#a52a2a" stroke="#a52a2a" d="M-18.999999999999996 21.75000000000001 L-18.999999999999996 21.75000000000001 L-18.999999999999996 21.75000000000001 L-18.54393163522698 21.53036905108427 L-17.631794905680945 21.091107153252796 L-17.631794905680945 21.091107153252796 L-17.905435924544754 21.22288572260224 L-18.36150428931777 21.44251667151798 L-18.615067722574675 21.5646263852322 L-18.84310190496118 21.674441859690067 z"/>
<path fill="#a52a2a" stroke="#a52a2a" d="M-20.216883575133913 18.997100469924035 L-20.706123846318185 19.610588365576458 L-20.706123846318185 19.610588365576458 L-20.516758385745693 19.373131588695323 L-20.45616107196097 19.297144960640377 L-20.272138250153557 19.06638764086911 L-20.20114928479154 18.97737029389343 L-19.917101093932803 18.621185128571724 L-19.759296543455726 18.423304481170778 L-19.759296543455726 18.423304481170778 L-20.074905644409878 18.81906577597267 z"/>
<path fill="#a52a2a" stroke="#a52a2a" d="M-19.45557792607343 18.423304481170778 L-18.999999999999996 18.423304481170778 L-18.94938023043628 18.423304481170778 L-18.493802304362845 18.423304481170778 L-18.24070345654427 18.423304481170778 L-18.24070345654427 18.423304481170778 L-18.74690115218142 18.423304481170778 L-19.759296543455722 18.423304481170778 L-19.759296543455722 18.423304481170778 z"/>
<path fill="#a52a2a" stroke="#a52a2a" d="M-17.543838928039023 19.29714496064038 L-17.451680704158886 19.41270771817551 L-17.293876153681808 19.61058836557646 L-17.293876153681808 19.61058836557646 L-17.609485254635963 19.214827070774565 L-18.24070345654427 18.423304481170778 L-18.24070345654427 18.423304481170778 L-18.05133799597178 18.660761258051913 L-17.735728895017626 19.056522552853806 z"/>
<path fill="#a52a2a" stroke="#a52a2a" d="M-24.999999999999993 18.500000000000014 L-25.589255650988786 18.255922317655468 L-26.76776695296636 17.767766952966383 L-26.76776695296636 17.767766952966383 L-26.319784530471143 17.953327348068658 L-24.999999999999993 18.500000000000014 z"/>
<path fill="#a52a2a" stroke="#a52a2a" d="M-26.76776695296637 17.76776695296638 L-26.76776695296637 17.76776695296638 L-26.878679656440355 17.50000000000001 L-26.878679656440355 17.50000000000001 z"/>
<path fill="#a52a2a" stroke="#a52a2a" d="M-23.821488698022417 18.011844635310926 L-24.999999999999996 18.50000000000001 L-24.999999999999996 18.50000000000001 L-23.49047796144394 17.87473549892901 L-23.232233047033628 17.76776695296638 L-23.232233047033628 17.76776695296638 z"/>
<path fill="#a52a2a" stroke="#a52a2a" d="M-23.121320343559642 17.50000000000001 L-23.232233047033628 17.76776695296638 L-23.232233047033628 17.76776695296638 L-23.121320343559642 17.50000000000001 L-23.121320343559642 17.50000000000001 L-23.121320343559642 17.50000000000001 L-23.121320343559642 17.50000000000001 z"/>
<path fill="#a52a2a" stroke="#a52a2a" d="M-20.9164547472697 17.88146566422591 L-21.185168918422736 18.036607863276185 L-21.26651336080991 18.0835720989855 L-21.33861327787509 18.12519900551163 L-21.792931927204812 18.387500000000014 L-21.792931927204812 18.44554308881834 L-21.792931927204812 18.81775122207993 L-21.792931927204812 20.000000000000014 L-21.792931927204812 21.61250000000001 L-21.585892910116893 21.732034032248478 L-21.429800957205778 21.822153763280046 L-21.267475558439767 21.915872375953917 L-20.959480231138375 22.09369356108052 L-20.870096629037516 22.145299207814592 L-20.79417210408308 22.189134252735126 L-20.765237119195806 22.20583987404879 L-20.748423815260715 22.215547039601685 L-20.4467321666318 22.38972879414985 L-20.443674100127772 22.391494369669154 L-20.396465963602406 22.418750000000014 L-20.255736835487436 22.500000000000014 L-20.85535930380197 22.500000000000014 L-21.904370404540742 22.500000000000014 L-23.989422417727052 22.500000000000014 L-24.620244828514128 22.500000000000014 L-24.999999999999996 22.500000000000014 L-25.68297010380186 22.500000000000014 L-25.879482100988596 22.500000000000014 L-26.85247384437051 22.500000000000014 L-26.953305889502115 22.500000000000014 L-27.18181818181818 22.500000000000014 L-27.370461765405505 22.500000000000014 L-27.703420979831584 22.500000000000014 L-28 22.500000000000014 L-28 17.500000000000014 L-26.954415587728427 17.500000000000014 L-26.878679656440355 17.500000000000014 L-26.76776695296637 17.76776695296638 L-25.58925565098879 18.255922317655468 L-24.999999999999996 18.500000000000014 L-23.821488698022417 18.011844635310926 L-23.23223304703363 17.76776695296638 L-23.121320343559642 17.500000000000014 L-20.255736835487433 17.500000000000014 L-20.396465963602406 17.58125000000001 L-20.56123216088297 17.676377808353298 z"/>
<path fill="#a52a2a" stroke="#a52a2a" d="M-16.207068072795185 20.000000000000014 L-16.207068072795185 19.90912860074672 L-16.207068072795185 19.432805198795396 L-16.207068072795185 18.797015760169536 L-16.207068072795185 18.421856086839043 L-16.207068072795185 18.387500000000014 L-16.7273031313358 18.08714214890971 L-17.60353403639759 17.58125000000001 L-17.613460646981174 17.57551886870744 L-17.744263164512564 17.500000000000014 L-15.40629516696032 17.500000000000014 L-15.2368061843909 17.500000000000014 L-13.1386239447944 17.500000000000014 L-10 17.500000000000014 L-10 17.99415754988105 L-10 18.13530293803829 L-10 18.143928284643092 L-10 18.41743529327636 L-10 19.16666666666668 L-10 19.570597002791523 L-10 19.638911981254644 L-10 21.803275682755224 L-10 21.856071715356943 L-10 21.886478817217327 L-10 21.96542356296109 L-10 22.500000000000014 L-13.634152339635333 22.500000000000014 L-14.835046262255677 22.500000000000014 L-15.406295166960259 22.500000000000014 L-16.59821170324887 22.500000000000014 L-16.666666666666664 22.500000000000014 L-17.744263164512564 22.500000000000014 L-17.60353403639759 22.418750000000014 L-16.207068072795185 21.61250000000001 L-16.207068072795185 21.27487515829949 L-16.207068072795185 21.24562251852502 L-16.207068072795185 21.098019554209085 L-16.207068072795185 21.07367508742785 L-16.207068072795185 21.019988934699715 L-16.207068072795185 20.90470288414067 L-16.207068072795185 20.827129124377514 L-16.207068072795185 20.73184671276454 L-16.207068072795185 20.684881059654405 L-16.207068072795185 20.546128889416394 z"/>
<path fill="#a52a2a" stroke="#a52a2a" d="M-28 22.500000000000014 L-28 22.500000000000014 L-28 22.500000000000014 L-28 18.66666666666668 L-28 18.000000000000014 L-28 17.500000000000014 L-28 17.500000000000014 L-28 17.500000000000014 L-28 22.500000000000014 z"/>
<path fill="#a52a2a" stroke="#a52a2a" d="M-10 22.500000000000014 L-10 17.500000000000014 L-23.121320343559642 17.500000000000014 L-23.23223304703363 17.76776695296638 L-23.49047796144394 17.87473549892901 L-24.999999999999996 18.500000000000014 L-26.319784530471146 17.953327348068655 L-26.76776695296637 17.76776695296638 L-26.878679656440355 17.500000000000014 L-28 17.500000000000014 L-28 18.000000000000014 L-28 18.66666666666668 L-28 22.500000000000014 L-24.999999999999996 22.500000000000014 M-18.746901152181422 18.423304481170778 L-18.24070345654427 18.423304481170778 L-17.609485254635963 19.214827070774568 L-17.293876153681808 19.61058836557646 L-17.376150790890836 19.971057103746798 L-17.497057641706917 20.50078462887817 L-17.519155321681232 20.597600890694018 L-17.524037394949772 20.618990651262568 L-17.58469323612942 20.884741255268747 L-17.631794905680945 21.091107153252796 L-18.54393163522698 21.530369051084275 L-18.999999999999996 21.750000000000014 L-19.91213672954603 21.310738102168536 L-20.368205094319052 21.091107153252796 L-20.559925067160442 20.25112706903066 L-20.593484262318476 20.10409462813524 L-20.654594937630137 19.836351265592477 L-20.69775241013534 19.647266023963923 L-20.70612384631819 19.61058836557646 L-20.216883575133917 18.997100469924035 L-20.07490564440988 18.819065775972675 L-19.759296543455726 18.423304481170778 z"/>
<path fill="#a52a2a" stroke="#a52a2a" d="M-17.744263164512564 22.500000000000014 L-17.744263164512564 22.500000000000014 L-17.744263164512564 22.500000000000014 L-16.666666666666664 22.500000000000014 L-16.59821170324887 22.500000000000014 L-15.406295166960259 22.500000000000014 L-14.835046262255677 22.500000000000014 L-13.634152339635333 22.500000000000014 L-10 22.500000000000014 L-10 22.500000000000014 L-24.999999999999996 22.500000000000014 L-28 22.500000000000014 L-28 22.500000000000014 L-28 22.500000000000014 L-28 22.500000000000014 L-27.703420979831584 22.500000000000014 L-27.370461765405505 22.500000000000014 L-27.18181818181818 22.500000000000014 L-26.953305889502115 22.500000000000014 L-26.85247384437051 22.500000000000014 L-25.879482100988596 22.500000000000014 L-25.68297010380186 22.500000000000014 L-24.999999999999996 22.500000000000014 L-24.620244828514128 22.500000000000014 L-23.989422417727052 22.500000000000014 L-21.904370404540742 22.500000000000014 L-20.85535930380197 22.500000000000014 L-20.255736835487436 22.500000000000014 L-20.255736835487436 22.500000000000014 L-20.255736835487436 22.500000000000014 L-20.255736835487436 22.500000000000014 L-20.255736835487436 22.500000000000014 L-18.999999999999996 22.500000000000014 L-17.744263164512564 22.500000000000014 L-17.744263164512564 22.500000000000014 L-17.744263164512564 22.500000000000014 z"/>
<path fill="#a52a2a" stroke="#a52a2a" d="M-26.878679656440355 17.500000000000014 L-26.878679656440355 17.500000000000014 L-26.954415587728427 17.500000000000014 L-28 17.500000000000014 L-28 17.500000000000014 L-28 17.500000000000014 z"/>
<path fill="#a52a2a" stroke="#a52a2a" d="M-20.255736835487433 17.500000000000014 L-20.255736835487433 17.500000000000014 L-20.255736835487433 17.500000000000014 L-23.121320343559642 17.500000000000014 L-23.121320343559642 17.500000000000014 L-23.121320343559642 17.500000000000014 L-23.121320343559642 17.500000000000014 L-23.121320343559642 17.500000000000014 L-10 17.500000000000014 L-10 17.500000000000014 L-13.1386239447944 17.500000000000014 L-15.2368061843909 17.500000000000014 L-15.40629516696032 17.500000000000014 L-17.744263164512564 17.500000000000014 L-17.744263164512564 17.500000000000014 L-17.744263164512564 17.500000000000014 L-17.744263164512564 17.500000000000014 L-18.439339828220177 17.500000000000014 L-18.58142105483752 17.500000000000014 L-18.999999999999996 17.500000000000014 L-19.418578945162476 17.500000000000014 L-20.255736835487433 17.500000000000014 L-20.255736835487433 17.500000000000014 L-20.255736835487433 17.500000000000014 z"/>
<path fill="#a52a2a" stroke="#a52a2a" d="M-10 18.143928284643092 L-10 18.13530293803829 L-10 17.99415754988105 L-10 17.500000000000014 L-10 17.500000000000014 L-10 22.500000000000014 L-10 22.500000000000014 L-10 21.96542356296109 L-10 21.886478817217327 L-10 21.856071715356943 L-10 21.803275682755224 L-10 19.638911981254644 L-10 19.570597002791523 L-10 19.16666666666668 L-10 18.41743529327636 z"/>
<path fill="#a52a2a" stroke="#a52a2a" d="M-21.792931927204812 18.817751222079927 L-21.792931927204812 18.445543088818336 L-21.792931927204812 18.387500000000014 L-21.792931927204812 18.387500000000014 L-21.792931927204812 21.61250000000001 L-21.792931927204812 21.61250000000001 L-21.792931927204812 21.414285481292477 L-21.792931927204812 20.71506489561968 L-21.792931927204812 20.000000000000014 z"/>
<path fill="#a52a2a" stroke="#a52a2a" d="M-19.426392402433223 17.021177768325245 L-19.417917046532924 17.01628451931473 L-19.38425883729711 16.996851943151995 L-19.231140920237625 16.908449272519945 L-18.999999999999996 16.775000000000013 L-18.999999999999996 16.775000000000013 L-21.792931927204812 18.387500000000014 L-21.792931927204812 18.387500000000014 L-21.484684659214903 18.20953335684907 L-21.33861327787509 18.12519900551163 L-21.26651336080991 18.0835720989855 L-21.185168918422733 18.03660786327618 L-21.109092773317897 17.992685280420996 L-20.9164547472697 17.88146566422591 L-20.701779328347115 17.75752275332256 L-20.396465963602406 17.58125000000001 z"/>
<path fill="#a52a2a" stroke="#a52a2a" d="M-18.120627202990924 22.71729387892879 L-18.351950711463576 22.850848568815366 L-18.419568200097327 22.889887544079986 L-18.563763186412398 22.973138558244788 L-18.98949494303879 23.218934902535608 L-18.999999999999996 23.225000000000012 L-18.999999999999996 23.225000000000012 L-16.20706807279518 21.61250000000001 L-16.20706807279518 21.61250000000001 L-17.28617000789346 22.235519792712047 L-17.60353403639759 22.41875000000001 L-18.000782526145557 22.648101522491174 z"/>
<path fill="#a52a2a" stroke="#a52a2a" d="M-19.426392402433216 22.978822231674783 L-19.629834620042743 22.861364812573388 L-19.69023049904651 22.82649523557262 L-19.976812719040254 22.66103691371427 L-20.396465963602406 22.418750000000014 L-20.44367410012777 22.391494369669154 L-20.487746784480567 22.366048993494157 L-20.748423815260715 22.215547039601688 L-20.776287186722207 22.19946011458786 L-21.094946759692263 22.01548192435375 L-21.588276589867977 21.73065781410253 L-21.792931927204812 21.61250000000001 L-21.792931927204812 21.61250000000001 L-18.999999999999996 23.225000000000012 L-18.999999999999996 23.225000000000012 L-19.00588196435417 23.22160404629677 L-19.279034075666964 23.063899601300612 L-19.390078055851443 22.999788329449213 z"/>
<path fill="#a52a2a" stroke="#a52a2a" d="M-18.368876882665507 17.139379101684877 L-18.351950711463566 17.149151431184666 L-17.60353403639759 17.581250000000015 L-17.32192015441065 17.74383985057271 L-16.727303131335795 18.08714214890971 L-16.20706807279518 18.387500000000014 L-16.20706807279518 18.387500000000014 L-18.999999999999996 16.775000000000013 L-18.999999999999996 16.775000000000013 L-18.682517770760477 16.958298450514373 L-18.411299335393526 17.114886487182673 z"/>
<path fill="#a52a2a" stroke="#a52a2a" d="M-16.207068072795185 18.511989261619174 L-16.207068072795185 18.58683659648953 L-16.207068072795185 18.870958571407304 L-16.207068072795185 19.064768272792296 L-16.207068072795185 19.54367306748932 L-16.207068072795185 19.796971209265898 L-16.207068072795185 20.000000000000014 L-16.207068072795185 20.23899846120038 L-16.207068072795185 20.85269326223621 L-16.207068072795185 20.958010718522793 L-16.207068072795185 21.07940608918064 L-16.207068072795185 21.098019554209085 L-16.207068072795185 21.188440235172447 L-16.207068072795185 21.27487515829949 L-16.207068072795185 21.61250000000001 L-16.207068072795185 21.61250000000001 L-16.207068072795185 18.387500000000014 L-16.207068072795185 18.387500000000014 z"/>
<path fill="#a52a2a" stroke="#a52a2a" d="M-16.207068072795185 18.387500000000014 L-16.207068072795185 21.61250000000001 L-18.999999999999996 23.225000000000012 L-21.792931927204812 21.61250000000001 L-21.792931927204812 18.387500000000014 L-18.999999999999996 16.775000000000013 M-20.70612384631819 19.61058836557646 L-20.686575632505775 19.696234686307633 L-20.649804054318334 19.857341496855852 L-20.54842842871859 20.30149713315875 L-20.452712947084198 20.720854058434004 L-20.385129196684368 21.01695781596927 L-20.368205094319052 21.091107153252796 L-20.291715549387906 21.127942576695773 L-20.25906727964924 21.143665154749897 L-20.14017091193254 21.200922627710668 L-19.729709383636827 21.398590481734832 L-19.397161773102493 21.55873697051326 L-19.12352075423868 21.6905155398627 L-19.023404581619122 21.738728947528433 L-18.999999999999996 21.750000000000014 L-18.999999999999996 21.75000000000001 L-18.771965817613488 21.640184525542143 L-18.361504289317775 21.44251667151798 L-17.905435924544758 21.22288572260224 L-17.631794905680945 21.091107153252796 L-17.57547511368109 20.844354021973405 L-17.474099488081347 20.400198385670507 L-17.361459904081634 19.90669212311173 L-17.31342436749422 19.69623468630763 L-17.293876153681808 19.61058836557646 L-17.399460020399058 19.478190384415967 L-17.543838928039023 19.29714496064038 L-17.570086576238815 19.26423145084092 L-17.614205355944193 19.208908250944297 L-17.622307259998642 19.19874878460047 L-17.735728895017623 19.05652255285381 L-18.051337995971778 18.660761258051917 L-18.24070345654427 18.423304481170778 L-18.49380230436285 18.423304481170778 L-18.949380230436283 18.423304481170778 L-18.999999999999996 18.423304481170778 L-19.141136577061488 18.423304481170778 L-19.163690774251723 18.423304481170778 L-19.385268812586293 18.423304481170778 L-19.688987429968584 18.423304481170778 L-19.759296543455726 18.423304481170778 L-19.833095441840943 18.51584537270904 L-19.99089999231802 18.713726020109988 L-20.20114928479154 18.977370293893433 L-20.45616107196097 19.297144960640377 L-20.516758385745696 19.373131588695326 z"/>
<path fill="#a52a2a" stroke="#a52a2a" d="M-19.91213672954603 21.310738102168536 L-19.247041508477363 21.63103107972539 L-19.04680916323824 21.727457895056855 L-18.999999999999996 21.750000000000014 L-18.999999999999996 21.750000000000014 L-19.02340458161912 21.738728947528436 L-19.12352075423868 21.6905155398627 L-19.39716177310249 21.55873697051326 L-19.729709383636823 21.398590481734832 L-20.14017091193254 21.200922627710668 L-20.25906727964924 21.143665154749897 L-20.291715549387902 21.127942576695776 L-20.36820509431905 21.091107153252796 L-20.36820509431905 21.091107153252796 L-20.21522600445676 21.164778000138753 L-20.14992946497943 21.196223156246997 z"/>
<path fill="#a52a2a" stroke="#a52a2a" d="M-20.649804054318334 19.857341496855852 L-20.686575632505775 19.69623468630763 L-20.70612384631819 19.61058836557646 L-20.70612384631819 19.61058836557646 L-20.593484262318476 20.10409462813524 L-20.402053299049687 20.942808478685745 L-20.368205094319052 21.091107153252796 L-20.368205094319052 21.091107153252796 L-20.38512919668437 21.016957815969267 L-20.452712947084198 20.720854058434004 L-20.54842842871859 20.301497133158747 z"/>
<path fill="#a52a2a" stroke="#a52a2a" d="M-18.94938023043628 18.423304481170778 L-18.493802304362845 18.423304481170778 L-18.24070345654427 18.423304481170778 L-18.24070345654427 18.423304481170778 L-18.74690115218142 18.423304481170778 L-19.130413845431832 18.423304481170778 L-19.1755222398123 18.423304481170778 L-19.618678316481443 18.423304481170778 L-19.759296543455722 18.423304481170778 L-19.759296543455722 18.423304481170778 L-19.688987429968584 18.423304481170778 L-19.385268812586293 18.423304481170778 L-19.16369077425172 18.423304481170778 L-19.141136577061488 18.423304481170778 L-18.999999999999996 18.423304481170778 z"/>
<path fill="#a52a2a" stroke="#a52a2a" d="M-18.771965817613488 21.640184525542143 L-18.999999999999996 21.75000000000001 L-18.999999999999996 21.75000000000001 L-18.999999999999996 21.75000000000001 L-18.54393163522698 21.53036905108427 L-17.631794905680945 21.091107153252796 L-17.631794905680945 21.091107153252796 L-17.905435924544754 21.22288572260224 L-18.36150428931777 21.44251667151798 z"/>
<path fill="#a52a2a" stroke="#a52a2a" d="M-17.31342436749422 19.69623468630763 L-17.361459904081634 19.90669212311173 L-17.474099488081347 20.400198385670507 L-17.57547511368109 20.844354021973405 L-17.631794905680945 21.091107153252796 L-17.631794905680945 21.091107153252796 L-17.519155321681232 20.597600890694018 L-17.293876153681808 19.61058836557646 L-17.293876153681808 19.61058836557646 z"/>
<path fill="#a52a2a" stroke="#a52a2a" d="M-19.99089999231802 18.713726020109988 L-19.833095441840943 18.51584537270904 L-19.759296543455726 18.423304481170778 L-19.759296543455726 18.423304481170778 L-20.074905644409878 18.81906577597267 L-20.706123846318185 19.610588365576458 L-20.706123846318185 19.610588365576458 L-20.516758385745693 19.373131588695323 L-20.45616107196097 19.297144960640377 L-20.20114928479154 18.97737029389343 z"/>
<path fill="#a52a2a" stroke="#a52a2a" d="M-17.543838928039023 19.29714496064038 L-17.399460020399058 19.478190384415964 L-17.293876153681808 19.61058836557646 L-17.293876153681808 19.61058836557646 L-17.505043887116308 19.345792403255466 L-17.593281446527065 19.23514600346222 L-17.609485254635963 19.214827070774565 L-18.24070345654427 18.423304481170778 L-18.24070345654427 18.423304481170778 L-18.05133799597178 18.660761258051913 L-17.735728895017626 19.056522552853806 L-17.622307259998642 19.19874878460047 L-17.614205355944193 19.208908250944294 L-17.570086576238815 19.26423145084092 z"/>
<path fill="#a52a2a" stroke="#a52a2a" d="M-23.700961894323342 23.250000000000014 L-23.700961894323342 23.250000000000014 L-23.700961894323342 23.48795392269343 L-23.700961894323342 23.618300156038437 L-23.700961894323342 23.618300156038437 L-23.700961894323342 23.618300156038437 L-23.700961894323342 23.618300156038437 L-23.700961894323342 23.618300156038437 L-23.700961894323342 23.618300156038437 L-23.700961894323342 23.618300156038437 L-23.700961894323342 23.618300156038437 L-23.700961894323342 23.618300156038437 L-23.700961894323342 23.618300156038437 L-23.700961894323342 23.618300156038437 L-23.700961894323342 23.618300156038437 L-23.700961894323342 23.618300156038437 L-23.700961894323342 23.58254703867042 z"/>
<path fill="#a52a2a" stroke="#a52a2a" d="M-23.969625815997894 23.09488681249967 L-23.976447403466906 23.090948367138132 L-24.025721420742503 23.062500000000014 L-24.081237113261093 23.030447999980158 L-24.081237113261093 23.030447999980158 L-24.081237113261093 23.030447999980158 L-24.081237113261093 23.030447999980158 L-24.074884544077673 23.034115657508252 L-23.70096189432334 23.250000000000014 L-23.70096189432334 23.250000000000014 z"/>
<path fill="#a52a2a" stroke="#a52a2a" d="M-24.669692772628608 18.36318226667293 L-24.556209727608934 18.316176050326384 L-24.457319061943412 18.27521419541562 L-24.45053606660684 18.272404586753698 L-24.442409191538125 18.269038324880526 L-23.232233047033628 17.76776695296638 L-23.232233047033628 17.76776695296638 L-23.821488698022417 18.011844635310926 L-24.669692772628608 18.36318226667293 L-24.669692772628608 18.36318226667293 L-24.669692772628608 18.36318226667293 L-24.669692772628608 18.36318226667293 z"/>
<path fill="#a52a2a" stroke="#a52a2a" d="M-22.75257259155149 15.390235823992677 L-22.75257259155149 15.390235823992677 L-22.75257259155149 15.390235823992677 L-22.75257259155149 15.390235823992677 L-22.643115586359972 15.654488410422786 L-22.5 16.00000000000001 L-22.5 16.00000000000001 L-22.728911288617248 15.44735926243995 L-22.73713326977963 15.427509644008145 L-22.75257259155149 15.390235823992677 L-22.75257259155149 15.390235823992677 z"/>
<path fill="#a52a2a" stroke="#a52a2a" d="M-23.232233047033628 17.76776695296638 L-23.232233047033628 17.76776695296638 L-22.904846512639345 16.977385941493377 L-22.661718602356625 16.390423243097406 L-22.499999999999996 16.00000000000001 L-22.499999999999996 16.00000000000001 L-22.51015196765786 16.024509018004387 L-22.744077682344543 16.5892556509888 L-22.758589131985094 16.62428938952072 z"/>
<path fill="#a52a2a" stroke="#a52a2a" d="M-17.062668100702382 14.437524014386069 L-17.062668100702382 14.437524014386069 L-17.062668100702382 14.437524014386069 L-22.38640921577858 15.198058459396954 L-22.38640921577858 15.198058459396954 L-22.38640921577858 15.198058459396954 L-22.38640921577858 15.198058459396954 L-22.38640921577858 15.198058459396954 L-22.38640921577858 15.198058459396954 L-22.38640921577858 15.198058459396954 L-21.81345410517279 15.116207729310412 L-20.795205991486153 14.970743713069464 L-18.440607336674574 14.63437247666781 L-17.698355741849692 14.52833653454997 L-17.062668100702382 14.437524014386069 z"/>
<path fill="#a52a2a" stroke="#a52a2a" d="M-17.165369916700634 25.547804297614206 L-17.165369916700634 25.547804297614206 L-17.165369916700634 25.547804297614206 L-17.165369916700634 25.547804297614206 L-17.930225775927223 25.43853917486755 L-18.666666666666664 25.333333333333346 L-20.69581971281514 25.043454326740708 L-21.15129016999574 24.978387118572048 L-21.52108967525932 24.92555861782011 L-21.635313479105115 24.909240931556425 L-21.81345410517279 24.883792270689614 L-21.9588958128659 24.86301488387631 L-22.360773072867733 24.80560384673319 L-22.360773072867733 24.80560384673319 L-22.360773072867733 24.80560384673319 L-22.360773072867733 24.80560384673319 L-22.360773072867733 24.80560384673319 L-22.360773072867733 24.80560384673319 z"/>
<path fill="#a52a2a" stroke="#a52a2a" d="M-22.744077682344543 16.5892556509888 L-22.51015196765786 16.02450901800439 L-22.5 16.000000000000014 L-22.643115586359972 15.654488410422788 L-22.75257259155149 15.39023582399268 L-22.472760934248317 15.24337933740338 L-22.386409215778585 15.198058459396954 L-17.062668100702382 14.437524014386069 L-16.716492026368176 14.619211233953603 L-16.067298924832883 14.959934057757135 L-15.608440295812622 15.20076164424359 L-15.021264050555228 15.508935510973407 L-14.783710781103478 15.853090836883117 L-14.650565003214817 16.045985797615625 L-14.641140440174299 16.059639634383487 L-14.47747688166599 16.296747233230537 L-13.708907456020084 17.410212275315047 L-13.501632020406662 17.710502586036718 L-13.489330696455433 17.728324130498414 L-13.38990254388751 17.872370677744797 L-13.343652919581398 18.253270602772815 L-13.274517281062232 18.822653812340516 L-13.091333733988758 20.33130605316383 L-13.076935857713014 20.449883232465776 L-13.043746755411675 20.723220081531952 L-13.38319677182047 21.618276214483615 L-13.597420495314488 22.18313775010997 L-13.637700649706902 22.28934778835534 L-13.661096266524792 22.351036959970582 L-13.722520268800901 22.512998743120004 L-14.062096804638061 23.408388480386947 L-14.662677464201577 23.9404565160576 L-14.778618192337836 24.043171038231055 L-14.84062762915687 24.098106605529086 L-15.630440101927123 24.797819398878882 L-15.8523414447098 24.994406834200003 L-16.211660967737387 25.31273615391927 L-17.141107311824925 25.541824102612853 L-17.165369916700637 25.547804297614206 L-22.360773072867733 24.80560384673319 L-22.504860419962387 24.67795359607516 L-22.51185200155784 24.671759595275287 L-22.898718776992716 24.32902553950088 L-22.973725190530068 24.262575655579337 L-23.29382762605862 23.978989643654064 L-23.350042381757824 23.929187715862515 L-23.69434681036467 23.624160609037776 L-23.700961894323342 23.618300156038437 L-23.700961894323342 23.48795392269343 L-23.700961894323342 23.250000000000014 L-24.074884544077673 23.034115657508252 L-24.081237113261096 23.030447999980154 L-24.277353211770734 22.513332347435277 L-24.472911500656615 21.99768751798844 L-24.6439172511389 21.54678241166832 L-24.874477053817994 20.938846175331463 L-24.927681536073404 20.798557485270315 L-24.956253244588325 20.723220081531945 L-24.854950640021446 19.888918072303166 L-24.840867981763044 19.77293694693623 L-24.796732768852998 19.409450766437452 L-24.669692772628608 18.36318226667293 L-23.821488698022417 18.011844635310926 L-23.23223304703363 17.76776695296638 L-22.758589131985097 16.624289389520722 M-18.682517770760477 16.958298450514373 L-18.999999999999996 16.775000000000013 L-19.231140920237628 16.908449272519945 L-19.384258837297114 16.996851943151995 L-19.417917046532924 17.01628451931473 L-19.426392402433223 17.021177768325245 L-20.396465963602406 17.58125000000001 L-20.70177932834712 17.75752275332256 L-20.9164547472697 17.88146566422591 L-21.109092773317897 17.992685280420996 L-21.185168918422736 18.036607863276185 L-21.26651336080991 18.0835720989855 L-21.33861327787509 18.12519900551163 L-21.48468465921491 18.209533356849075 L-21.792931927204812 18.387500000000014 L-21.792931927204812 18.44554308881834 L-21.792931927204812 18.81775122207993 L-21.792931927204812 20.000000000000014 L-21.792931927204812 20.71506489561968 L-21.792931927204812 21.41428548129248 L-21.792931927204812 21.61250000000001 L-21.58827658986798 21.73065781410253 L-21.094946759692263 22.01548192435375 L-20.77628718672221 22.19946011458786 L-20.748423815260715 22.215547039601685 L-20.48774678448057 22.366048993494154 L-20.443674100127772 22.391494369669154 L-20.396465963602406 22.418750000000014 L-19.976812719040254 22.66103691371427 L-19.69023049904651 22.82649523557262 L-19.629834620042743 22.861364812573388 L-19.426392402433216 22.978822231674783 L-19.390078055851447 22.999788329449213 L-19.279034075666964 23.063899601300612 L-19.00588196435417 23.22160404629677 L-18.999999999999996 23.225000000000012 L-18.989494943038792 23.218934902535608 L-18.5637631864124 22.973138558244788 L-18.41956820009733 22.889887544079986 L-18.351950711463576 22.850848568815366 L-18.120627202990924 22.71729387892879 L-18.000782526145557 22.648101522491174 L-17.60353403639759 22.418750000000014 L-17.28617000789346 22.23551979271205 L-16.207068072795185 21.61250000000001 L-16.207068072795185 21.27487515829949 L-16.207068072795185 21.188440235172447 L-16.207068072795185 21.098019554209085 L-16.207068072795185 21.07940608918064 L-16.207068072795185 20.958010718522793 L-16.207068072795185 20.85269326223621 L-16.207068072795185 20.23899846120038 L-16.207068072795185 20.000000000000014 L-16.207068072795185 19.796971209265898 L-16.207068072795185 19.54367306748932 L-16.207068072795185 19.064768272792296 L-16.207068072795185 18.870958571407304 L-16.207068072795185 18.58683659648953 L-16.207068072795185 18.511989261619174 L-16.207068072795185 18.387500000000014 L-16.7273031313358 18.08714214890971 L-17.321920154410652 17.74383985057271 L-17.60353403639759 17.58125000000001 L-18.351950711463566 17.149151431184666 L-18.368876882665507 17.139379101684877 L-18.411299335393526 17.11488648718267 z"/>
<path fill="#a52a2a" stroke="#a52a2a" d="M-22.75257259155149 15.39023582399268 L-22.75257259155149 15.39023582399268 L-22.75257259155149 15.39023582399268 L-22.75257259155149 15.39023582399268 L-22.75257259155149 15.39023582399268 L-22.75257259155149 15.39023582399268 L-22.386409215778585 15.198058459396954 L-22.386409215778585 15.198058459396954 L-22.386409215778585 15.198058459396954 L-22.386409215778585 15.198058459396954 L-22.386409215778585 15.198058459396954 L-22.386409215778585 15.198058459396954 L-22.386409215778585 15.198058459396954 L-22.472760934248313 15.243379337403379 z"/>
<path fill="#a52a2a" stroke="#a52a2a" d="M-22.36077307286773 24.805603846733195 L-22.36077307286773 24.805603846733195 L-22.36077307286773 24.805603846733195 L-23.70096189432334 23.61830015603844 L-23.70096189432334 23.61830015603844 L-23.70096189432334 23.61830015603844 L-23.70096189432334 23.61830015603844 L-23.70096189432334 23.61830015603844 L-23.70096189432334 23.61830015603844 L-23.70096189432334 23.61830015603844 L-23.70096189432334 23.61830015603844 L-23.70096189432334 23.61830015603844 L-23.70096189432334 23.61830015603844 L-23.70096189432334 23.61830015603844 L-23.70096189432334 23.61830015603844 L-23.70096189432334 23.61830015603844 L-23.694346810364667 23.62416060903778 L-23.350042381757824 23.92918771586252 L-23.293827626058615 23.978989643654064 L-22.973725190530065 24.262575655579337 L-22.898718776992713 24.329025539500883 L-22.51185200155784 24.67175959527529 L-22.504860419962387 24.677953596075163 L-22.36077307286773 24.805603846733195 L-22.36077307286773 24.805603846733195 L-22.36077307286773 24.805603846733195 z"/>
<path fill="#a52a2a" stroke="#a52a2a" d="M-24.0812371132611 23.03044799998015 L-24.0812371132611 23.03044799998015 L-24.0812371132611 23.03044799998015 L-24.956253244588325 20.723220081531945 L-24.956253244588325 20.723220081531945 L-24.927681536073404 20.798557485270315 L-24.874477053817994 20.938846175331463 L-24.6439172511389 21.546782411668318 L-24.472911500656615 21.997687517988435 L-24.277353211770734 22.513332347435274 L-24.0812371132611 23.03044799998015 z"/>
<path fill="#a52a2a" stroke="#a52a2a" d="M-24.669692772628608 18.36318226667293 L-24.669692772628608 18.36318226667293 L-24.669692772628608 18.36318226667293 L-24.669692772628608 18.36318226667293 L-24.796732768852998 19.409450766437452 L-24.840867981763044 19.77293694693623 L-24.854950640021446 19.888918072303163 L-24.95625324458832 20.723220081531945 L-24.95625324458832 20.723220081531945 L-24.669692772628608 18.36318226667293 z"/>
<path fill="#a52a2a" stroke="#a52a2a" d="M-17.062668100702382 14.437524014386069 L-17.062668100702382 14.437524014386069 L-17.062668100702382 14.437524014386069 L-15.021264050555228 15.508935510973407 L-15.021264050555228 15.508935510973407 L-15.608440295812622 15.20076164424359 L-16.067298924832883 14.959934057757135 L-16.716492026368176 14.619211233953603 L-17.062668100702382 14.437524014386069 z"/>
<path fill="#a52a2a" stroke="#a52a2a" d="M-14.650565003214817 16.045985797615625 L-14.78371078110348 15.853090836883116 L-15.021264050555228 15.508935510973405 L-15.021264050555228 15.508935510973405 L-13.38990254388751 17.872370677744797 L-13.38990254388751 17.872370677744797 L-13.489330696455434 17.728324130498414 L-13.501632020406662 17.710502586036718 L-13.708907456020086 17.410212275315047 L-14.47747688166599 16.296747233230533 L-14.641140440174299 16.059639634383487 z"/>
<path fill="#a52a2a" stroke="#a52a2a" d="M-13.091333733988758 20.33130605316383 L-13.274517281062232 18.822653812340512 L-13.343652919581398 18.253270602772815 L-13.38990254388751 17.872370677744797 L-13.38990254388751 17.872370677744797 L-13.043746755411675 20.72322008153195 L-13.043746755411675 20.72322008153195 L-13.076935857713014 20.449883232465776 z"/>
<path fill="#a52a2a" stroke="#a52a2a" d="M-13.722520268800901 22.51299874312 L-13.66109626652479 22.351036959970582 L-13.6377006497069 22.289347788355336 L-13.597420495314488 22.183137750109967 L-13.383196771820469 21.618276214483615 L-13.043746755411675 20.72322008153195 L-13.043746755411675 20.72322008153195 L-14.06209680463806 23.408388480386943 L-14.06209680463806 23.408388480386943 z"/>
<path fill="#a52a2a" stroke="#a52a2a" d="M-17.165369916700634 25.547804297614206 L-17.14110731182492 25.541824102612853 L-16.211660967737384 25.31273615391927 L-16.211660967737384 25.31273615391927 L-17.165369916700634 25.547804297614206 L-17.165369916700634 25.547804297614206 L-17.165369916700634 25.547804297614206 z"/>
<path fill="#a52a2a" stroke="#a52a2a" d="M-14.778618192337836 24.043171038231055 L-14.662677464201575 23.9404565160576 L-14.06209680463806 23.408388480386947 L-14.06209680463806 23.408388480386947 L-16.211660967737387 25.31273615391927 L-16.211660967737387 25.31273615391927 L-15.852341444709799 24.994406834200003 L-15.630440101927123 24.79781939887888 L-14.840627629156868 24.098106605529086 z"/>
<path fill="#a52a2a" stroke="#a52a2a" d="M-17.698355741849692 14.52833653454997 L-18.440607336674578 14.63437247666781 L-20.795205991486156 14.970743713069464 L-21.81345410517279 15.116207729310412 L-22.386409215778585 15.198058459396954 L-22.75257259155149 15.39023582399268 L-22.73713326977963 15.427509644008145 L-22.728911288617248 15.447359262439951 L-22.5 16.000000000000014 L-22.661718602356625 16.390423243097406 L-22.90484651263935 16.97738594149338 L-23.23223304703363 17.76776695296638 L-24.44240919153813 18.269038324880526 L-24.45053606660684 18.272404586753698 L-24.457319061943412 18.27521419541562 L-24.556209727608937 18.316176050326384 L-24.669692772628608 18.36318226667293 L-24.956253244588325 20.723220081531945 L-24.081237113261096 23.030447999980154 L-24.025721420742503 23.062500000000014 L-23.976447403466906 23.090948367138132 L-23.969625815997897 23.094886812499666 L-23.700961894323342 23.250000000000014 L-23.700961894323342 23.58254703867042 L-23.700961894323342 23.618300156038437 L-22.360773072867733 24.80560384673319 L-21.9588958128659 24.86301488387631 L-21.81345410517279 24.883792270689614 L-21.635313479105115 24.909240931556425 L-21.521089675259322 24.92555861782011 L-21.15129016999574 24.978387118572048 L-20.69581971281514 25.043454326740708 L-18.666666666666664 25.333333333333346 L-17.930225775927223 25.43853917486755 L-17.165369916700637 25.547804297614206 L-16.211660967737387 25.31273615391927 L-14.062096804638061 23.408388480386947 L-13.043746755411675 20.723220081531952 L-13.38990254388751 17.872370677744797 L-15.021264050555228 15.508935510973407 L-17.062668100702382 14.437524014386069 M-18.54393163522698 21.530369051084275 L-18.999999999999996 21.750000000000014 L-19.046809163238244 21.727457895056855 L-19.247041508477363 21.63103107972539 L-19.91213672954603 21.310738102168536 L-20.149929464979433 21.196223156246997 L-20.21522600445676 21.164778000138753 L-20.368205094319052 21.091107153252796 L-20.402053299049687 20.94280847868575 L-20.593484262318476 20.10409462813524 L-20.70612384631819 19.61058836557646 L-20.07490564440988 18.819065775972675 L-19.759296543455726 18.423304481170778 L-19.618678316481443 18.423304481170778 L-19.175522239812302 18.423304481170778 L-19.130413845431836 18.423304481170778 L-18.746901152181422 18.423304481170778 L-18.24070345654427 18.423304481170778 L-17.609485254635963 19.214827070774568 L-17.59328144652706 19.235146003462223 L-17.505043887116305 19.34579240325547 L-17.293876153681808 19.61058836557646 L-17.519155321681232 20.597600890694018 L-17.631794905680945 21.091107153252796 z"/>
<path fill="#a52a2a" stroke="#a52a2a" d="M-19.38425883729711 16.996851943151995 L-19.426392402433223 17.021177768325245 L-20.396465963602406 17.58125000000001 L-20.9164547472697 17.88146566422591 L-21.185168918422733 18.03660786327618 L-21.26651336080991 18.0835720989855 L-21.33861327787509 18.12519900551163 L-21.792931927204812 18.387500000000014 L-21.792931927204812 18.387500000000014 L-21.33861327787509 18.12519900551163 L-21.288605341153964 18.096326909784068 L-21.185168918422733 18.03660786327618 L-21.1591436906317 18.021582191005308 L-19.031020383331843 16.79290962666702 L-18.999999999999996 16.775000000000013 L-18.999999999999996 16.775000000000013 z"/>
<path fill="#a52a2a" stroke="#a52a2a" d="M-21.792931927204812 20.000000000000014 L-21.792931927204812 20.71506489561968 L-21.792931927204812 21.414285481292477 L-21.792931927204812 21.61250000000001 L-21.792931927204812 21.61250000000001 L-21.792931927204812 20.93130818767133 L-21.792931927204812 18.817751222079927 L-21.792931927204812 18.558338451066934 L-21.792931927204812 18.387500000000014 L-21.792931927204812 18.387500000000014 L-21.792931927204812 18.445543088818336 L-21.792931927204812 18.817751222079927 z"/>
<path fill="#a52a2a" stroke="#a52a2a" d="M-18.351950711463576 22.850848568815366 L-18.000782526145557 22.648101522491174 L-17.60353403639759 22.41875000000001 L-16.20706807279518 21.61250000000001 L-16.20706807279518 21.61250000000001 L-17.037552465379296 22.091980387616232 L-18.999999999999996 23.225000000000012 L-18.999999999999996 23.225000000000012 L-18.563763186412398 22.973138558244788 z"/>
<path fill="#a52a2a" stroke="#a52a2a" d="M-21.792931927204812 21.61250000000001 L-21.588276589867977 21.73065781410253 L-21.094946759692263 22.01548192435375 L-20.776287186722207 22.19946011458786 L-20.748423815260715 22.215547039601688 L-20.44367410012777 22.391494369669154 L-20.396465963602406 22.418750000000014 L-19.69023049904651 22.82649523557262 L-19.426392402433216 22.978822231674783 L-19.279034075666964 23.063899601300612 L-18.999999999999996 23.225000000000012 L-18.999999999999996 23.225000000000012 L-20.054360107691085 22.61626490800176 L-20.64540854193433 22.275022935387316 L-20.858992317942082 22.151710284814705 L-21.465198138469898 21.801717191148654 L-21.694125965533303 21.6695456485686 L-21.792931927204812 21.61250000000001 z"/>
<path fill="#a52a2a" stroke="#a52a2a" d="M-18.351950711463566 17.149151431184666 L-18.411299335393526 17.114886487182673 L-18.999999999999996 16.775000000000013 L-18.999999999999996 16.775000000000013 L-18.928321339804647 16.81638369375895 L-16.20706807279518 18.387500000000014 L-16.20706807279518 18.387500000000014 L-16.727303131335795 18.08714214890971 L-17.60353403639759 17.581250000000015 z"/>
<path fill="#a52a2a" stroke="#a52a2a" d="M-16.207068072795185 18.85758268486516 L-16.207068072795185 18.454433232266986 L-16.207068072795185 18.387500000000014 L-16.207068072795185 18.387500000000014 L-16.207068072795185 18.6278813106484 L-16.207068072795185 18.665468638612502 L-16.207068072795185 18.91271635755607 L-16.207068072795185 19.645013286227385 L-16.207068072795185 20.00488081291978 L-16.207068072795185 20.968042327517402 L-16.207068072795185 21.092377480136307 L-16.207068072795185 21.400883509099412 L-16.207068072795185 21.61250000000001 L-16.207068072795185 21.61250000000001 L-16.207068072795185 21.27487515829949 L-16.207068072795185 21.098019554209085 L-16.207068072795185 21.07035943499764 L-16.207068072795185 20.90670032341407 L-16.207068072795185 20.78465673153079 L-16.207068072795185 20.031013485731844 L-16.207068072795185 20.000000000000014 L-16.207068072795185 19.51342649612483 z"/>
<path fill="#a52a2a" stroke="#a52a2a" d="M-26.299038105676658 24.24299455633192 L-26.299038105676658 24.24299455633192 L-26.299038105676658 24.750000000000014 L-26.299038105676658 24.750000000000014 L-26.299038105676658 23.250000000000014 L-26.299038105676658 23.250000000000014 L-26.299038105676658 23.581430793730387 L-26.299038105676658 23.79740331575891 L-26.299038105676658 23.992406182202664 L-26.299038105676658 24.109709674978532 L-26.299038105676658 24.24299455633192 L-26.299038105676658 24.24299455633192 L-26.299038105676658 24.24299455633192 L-26.299038105676658 24.24299455633192 z"/>
<path fill="#a52a2a" stroke="#a52a2a" d="M-25.856425973522985 25.005542233645528 L-25.254636142741674 25.3529857544427 L-24.999999999999993 25.500000000000014 L-24.999999999999993 25.500000000000014 L-25.254636142741674 25.3529857544427 L-25.856425973522985 25.005542233645528 L-26.29903810567665 24.750000000000014 L-26.29903810567665 24.750000000000014 L-25.974278579257486 24.937500000000014 z"/>
<path fill="#a52a2a" stroke="#a52a2a" d="M-23.700961894323342 24.277281974903797 L-23.700961894323342 23.980807264297166 L-23.700961894323342 23.625000000000014 L-23.700961894323342 23.48795392269343 L-23.700961894323342 23.250000000000014 L-23.700961894323342 23.250000000000014 L-23.700961894323342 24.488230854637614 L-23.700961894323342 24.75000000000001 L-23.700961894323342 24.75000000000001 L-23.700961894323342 24.614148300810964 L-23.700961894323342 24.614148300810964 L-23.700961894323342 24.614148300810964 L-23.700961894323342 24.614148300810964 z"/>
<path fill="#a52a2a" stroke="#a52a2a" d="M-24.675240473580832 25.31250000000001 L-24.58791041194701 25.262079965407377 L-23.70096189432334 24.75000000000001 L-23.70096189432334 24.75000000000001 L-24.58791041194701 25.262079965407377 L-24.999999999999996 25.50000000000001 L-24.999999999999996 25.50000000000001 z"/>
<path fill="#a52a2a" stroke="#a52a2a" d="M-24.999999999999996 22.500000000000014 L-23.70096189432334 23.250000000000014 L-23.70096189432334 23.250000000000014 L-24.074884544077673 23.034115657508252 L-24.675240473580832 22.687500000000014 L-24.999999999999996 22.500000000000014 z"/>
<path fill="#a52a2a" stroke="#a52a2a" d="M-26.29903810567665 23.25000000000001 L-26.29903810567665 23.25000000000001 L-24.999999999999993 22.50000000000001 L-24.999999999999993 22.50000000000001 L-25.974278579257486 23.06250000000001 z"/>
<path fill="#a52a2a" stroke="#a52a2a" d="M-25.589255650988786 18.255922317655468 L-24.999999999999993 18.500000000000014 L-24.999999999999993 18.500000000000014 L-26.76776695296636 17.767766952966383 L-26.76776695296636 17.767766952966383 z"/>
<path fill="#a52a2a" stroke="#a52a2a" d="M-27.47405193827071 16.062644162544157 L-27.01184463531091 17.17851130197759 L-26.76776695296637 17.76776695296638 L-26.76776695296637 17.76776695296638 L-27.5 16.00000000000001 L-27.5 16.00000000000001 L-27.49907367420218 16.002236348304287 z"/>
<path fill="#a52a2a" stroke="#a52a2a" d="M-27.468552460188615 15.9240789228841 L-27.486275227086097 15.966865467090784 L-27.499999999999996 16.00000000000001 L-27.499999999999996 16.00000000000001 L-26.97253679212298 14.726591169890497 L-26.849502312229056 14.429559659891064 L-26.767766952966365 14.232233047033644 L-26.767766952966365 14.232233047033644 L-26.849502312229056 14.429559659891064 L-26.97253679212298 14.726591169890497 L-27.468552460188615 15.9240789228841 L-27.468552460188615 15.9240789228841 L-27.468552460188615 15.9240789228841 L-27.468552460188615 15.9240789228841 z"/>
<path fill="#a52a2a" stroke="#a52a2a" d="M-23.232233047033628 17.76776695296638 L-23.232233047033628 17.76776695296638 L-24.999999999999996 18.50000000000001 L-24.999999999999996 18.50000000000001 L-23.821488698022417 18.011844635310926 z"/>
<path fill="#a52a2a" stroke="#a52a2a" d="M-23.232233047033628 14.232233047033645 L-24.241363488696237 13.814237531893442 L-24.999999999999996 13.500000000000014 L-24.999999999999996 13.500000000000014 L-23.232233047033628 14.232233047033645 z"/>
<path fill="#a52a2a" stroke="#a52a2a" d="M-24.999999999999996 13.500000000000012 L-25.886777855849044 13.867315414704821 L-26.767766952966365 14.232233047033644 L-26.767766952966365 14.232233047033644 L-24.999999999999996 13.500000000000012 z"/>
<path fill="#a52a2a" stroke="#a52a2a" d="M-22.807271239746004 15.258181605678013 L-22.929085846336353 14.964095130352451 L-23.23223304703363 14.232233047033645 L-23.23223304703363 14.232233047033645 L-22.929085846336353 14.964095130352451 L-22.59198728379824 15.777923051888433 L-22.5 16.00000000000001 L-22.5 16.00000000000001 L-22.643115586359972 15.654488410422786 L-22.807271239746004 15.258181605678013 L-22.807271239746004 15.258181605678013 L-22.807271239746004 15.258181605678013 L-22.807271239746004 15.258181605678013 z"/>
<path fill="#a52a2a" stroke="#a52a2a" d="M-22.744077682344543 16.5892556509888 L-22.51015196765786 16.024509018004387 L-22.499999999999996 16.00000000000001 L-22.499999999999996 16.00000000000001 L-23.232233047033628 17.76776695296638 L-23.232233047033628 17.76776695296638 L-22.758589131985094 16.62428938952072 z"/>
<path fill="#a52a2a" stroke="#a52a2a" d="M-27.46855246018861 15.924078922884101 L-27.46855246018861 15.924078922884101 L-27.46855246018861 15.924078922884101 L-27.46855246018861 15.924078922884101 L-27.999999999999996 16.00000000000001 L-27.999999999999996 16.00000000000001 L-27.46855246018861 15.924078922884101 z"/>
<path fill="#a52a2a" stroke="#a52a2a" d="M-22.807271239746 15.258181605678013 L-22.807271239746 15.258181605678013 L-22.807271239746 15.258181605678013 L-22.807271239746 15.258181605678013 L4.898587196589412e-16 12.000000000000014 L4.898587196589412e-16 12.000000000000014 L-0.9411357029926967 12.134447957570398 L-1.2584998571352732 12.17978569387648 L-9.333333333333332 13.333333333333346 L-21.81345410517279 15.116207729310412 L-22.807271239746 15.258181605678013 z"/>
<path fill="#a52a2a" stroke="#a52a2a" d="M3.436664501464886 14.947025963200904 L4.058760029616647 15.443130592244678 L4.886446765425185 16.103188738382926 L4.886446765425185 16.103188738382926 L2.7117733694847366 14.368944575609893 L2.7117733694847366 14.368944575609893 L2.7331681028483272 14.386006306129591 z"/>
<path fill="#a52a2a" stroke="#a52a2a" d="M4.791725319301825 13.765085080308328 L3.74510840122362 13.065758013563538 L3.0614674589207183 12.608963739909719 L3.0614674589207183 12.608963739909719 L5.65685424949238 14.343145750507633 L5.65685424949238 14.343145750507633 L5.622686296211697 14.320315454024056 z"/>
<path fill="#a52a2a" stroke="#a52a2a" d="M4.892678322688792 16.116128700374773 L5.288730993995589 16.938540546512964 L5.491976510093201 17.360584209447044 L6.093299451136397 18.609244162773045 L6.093299451136397 18.609244162773045 L4.886446765425185 16.103188738382926 L4.886446765425185 16.103188738382926 z"/>
<path fill="#a52a2a" stroke="#a52a2a" d="M0.9039244564949106 13.95631485853664 L1.8385005085937949 14.169625743749519 L2.7117733694847366 14.368944575609893 L2.7117733694847366 14.368944575609893 L-2.392855436829343e-15 13.750000000000014 L-2.392855436829343e-15 13.750000000000014 L3.827021247335478e-16 13.750000000000014 z"/>
<path fill="#a52a2a" stroke="#a52a2a" d="M-2.7117733694847397 14.368944575609895 L-4.886446765425188 16.103188738382933 L-4.886446765425188 16.103188738382933 L-4.161555633445039 15.52510735079192 L-2.7117733694847397 14.368944575609895 z"/>
<path fill="#a52a2a" stroke="#a52a2a" d="M-5.691015222565994 17.77389235464301 L-5.483391071807139 17.342756363147085 L-4.886446765425188 16.103188738382933 L-4.886446765425188 16.103188738382933 L-6.093299451136398 18.609244162773052 L-6.093299451136398 18.609244162773052 z"/>
<path fill="#a52a2a" stroke="#a52a2a" d="M-28 24.000000000000014 L-28 24.000000000000014 L-28 16.000000000000014 L-28 16.000000000000014 L-28 18.66666666666668 z"/>
<path fill="#a52a2a" stroke="#a52a2a" d="M-6.093299451136397 20.262391868272747 L-6.093299451136397 19.737608131727274 L-6.0932994511363985 18.609244162773052 L-6.0932994511363985 18.609244162773052 L-6.093299451136396 21.390755837226983 L-6.093299451136396 21.390755837226983 L-6.093299451136397 20.463585279075673 z"/>
<path fill="#a52a2a" stroke="#a52a2a" d="M-2.4936705103527466 14.319164021267182 L-1.838500508593794 14.169625743749519 L-1.8078489129898274 14.162629717073267 L-2.392855436829343e-15 13.750000000000012 L-2.392855436829343e-15 13.750000000000012 L-2.7117733694847392 14.368944575609895 L-2.7117733694847392 14.368944575609895 z"/>
<path fill="#a52a2a" stroke="#a52a2a" d="M-23.70096189432334 24.614148300810964 L-21.81345410517279 24.883792270689614 L-18.666666666666664 25.333333333333346 L-1.258499857135273 27.820214306123546 L-0.9411357029926979 27.865552042429627 L4.898587196589412e-16 28.00000000000001 L4.898587196589412e-16 28.00000000000001 L-23.70096189432334 24.614148300810964 L-23.70096189432334 24.614148300810964 L-23.70096189432334 24.614148300810964 z"/>
<path fill="#a52a2a" stroke="#a52a2a" d="M-26.299038105676654 24.24299455633192 L-26.299038105676654 24.24299455633192 L-26.299038105676654 24.24299455633192 L-26.299038105676654 24.24299455633192 L-26.299038105676654 24.24299455633192 L-27.999999999999996 24.000000000000014 L-27.999999999999996 24.000000000000014 L-26.299038105676654 24.24299455633192 z"/>
<path fill="#a52a2a" stroke="#a52a2a" d="M4.058760029616647 24.556869407755347 L2.7331681028483277 25.613993693870437 L2.7117733694847392 25.631055424390134 L2.7117733694847392 25.631055424390134 L4.886446765425186 23.896811261617096 L4.886446765425186 23.896811261617096 L4.161555633445037 24.47489264920811 z"/>
<path fill="#a52a2a" stroke="#a52a2a" d="M5.4919765100932025 22.639415790552977 L4.892678322688793 23.883871299625252 L4.8864467654251875 23.896811261617096 L4.8864467654251875 23.896811261617096 L6.0932994511363985 21.390755837226976 L6.0932994511363985 21.390755837226976 L5.691015222565993 22.226107645357015 z"/>
<path fill="#a52a2a" stroke="#a52a2a" d="M3.926596389111272 26.812975589891003 L5.622686296211697 25.67968454597597 L5.65685424949238 25.656854249492394 L5.65685424949238 25.656854249492394 L3.0614674589207183 27.391036260090306 L3.0614674589207183 27.391036260090306 L3.74510840122362 26.934241986436486 z"/>
<path fill="#a52a2a" stroke="#a52a2a" d="M1.8385005085937949 25.830374256250508 L1.8078489129898263 25.83737028292676 L3.8270212473354783e-16 26.250000000000014 L3.8270212473354783e-16 26.250000000000014 L3.8270212473354783e-16 26.250000000000014 L2.7117733694847392 25.631055424390134 L2.7117733694847392 25.631055424390134 z"/>
<path fill="#a52a2a" stroke="#a52a2a" d="M6.093299451136398 21.390755837226976 L6.093299451136398 21.390755837226976 L6.093299451136398 18.609244162773045 L6.093299451136398 18.609244162773045 L6.093299451136398 19.536414720924355 z"/>
<path fill="#a52a2a" stroke="#a52a2a" d="M-0.9039244564949108 26.043685141463385 L-1.8385005085937955 25.830374256250508 L-2.493670510352745 25.680835978732844 L-2.7117733694847335 25.631055424390134 L-2.7117733694847335 25.631055424390134 L3.8270212473354783e-16 26.25000000000001 L3.8270212473354783e-16 26.25000000000001 z"/>
<path fill="#a52a2a" stroke="#a52a2a" d="M-4.88644676542518 23.896811261617103 L-4.88644676542518 23.896811261617103 L-2.7117733694847335 25.631055424390134 L-2.7117733694847335 25.631055424390134 L-3.4366645014648824 25.052974036799124 z"/>
<path fill="#a52a2a" stroke="#a52a2a" d="M4.898587196589413e-16 28.00000000000001 L0.9666333512214086 27.80772467172043 L1.0204891529735731 27.79701208669678 L3.056097809176207 27.392104349832987 L3.061467458920718 27.391036260090306 L3.061467458920718 27.391036260090306 L4.898587196589412e-16 28.000000000000014 L4.898587196589412e-16 28.000000000000014 z"/>
<path fill="#a52a2a" stroke="#a52a2a" d="M0.9666333512214086 12.192275328279596 L4.898587196589413e-16 12.000000000000014 L4.898587196589412e-16 12.000000000000012 L4.898587196589412e-16 12.000000000000012 L3.061467458920718 12.608963739909719 L3.061467458920718 12.608963739909719 L3.056097809176207 12.60789565016704 L2.0409783059471454 12.405975826606484 z"/>
<path fill="#a52a2a" stroke="#a52a2a" d="M-5.288730993995586 23.061459453487064 L-5.48339107180714 22.657243636852936 L-6.093299451136398 21.39075583722698 L-6.093299451136398 21.39075583722698 L-4.886446765425183 23.8968112616171 L-4.886446765425183 23.8968112616171 z"/>
<path fill="#a52a2a" stroke="#a52a2a" d="M6.4278760968653925 15.497061490427075 L5.967700775141364 14.808360452098448 L5.65685424949238 14.343145750507633 L5.65685424949238 14.343145750507633 L7.391036260090293 16.938532541079294 L7.391036260090293 16.938532541079294 L7.184223626240407 16.629015561467526 L6.812975589890987 16.07340361088874 z"/>
<path fill="#a52a2a" stroke="#a52a2a" d="M6.234914919691687 24.791725319301836 L6.427876096865396 24.502938509572946 L7.391036260090295 23.061467458920728 L7.391036260090295 23.061467458920728 L5.6568542494923815 25.65685424949239 L5.6568542494923815 25.65685424949239 L5.967700775141367 25.191639547901573 z"/>
<path fill="#a52a2a" stroke="#a52a2a" d="M7.594024173393529 22.040978305947156 L7.882647189552751 20.589972418473426 L8 20.00000000000001 L8 20.00000000000001 L7.391036260090294 23.061467458920728 L7.391036260090294 23.061467458920728 z"/>
<path fill="#a52a2a" stroke="#a52a2a" d="M7.391036260090293 16.938532541079294 L7.391036260090293 16.938532541079294 L7.999999999999999 20.00000000000001 L7.999999999999999 20.00000000000001 L7.797012086696764 18.97951084702644 z"/>
<path fill="#a52a2a" stroke="#a52a2a" d="M-23.700961894323342 23.250000000000014 L-23.700961894323342 23.48795392269343 L-23.700961894323342 23.625000000000014 L-23.700961894323342 23.980807264297166 L-23.700961894323342 24.277281974903797 L-23.700961894323342 24.614148300810964 L4.898587196589413e-16 28.000000000000014 L3.0614674589207187 27.391036260090306 L5.656854249492381 25.656854249492394 L7.391036260090294 23.06146745892073 L8 20.000000000000014 L7.391036260090294 16.938532541079294 L5.656854249492381 14.343145750507635 L3.0614674589207187 12.60896373990972 L4.898587196589413e-16 12.000000000000014 L-22.807271239746004 15.258181605678015 L-22.643115586359972 15.654488410422788 L-22.5 16.000000000000014 L-22.51015196765786 16.02450901800439 L-22.744077682344543 16.5892556509888 L-22.758589131985097 16.624289389520722 L-23.23223304703363 17.76776695296638 L-23.821488698022417 18.011844635310926 L-24.999999999999996 18.500000000000014 L-25.58925565098879 18.255922317655468 L-26.76776695296637 17.76776695296638 L-27.01184463531091 17.17851130197759 L-27.47405193827071 16.06264416254416 L-27.49907367420218 16.002236348304287 L-27.5 16.00000000000001 L-27.4862752270861 15.966865467090786 L-27.468552460188615 15.924078922884101 L-28 16.000000000000014 L-28 24.000000000000014 L-26.299038105676658 24.24299455633192 L-26.299038105676658 24.109709674978532 L-26.299038105676658 23.992406182202664 L-26.299038105676658 23.79740331575891 L-26.299038105676658 23.581430793730387 L-26.299038105676658 23.250000000000014 L-25.97427857925749 23.062500000000014 L-24.999999999999996 22.500000000000014 L-24.675240473580832 22.687500000000014 L-24.074884544077673 23.034115657508252 M-2.71177336948474 14.368944575609895 L-2.3928554368293432e-15 13.750000000000014 L2.711773369484737 14.368944575609893 L4.886446765425186 16.103188738382926 L6.093299451136398 18.609244162773045 L6.093299451136398 21.390755837226976 L4.886446765425187 23.896811261617096 L2.7117733694847397 25.631055424390134 L3.827021247335479e-16 26.250000000000014 L-2.711773369484734 25.631055424390134 L-4.886446765425181 23.896811261617103 L-6.093299451136396 21.390755837226983 L-6.0932994511363985 18.609244162773052 L-4.886446765425189 16.103188738382933 z"/>
<path fill="#a52a2a" stroke="#a52a2a" d="M2.5000000000000004 15.669872981077821 L4.330127018922193 17.500000000000014 L4.330127018922193 17.500000000000014 L2.5000000000000004 15.669872981077821 z"/>
<path fill="#a52a2a" stroke="#a52a2a" d="M3.0616169978683826e-16 15.000000000000012 L2.5 15.66987298107782 L2.5 15.66987298107782 L3.0616169978683826e-16 15.000000000000012 z"/>
<path fill="#a52a2a" stroke="#a52a2a" d="M-4.330127018922193 17.500000000000014 L-2.4999999999999987 15.66987298107782 L-2.4999999999999987 15.66987298107782 L-4.330127018922193 17.500000000000014 z"/>
<path fill="#a52a2a" stroke="#a52a2a" d="M6.123233995736765e-16 10.000000000000014 L-29.999999999999996 14.000000000000012 L-29.999999999999996 14.000000000000012 L6.123233995736765e-16 10.000000000000014 z"/>
<path fill="#a52a2a" stroke="#a52a2a" d="M-4.999999999999998 20.000000000000007 L-4.330127018922193 17.50000000000001 L-4.330127018922193 17.50000000000001 L-4.999999999999998 20.000000000000007 z"/>
<path fill="#a52a2a" stroke="#a52a2a" d="M-30 14.000000000000014 L-30 26.000000000000014 L-30 26.000000000000014 L-30 14.000000000000014 z"/>
<path fill="#a52a2a" stroke="#a52a2a" d="M-2.4999999999999987 15.66987298107782 L3.0616169978683826e-16 15.000000000000014 L3.0616169978683826e-16 15.000000000000014 L-2.4999999999999987 15.66987298107782 z"/>
<path fill="#a52a2a" stroke="#a52a2a" d="M-2.500000000000005 24.3301270189222 L-4.330127018922195 22.50000000000001 L-4.330127018922195 22.50000000000001 L-2.500000000000005 24.3301270189222 z"/>
<path fill="#a52a2a" stroke="#a52a2a" d="M4.330127018922196 22.50000000000001 L2.500000000000002 24.330127018922205 L2.500000000000002 24.330127018922205 L4.330127018922196 22.50000000000001 z"/>
<path fill="#a52a2a" stroke="#a52a2a" d="M-4.330127018922193 22.50000000000001 L-5 20.00000000000001 L-5 20.00000000000001 L-4.330127018922193 22.50000000000001 z"/>
<path fill="#a52a2a" stroke="#a52a2a" d="M6.123233995736765e-16 30.000000000000014 L3.420201433256688 29.396926207859096 L3.420201433256688 29.396926207859096 L6.123233995736765e-16 30.000000000000014 z"/>
<path fill="#a52a2a" stroke="#a52a2a" d="M3.420201433256688 29.396926207859096 L6.4278760968653925 27.66044443118979 L6.4278760968653925 27.66044443118979 L3.420201433256688 29.396926207859096 z"/>
<path fill="#a52a2a" stroke="#a52a2a" d="M2.5 24.330127018922205 L3.0616169978683826e-16 25.000000000000014 L3.0616169978683826e-16 25.000000000000014 L2.5 24.330127018922205 z"/>
<path fill="#a52a2a" stroke="#a52a2a" d="M5 20.00000000000001 L4.330127018922194 22.50000000000001 L4.330127018922194 22.50000000000001 L5 20.00000000000001 z"/>
<path fill="#a52a2a" stroke="#a52a2a" d="M4.330127018922193 17.500000000000014 L4.999999999999999 20.00000000000001 L4.999999999999999 20.00000000000001 L4.330127018922193 17.500000000000014 z"/>
<path fill="#a52a2a" stroke="#a52a2a" d="M3.0616169978683826e-16 25.00000000000001 L-2.5000000000000018 24.330127018922205 L-2.5000000000000018 24.330127018922205 L3.0616169978683826e-16 25.00000000000001 z"/>
<path fill="#a52a2a" stroke="#a52a2a" d="M-29.999999999999996 26.000000000000014 L6.123233995736765e-16 30.00000000000001 L6.123233995736765e-16 30.00000000000001 L-29.999999999999996 26.000000000000014 z"/>
<path fill="#a52a2a" stroke="#a52a2a" d="M3.420201433256688 10.603073792140929 L6.123233995736765e-16 10.000000000000012 L6.123233995736765e-16 10.000000000000012 L3.420201433256688 10.603073792140929 z"/>
<path fill="#a52a2a" stroke="#a52a2a" d="M6.4278760968653925 12.339555568810233 L3.420201433256688 10.603073792140929 L3.420201433256688 10.603073792140929 L6.4278760968653925 12.339555568810233 z"/>
<path fill="#a52a2a" stroke="#a52a2a" d="M6.427876096865393 27.66044443118979 L8.660254037844387 25.00000000000001 L8.660254037844387 25.00000000000001 L6.427876096865393 27.66044443118979 z"/>
<path fill="#a52a2a" stroke="#a52a2a" d="M8.660254037844387 25.00000000000001 L9.84807753012208 21.736481776669315 L9.84807753012208 21.736481776669315 L8.660254037844387 25.00000000000001 z"/>
<path fill="#a52a2a" stroke="#a52a2a" d="M8.660254037844386 15.000000000000014 L6.4278760968653925 12.339555568810233 L6.4278760968653925 12.339555568810233 L8.660254037844386 15.000000000000014 z"/>
<path fill="#a52a2a" stroke="#a52a2a" d="M9.848077530122078 18.26351822333071 L8.660254037844386 15.000000000000014 L8.660254037844386 15.000000000000014 L9.848077530122078 18.26351822333071 z"/>
<path fill="#a52a2a" stroke="#a52a2a" d="M9.84807753012208 21.736481776669315 L9.84807753012208 18.26351822333071 L9.84807753012208 18.26351822333071 L9.84807753012208 21.736481776669315 z"/>
<path fill="#a52a2a" stroke="#a52a2a" d="M-6.093299451136397 19.737608131727278 L-6.093299451136397 20.262391868272747 L-6.093299451136397 20.463585279075673 L-6.093299451136396 21.390755837226983 L-5.483391071807139 22.65724363685294 L-5.2887309939955855 23.061459453487064 L-4.886446765425181 23.896811261617103 L-3.436664501464883 25.052974036799124 L-2.711773369484734 25.631055424390134 L-2.4936705103527452 25.680835978732844 L-1.8385005085937958 25.830374256250508 L-0.903924456494911 26.043685141463385 L3.827021247335479e-16 26.250000000000014 L3.827021247335479e-16 26.25000000000001 L1.8078489129898265 25.83737028292676 L1.838500508593795 25.830374256250508 L2.7117733694847397 25.631055424390134 L2.7331681028483277 25.613993693870437 L4.058760029616647 24.556869407755347 L4.161555633445038 24.47489264920811 L4.886446765425187 23.896811261617096 L4.892678322688793 23.883871299625252 L5.491976510093202 22.639415790552977 L5.691015222565993 22.226107645357015 L6.093299451136398 21.390755837226976 L6.093299451136398 19.536414720924355 L6.093299451136398 18.609244162773045 L5.491976510093202 17.360584209447047 L5.288730993995589 16.938540546512968 L4.892678322688793 16.116128700374773 L4.886446765425186 16.103188738382926 L4.058760029616647 15.443130592244678 L3.4366645014648864 14.947025963200904 L2.7331681028483277 14.386006306129591 L2.711773369484737 14.368944575609893 L1.838500508593795 14.169625743749519 L0.9039244564949107 13.95631485853664 L3.8270212473354783e-16 13.750000000000014 L-2.3928554368293432e-15 13.750000000000014 L-1.8078489129898274 14.162629717073267 L-1.8385005085937942 14.169625743749519 L-2.4936705103527466 14.319164021267182 L-2.71177336948474 14.368944575609895 L-4.161555633445039 15.52510735079192 L-4.886446765425189 16.103188738382933 L-5.48339107180714 17.34275636314709 L-5.691015222565995 17.773892354643014 L-6.0932994511363985 18.609244162773052 M-4.330127018922194 17.500000000000014 L-2.499999999999999 15.66987298107782 L3.061616997868383e-16 15.000000000000014 L2.5000000000000004 15.669872981077821 L4.330127018922194 17.500000000000014 L5 20.000000000000014 L4.330127018922194 22.50000000000001 L2.5000000000000004 24.330127018922205 L3.061616997868383e-16 25.000000000000014 L-2.500000000000002 24.330127018922205 L-4.330127018922193 22.500000000000014 L-5 20.00000000000001 z"/>
<path fill="#a52a2a" stroke="#a52a2a" d="M6.123233995736766e-16 10.000000000000014 L-30 14.000000000000014 L-30 26.000000000000014 L6.123233995736766e-16 30.000000000000014 L3.4202014332566884 29.396926207859096 L6.427876096865393 27.66044443118979 L8.660254037844387 25.00000000000001 L9.84807753012208 21.736481776669315 L9.84807753012208 18.26351822333071 L8.660254037844387 15.000000000000014 L6.427876096865393 12.339555568810233 L3.4202014332566884 10.60307379214093 M-28 18.66666666666668 L-28 16.000000000000014 L-27.468552460188615 15.924078922884101 L-26.97253679212298 14.726591169890497 L-26.849502312229056 14.429559659891066 L-26.767766952966365 14.232233047033645 L-25.886777855849044 13.867315414704821 L-24.999999999999996 13.500000000000014 L-24.241363488696237 13.81423753189344 L-23.23223304703363 14.232233047033645 L-22.929085846336353 14.964095130352453 L-22.807271239746004 15.258181605678015 L-21.81345410517279 15.116207729310412 L-9.333333333333332 13.333333333333346 L-1.2584998571352732 12.17978569387648 L-0.9411357029926969 12.134447957570398 L4.898587196589413e-16 12.000000000000014 L4.898587196589413e-16 12.000000000000014 L0.9666333512214087 12.192275328279596 L2.040978305947146 12.405975826606484 L3.0560978091762077 12.60789565016704 L3.0614674589207187 12.60896373990972 L3.74510840122362 13.065758013563538 L4.791725319301826 13.76508508030833 L5.622686296211697 14.320315454024056 L5.656854249492381 14.343145750507635 L5.967700775141364 14.80836045209845 L6.427876096865393 15.497061490427075 L6.812975589890989 16.07340361088874 L7.184223626240408 16.62901556146753 L7.391036260090294 16.938532541079294 L7.797012086696764 18.97951084702644 L8 20.000000000000014 L7.88264718955275 20.58997241847343 L7.594024173393529 22.040978305947156 L7.391036260090294 23.06146745892073 L6.427876096865393 24.50293850957295 L6.234914919691684 24.79172531930184 L5.967700775141364 25.191639547901577 L5.656854249492381 25.656854249492394 L5.622686296211697 25.67968454597597 L3.9265963891112725 26.812975589891003 L3.74510840122362 26.934241986436486 L3.0614674589207187 27.391036260090306 L3.0560978091762077 27.392104349832987 L1.0204891529735731 27.79701208669678 L0.9666333512214087 27.80772467172043 L4.898587196589413e-16 28.00000000000001 L4.898587196589413e-16 28.000000000000014 L-0.9411357029926979 27.865552042429627 L-1.2584998571352732 27.820214306123546 L-18.666666666666664 25.333333333333346 L-21.81345410517279 24.883792270689614 L-23.700961894323342 24.614148300810964 L-23.700961894323342 24.75000000000001 L-24.58791041194701 25.262079965407377 L-24.675240473580832 25.31250000000001 L-24.999999999999996 25.500000000000014 L-25.254636142741674 25.3529857544427 L-25.856425973522985 25.005542233645528 L-25.97427857925749 24.937500000000014 L-26.299038105676658 24.750000000000014 L-26.299038105676658 24.24299455633192 L-28 24.000000000000014 z"/>
<path fill="#a52a2a" stroke="#a52a2a" d="M6.123233995736766e-16 30.000000000000014 L-30 26.000000000000014 L-30 14.000000000000014 L6.123233995736766e-16 10.000000000000014 L3.4202014332566884 10.60307379214093 L6.427876096865393 12.339555568810233 L8.660254037844387 15.000000000000014 L9.84807753012208 18.26351822333071 L9.84807753012208 21.736481776669315 L8.660254037844387 25.00000000000001 L6.427876096865393 27.66044443118979 L3.4202014332566884 29.396926207859096 M-5 20.00000000000001 L-4.330127018922193 22.500000000000014 L-2.500000000000002 24.330127018922205 L3.061616997868383e-16 25.000000000000014 L2.5000000000000004 24.330127018922205 L4.330127018922194 22.50000000000001 L5 20.000000000000014 L4.330127018922194 17.500000000000014 L2.5000000000000004 15.669872981077821 L3.061616997868383e-16 15.000000000000014 L-2.499999999999999 15.66987298107782 L-4.330127018922194 17.500000000000014 z"/>
<path fill="#a52a2a" stroke="#a52a2a" d="M-26.368205094319052 17.091107153252796 L-26.70612384631819 15.610588365576461 L-26.70612384631819 15.610588365576461 L-26.368205094319052 17.091107153252796 z"/>
<path fill="#a52a2a" stroke="#a52a2a" d="M-25.759296543455726 14.42330448117078 L-26.12194665832914 14.878053341670867 L-26.370933714128988 15.190273234235283 L-26.70612384631819 15.610588365576463 L-26.70612384631819 15.610588365576463 L-25.759296543455726 14.42330448117078 z"/>
<path fill="#a52a2a" stroke="#a52a2a" d="M-26.36820509431905 17.091107153252796 L-25.388070416617136 17.563115137047134 L-24.999999999999996 17.750000000000014 L-24.999999999999996 17.750000000000014 L-26.36820509431905 17.091107153252796 z"/>
<path fill="#a52a2a" stroke="#a52a2a" d="M-25.759296543455726 14.42330448117078 L-24.24070345654427 14.42330448117078 L-24.24070345654427 14.42330448117078 L-25.759296543455726 14.42330448117078 z"/>
<path fill="#a52a2a" stroke="#a52a2a" d="M-24.240703456544274 14.423304481170778 L-23.293876153681808 15.610588365576461 L-23.293876153681808 15.610588365576461 L-24.240703456544274 14.423304481170778 z"/>
<path fill="#a52a2a" stroke="#a52a2a" d="M-24.999999999999996 17.75000000000001 L-23.818824257796393 17.18117574220361 L-23.631794905680945 17.091107153252796 L-23.631794905680945 17.091107153252796 L-24.999999999999996 17.75000000000001 z"/>
<path fill="#a52a2a" stroke="#a52a2a" d="M-23.293876153681808 15.610588365576461 L-23.631794905680945 17.091107153252793 L-23.631794905680945 17.091107153252793 L-23.293876153681808 15.610588365576461 z"/>
<path fill="#a52a2a" stroke="#a52a2a" d="M-26.70612384631819 15.610588365576463 L-26.368205094319052 17.091107153252796 L-24.999999999999996 17.750000000000014 L-23.631794905680945 17.091107153252796 L-23.293876153681808 15.610588365576463 L-24.24070345654427 14.42330448117078 L-25.759296543455726 14.42330448117078 z"/>
<path fill="#a52a2a" stroke="#a52a2a" d="M-26.76776695296636 17.767766952966383 L-26.76776695296636 17.767766952966383 L-24.999999999999993 18.500000000000014 L-24.999999999999993 18.500000000000014 z"/>
<path fill="#a52a2a" stroke="#a52a2a" d="M-27.5 16.00000000000001 L-27.5 16.00000000000001 L-26.76776695296637 17.76776695296638 L-26.76776695296637 17.76776695296638 z"/>
<path fill="#a52a2a" stroke="#a52a2a" d="M-26.767766952966365 14.232233047033644 L-26.767766952966365 14.232233047033644 L-27.499999999999996 16.00000000000001 L-27.499999999999996 16.00000000000001 z"/>
<path fill="#a52a2a" stroke="#a52a2a" d="M-24.999999999999996 18.50000000000001 L-24.999999999999996 18.50000000000001 L-23.232233047033628 17.76776695296638 L-23.232233047033628 17.76776695296638 z"/>
<path fill="#a52a2a" stroke="#a52a2a" d="M-23.232233047033628 14.232233047033645 L-23.232233047033628 14.232233047033645 L-24.999999999999996 13.500000000000014 L-24.999999999999996 13.500000000000014 z"/>
<path fill="#a52a2a" stroke="#a52a2a" d="M-24.999999999999996 13.500000000000012 L-24.999999999999996 13.500000000000012 L-26.767766952966365 14.232233047033644 L-26.767766952966365 14.232233047033644 z"/>
<path fill="#a52a2a" stroke="#a52a2a" d="M-22.5 16.00000000000001 L-22.5 16.00000000000001 L-23.23223304703363 14.232233047033645 L-23.23223304703363 14.232233047033645 z"/>
<path fill="#a52a2a" stroke="#a52a2a" d="M-23.232233047033628 17.76776695296638 L-23.232233047033628 17.76776695296638 L-22.499999999999996 16.00000000000001 L-22.499999999999996 16.00000000000001 z"/>
<path fill="#a52a2a" stroke="#a52a2a" d="M-24.999999999999996 18.500000000000014 L-23.23223304703363 17.76776695296638 L-22.5 16.000000000000014 L-23.23223304703363 14.232233047033645 L-24.999999999999996 13.500000000000014 L-26.767766952966365 14.232233047033645 L-27.5 16.00000000000001 L-26.76776695296637 17.76776695296638 M-26.121946658329144 14.878053341670869 L-25.759296543455726 14.42330448117078 L-24.24070345654427 14.42330448117078 L-23.293876153681808 15.610588365576463 L-23.631794905680945 17.091107153252796 L-23.818824257796397 17.181175742203614 L-24.999999999999996 17.750000000000014 L-25.38807041661714 17.563115137047134 L-26.368205094319052 17.091107153252796 L-26.70612384631819 15.610588365576463 L-26.370933714128988 15.190273234235285 z"/>
<path fill="#a52a2a" stroke="#a52a2a" d="M-26.76776695296637 17.76776695296638 L-27.5 16.00000000000001 L-26.767766952966365 14.232233047033645 L-24.999999999999996 13.500000000000014 L-23.23223304703363 14.232233047033645 L-22.5 16.000000000000014 L-23.23223304703363 17.76776695296638 L-24.999999999999996 18.500000000000014 z"/>
<path fill="#a52a2a" stroke="#a52a2a" d="M-26.70612384631819 15.610588365576461 L-26.70612384631819 15.610588365576461 L-26.368205094319052 17.091107153252796 L-26.368205094319052 17.091107153252796 z"/>
<path fill="#a52a2a" stroke="#a52a2a" d="M-25.759296543455726 14.42330448117078 L-25.759296543455726 14.42330448117078 L-26.70612384631819 15.610588365576463 L-26.70612384631819 15.610588365576463 z"/>
<path fill="#a52a2a" stroke="#a52a2a" d="M-26.36820509431905 17.091107153252796 L-26.36820509431905 17.091107153252796 L-24.999999999999996 17.750000000000014 L-24.999999999999996 17.750000000000014 z"/>
<path fill="#a52a2a" stroke="#a52a2a" d="M-24.24070345654427 14.42330448117078 L-24.24070345654427 14.42330448117078 L-25.759296543455726 14.42330448117078 L-25.759296543455726 14.42330448117078 z"/>
<path fill="#a52a2a" stroke="#a52a2a" d="M-23.293876153681808 15.610588365576461 L-23.293876153681808 15.610588365576461 L-24.240703456544274 14.423304481170778 L-24.240703456544274 14.423304481170778 z"/>
<path fill="#a52a2a" stroke="#a52a2a" d="M-24.999999999999996 17.75000000000001 L-24.999999999999996 17.75000000000001 L-23.631794905680945 17.091107153252796 L-23.631794905680945 17.091107153252796 z"/>
<path fill="#a52a2a" stroke="#a52a2a" d="M-23.631794905680945 17.091107153252793 L-23.631794905680945 17.091107153252793 L-23.293876153681808 15.610588365576461 L-23.293876153681808 15.610588365576461 z"/>
<path fill="#a52a2a" stroke="#a52a2a" d="M-26.70612384631819 15.610588365576463 L-26.368205094319052 17.091107153252796 L-24.999999999999996 17.750000000000014 L-23.631794905680945 17.091107153252796 L-23.293876153681808 15.610588365576463 L-24.24070345654427 14.42330448117078 L-25.759296543455726 14.42330448117078 z"/>
<path fill="#a52a2a" stroke="#a52a2a" d="M-26.70612384631819 15.610588365576463 L-25.759296543455726 14.42330448117078 L-24.24070345654427 14.42330448117078 L-23.293876153681808 15.610588365576463 L-23.631794905680945 17.091107153252796 L-24.999999999999996 17.750000000000014 L-26.368205094319052 17.091107153252796 z"/>
<path fill="#a52a2a" stroke="#a52a2a" d="M-26.299038105676658 23.250000000000014 L-26.299038105676658 24.750000000000014 L-26.299038105676658 24.750000000000014 L-26.299038105676658 23.250000000000014 z"/>
<path fill="#a52a2a" stroke="#a52a2a" d="M-26.29903810567665 24.750000000000014 L-24.999999999999993 25.500000000000014 L-24.999999999999993 25.500000000000014 L-26.29903810567665 24.750000000000014 z"/>
<path fill="#a52a2a" stroke="#a52a2a" d="M-23.700961894323342 24.75000000000001 L-23.700961894323342 23.250000000000014 L-23.700961894323342 23.250000000000014 L-23.700961894323342 24.75000000000001 z"/>
<path fill="#a52a2a" stroke="#a52a2a" d="M-24.999999999999996 25.50000000000001 L-23.70096189432334 24.75000000000001 L-23.70096189432334 24.75000000000001 L-24.999999999999996 25.50000000000001 z"/>
<path fill="#a52a2a" stroke="#a52a2a" d="M-23.70096189432334 23.250000000000014 L-24.999999999999996 22.500000000000014 L-24.999999999999996 22.500000000000014 L-23.70096189432334 23.250000000000014 z"/>
<path fill="#a52a2a" stroke="#a52a2a" d="M-24.999999999999993 22.50000000000001 L-26.29903810567665 23.25000000000001 L-26.29903810567665 23.25000000000001 L-24.999999999999993 22.50000000000001 z"/>
<path fill="#a52a2a" stroke="#a52a2a" d="M-26.299038105676658 24.750000000000014 L-24.999999999999996 25.500000000000014 L-23.700961894323342 24.75000000000001 L-23.700961894323342 23.250000000000014 L-24.999999999999996 22.500000000000014 L-26.299038105676658 23.250000000000014 z"/>
<path fill="#a52a2a" stroke="#a52a2a" d="M-26.299038105676658 24.750000000000014 L-26.299038105676658 23.250000000000014 L-24.999999999999996 22.500000000000014 L-23.700961894323342 23.250000000000014 L-23.700961894323342 24.75000000000001 L-24.999999999999996 25.500000000000014 z"/>
<path fill="#000000" stroke="#000000" d="M-21.948275200514974 20.95795268256235 L-20.822134282106667 22.507952682562347 L-20.822134282106667 22.507952682562347 L-21.948275200514974 20.95795268256235 z"/>
<path fill="#000000" stroke="#000000" d="M-21.948275200514974 19.042047317437675 L-21.948275200514974 20.95795268256235 L-21.948275200514974 20.95795268256235 L-21.948275200514974 19.042047317437675 z"/>
<path fill="#000000" stroke="#000000" d="M-16.051724799485022 20.95795268256235 L-16.051724799485022 19.042047317437675 L-16.051724799485022 19.042047317437675 L-16.051724799485022 20.95795268256235 z"/>
<path fill="#000000" stroke="#000000" d="M-18.999999999999996 16.900000000000013 L-20.822134282106664 17.492047317437674 L-20.822134282106664 17.492047317437674 L-18.999999999999996 16.900000000000013 z"/>
<path fill="#000000" stroke="#000000" d="M-17.17786571789333 17.492047317437677 L-18.999999999999996 16.900000000000013 L-18.999999999999996 16.900000000000013 L-17.17786571789333 17.492047317437677 z"/>
<path fill="#000000" stroke="#000000" d="M-16.051724799485022 19.042047317437675 L-17.177865717893333 17.492047317437674 L-17.177865717893333 17.492047317437674 L-16.051724799485022 19.042047317437675 z"/>
<path fill="#000000" stroke="#000000" d="M-20.822134282106664 22.50795268256235 L-18.999999999999996 23.100000000000012 L-18.999999999999996 23.100000000000012 L-20.822134282106664 22.50795268256235 z"/>
<path fill="#000000" stroke="#000000" d="M-20.822134282106664 17.492047317437674 L-21.948275200514974 19.042047317437675 L-21.948275200514974 19.042047317437675 L-20.822134282106664 17.492047317437674 z"/>
<path fill="#000000" stroke="#000000" d="M-18.999999999999996 23.100000000000012 L-17.17786571789333 22.507952682562347 L-17.17786571789333 22.507952682562347 L-18.999999999999996 23.100000000000012 z"/>
<path fill="#000000" stroke="#000000" d="M-17.17786571789333 22.507952682562347 L-16.051724799485022 20.957952682562347 L-16.051724799485022 20.957952682562347 L-17.17786571789333 22.507952682562347 z"/>
<path fill="#000000" stroke="#000000" d="M-21.948275200514974 20.95795268256235 L-20.822134282106667 22.50795268256235 L-18.999999999999996 23.100000000000012 L-17.177865717893333 22.50795268256235 L-16.051724799485022 20.95795268256235 L-16.051724799485022 19.042047317437675 L-17.177865717893333 17.492047317437674 L-18.999999999999996 16.900000000000013 L-20.822134282106664 17.492047317437674 L-21.948275200514974 19.042047317437675 z"/>
<path fill="#000000" stroke="#000000" d="M-20.822134282106667 22.50795268256235 L-21.948275200514974 20.95795268256235 L-21.948275200514974 19.042047317437675 L-20.822134282106664 17.492047317437674 L-18.999999999999996 16.900000000000013 L-17.177865717893333 17.492047317437674 L-16.051724799485022 19.042047317437675 L-16.051724799485022 20.95795268256235 L-17.177865717893333 22.50795268256235 L-18.999999999999996 23.100000000000012 z"/>
<path fill="#000000" stroke="#000000" d="M-20.70612384631819 19.61058836557646 L-20.368205094319052 21.091107153252796 L-20.368205094319052 21.091107153252796 L-20.70612384631819 19.61058836557646 z"/>
<path fill="#000000" stroke="#000000" d="M-19.759296543455726 18.423304481170778 L-20.706123846318185 19.610588365576458 L-20.706123846318185 19.610588365576458 L-19.759296543455726 18.423304481170778 z"/>
<path fill="#000000" stroke="#000000" d="M-20.36820509431905 21.091107153252796 L-18.999999999999996 21.750000000000014 L-18.999999999999996 21.750000000000014 L-20.36820509431905 21.091107153252796 z"/>
<path fill="#000000" stroke="#000000" d="M-18.24070345654427 18.423304481170778 L-19.759296543455722 18.423304481170778 L-19.759296543455722 18.423304481170778 L-18.24070345654427 18.423304481170778 z"/>
<path fill="#000000" stroke="#000000" d="M-17.293876153681808 19.61058836557646 L-18.24070345654427 18.423304481170778 L-18.24070345654427 18.423304481170778 L-17.293876153681808 19.61058836557646 z"/>
<path fill="#000000" stroke="#000000" d="M-18.999999999999996 21.75000000000001 L-17.631794905680945 21.091107153252796 L-17.631794905680945 21.091107153252796 L-18.999999999999996 21.75000000000001 z"/>
<path fill="#000000" stroke="#000000" d="M-17.631794905680945 21.091107153252796 L-17.293876153681808 19.61058836557646 L-17.293876153681808 19.61058836557646 L-17.631794905680945 21.091107153252796 z"/>
<path fill="#000000" stroke="#000000" d="M-20.70612384631819 19.61058836557646 L-20.368205094319052 21.091107153252796 L-18.999999999999996 21.750000000000014 L-17.631794905680945 21.091107153252796 L-17.293876153681808 19.61058836557646 L-18.24070345654427 18.423304481170778 L-19.759296543455726 18.423304481170778 z"/>
<path fill="#000000" stroke="#000000" d="M-20.368205094319052 21.091107153252796 L-20.70612384631819 19.61058836557646 L-19.759296543455726 18.423304481170778 L-18.24070345654427 18.423304481170778 L-17.293876153681808 19.61058836557646 L-17.631794905680945 21.091107153252796 L-18.999999999999996 21.750000000000014 z"/>
<path fill="#c0c0c0" stroke="#c0c0c0" d="M-21.792931927204812 18.387500000000014 L-21.792931927204812 18.387500000000014 L-21.792931927204812 21.61250000000001 L-21.792931927204812 21.61250000000001 z"/>
<path fill="#c0c0c0" stroke="#c0c0c0" d="M-18.999999999999996 16.775000000000013 L-18.999999999999996 16.775000000000013 L-21.792931927204812 18.387500000000014 L-21.792931927204812 18.387500000000014 z"/>
<path fill="#c0c0c0" stroke="#c0c0c0" d="M-18.999999999999996 23.225000000000012 L-18.999999999999996 23.225000000000012 L-16.20706807279518 21.61250000000001 L-16.20706807279518 21.61250000000001 z"/>
<path fill="#c0c0c0" stroke="#c0c0c0" d="M-21.792931927204812 21.61250000000001 L-21.792931927204812 21.61250000000001 L-18.999999999999996 23.225000000000012 L-18.999999999999996 23.225000000000012 z"/>
<path fill="#c0c0c0" stroke="#c0c0c0" d="M-16.20706807279518 18.387500000000014 L-16.20706807279518 18.387500000000014 L-18.999999999999996 16.775000000000013 L-18.999999999999996 16.775000000000013 z"/>
<path fill="#c0c0c0" stroke="#c0c0c0" d="M-16.207068072795185 21.61250000000001 L-16.207068072795185 21.61250000000001 L-16.207068072795185 18.387500000000014 L-16.207068072795185 18.387500000000014 z"/>
<path fill="#c0c0c0" stroke="#c0c0c0" d="M-21.792931927204812 18.387500000000014 L-21.792931927204812 21.61250000000001 L-18.999999999999996 23.225000000000012 L-16.207068072795185 21.61250000000001 L-16.207068072795185 18.387500000000014 L-18.999999999999996 16.775000000000013 z"/>
<path fill="#c0c0c0" stroke="#c0c0c0" d="M-21.792931927204812 18.387500000000014 L-18.999999999999996 16.775000000000013 L-16.207068072795185 18.387500000000014 L-16.207068072795185 21.61250000000001 L-18.999999999999996 23.225000000000012 L-21.792931927204812 21.61250000000001 z"/>
</svg>