<?xml version="1.0" encoding="UTF-8"?>
<!-- Generated by jsxcad -->
<!DOCTYPE svg PUBLIC "-//W3C//DTD SVG 1.1 Tiny//EN" "http://www.w3.org/Graphics/SVG/1.1/DTD/svg11-tiny.dtd">
<svg baseProfile="tiny" height="20.000000000000014mm" width="40.00000000000002mm" viewBox="0 0 40.00000000000002 20.000000000000014" version="1.1" stroke="black" stroke-width=".1" fill="none" xmlns="http://www.w3.org/2000/svg">
<path fill="#b0e0e6" stroke="#b0e0e6" d="M-10 16 L-10 4 L17.77479 0.25072 L20 0 L22.22521 0.25072 L24.33884 0.99031 L26.2349 2.18169 L27.81831 3.7651 L29.00969 5.66116 L29.74928 7.77479 L30 10 L29.74928 12.22521 L29.00969 14.33884 L27.81831 16.2349 L26.2349 17.81831 L24.33884 19.00969 L22.22521 19.74928 L20 20 L17.77479 19.74928 M16.31939 7.875 L15.98784 9.11238 L15.75 10 L15.92051 10.63634 L16.30061 12.05491 L16.31939 12.125 L17.57567 13.38128 L17.875 13.68061 L20 14.25 L22.125 13.68061 L22.9331 12.87251 L23.68061 12.125 L24.00922 10.89862 L24.25 10 L23.97397 8.96986 L23.68061 7.875 L23.04706 7.24145 L22.125 6.31939 L20.92053 5.99666 L20 5.75 L17.875 6.31939 L16.8956 7.2988 M13.74963 9.10859 L13.74963 8.8138 L13.74963 8.67207 L13.74963 8.4125 L11.62035 7.18316 L11 6.825 L10.63175 7.03761 L9.31261 7.79921 L9.03278 7.96078 L8.66912 8.17073 L8.52713 8.25271 L8.4478 8.29852 L8.25037 8.4125 L8.25037 9.63181 L8.25037 10.17366 L8.25037 10.8472 L8.25037 11.5875 L8.4478 11.70148 L8.69166 11.84228 L9.06131 12.0557 L9.17245 12.11986 L10.55317 12.91702 L10.63175 12.96239 L11 13.175 L11.62035 12.81684 L11.7605 12.73592 L13.24454 11.87911 L13.37431 11.80419 L13.74963 11.5875 L13.74963 11.08555 L13.74963 10.76947 L13.74963 10.73643 L13.74963 10.46611 L13.74963 10.35058 L13.74963 9.53389 L13.74963 9.15127 z"/>
<path fill="#b0e0e6" stroke="#b0e0e6" d="M23.68060898304194 12.12499898304194 L23.68060898304194 12.12499898304194 L22.93309898304194 12.872508983041941 L22.12499898304194 13.68060898304194 L22.12499898304194 13.68060898304194 L22.93309898304194 12.872508983041941 z"/>
<path fill="#b0e0e6" stroke="#b0e0e6" d="M24.338838666472004 19.00968787770235 L24.338838666472004 19.00968787770235 L26.234901612588413 17.818312566419756 L26.234901612588413 17.818312566419756 z"/>
<path fill="#b0e0e6" stroke="#b0e0e6" d="M27.818311421633823 16.234901421633822 L27.818311421633823 16.234901421633822 L26.234901421633822 17.818311421633823 L26.234901421633822 17.818311421633823 z"/>
<path fill="#b0e0e6" stroke="#b0e0e6" d="M29.00968787770235 14.338838666472004 L29.00968787770235 14.338838666472004 L27.81831256641976 16.234901612588413 L27.81831256641976 16.234901612588413 z"/>
<path fill="#b0e0e6" stroke="#b0e0e6" d="M24.250000000000007 9.999999999999996 L24.250000000000007 9.999999999999996 L23.973974496103317 8.969858795272748 L23.680608102330417 7.875000508479031 L23.680608102330417 7.875000508479031 L23.973974496103317 8.969858795272748 z"/>
<path fill="#b0e0e6" stroke="#b0e0e6" d="M30.000000000000007 9.999999999999998 L30.000000000000007 9.999999999999998 L29.749279059346655 7.7747901059861775 L29.749279059346655 7.7747901059861775 z"/>
<path fill="#b0e0e6" stroke="#b0e0e6" d="M29.74927901172623 12.225209654188053 L29.74927901172623 12.225209654188053 L29.009688009834157 14.338839303610852 L29.009688009834157 14.338839303610852 z"/>
<path fill="#b0e0e6" stroke="#b0e0e6" d="M22.12499898304193 6.3193910169580665 L22.12499898304193 6.3193910169580665 L23.047058983041932 7.241451016958066 L23.68060898304193 7.875001016958066 L23.68060898304193 7.875001016958066 L23.047058983041932 7.241451016958066 z"/>
<path fill="#b0e0e6" stroke="#b0e0e6" d="M26.234901612588406 2.1816874335802496 L26.234901612588406 2.1816874335802496 L24.338838666471997 0.9903121222976583 L24.338838666471997 0.9903121222976583 z"/>
<path fill="#b0e0e6" stroke="#b0e0e6" d="M22.124999491520963 6.319391897669593 L22.124999491520963 6.319391897669593 L20.920531182472843 5.9966555869512685 L19.999999999999996 5.7500000000000036 L19.999999999999996 5.7500000000000036 L20.920531182472843 5.9966555869512685 z"/>
<path fill="#b0e0e6" stroke="#b0e0e6" d="M22.225209654188046 0.25072098827378303 L22.225209654188046 0.25072098827378303 L24.338839303610847 0.9903119901658548 L24.338839303610847 0.9903119901658548 z"/>
<path fill="#b0e0e6" stroke="#b0e0e6" d="M16.319391016958075 7.875001016958078 L16.319391016958075 7.875001016958078 L16.895596016958077 7.298796016958076 L17.875001016958077 6.319391016958076 L17.875001016958077 6.319391016958076 L16.895596016958077 7.298796016958076 z"/>
<path fill="#b0e0e6" stroke="#b0e0e6" d="M19.999999999999996 14.250000000000004 L19.999999999999996 14.250000000000004 L17.87500050847903 13.680608102330414 L17.87500050847903 13.680608102330414 z"/>
<path fill="#b0e0e6" stroke="#b0e0e6" d="M16.31939101695807 12.124998983041927 L16.31939101695807 12.124998983041927 L17.57567101695807 13.381278983041929 L17.875001016958066 13.68060898304193 L17.875001016958066 13.68060898304193 L17.57567101695807 13.381278983041929 z"/>
<path fill="#b0e0e6" stroke="#b0e0e6" d="M22.225209654188053 19.74927901172623 L22.225209654188053 19.74927901172623 L24.338839303610854 19.009688009834157 L24.338839303610854 19.009688009834157 z"/>
<path fill="#b0e0e6" stroke="#b0e0e6" d="M20 14.250000000000009 L20 14.250000000000009 L22.124999491520967 13.68060810233042 L22.124999491520967 13.68060810233042 z"/>
<path fill="#b0e0e6" stroke="#b0e0e6" d="M20 20.000000000000007 L20 20.000000000000007 L22.225209894013823 19.749279059346655 L22.225209894013823 19.749279059346655 z"/>
<path fill="#b0e0e6" stroke="#b0e0e6" d="M24.250000000000007 10.000000000000002 L24.250000000000007 10.000000000000002 L24.00921579836162 10.898618874174387 L23.68060810233042 12.124999491520969 L23.68060810233042 12.124999491520969 L24.00921579836162 10.898618874174387 z"/>
<path fill="#b0e0e6" stroke="#b0e0e6" d="M17.774790105986174 19.74927905934665 L17.774790105986174 19.74927905934665 L19.999999999999996 20.000000000000004 L19.999999999999996 20.000000000000004 z"/>
<path fill="#b0e0e6" stroke="#b0e0e6" d="M8.2503698357461 11.587500284496096 L8.2503698357461 11.587500284496096 L11 13.174999999999999 L11 13.174999999999999 L10.631749669450693 12.96239057252819 L10.553168883165844 12.9170219344135 L9.172448477725442 12.119862636656874 L9.061311382772038 12.055697604968573 L8.6916603119342 11.842279459714115 L8.447797123507776 11.701484982230678 z"/>
<path fill="#b0e0e6" stroke="#b0e0e6" d="M17.875000508479033 6.319391897669598 L17.875000508479033 6.319391897669598 L20 5.750000000000009 L20 5.750000000000009 z"/>
<path fill="#b0e0e6" stroke="#b0e0e6" d="M19.999999999999996 6.2564920007247585e-15 L19.999999999999996 6.2564920007247585e-15 L22.22520989401382 0.25072094065335726 L22.22520989401382 0.25072094065335726 z"/>
<path fill="#b0e0e6" stroke="#b0e0e6" d="M20 7.776214815781804e-15 L20 7.776214815781804e-15 L17.774790105986177 0.25072094065336037 L17.774790105986177 0.25072094065336037 z"/>
<path fill="#b0e0e6" stroke="#b0e0e6" d="M27.818311421633815 3.7650985783661812 L27.818311421633815 3.7650985783661812 L26.234901421633815 2.1816885783661815 L26.234901421633815 2.1816885783661815 z"/>
<path fill="#b0e0e6" stroke="#b0e0e6" d="M29.009687877702344 5.661161333527998 L29.009687877702344 5.661161333527998 L27.818312566419753 3.7650983874115886 L27.818312566419753 3.7650983874115886 z"/>
<path fill="#b0e0e6" stroke="#b0e0e6" d="M29.009688009834154 5.661160696389147 L29.009688009834154 5.661160696389147 L29.749279011726227 7.774790345811949 L29.749279011726227 7.774790345811949 z"/>
<path fill="#b0e0e6" stroke="#b0e0e6" d="M29.74927905934666 12.225209894013823 L29.74927905934666 12.225209894013823 L30.00000000000001 10 L30.00000000000001 10 z"/>
<path fill="#b0e0e6" stroke="#b0e0e6" d="M15.75 10 L15.92051 10.63634 L16.30061 12.05491 L16.31939 12.125 L17.57567 13.38128 L17.875 13.68061 L20 14.25 L22.125 13.68061 L22.9331 12.87251 L23.68061 12.125 L24.00922 10.89862 L24.25 10 L23.97397 8.96986 L23.68061 7.875 L23.04706 7.24145 L22.125 6.31939 L20.92053 5.99666 L20 5.75 L17.875 6.31939 L16.8956 7.2988 L16.31939 7.875 L15.98784 9.11238 z"/>
<path fill="#b0e0e6" stroke="#b0e0e6" d="M9.75947 9.23641 L9.33565 10.54078 L9.89043 10.94385 L10.32968 11.26299 L10.89772 11.67569 L11 11.75 L11.18374 11.61651 L11.55478 11.34693 L12.30326 10.80312 L12.66435 10.54078 L12.45244 9.88859 L12.2215 9.17782 L12.02862 8.58422 L11.34287 8.58422 L9.97138 8.58422 L9.95044 8.64865 z"/>
<path fill="#b0e0e6" stroke="#b0e0e6" d="M-10 16.000000000000004 L-10 16.000000000000004 L17.7747901282421 19.749279049978032 L17.7747901282421 19.749279049978032 z"/>
<path fill="#b0e0e6" stroke="#b0e0e6" d="M15.920507004200374 10.63634080272209 L15.750000000000021 9.999999999999993 L15.750000000000021 9.999999999999993 L15.920507004200374 10.63634080272209 L16.300611376211133 12.054909631245337 L16.319391897669597 12.124999491520963 L16.319391897669597 12.124999491520963 L16.300611376211133 12.054909631245337 z"/>
<path fill="#b0e0e6" stroke="#b0e0e6" d="M15.987837258981966 9.11237926554643 L16.3193918976696 7.8750005084790375 L16.3193918976696 7.8750005084790375 L15.987837258981966 9.11237926554643 L15.75000000000001 10.000000000000002 L15.75000000000001 10.000000000000002 z"/>
<path fill="#b0e0e6" stroke="#b0e0e6" d="M17.774790128242103 0.2507209500219785 L17.774790128242103 0.2507209500219785 L-9.999999999999998 4.000000000000008 L-9.999999999999998 4.000000000000008 z"/>
<path fill="#b0e0e6" stroke="#b0e0e6" d="M12.045276600418733 8.635471104590911 L12.08513374525517 8.758138783092825 L12.213715126546685 9.153871583480969 L12.367678019219095 9.62772064359473 L12.375459671507178 9.651670106733786 L12.523077425063121 10.105990836647708 L12.66434908458757 10.540780297435527 L12.66434908458757 10.540780297435527 L12.452439648380254 9.88859011424818 L12.221496778834767 9.177821046620029 L12.028623714891882 8.584218792958458 L12.028623714891882 8.584218792958458 z"/>
<path fill="#b0e0e6" stroke="#b0e0e6" d="M10.15424 8.584220259843848 L11 8.584220259843848 L11.06857 8.584220259843848 L11.57146 8.584220259843848 L12.01569 8.584220259843848 L12.02862 8.584220259843848 L12.02862 8.584220259843848 L11.34287 8.584220259843848 L9.97138 8.584220259843848 L9.97138 8.584220259843848 L9.98431 8.584220259843848 z"/>
<path fill="#b0e0e6" stroke="#b0e0e6" d="M9.950441191136639 8.648650387023753 L9.954723399581285 8.635471104590918 L9.964396940808882 8.605699006008551 L9.971376285108136 8.584218792958463 L9.971376285108136 8.584218792958463 L9.950441191136639 8.648650387023753 L9.75946684890082 9.23640897614581 L9.335650915412447 10.540780297435534 L9.335650915412447 10.540780297435534 L9.392160945775737 10.366860307301165 L9.674704264824634 9.497281385725524 L9.823125281284435 9.040488466796372 z"/>
<path fill="#b0e0e6" stroke="#b0e0e6" d="M13.749630657015603 11.5875 L13.749630657015603 11.5875 L13.749630657015603 8.4125 L13.749630657015603 8.4125 L13.749630657015603 8.67207 L13.749630657015603 8.8138 L13.749630657015603 9.10859 L13.749630657015603 9.15127 L13.749630657015603 9.53389 L13.749630657015603 10.35058 L13.749630657015603 10.46611 L13.749630657015603 10.73643 L13.749630657015603 10.76947 L13.749630657015603 11.08555 z"/>
<path fill="#b0e0e6" stroke="#b0e0e6" d="M10.897720366044718 11.675689496182665 L10.783868876125956 11.592971546879912 L10.40518096366189 11.317838673633196 L10.112347848227003 11.105082961661447 L10.036849731729955 11.050230369242039 L9.70551096868799 10.809498666715362 L9.335650502388814 10.540779308521117 L9.335650502388814 10.540779308521117 L9.890429901470025 10.943850135614873 L10.329682847164841 11.262986081213787 L10.897720366044718 11.675689496182665 L11 11.749999999999998 L11 11.749999999999998 L10.931817940753126 11.700462834310164 z"/>
<path fill="#b0e0e6" stroke="#b0e0e6" d="M11.000000000000005 6.82500000000001 L8.250369835746108 8.412499715503913 L8.250369835746108 8.412499715503913 L8.447797123507783 8.298515017769331 L8.527130935381464 8.252711620128222 L8.669121816682589 8.170733146586546 L9.032777833444861 7.960776247416421 L9.312612195689585 7.799213803045922 L10.6317496694507 7.0376094274718195 L11.000000000000005 6.82500000000001 z"/>
<path fill="#b0e0e6" stroke="#b0e0e6" d="M13.749630164253896 8.412499715503904 L10.999999999999998 6.825 L10.999999999999998 6.825 L11.620350329309716 7.183159429618839 L13.749630164253896 8.412499715503904 z"/>
<path fill="#b0e0e6" stroke="#b0e0e6" d="M11.000000000000005 13.17500000000001 L13.749630164253903 11.587500284496105 L13.749630164253903 11.587500284496105 L13.374310641880877 11.804191111770294 L13.244541830255113 11.879113170094847 L11.76050221714684 12.735923840210976 L11.620350329309723 12.81684057038117 L11.000000000000005 13.17500000000001 z"/>
<path fill="#b0e0e6" stroke="#b0e0e6" d="M8.250369342984417 8.4125 L8.250369342984417 8.4125 L8.250369342984417 11.5875 L8.250369342984417 11.5875 L8.250369342984417 10.8472 L8.250369342984417 10.17366 L8.250369342984417 9.63181 z"/>
<path fill="#b0e0e6" stroke="#b0e0e6" d="M-9.476918827607399 9.315040380933446 L-9.476918827607399 9.315040380933446 L-9.564633640673524 9.584998817073464 L-9.564633640673524 9.584998817073464 L-9.564633640673524 9.584998817073464 L-9.564633640673524 9.584998817073464 L-9.564633640673524 9.584998817073464 L-9.564633640673524 9.584998817073464 L-9.564633640673524 9.584998817073464 L-9.564633640673524 9.584998817073464 L-9.564633640673524 9.584998817073464 z"/>
<path fill="#b0e0e6" stroke="#b0e0e6" d="M-8.43537 9.585000000000006 L-8.43537 9.585000000000006 L-8.43537 9.585000000000006 L-8.95 9.585000000000006 L-9.05 9.585000000000006 L-9.56463 9.585000000000006 L-9.56463 9.585000000000006 L-9.56463 9.585000000000006 L-9.56463 9.585000000000006 L-9.56463 9.585000000000006 L-9.56463 9.585000000000006 L-9.56463 9.585000000000006 L-9.56463 9.585000000000006 L-9.56463 9.585000000000006 L-9.05 9.585000000000006 L-8.95 9.585000000000006 L-8.43537 9.585000000000006 L-8.43537 9.585000000000006 L-8.43537 9.585000000000006 L-8.43537 9.585000000000006 z"/>
<path fill="#b0e0e6" stroke="#b0e0e6" d="M-9.476919936064764 10.684960087999302 L-9.999999999999991 11.065000000000008 L-9.999999999999991 11.065000000000008 L-9.82563997868825 10.938320029333106 L-9.476919936064764 10.684960087999302 z"/>
<path fill="#b0e0e6" stroke="#b0e0e6" d="M-9.543517733275912 10.479989263496698 L-9.564633640673529 10.415001182926536 L-9.564633640673529 10.415001182926536 L-9.564633640673529 10.415001182926536 L-9.564633640673529 10.415001182926536 L-9.564633640673529 10.415001182926536 L-9.564633640673529 10.415001182926536 L-9.476918827607404 10.684959619066554 L-9.476918827607404 10.684959619066554 z"/>
<path fill="#b0e0e6" stroke="#b0e0e6" d="M-8.95 10.415000000000006 L-9.05 10.415000000000006 L-9.56463 10.415000000000006 L-9.56463 10.415000000000006 L-9.56463 10.415000000000006 L-9.56463 10.415000000000006 L-9.56463 10.415000000000006 L-9.56463 10.415000000000006 L-9.05 10.415000000000006 L-8.95 10.415000000000006 L-8.43537 10.415000000000006 L-8.43537 10.415000000000006 L-8.43537 10.415000000000006 L-8.43537 10.415000000000006 z"/>
<path fill="#b0e0e6" stroke="#b0e0e6" d="M-7.999999999999999 8.934999999999999 L-7.999999999999999 8.934999999999999 L-7.47691993606477 9.315039912000705 L-7.47691993606477 9.315039912000705 L-7.651279957376514 9.188359941333804 L-7.88982021671517 9.01505029828284 z"/>
<path fill="#b0e0e6" stroke="#b0e0e6" d="M-6.95 10.415000000000006 L-7.05 10.415000000000006 L-7.56463 10.415000000000006 L-7.56463 10.415000000000006 L-7.56463 10.415000000000006 L-7.56463 10.415000000000006 L-7.05 10.415000000000006 L-6.95 10.415000000000006 L-6.43537 10.415000000000006 L-6.43537 10.415000000000006 L-6.43537 10.415000000000006 L-6.43537 10.415000000000006 z"/>
<path fill="#b0e0e6" stroke="#b0e0e6" d="M-8.43536635932645 10.415001182926542 L-8.43536635932645 10.415001182926542 L-8.436512660609953 10.418529135515422 L-8.523081172392576 10.684959619066559 L-8.523081172392576 10.684959619066559 L-8.43536635932645 10.415001182926542 L-8.43536635932645 10.415001182926542 z"/>
<path fill="#b0e0e6" stroke="#b0e0e6" d="M-7.476919936064764 10.684960087999302 L-7.476919936064764 10.684960087999302 L-7.999999999999992 11.065000000000008 L-7.999999999999992 11.065000000000008 L-7.825639978688249 10.938320029333106 z"/>
<path fill="#b0e0e6" stroke="#b0e0e6" d="M-8.523080063935227 10.684960087999292 L-8.523080063935227 10.684960087999292 L-8.348720042623485 10.811640058666194 L-7.999999999999999 11.064999999999998 L-7.999999999999999 11.064999999999998 z"/>
<path fill="#b0e0e6" stroke="#b0e0e6" d="M-7.561530942435113 10.42455030621573 L-7.562814047431991 10.420601315090373 L-7.564633640673529 10.415001182926536 L-7.564633640673529 10.415001182926536 L-7.564633640673529 10.415001182926536 L-7.564633640673529 10.415001182926536 L-7.476918827607404 10.684959619066554 L-7.476918827607404 10.684959619066554 L-7.5435177332759125 10.479989263496698 z"/>
<path fill="#b0e0e6" stroke="#b0e0e6" d="M-6.43537 9.585000000000006 L-6.43537 9.585000000000006 L-6.43537 9.585000000000006 L-6.95 9.585000000000006 L-7.05 9.585000000000006 L-7.56463 9.585000000000006 L-7.56463 9.585000000000006 L-7.56463 9.585000000000006 L-7.56463 9.585000000000006 L-7.56463 9.585000000000006 L-7.56463 9.585000000000006 L-7.56463 9.585000000000006 L-7.05 9.585000000000006 L-6.95 9.585000000000006 L-6.43537 9.585000000000006 L-6.43537 9.585000000000006 L-6.43537 9.585000000000006 L-6.43537 9.585000000000006 z"/>
<path fill="#b0e0e6" stroke="#b0e0e6" d="M-5.4769188276074 9.315040380933446 L-5.4769188276074 9.315040380933446 L-5.564633640673525 9.584998817073464 L-5.564633640673525 9.584998817073464 L-5.564633640673525 9.584998817073464 L-5.564633640673525 9.584998817073464 L-5.564633640673525 9.584998817073464 L-5.564633640673525 9.584998817073464 L-5.564633640673525 9.584998817073464 z"/>
<path fill="#b0e0e6" stroke="#b0e0e6" d="M-4.43537 9.585000000000006 L-4.43537 9.585000000000006 L-4.43537 9.585000000000006 L-4.43537 9.585000000000006 L-4.95 9.585000000000006 L-5.05 9.585000000000006 L-5.56463 9.585000000000006 L-5.56463 9.585000000000006 L-5.56463 9.585000000000006 L-5.56463 9.585000000000006 L-5.56463 9.585000000000006 L-5.56463 9.585000000000006 L-5.56463 9.585000000000006 L-5.05 9.585000000000006 L-4.95 9.585000000000006 L-4.43537 9.585000000000006 L-4.43537 9.585000000000006 L-4.43537 9.585000000000006 z"/>
<path fill="#b0e0e6" stroke="#b0e0e6" d="M-4.95 10.415000000000006 L-5.05 10.415000000000006 L-5.56463 10.415000000000006 L-5.56463 10.415000000000006 L-5.56463 10.415000000000006 L-5.56463 10.415000000000006 L-5.05 10.415000000000006 L-4.95 10.415000000000006 L-4.43537 10.415000000000006 L-4.43537 10.415000000000006 L-4.43537 10.415000000000006 L-4.43537 10.415000000000006 z"/>
<path fill="#b0e0e6" stroke="#b0e0e6" d="M-6.4353663593264505 10.415001182926542 L-6.4353663593264505 10.415001182926542 L-6.436652403249591 10.418959219136873 L-6.439781477643182 10.428589519884625 L-6.440973698469485 10.432258798294416 L-6.457752661100871 10.483899135355912 L-6.5204172454606955 10.676760895004072 L-6.523081172392576 10.684959619066559 L-6.523081172392576 10.684959619066559 L-6.4353663593264505 10.415001182926542 L-6.4353663593264505 10.415001182926542 z"/>
<path fill="#b0e0e6" stroke="#b0e0e6" d="M-5.5581810129251235 10.434860329119322 L-5.561147862365192 10.425729305440347 L-5.56258342062178 10.42131111142739 L-5.564633640673529 10.415001182926536 L-5.564633640673529 10.415001182926536 L-5.564633640673529 10.415001182926536 L-5.564633640673529 10.415001182926536 L-5.476918827607404 10.684959619066554 L-5.476918827607404 10.684959619066554 L-5.482475324270142 10.667858480763273 L-5.541175317324817 10.4871984785066 L-5.5435177332759125 10.479989263496698 L-5.557050361187956 10.43834011735708 z"/>
<path fill="#b0e0e6" stroke="#b0e0e6" d="M-3.7507568898930423 10.883914280694986 L-3.476919936064764 10.684960087999302 L-3.476919936064764 10.684960087999302 L-3.9999999999999925 11.065000000000008 L-3.9999999999999925 11.065000000000008 L-3.8256399786882493 10.938320029333106 z"/>
<path fill="#b0e0e6" stroke="#b0e0e6" d="M-5.825639978688249 10.938320029333106 L-5.476919936064764 10.684960087999302 L-5.476919936064764 10.684960087999302 L-5.999999999999992 11.065000000000008 L-5.999999999999992 11.065000000000008 z"/>
<path fill="#b0e0e6" stroke="#b0e0e6" d="M-6.523080063935228 10.684960087999292 L-6.523080063935228 10.684960087999292 L-6.348720042623485 10.811640058666194 L-5.999999999999999 11.064999999999998 L-5.999999999999999 11.064999999999998 z"/>
<path fill="#b0e0e6" stroke="#b0e0e6" d="M-4.4353663593264505 10.415001182926542 L-4.4353663593264505 10.415001182926542 L-4.436834171590738 10.419518644568004 L-4.440340448201728 10.43030985437043 L-4.441659701047595 10.434370097135524 L-4.4443920298361625 10.44277934046625 L-4.445434736329017 10.445988461073414 L-4.457921718821945 10.484419441520895 L-4.460089199199444 10.491090260195872 L-4.514828494790258 10.659560489072291 L-4.520055692789632 10.675648150300521 L-4.523081172392576 10.684959619066559 L-4.523081172392576 10.684959619066559 L-4.4353663593264505 10.415001182926542 L-4.4353663593264505 10.415001182926542 z"/>
<path fill="#b0e0e6" stroke="#b0e0e6" d="M-3.999999999999993 8.93500000000001 L-3.999999999999993 8.93500000000001 L-4.174360021311736 9.061679970666912 L-4.213050054404447 9.089789925118701 L-4.523080063935222 9.315039912000715 L-4.523080063935222 9.315039912000715 z"/>
<path fill="#b0e0e6" stroke="#b0e0e6" d="M-2.95 10.415000000000006 L-3.05 10.415000000000006 L-3.56463 10.415000000000006 L-3.56463 10.415000000000006 L-3.56463 10.415000000000006 L-3.56463 10.415000000000006 L-3.05 10.415000000000006 L-2.95 10.415000000000006 L-2.43537 10.415000000000006 L-2.43537 10.415000000000006 L-2.43537 10.415000000000006 L-2.43537 10.415000000000006 z"/>
<path fill="#b0e0e6" stroke="#b0e0e6" d="M-2.435366359326451 10.415001182926542 L-2.435366359326451 10.415001182926542 L-2.4370716311685 10.420249470001226 L-2.4410655375550876 10.432541449936243 L-2.4425401825869257 10.437079940673911 L-2.4455392860346934 10.44631023198139 L-2.446666998845599 10.449780975134177 L-2.4490025820291437 10.456969161047875 L-2.449892835262287 10.459709078767437 L-2.4581464677796334 10.485111147687968 L-2.460572935133752 10.492579046317232 L-2.4624286762242784 10.498290430120806 L-2.509239744119821 10.64236008314051 L-2.513710553673165 10.656119820100683 L-2.519581728549137 10.674189438360338 L-2.523081172392576 10.684959619066559 L-2.523081172392576 10.684959619066559 L-2.435366359326451 10.415001182926542 L-2.435366359326451 10.415001182926542 z"/>
<path fill="#b0e0e6" stroke="#b0e0e6" d="M-3.5606602325895946 10.42723007557294 L-3.562281453028621 10.422240472117618 L-3.564633640673529 10.415001182926536 L-3.564633640673529 10.415001182926536 L-3.564633640673529 10.415001182926536 L-3.564633640673529 10.415001182926536 L-3.4769188276074043 10.684959619066554 L-3.4769188276074043 10.684959619066554 L-3.483224879948622 10.665551585591423 L-3.488033804944114 10.650751236301286 L-3.5388319464586933 10.494410632442767 L-3.540859684196555 10.48816989738924 L-3.5435177332759125 10.479989263496698 L-3.5525697799408 10.452129928498431 L-3.553550917344518 10.449110298063301 L-3.5561180822533016 10.441209376886324 L-3.5573591615486677 10.437389727570647 z"/>
<path fill="#b0e0e6" stroke="#b0e0e6" d="M-4.523080063935228 10.684960087999292 L-4.523080063935228 10.684960087999292 L-4.348720042623485 10.811640058666194 L-4.231879675977953 10.896529554021912 L-3.9999999999999996 11.064999999999998 L-3.9999999999999996 11.064999999999998 z"/>
<path fill="#b0e0e6" stroke="#b0e0e6" d="M-2.5230800639352284 10.684960087999292 L-2.5230800639352284 10.684960087999292 L-2.3487200426234853 10.811640058666194 L-2.301539223036882 10.84591893060201 L-2.240271724644056 10.890432373768897 L-2.102656739813912 10.99041551273881 L-1.9999999999999998 11.064999999999998 L-1.9999999999999998 11.064999999999998 z"/>
<path fill="#b0e0e6" stroke="#b0e0e6" d="M-2.43537 9.585000000000006 L-2.43537 9.585000000000006 L-2.43537 9.585000000000006 L-2.43537 9.585000000000006 L-2.43537 9.585000000000006 L-2.43537 9.585000000000006 L-2.95 9.585000000000006 L-3.05 9.585000000000006 L-3.56463 9.585000000000006 L-3.56463 9.585000000000006 L-3.56463 9.585000000000006 L-3.56463 9.585000000000006 L-3.56463 9.585000000000006 L-3.56463 9.585000000000006 L-3.56463 9.585000000000006 L-3.05 9.585000000000006 L-2.95 9.585000000000006 L-2.43537 9.585000000000006 z"/>
<path fill="#b0e0e6" stroke="#b0e0e6" d="M-0.95 10.415000000000006 L-1.05 10.415000000000006 L-1.56463 10.415000000000006 L-1.56463 10.415000000000006 L-1.56463 10.415000000000006 L-1.56463 10.415000000000006 L-1.05 10.415000000000006 L-0.95 10.415000000000006 L-0.43537 10.415000000000006 L-0.43537 10.415000000000006 L-0.43537 10.415000000000006 L-0.43537 10.415000000000006 z"/>
<path fill="#b0e0e6" stroke="#b0e0e6" d="M-0.4353663593264512 10.415001182926542 L-0.4353663593264512 10.415001182926542 L-0.4374029138430977 10.421269053234985 L-0.4420398421912546 10.435540051275169 L-0.443703088331792 10.44065899654017 L-0.4470207638340829 10.450869751815262 L-0.4482452386680853 10.454638297853556 L-0.4507351849413972 10.462301564507378 L-0.45167334172857515 10.465188914206566 L-0.45361313422212435 10.471158981629499 L-0.45435387312181924 10.473438741546435 L-0.4584513742990548 10.486049553463168 L-0.46121007924279894 10.494539974252454 L-0.46322510636058684 10.500741590039832 L-0.4647652143228513 10.505481554960765 L-0.5036509934493836 10.625159677208726 L-0.5073644596416698 10.636588550974583 L-0.5122417864938499 10.65159941953296 L-0.5189318738200168 10.67218939115897 L-0.5230811723925761 10.684959619066559 L-0.5230811723925761 10.684959619066559 L-0.4353663593264512 10.415001182926542 L-0.4353663593264512 10.415001182926542 z"/>
<path fill="#b0e0e6" stroke="#b0e0e6" d="M-1.5404472890451963 10.489439119157387 L-1.5435177332759125 10.479989263496698 L-1.5480921376199053 10.46591069455481 L-1.548917882837651 10.46336931209225 L-1.5510853632151496 10.456698493417274 L-1.552133947560527 10.453471282640166 L-1.5549219675857087 10.44489063930735 L-1.556290078900637 10.44068002563637 L-1.5600103778604741 10.42923012277431 L-1.5618788295710746 10.423479619704588 L-1.5646336406735293 10.415001182926536 L-1.5646336406735293 10.415001182926536 L-1.5646336406735293 10.415001182926536 L-1.5646336406735293 10.415001182926536 L-1.4769188276074043 10.684959619066554 L-1.4769188276074043 10.684959619066554 L-1.4842030784260782 10.662541000241266 L-1.4895289482786056 10.646149658275004 L-1.4935903016068528 10.633650097998006 L-1.5364895305075974 10.501619847452671 L-1.5382016351171979 10.496350531281783 z"/>
<path fill="#b0e0e6" stroke="#b0e0e6" d="M-1.7388822753612228 10.87528686823395 L-1.6758785563804164 10.829511986971895 L-1.476919936064764 10.684960087999302 L-1.476919936064764 10.684960087999302 L-1.9999999999999925 11.065000000000008 L-1.9999999999999925 11.065000000000008 L-1.8855983191045194 10.981882313554149 L-1.8256399786882493 10.938320029333106 z"/>
<path fill="#b0e0e6" stroke="#b0e0e6" d="M1.05 10.415000000000006 L0.95 10.415000000000006 L0.43537 10.415000000000006 L0.43537 10.415000000000006 L0.43537 10.415000000000006 L0.43537 10.415000000000006 L0.95 10.415000000000006 L1.05 10.415000000000006 L1.56463 10.415000000000006 L1.56463 10.415000000000006 L1.56463 10.415000000000006 L1.56463 10.415000000000006 z"/>
<path fill="#b0e0e6" stroke="#b0e0e6" d="M1.5646336406735486 10.415001182926542 L1.5646336406735486 10.415001182926542 L1.5621094563813047 10.422769823367577 L1.556589107567555 10.43975971003112 L1.5546815690817046 10.44563050982555 L1.5509905852033052 10.45699019014408 L1.549665454504916 10.461068523079117 L1.5470230549718935 10.46920099262054 L1.5460487503357268 10.472199593959465 L1.544066932140666 10.478299003192078 L1.54331936047342 10.480599792205219 L1.5417763135848943 10.485348802211123 L1.5411880279449106 10.487159359240458 L1.5411069154681487 10.487408997774848 L1.5379221498379434 10.497210698524691 L1.5357292482202973 10.503959755731966 L1.5341236773276066 10.508901194836168 L1.5328962635673427 10.512678785959436 L1.5019377572210533 10.607959271276945 L1.4989806794747975 10.617060220774745 L1.4950981555614375 10.62900940070558 L1.4897722857089097 10.645400742671844 L1.4820170095760024 10.66926902835234 L1.4769188276074237 10.684959619066559 L1.4769188276074237 10.684959619066559 L1.5646336406735486 10.415001182926542 L1.5646336406735486 10.415001182926542 z"/>
<path fill="#b0e0e6" stroke="#b0e0e6" d="M-0.5230800639352284 10.684960087999292 L-0.5230800639352284 10.684960087999292 L-0.3712100704633637 10.795300096984498 L-0.3487200426234853 10.811640058666194 L-0.3201017769470918 10.832432445757851 L-0.25153131147403424 10.88225180508915 L-0.20531168982543413 10.915832325845175 L-0.11968351427190985 10.97804483698032 L5.1129847806328237e-17 11.064999999999998 L5.1129847806328237e-17 11.064999999999998 z"/>
<path fill="#b0e0e6" stroke="#b0e0e6" d="M0.2287986065083724 10.898768082023317 L0.2774616691896135 10.863412297442405 L0.347868882880832 10.812258462417374 L0.3990063222171821 10.775104937966221 L0.5230800639352358 10.684960087999302 L0.5230800639352358 10.684960087999302 L7.336735258369952e-15 11.065000000000008 L7.336735258369952e-15 11.065000000000008 L0.1359596566174337 10.966219527374443 L0.1743600213117504 10.938320029333106 z"/>
<path fill="#b0e0e6" stroke="#b0e0e6" d="M0.46585288544349784 10.508829062462574 L0.46445641396216 10.504531165174326 L0.46262704902680973 10.498900958829312 L0.46011851428090106 10.491180482739397 L0.45648226672408737 10.479989263496698 L0.4563884436272514 10.47970050569616 L0.4557151516692162 10.477628326121202 L0.45394537181176925 10.472181503789512 L0.4530903115125859 10.469549898783423 L0.4508162974181779 10.46255120304176 L0.449698356301085 10.459110534070152 L0.4466640599193567 10.449771930049197 L0.44514254042968954 10.445089174564357 L0.4408925859927434 10.432009159760023 L0.43869285160754595 10.425239073456542 L0.4353663593264705 10.415001182926536 L0.4353663593264705 10.415001182926536 L0.4353663593264705 10.415001182926536 L0.4353663593264705 10.415001182926536 L0.5230811723925956 10.684959619066554 L0.5230811723925956 10.684959619066554 L0.5144542314991407 10.658408625102584 L0.5085087769139582 10.640110397404744 L0.5041649993801767 10.626741624799873 L0.5008502628041476 10.616539914609756 z"/>
<path fill="#b0e0e6" stroke="#b0e0e6" d="M3.05 10.415000000000006 L2.95 10.415000000000006 L2.43537 10.415000000000006 L2.43537 10.415000000000006 L2.43537 10.415000000000006 L2.43537 10.415000000000006 L2.95 10.415000000000006 L3.05 10.415000000000006 L3.56463 10.415000000000006 L3.56463 10.415000000000006 L3.56463 10.415000000000006 L3.56463 10.415000000000006 L3.56463 10.415000000000006 z"/>
<path fill="#b0e0e6" stroke="#b0e0e6" d="M2.4556897304290684 10.477550087588906 L2.453340481710421 10.470319843482795 L2.452160971504192 10.466689684339151 L2.4488696721570773 10.456560106522621 L2.44716733924129 10.451320864532912 L2.4422313822262347 10.436129550887472 L2.4395635614530646 10.427918842813751 L2.4353663593264705 10.415001182926536 L2.4353663593264705 10.415001182926536 L2.4353663593264705 10.415001182926536 L2.4353663593264705 10.415001182926536 L2.523081172392595 10.684959619066554 L2.523081172392595 10.684959619066554 L2.512505622226807 10.652411422424734 L2.5058253065944527 10.631851524979904 L2.501223571180256 10.617688839653194 L2.4978609310501927 10.607339697483454 L2.4952937661414087 10.599438776306476 L2.468199195235883 10.516050261483711 L2.4671174019677786 10.51272084415184 L2.4656974932575255 10.508350814490003 L2.4637577007639764 10.50238074706707 L2.460940365657357 10.493709881190721 L2.460869024874408 10.49349031683751 L2.46034620216485 10.491881233991442 L2.458978090849921 10.487670620320463 L2.4583155255007267 10.485631453852944 L2.4565536075070358 10.480208827849909 L2.456482266724087 10.479989263496698 z"/>
<path fill="#b0e0e6" stroke="#b0e0e6" d="M3.5646336406735486 10.415001182926542 L3.5646336406735486 10.415001182926542 L3.5613100873187347 10.425230028371576 L3.5545066335081072 10.446168906160477 L3.5522902946615464 10.452990095741338 L3.548186915631788 10.465618997828017 L3.5467670069215353 10.469989027489852 L3.544021012597865 10.47844032901299 L3.543033042426596 10.481480988544325 L3.54107076761916 10.487520249414583 L3.540405263343704 10.489568460967075 L3.5403456782658007 10.489751844980399 L3.5388680943077007 10.494299380803037 L3.5383150016016773 10.496001625118897 L3.5371648064768855 10.499541561719008 L3.5367269900853784 10.500889022019456 L3.536665420996242 10.501078512191489 L3.5342995678162317 10.50835985957498 L3.532665636757132 10.513388582296452 L3.5314695220895387 10.517069844717478 L3.53055972546877 10.519869910799395 L3.5075265078914906 10.590758865345162 L3.5053267735062925 10.597528951648645 L3.5024380976167246 10.606419381878203 L3.498474461226603 10.61861820034343 L3.492706881141279 10.63636898662137 L3.483523908615539 10.664631269986174 L3.4769188276074234 10.684959619066559 L3.4769188276074234 10.684959619066559 L3.5646336406735486 10.415001182926542 L3.5646336406735486 10.415001182926542 L3.5646336406735486 10.415001182926542 z"/>
<path fill="#b0e0e6" stroke="#b0e0e6" d="M1.4769199360647713 10.684960087999292 L1.4769199360647713 10.684960087999292 L1.5591303824777083 10.744689473564597 L1.6000681707498727 10.774432517746803 L1.6512799573765147 10.811640058666194 L1.655009955650603 10.814350061041706 L1.6920315703606537 10.841247838583987 L1.7325696520390796 10.870700478927118 L1.7606311816537894 10.891088373593087 L1.8565107548266853 10.960748961070198 L2 11.064999999999998 L2 11.064999999999998 z"/>
<path fill="#b0e0e6" stroke="#b0e0e6" d="M2.3014000390214684 10.846020053708441 L2.343200287403846 10.815650395577457 L2.3805633170674763 10.788504565551705 L2.4346200411228867 10.749230056600798 L2.4738894110123892 10.720699189328101 L2.5230800639352355 10.684960087999302 L2.5230800639352355 10.684960087999302 L2.000000000000007 11.065000000000008 L2.000000000000007 11.065000000000008 L2.1675198077479942 10.943289735387815 L2.17436002131175 10.938320029333106 L2.271912768149888 10.867443810031459 z"/>
<path fill="#b0e0e6" stroke="#b0e0e6" d="M4.43536635932647 10.415001182926536 L4.43536635932647 10.415001182926536 L4.43536635932647 10.415001182926536 L4.43536635932647 10.415001182926536 L4.43536635932647 10.415001182926536 L4.523081172392595 10.684959619066554 L4.523081172392595 10.684959619066554 L4.5172842772258335 10.667118610245081 L4.509421512460988 10.642919508571634 L4.501929117145989 10.619860286856655 L4.4971983657009975 10.605300531015935 L4.49393638143532 10.595261175742936 L4.491553923793947 10.587928725082062 L4.489738224393698 10.58234057692946 L4.470541611186978 10.523259476493616 L4.469774496132107 10.52089853911812 L4.468770876414504 10.517809715235666 L4.467396887247052 10.513581011394741 L4.465398464590627 10.507430498884746 L4.465349606121564 10.507280127978861 L4.464979236671717 10.506140248020392 L4.464007870961812 10.50315069176644 L4.46353978457384 10.501710069996202 L4.462291872510923 10.49786939158432 L4.462240075115598 10.49770997559346 L4.46167816563079 10.495980596022685 L4.460014919490253 10.490861650757683 L4.459179402578694 10.488290194113947 L4.456849697247673 10.481120098370194 L4.456482266724087 10.479989263496698 L4.455643810886267 10.477408761767991 L4.452148260884117 10.466650565073003 L4.450257326859631 10.460830868555956 L4.444431116611431 10.442899637190951 L4.441233640361153 10.433058817174958 L4.4410518720200045 10.432499391743827 L4.4368996345211835 10.419720118751265 z"/>
<path fill="#b0e0e6" stroke="#b0e0e6" d="M5.05 10.415000000000006 L4.95 10.415000000000006 L4.43537 10.415000000000006 L4.43537 10.415000000000006 L4.43537 10.415000000000006 L4.43537 10.415000000000006 L4.43537 10.415000000000006 L4.87084 10.415000000000006 L4.95 10.415000000000006 L5.05 10.415000000000006 L5.49592 10.415000000000006 L5.56463 10.415000000000006 L5.56463 10.415000000000006 L5.56463 10.415000000000006 L5.56463 10.415000000000006 z"/>
<path fill="#b0e0e6" stroke="#b0e0e6" d="M5.564633640673549 10.415001182926542 L5.564633640673549 10.415001182926542 L5.563909506235217 10.417229839566096 L5.559772918282731 10.429960948207537 L5.558960838600088 10.432460272477686 L5.5583402989524044 10.434370097135524 L5.554129431290709 10.447329815215149 L5.5509710418156795 10.457050338506434 L5.550831299176043 10.457480422127885 L5.548391166286822 10.46499037894956 L5.543927189501029 10.478729086813528 L5.542475026783078 10.483198384103867 L5.539780829854731 10.491490269636147 L5.5391348689669 10.493478332826284 L5.538851489846337 10.49435048408042 L5.537051439992425 10.499890467881901 L5.536404524189566 10.501881469998299 L5.535114586425137 10.505851490219863 L5.534679708959891 10.507189905435336 L5.534640622184641 10.507310202160044 L5.533672195400998 10.510290713329024 L5.533308658718701 10.511409564191286 L5.532554254283904 10.513731382300634 L5.532265952225846 10.514618684798451 L5.532226865450597 10.514738981523159 L5.53067309195323 10.519521004636504 L5.529604009305199 10.522811302702227 L5.528818305777731 10.525229449513816 L5.528220248443935 10.527070080724327 L5.5131143036468995 10.573561398339644 L5.51167191262276 10.578000621448805 L5.509778039672011 10.583829363050825 L5.507178620755529 10.591829551856305 L5.503392858865267 10.603480928901632 L5.497372169655845 10.622010704963916 L5.491010426078014 10.641590138441138 L5.486296279094385 10.656098791004478 L5.485983584892385 10.657061164802144 L5.479134211538956 10.678141368411959 L5.476918827607423 10.684959619066559 L5.476918827607423 10.684959619066559 L5.564633640673549 10.415001182926542 L5.564633640673549 10.415001182926542 z"/>
<path fill="#b0e0e6" stroke="#b0e0e6" d="M3.476919936064771 10.684960087999292 L3.476919936064771 10.684960087999292 L3.4894595350512265 10.694070639947084 L3.5202428737294182 10.716436044650782 L3.5615399224076882 10.746440106796653 L3.5893766203491313 10.766664651690352 L3.6198524451764027 10.788806634503405 L3.6409476673818797 10.804133210573408 L3.6512799573765142 10.811640058666194 L3.708429051269066 10.853161305816105 L3.713028054738341 10.856502677422977 L3.8208970359209795 10.934874079704773 L4 11.064999999999998 L4 11.064999999999998 z"/>
<path fill="#b0e0e6" stroke="#b0e0e6" d="M4.407867669484733 10.768666792320921 L4.428440056731186 10.753720078083777 L4.457601968299319 10.732532709131597 L4.4836667547477305 10.713595533293448 L4.5213777444499135 10.68619689550164 L4.523080063935235 10.684960087999302 L4.523080063935235 10.684960087999302 L4.000000000000007 11.065000000000008 L4.000000000000007 11.065000000000008 L4.17436002131175 10.938320029333106 L4.2181814033979235 10.906481931611529 L4.3350396154959805 10.82157947077562 L4.339811704083337 10.818112345469496 z"/>
<path fill="#b0e0e6" stroke="#b0e0e6" d="M6.43536635932647 10.415001182926536 L6.43536635932647 10.415001182926536 L6.43536635932647 10.415001182926536 L6.43536635932647 10.415001182926536 L6.43536635932647 10.415001182926536 L6.523081172392595 10.684959619066554 L6.523081172392595 10.684959619066554 L6.51856444329645 10.671058556285466 L6.515988461608882 10.663130499853574 L6.512294538804221 10.651761774450073 L6.508947548220493 10.641460796631453 L6.5040243018255115 10.626308602252161 L6.503800507782851 10.62561983501135 L6.500389009183725 10.615120321935722 L6.495761852529381 10.600879398076716 L6.491352612065174 10.587309151288576 L6.488568485881282 10.578740491966993 L6.486651175701619 10.572839617991386 L6.485247871452729 10.568520691606931 L6.484178788804699 10.565230393541208 L6.472884027138074 10.530468691503518 L6.472432545211466 10.529079173010663 L6.47184132064522 10.527259570896355 L6.471032179888837 10.52476929171118 L6.469859502450159 10.521160161663742 L6.469830187368721 10.521069939120212 L6.469612271178585 10.520399262049343 L6.469040589999964 10.51863980829739 L6.468764043646952 10.51778868613946 L6.468030137514809 10.51552995531873 L6.468000822433371 10.515439732775198 L6.467669539758774 10.514420149541438 L6.466691341281317 10.51140956419128 L6.466197833653197 10.509890703888745 L6.464826783412007 10.505671045132793 L6.464611806148132 10.505009413146897 L6.4641182985200105 10.50349055284436 L6.462061245700712 10.497159595247302 L6.460947198424908 10.493730910286926 L6.45752203429068 10.483189339018889 L6.456482266724087 10.479989263496698 L6.455637933033744 10.477390671598046 L6.4555304444018065 10.477059855605098 L6.453090311512586 10.469549898783425 L6.449818555553096 10.459480469329247 L6.44933775854505 10.45800072829286 L6.4487035533622645 10.456048845442611 L6.445470884178024 10.446099712713144 L6.444171174719783 10.442099618310404 L6.439414047119615 10.427458685011123 z"/>
<path fill="#b0e0e6" stroke="#b0e0e6" d="M7.05 10.415000000000006 L6.43537 10.415000000000006 L6.43537 10.415000000000006 L6.43537 10.415000000000006 L6.43537 10.415000000000006 L6.43537 10.415000000000006 L6.74607 10.415000000000006 L6.92928 10.415000000000006 L7.05 10.415000000000006 z"/>
<path fill="#b0e0e6" stroke="#b0e0e6" d="M7.0500000000000105 10.415 L7.0500000000000105 10.415 L7.0500000000000105 10.40664 L7.0500000000000105 10.39444 L7.0500000000000105 10.38786 L7.0500000000000105 10.36296 L7.0500000000000105 10.32839 L7.0500000000000105 10.32614 L7.0500000000000105 10.27712 L7.0500000000000105 10.19323 L7.0500000000000105 10.13833 L7.0500000000000105 10.03104 L7.0500000000000105 9.7676 L7.0500000000000105 9.585 L7.0500000000000105 9.585 z"/>
<path fill="#b0e0e6" stroke="#b0e0e6" d="M6.43537 9.585000000000006 L6.43537 9.585000000000006 L6.43537 9.585000000000006 L6.43537 9.585000000000006 L7.05 9.585000000000006 L7.05 9.585000000000006 L6.5102 9.585000000000006 L6.43537 9.585000000000006 z"/>
<path fill="#b0e0e6" stroke="#b0e0e6" d="M5.476919936064771 10.684960087999292 L5.476919936064771 10.684960087999292 L5.486719880535219 10.692080164429164 L5.507130483031144 10.706909335164665 L5.521262363307579 10.717176747186175 L5.566462495378018 10.750016565406808 L5.569543564847606 10.752255093408204 L5.64179882712454 10.804751614324577 L5.651279957376514 10.811640058666194 L5.667358624066453 10.823321893810057 L5.761760709427292 10.8919090235571 L6 11.064999999999998 L6 11.064999999999998 z"/>
<path fill="#b0e0e6" stroke="#b0e0e6" d="M6.523080063935235 10.684960087999302 L6.523080063935235 10.684960087999302 L6.000000000000007 11.065000000000008 L6.000000000000007 11.065000000000008 L6.17436002131175 10.938320029333106 L6.312747063311681 10.837775957995293 L6.411528075751112 10.766007351498619 L6.436358051513259 10.747967318138077 L6.502570723611522 10.699860995965816 L6.505269931939897 10.697899906323304 z"/>
<path fill="#b0e0e6" stroke="#b0e0e6" d="M-9.999999999999998 8.934999999999999 L-9.999999999999998 8.934999999999999 L-9.47691993606477 9.315039912000705 L-9.47691993606477 9.315039912000705 L-9.651279957376513 9.188359941333804 L-9.675982049490791 9.170412820882074 z"/>
<path fill="#b0e0e6" stroke="#b0e0e6" d="M-8.435366359326455 9.584998817073458 L-8.52308117239258 9.31504038093344 L-8.52308117239258 9.31504038093344 L-8.456482266724072 9.520010736503295 L-8.435366359326455 9.584998817073458 L-8.435366359326455 9.584998817073458 L-8.435366359326455 9.584998817073458 L-8.435366359326455 9.584998817073458 L-8.435366359326455 9.584998817073458 L-8.435366359326455 9.584998817073458 z"/>
<path fill="#b0e0e6" stroke="#b0e0e6" d="M-7.4769188276074 9.315040380933446 L-7.4769188276074 9.315040380933446 L-7.564633640673525 9.584998817073464 L-7.564633640673525 9.584998817073464 L-7.564633640673525 9.584998817073464 L-7.564633640673525 9.584998817073464 L-7.564633640673525 9.584998817073464 L-7.564633640673525 9.584998817073464 L-7.564633640673525 9.584998817073464 z"/>
<path fill="#b0e0e6" stroke="#b0e0e6" d="M-7.999999999999993 8.93500000000001 L-7.999999999999993 8.93500000000001 L-8.174360021311735 9.061679970666912 L-8.523080063935222 9.315039912000715 L-8.523080063935222 9.315039912000715 z"/>
<path fill="#b0e0e6" stroke="#b0e0e6" d="M-6.435366359326455 9.584998817073458 L-6.52308117239258 9.31504038093344 L-6.52308117239258 9.31504038093344 L-6.4564822667240716 9.520010736503295 L-6.435366359326455 9.584998817073458 L-6.435366359326455 9.584998817073458 L-6.435366359326455 9.584998817073458 L-6.435366359326455 9.584998817073458 L-6.435366359326455 9.584998817073458 L-6.435366359326455 9.584998817073458 z"/>
<path fill="#b0e0e6" stroke="#b0e0e6" d="M-5.999999999999993 8.93500000000001 L-5.999999999999993 8.93500000000001 L-6.099793956932611 9.007504553749492 L-6.174360021311736 9.061679970666912 L-6.523080063935222 9.315039912000715 L-6.523080063935222 9.315039912000715 z"/>
<path fill="#b0e0e6" stroke="#b0e0e6" d="M-5.999999999999999 8.934999999999999 L-5.999999999999999 8.934999999999999 L-5.47691993606477 9.315039912000705 L-5.47691993606477 9.315039912000705 L-5.651279957376514 9.188359941333804 z"/>
<path fill="#b0e0e6" stroke="#b0e0e6" d="M-4.435366359326455 9.584998817073458 L-4.52308117239258 9.31504038093344 L-4.52308117239258 9.31504038093344 L-4.4564822667240716 9.520010736503295 L-4.435366359326455 9.584998817073458 L-4.435366359326455 9.584998817073458 L-4.435366359326455 9.584998817073458 L-4.435366359326455 9.584998817073458 L-4.435366359326455 9.584998817073458 L-4.435366359326455 9.584998817073458 z"/>
<path fill="#b0e0e6" stroke="#b0e0e6" d="M-3.4769188276074 9.315040380933446 L-3.4769188276074 9.315040380933446 L-3.564633640673525 9.584998817073464 L-3.564633640673525 9.584998817073464 L-3.564633640673525 9.584998817073464 L-3.564633640673525 9.584998817073464 L-3.564633640673525 9.584998817073464 L-3.564633640673525 9.584998817073464 L-3.564633640673525 9.584998817073464 z"/>
<path fill="#b0e0e6" stroke="#b0e0e6" d="M-3.999999999999999 8.934999999999999 L-3.999999999999999 8.934999999999999 L-3.4769199360647707 9.315039912000705 L-3.4769199360647707 9.315039912000705 L-3.651279957376514 9.188359941333804 z"/>
<path fill="#b0e0e6" stroke="#b0e0e6" d="M-2.435366359326455 9.584998817073458 L-2.52308117239258 9.31504038093344 L-2.52308117239258 9.31504038093344 L-2.456482266724072 9.520010736503295 L-2.435366359326455 9.584998817073458 L-2.435366359326455 9.584998817073458 L-2.435366359326455 9.584998817073458 L-2.435366359326455 9.584998817073458 L-2.435366359326455 9.584998817073458 L-2.435366359326455 9.584998817073458 z"/>
<path fill="#b0e0e6" stroke="#b0e0e6" d="M-0.43537 9.585000000000006 L-0.43537 9.585000000000006 L-0.43537 9.585000000000006 L-0.95 9.585000000000006 L-1.05 9.585000000000006 L-1.56463 9.585000000000006 L-1.56463 9.585000000000006 L-1.56463 9.585000000000006 L-1.56463 9.585000000000006 L-1.56463 9.585000000000006 L-1.56463 9.585000000000006 L-1.56463 9.585000000000006 L-1.05 9.585000000000006 L-0.95 9.585000000000006 L-0.43537 9.585000000000006 L-0.43537 9.585000000000006 L-0.43537 9.585000000000006 L-0.43537 9.585000000000006 z"/>
<path fill="#b0e0e6" stroke="#b0e0e6" d="M-1.4769188276074001 9.315040380933446 L-1.4769188276074001 9.315040380933446 L-1.564633640673525 9.584998817073464 L-1.564633640673525 9.584998817073464 L-1.564633640673525 9.584998817073464 L-1.564633640673525 9.584998817073464 L-1.564633640673525 9.584998817073464 L-1.564633640673525 9.584998817073464 L-1.564633640673525 9.584998817073464 L-1.4778774826972316 9.31799081792125 z"/>
<path fill="#b0e0e6" stroke="#b0e0e6" d="M-1.9999999999999931 8.93500000000001 L-1.9999999999999931 8.93500000000001 L-2.001500088547155 8.936089878125296 L-2.0423391389915295 8.96576118507649 L-2.174360021311736 9.061679970666912 L-2.2980471466059957 9.151543927359919 L-2.5230800639352218 9.315039912000715 L-2.5230800639352218 9.315039912000715 z"/>
<path fill="#b0e0e6" stroke="#b0e0e6" d="M-0.43536635932645534 9.584998817073458 L-0.5230811723925803 9.31504038093344 L-0.5230811723925803 9.31504038093344 L-0.5129180173781506 9.346319355807111 L-0.511822558574944 9.349690831331394 L-0.45648226672407216 9.520010736503295 L-0.43536635932645534 9.584998817073458 L-0.43536635932645534 9.584998817073458 L-0.43536635932645534 9.584998817073458 L-0.43536635932645534 9.584998817073458 L-0.43536635932645534 9.584998817073458 L-0.43536635932645534 9.584998817073458 z"/>
<path fill="#b0e0e6" stroke="#b0e0e6" d="M6.808792837314614e-15 8.93500000000001 L6.808792837314614e-15 8.93500000000001 L-0.09684077111089122 9.00535893865691 L-0.1337993388982025 9.03221090992856 L-0.1743600213117363 9.061679970666912 L-0.36420152706410114 9.199607898176579 L-0.5230800639352217 9.315039912000715 L-0.5230800639352217 9.315039912000715 z"/>
<path fill="#b0e0e6" stroke="#b0e0e6" d="M-1.9999999999999993 8.934999999999999 L-1.9999999999999993 8.934999999999999 L-1.476919936064771 9.315039912000705 L-1.476919936064771 9.315039912000705 L-1.651279957376514 9.188359941333804 L-1.9815700850202385 8.948390117020319 z"/>
<path fill="#b0e0e6" stroke="#b0e0e6" d="M1.56463 9.585000000000006 L1.56463 9.585000000000006 L1.56463 9.585000000000006 L1.56463 9.585000000000006 L1.56463 9.585000000000006 L1.05 9.585000000000006 L0.95 9.585000000000006 L0.43537 9.585000000000006 L0.43537 9.585000000000006 L0.43537 9.585000000000006 L0.43537 9.585000000000006 L0.43537 9.585000000000006 L0.43537 9.585000000000006 L0.43537 9.585000000000006 L0.95 9.585000000000006 L1.05 9.585000000000006 L1.56463 9.585000000000006 L1.56463 9.585000000000006 z"/>
<path fill="#b0e0e6" stroke="#b0e0e6" d="M0.5230811723925997 9.315040380933446 L0.5230811723925997 9.315040380933446 L0.4353663593264747 9.584998817073464 L0.4353663593264747 9.584998817073464 L0.4353663593264747 9.584998817073464 L0.4353663593264747 9.584998817073464 L0.4353663593264747 9.584998817073464 L0.4353663593264747 9.584998817073464 L0.4353663593264747 9.584998817073464 L0.5085283203015872 9.359829454232901 L0.5220648420549211 9.318168324082052 z"/>
<path fill="#b0e0e6" stroke="#b0e0e6" d="M1.5646336406735446 9.584998817073458 L1.4769188276074194 9.31504038093344 L1.4769188276074194 9.31504038093344 L1.4870819826218493 9.346319355807111 L1.510577408734578 9.418630841953172 L1.5250257111199141 9.463098144344652 L1.5435177332759278 9.520010736503295 L1.5646336406735446 9.584998817073458 L1.5646336406735446 9.584998817073458 L1.5646336406735446 9.584998817073458 L1.5646336406735446 9.584998817073458 L1.5646336406735446 9.584998817073458 L1.5646336406735446 9.584998817073458 z"/>
<path fill="#b0e0e6" stroke="#b0e0e6" d="M5.790722688616656e-16 8.934999999999999 L5.790722688616656e-16 8.934999999999999 L0.523080063935229 9.315039912000705 L0.523080063935229 9.315039912000705 L0.3487200426234859 9.188359941333804 z"/>
<path fill="#b0e0e6" stroke="#b0e0e6" d="M3.56463 9.585000000000006 L3.56463 9.585000000000006 L3.56463 9.585000000000006 L3.56463 9.585000000000006 L3.56463 9.585000000000006 L3.56463 9.585000000000006 L3.56463 9.585000000000006 L3.05 9.585000000000006 L2.95 9.585000000000006 L2.43537 9.585000000000006 L2.43537 9.585000000000006 L2.43537 9.585000000000006 L2.43537 9.585000000000006 L2.43537 9.585000000000006 L2.43537 9.585000000000006 L2.43537 9.585000000000006 L2.95 9.585000000000006 L3.05 9.585000000000006 z"/>
<path fill="#b0e0e6" stroke="#b0e0e6" d="M2.5230811723925997 9.315040380933446 L2.5230811723925997 9.315040380933446 L2.4353663593264745 9.584998817073464 L2.4353663593264745 9.584998817073464 L2.4353663593264745 9.584998817073464 L2.4353663593264745 9.584998817073464 L2.4353663593264745 9.584998817073464 L2.4353663593264745 9.584998817073464 L2.4353663593264745 9.584998817073464 L2.4986182744112546 9.39032943932223 L2.510399710938449 9.354069906078207 z"/>
<path fill="#b0e0e6" stroke="#b0e0e6" d="M2.0000000000000067 8.93500000000001 L2.0000000000000067 8.93500000000001 L1.8262193154850543 9.061259057846005 L1.8256399786882636 9.061679970666912 L1.792463155730227 9.08578434349003 L1.5828486759188847 9.238078177558691 L1.4769199360647782 9.315039912000715 L1.4769199360647782 9.315039912000715 z"/>
<path fill="#b0e0e6" stroke="#b0e0e6" d="M3.5646336406735446 9.584998817073458 L3.4769188276074194 9.31504038093344 L3.4769188276074194 9.31504038093344 L3.487081982621849 9.346319355807111 L3.510577408734578 9.418630841953172 L3.525025711119914 9.463098144344652 L3.5435177332759276 9.520010736503295 L3.5646336406735446 9.584998817073458 L3.5646336406735446 9.584998817073458 L3.5646336406735446 9.584998817073458 L3.5646336406735446 9.584998817073458 L3.5646336406735446 9.584998817073458 L3.5646336406735446 9.584998817073458 z"/>
<path fill="#b0e0e6" stroke="#b0e0e6" d="M4.000000000000006 8.93500000000001 L4.000000000000006 8.93500000000001 L3.8256399786882636 9.061679970666912 L3.762809344825538 9.107329098229714 L3.7317589384840577 9.129888538948649 L3.5395191931692653 9.269558889492764 L3.476919936064778 9.315039912000715 L3.476919936064778 9.315039912000715 z"/>
<path fill="#b0e0e6" stroke="#b0e0e6" d="M2.0000000000000004 8.934999999999999 L2.0000000000000004 8.934999999999999 L2.523080063935229 9.315039912000705 L2.523080063935229 9.315039912000705 L2.3487200426234858 9.188359941333804 z"/>
<path fill="#b0e0e6" stroke="#b0e0e6" d="M5.56463 9.585000000000006 L5.56463 9.585000000000006 L5.56463 9.585000000000006 L5.56463 9.585000000000006 L5.05 9.585000000000006 L4.95 9.585000000000006 L4.43537 9.585000000000006 L4.43537 9.585000000000006 L4.43537 9.585000000000006 L4.43537 9.585000000000006 L4.43537 9.585000000000006 L4.43537 9.585000000000006 L4.43537 9.585000000000006 L4.95 9.585000000000006 L5.05 9.585000000000006 L5.56463 9.585000000000006 z"/>
<path fill="#b0e0e6" stroke="#b0e0e6" d="M4.523081172392599 9.315040380933446 L4.523081172392599 9.315040380933446 L4.4353663593264745 9.584998817073464 L4.4353663593264745 9.584998817073464 L4.4353663593264745 9.584998817073464 L4.4353663593264745 9.584998817073464 L4.4353663593264745 9.584998817073464 L4.4353663593264745 9.584998817073464 L4.4353663593264745 9.584998817073464 L4.4910731267859045 9.413551015954326 L4.5015030564595335 9.381450993103902 z"/>
<path fill="#b0e0e6" stroke="#b0e0e6" d="M5.564633640673544 9.584998817073458 L5.476918827607419 9.31504038093344 L5.476918827607419 9.31504038093344 L5.487081982621849 9.346319355807111 L5.510577408734577 9.418630841953172 L5.5250257111199135 9.463098144344652 L5.543517733275928 9.520010736503295 L5.564633640673544 9.584998817073458 L5.564633640673544 9.584998817073458 L5.564633640673544 9.584998817073458 L5.564633640673544 9.584998817073458 z"/>
<path fill="#b0e0e6" stroke="#b0e0e6" d="M4 8.934999999999999 L4 8.934999999999999 L4.523080063935229 9.315039912000705 L4.523080063935229 9.315039912000705 L4.348720042623485 9.188359941333804 z"/>
<path fill="#b0e0e6" stroke="#b0e0e6" d="M6.523081172392599 9.315040380933446 L6.523081172392599 9.315040380933446 L6.4353663593264745 9.584998817073464 L6.4353663593264745 9.584998817073464 L6.4353663593264745 9.584998817073464 L6.4353663593264745 9.584998817073464 L6.4353663593264745 9.584998817073464 L6.442777642164711 9.562189233892873 z"/>
<path fill="#b0e0e6" stroke="#b0e0e6" d="M6.000000000000006 8.93500000000001 L6.000000000000006 8.93500000000001 L5.8256399786882636 9.061679970666912 L5.551652540477011 9.260743496666628 L5.503389184389508 9.295808877408465 L5.476919936064777 9.315039912000715 L5.476919936064777 9.315039912000715 z"/>
<path fill="#b0e0e6" stroke="#b0e0e6" d="M6 8.934999999999999 L6 8.934999999999999 L6.523080063935229 9.315039912000705 L6.523080063935229 9.315039912000705 L6.348720042623485 9.188359941333804 z"/>
<path fill="#000000" stroke="#000000" d="M11 13 L8.87868 12.12132 L8 10 L8.87868 7.87868 L11 7 L13.12132 7.87868 L14 10 L13.12132 12.12132 z"/>
<path fill="#000000" stroke="#000000" d="M13.121320414713185 12.121320171779825 L13.121320414713185 12.121320171779825 L14.00000000000001 10.000000000000004 L14.00000000000001 10.000000000000004 z"/>
<path fill="#000000" stroke="#000000" d="M11.000000000000004 13.000000000000009 L11.000000000000004 13.000000000000009 L13.121320171779825 12.121320414713184 L13.121320171779825 12.121320414713184 z"/>
<path fill="#000000" stroke="#000000" d="M10.999999999999998 7.000000000000002 L10.999999999999998 7.000000000000002 L13.12132017177982 7.878679585286828 L13.12132017177982 7.878679585286828 z"/>
<path fill="#000000" stroke="#000000" d="M13.12132041471318 7.878679828220176 L13.12132041471318 7.878679828220176 L14.000000000000005 9.999999999999996 L14.000000000000005 9.999999999999996 z"/>
<path fill="#000000" stroke="#000000" d="M8.00000000000001 10.000000000000004 L8.00000000000001 10.000000000000004 L8.878679585286836 7.878679828220183 L8.878679585286836 7.878679828220183 z"/>
<path fill="#000000" stroke="#000000" d="M8.87867982822018 7.878679585286835 L8.87867982822018 7.878679585286835 L11.000000000000004 7.00000000000001 L11.000000000000004 7.00000000000001 z"/>
<path fill="#000000" stroke="#000000" d="M8.87867958528683 12.121320171779818 L8.87867958528683 12.121320171779818 L8.000000000000005 9.999999999999996 L8.000000000000005 9.999999999999996 z"/>
<path fill="#000000" stroke="#000000" d="M8.878679828220177 12.121320414713175 L8.878679828220177 12.121320414713175 L10.999999999999998 13.000000000000002 L10.999999999999998 13.000000000000002 z"/>
<path fill="#000000" stroke="#000000" d="M8.87868 12.12132 L11 13 L13.12132 12.12132 L14 10 L13.12132 7.87868 L11 7 L8.87868 7.87868 L8 10 z"/>
<path fill="#000000" stroke="#000000" d="M12.02862 8.58422 L12.66435 10.54078 L11 11.75 L9.33565 10.54078 L9.97138 8.58422 z"/>
<path fill="#000000" stroke="#000000" d="M11.000000000000005 11.750000000000009 L11.000000000000005 11.750000000000009 L12.664349497611191 10.540779308521126 L12.664349497611191 10.540779308521126 z"/>
<path fill="#000000" stroke="#000000" d="M9.971376285108136 8.584218792958463 L9.971376285108136 8.584218792958463 L9.335650915412447 10.540780297435534 L9.335650915412447 10.540780297435534 z"/>
<path fill="#000000" stroke="#000000" d="M9.335650502388814 10.540779308521117 L9.335650502388814 10.540779308521117 L11 11.749999999999998 L11 11.749999999999998 z"/>
<path fill="#000000" stroke="#000000" d="M12.02862 8.584220259843848 L12.02862 8.584220259843848 L9.97138 8.584220259843848 L9.97138 8.584220259843848 z"/>
<path fill="#000000" stroke="#000000" d="M12.028623714891882 8.584218792958458 L12.028623714891882 8.584218792958458 L12.66434908458757 10.540780297435527 L12.66434908458757 10.540780297435527 z"/>
<path fill="#000000" stroke="#000000" d="M12.66435 10.54078 L12.02862 8.58422 L9.97138 8.58422 L9.33565 10.54078 L11 11.75 z"/>
<path fill="#c0c0c0" stroke="#c0c0c0" d="M8.25037 11.5875 L8.25037 8.4125 L11 6.825 L13.74963 8.4125 L13.74963 11.5875 L11 13.175 z"/>
<path fill="#c0c0c0" stroke="#c0c0c0" d="M13.749630657015603 11.5875 L13.749630657015603 11.5875 L13.749630657015603 8.4125 L13.749630657015603 8.4125 z"/>
<path fill="#c0c0c0" stroke="#c0c0c0" d="M10.999999999999998 6.825 L10.999999999999998 6.825 L13.749630164253896 8.412499715503904 L13.749630164253896 8.412499715503904 z"/>
<path fill="#c0c0c0" stroke="#c0c0c0" d="M8.2503698357461 11.587500284496096 L8.2503698357461 11.587500284496096 L11 13.174999999999999 L11 13.174999999999999 z"/>
<path fill="#c0c0c0" stroke="#c0c0c0" d="M11.000000000000005 13.17500000000001 L11.000000000000005 13.17500000000001 L13.749630164253903 11.587500284496105 L13.749630164253903 11.587500284496105 z"/>
<path fill="#c0c0c0" stroke="#c0c0c0" d="M8.250369835746108 8.412499715503913 L8.250369835746108 8.412499715503913 L11.000000000000005 6.82500000000001 L11.000000000000005 6.82500000000001 z"/>
<path fill="#c0c0c0" stroke="#c0c0c0" d="M8.250369342984417 8.4125 L8.250369342984417 8.4125 L8.250369342984417 11.5875 L8.250369342984417 11.5875 z"/>
<path fill="#c0c0c0" stroke="#c0c0c0" d="M8.25037 8.4125 L8.25037 11.5875 L11 13.175 L13.74963 11.5875 L13.74963 8.4125 L11 6.825 z"/>
</svg>