<?xml version="1.0" encoding="UTF-8"?>
<!-- Generated by jsxcad -->
<!DOCTYPE svg PUBLIC "-//W3C//DTD SVG 1.1 Tiny//EN" "http://www.w3.org/Graphics/SVG/1.1/DTD/svg11-tiny.dtd">
<svg baseProfile="tiny" height="20.000000000000014mm" width="40.00000000000002mm" viewBox="0 0 40.00000000000002 20.000000000000014" version="1.1" stroke="black" stroke-width=".1" fill="none" xmlns="http://www.w3.org/2000/svg">
<path fill="#a52a2a" stroke="#a52a2a" d="M30 10 L29.74928 12.22521 L29.00969 14.33884 L27.81831 16.2349 L26.2349 17.81831 L24.33884 19.00969 L22.22521 19.74928 L20 20 L17.77479 19.74928 L-10 16 L-10 4 L17.77479 0.25072 L20 0 L22.22521 0.25072 L24.33884 0.99031 L26.2349 2.18169 L27.81831 3.7651 L29.00969 5.66116 L29.74928 7.77479 M24.00922 10.89862 L24.25 10 L23.97397 8.96986 L23.68061 7.875 L23.04706 7.24145 L22.125 6.31939 L20.92053 5.99666 L20 5.75 L17.875 6.31939 L16.8956 7.2988 L16.31939 7.875 L15.98784 9.11238 L15.75 10 L15.92051 10.63634 L16.30061 12.05491 L16.31939 12.125 L17.57567 13.38128 L17.875 13.68061 L20 14.25 L22.125 13.68061 L22.9331 12.87251 L23.68061 12.125 z"/>
<path fill="#a52a2a" stroke="#a52a2a" d="M23.68060898304194 12.12499898304194 L23.68060898304194 12.12499898304194 L22.93309898304194 12.872508983041941 L22.12499898304194 13.68060898304194 L22.12499898304194 13.68060898304194 L22.93309898304194 12.872508983041941 z"/>
<path fill="#a52a2a" stroke="#a52a2a" d="M24.338838666472004 19.00968787770235 L24.338838666472004 19.00968787770235 L26.234901612588413 17.818312566419756 L26.234901612588413 17.818312566419756 z"/>
<path fill="#a52a2a" stroke="#a52a2a" d="M27.818311421633823 16.234901421633822 L27.818311421633823 16.234901421633822 L26.234901421633822 17.818311421633823 L26.234901421633822 17.818311421633823 z"/>
<path fill="#a52a2a" stroke="#a52a2a" d="M29.00968787770235 14.338838666472004 L29.00968787770235 14.338838666472004 L27.81831256641976 16.234901612588413 L27.81831256641976 16.234901612588413 z"/>
<path fill="#a52a2a" stroke="#a52a2a" d="M24.250000000000007 9.999999999999996 L24.250000000000007 9.999999999999996 L23.973974496103317 8.969858795272748 L23.680608102330417 7.875000508479031 L23.680608102330417 7.875000508479031 L23.973974496103317 8.969858795272748 z"/>
<path fill="#a52a2a" stroke="#a52a2a" d="M30.000000000000007 9.999999999999998 L30.000000000000007 9.999999999999998 L29.749279059346655 7.7747901059861775 L29.749279059346655 7.7747901059861775 z"/>
<path fill="#a52a2a" stroke="#a52a2a" d="M29.74927901172623 12.225209654188053 L29.74927901172623 12.225209654188053 L29.009688009834157 14.338839303610852 L29.009688009834157 14.338839303610852 z"/>
<path fill="#a52a2a" stroke="#a52a2a" d="M22.12499898304193 6.3193910169580665 L22.12499898304193 6.3193910169580665 L23.047058983041932 7.241451016958066 L23.68060898304193 7.875001016958066 L23.68060898304193 7.875001016958066 L23.047058983041932 7.241451016958066 z"/>
<path fill="#a52a2a" stroke="#a52a2a" d="M26.234901612588406 2.1816874335802496 L26.234901612588406 2.1816874335802496 L24.338838666471997 0.9903121222976583 L24.338838666471997 0.9903121222976583 z"/>
<path fill="#a52a2a" stroke="#a52a2a" d="M22.124999491520963 6.319391897669593 L22.124999491520963 6.319391897669593 L20.920531182472843 5.9966555869512685 L19.999999999999996 5.7500000000000036 L19.999999999999996 5.7500000000000036 L20.920531182472843 5.9966555869512685 z"/>
<path fill="#a52a2a" stroke="#a52a2a" d="M22.225209654188046 0.25072098827378303 L22.225209654188046 0.25072098827378303 L24.338839303610847 0.9903119901658548 L24.338839303610847 0.9903119901658548 z"/>
<path fill="#a52a2a" stroke="#a52a2a" d="M16.319391016958075 7.875001016958078 L16.319391016958075 7.875001016958078 L16.895596016958077 7.298796016958076 L17.875001016958077 6.319391016958076 L17.875001016958077 6.319391016958076 L16.895596016958077 7.298796016958076 z"/>
<path fill="#a52a2a" stroke="#a52a2a" d="M15.75000000000001 10.000000000000002 L15.75000000000001 10.000000000000002 L15.987837258981966 9.11237926554643 L16.3193918976696 7.8750005084790375 L16.3193918976696 7.8750005084790375 L15.987837258981966 9.11237926554643 z"/>
<path fill="#a52a2a" stroke="#a52a2a" d="M19.999999999999996 14.250000000000004 L19.999999999999996 14.250000000000004 L17.87500050847903 13.680608102330414 L17.87500050847903 13.680608102330414 z"/>
<path fill="#a52a2a" stroke="#a52a2a" d="M16.31939101695807 12.124998983041927 L16.31939101695807 12.124998983041927 L17.57567101695807 13.381278983041929 L17.875001016958066 13.68060898304193 L17.875001016958066 13.68060898304193 L17.57567101695807 13.381278983041929 z"/>
<path fill="#a52a2a" stroke="#a52a2a" d="M22.225209654188053 19.74927901172623 L22.225209654188053 19.74927901172623 L24.338839303610854 19.009688009834157 L24.338839303610854 19.009688009834157 z"/>
<path fill="#a52a2a" stroke="#a52a2a" d="M20 14.250000000000009 L20 14.250000000000009 L22.124999491520967 13.68060810233042 L22.124999491520967 13.68060810233042 z"/>
<path fill="#a52a2a" stroke="#a52a2a" d="M20 20.000000000000007 L20 20.000000000000007 L22.225209894013823 19.749279059346655 L22.225209894013823 19.749279059346655 z"/>
<path fill="#a52a2a" stroke="#a52a2a" d="M24.250000000000007 10.000000000000002 L24.250000000000007 10.000000000000002 L24.00921579836162 10.898618874174387 L23.68060810233042 12.124999491520969 L23.68060810233042 12.124999491520969 L24.00921579836162 10.898618874174387 z"/>
<path fill="#a52a2a" stroke="#a52a2a" d="M17.774790105986174 19.74927905934665 L17.774790105986174 19.74927905934665 L19.999999999999996 20.000000000000004 L19.999999999999996 20.000000000000004 z"/>
<path fill="#a52a2a" stroke="#a52a2a" d="M-10 16.000000000000004 L-10 16.000000000000004 L17.7747901282421 19.749279049978032 L17.7747901282421 19.749279049978032 z"/>
<path fill="#a52a2a" stroke="#a52a2a" d="M16.319391897669597 12.124999491520963 L16.319391897669597 12.124999491520963 L16.300611376211133 12.054909631245337 L15.920507004200374 10.63634080272209 L15.750000000000021 9.999999999999993 L15.750000000000021 9.999999999999993 L15.920507004200374 10.63634080272209 L16.300611376211133 12.054909631245337 z"/>
<path fill="#a52a2a" stroke="#a52a2a" d="M17.774790128242103 0.2507209500219785 L17.774790128242103 0.2507209500219785 L-9.999999999999998 4.000000000000008 L-9.999999999999998 4.000000000000008 z"/>
<path fill="#a52a2a" stroke="#a52a2a" d="M17.875000508479033 6.319391897669598 L17.875000508479033 6.319391897669598 L20 5.750000000000009 L20 5.750000000000009 z"/>
<path fill="#a52a2a" stroke="#a52a2a" d="M19.999999999999996 6.2564920007247585e-15 L19.999999999999996 6.2564920007247585e-15 L22.22520989401382 0.25072094065335726 L22.22520989401382 0.25072094065335726 z"/>
<path fill="#a52a2a" stroke="#a52a2a" d="M20 7.776214815781804e-15 L20 7.776214815781804e-15 L17.774790105986177 0.25072094065336037 L17.774790105986177 0.25072094065336037 z"/>
<path fill="#a52a2a" stroke="#a52a2a" d="M27.818311421633815 3.7650985783661812 L27.818311421633815 3.7650985783661812 L26.234901421633815 2.1816885783661815 L26.234901421633815 2.1816885783661815 z"/>
<path fill="#a52a2a" stroke="#a52a2a" d="M29.009687877702344 5.661161333527998 L29.009687877702344 5.661161333527998 L27.818312566419753 3.7650983874115886 L27.818312566419753 3.7650983874115886 z"/>
<path fill="#a52a2a" stroke="#a52a2a" d="M29.009688009834154 5.661160696389147 L29.009688009834154 5.661160696389147 L29.749279011726227 7.774790345811949 L29.749279011726227 7.774790345811949 z"/>
<path fill="#a52a2a" stroke="#a52a2a" d="M29.74927905934666 12.225209894013823 L29.74927905934666 12.225209894013823 L30.00000000000001 10 L30.00000000000001 10 z"/>
<path fill="#a52a2a" stroke="#a52a2a" d="M24.00922 10.89862 L24.25 10 L23.97397 8.96986 L23.68061 7.875 L23.04706 7.24145 L22.125 6.31939 L20.92053 5.99666 L20 5.75 L17.875 6.31939 L16.8956 7.2988 L16.31939 7.875 L15.98784 9.11238 L15.75 10 L15.92051 10.63634 L16.30061 12.05491 L16.31939 12.125 L17.57567 13.38128 L17.875 13.68061 L20 14.25 L22.125 13.68061 L22.9331 12.87251 L23.68061 12.125 z"/>
<path fill="#a52a2a" stroke="#a52a2a" d="M-9.476918827607399 9.315040380933446 L-9.476918827607399 9.315040380933446 L-9.564633640673524 9.584998817073464 L-9.564633640673524 9.584998817073464 L-9.564633640673524 9.584998817073464 L-9.564633640673524 9.584998817073464 L-9.564633640673524 9.584998817073464 L-9.564633640673524 9.584998817073464 L-9.564633640673524 9.584998817073464 L-9.564633640673524 9.584998817073464 L-9.564633640673524 9.584998817073464 z"/>
<path fill="#a52a2a" stroke="#a52a2a" d="M-8.43537 9.585000000000006 L-8.43537 9.585000000000006 L-8.43537 9.585000000000006 L-8.43537 9.585000000000006 L-8.43537 9.585000000000006 L-8.95 9.585000000000006 L-9.05 9.585000000000006 L-9.56463 9.585000000000006 L-9.56463 9.585000000000006 L-9.56463 9.585000000000006 L-9.56463 9.585000000000006 L-9.56463 9.585000000000006 L-9.56463 9.585000000000006 L-9.56463 9.585000000000006 L-9.56463 9.585000000000006 L-9.56463 9.585000000000006 L-9.05 9.585000000000006 L-8.95 9.585000000000006 L-8.43537 9.585000000000006 L-8.43537 9.585000000000006 z"/>
<path fill="#a52a2a" stroke="#a52a2a" d="M-9.476919936064764 10.684960087999302 L-9.999999999999991 11.065000000000008 L-9.999999999999991 11.065000000000008 L-9.82563997868825 10.938320029333106 L-9.476919936064764 10.684960087999302 z"/>
<path fill="#a52a2a" stroke="#a52a2a" d="M-9.564633640673529 10.415001182926536 L-9.564633640673529 10.415001182926536 L-9.564633640673529 10.415001182926536 L-9.564633640673529 10.415001182926536 L-9.564633640673529 10.415001182926536 L-9.564633640673529 10.415001182926536 L-9.476918827607404 10.684959619066554 L-9.476918827607404 10.684959619066554 L-9.543517733275912 10.479989263496698 z"/>
<path fill="#a52a2a" stroke="#a52a2a" d="M-8.95 10.415000000000006 L-9.05 10.415000000000006 L-9.56463 10.415000000000006 L-9.56463 10.415000000000006 L-9.56463 10.415000000000006 L-9.56463 10.415000000000006 L-9.56463 10.415000000000006 L-9.56463 10.415000000000006 L-9.05 10.415000000000006 L-8.95 10.415000000000006 L-8.43537 10.415000000000006 L-8.43537 10.415000000000006 L-8.43537 10.415000000000006 L-8.43537 10.415000000000006 z"/>
<path fill="#a52a2a" stroke="#a52a2a" d="M-8.523080063935227 10.684960087999292 L-8.523080063935227 10.684960087999292 L-8.446250188726516 10.740780259759767 L-8.348720042623485 10.811640058666194 L-7.999999999999999 11.064999999999998 L-7.999999999999999 11.064999999999998 z"/>
<path fill="#a52a2a" stroke="#a52a2a" d="M-7.4769188276074 9.315040380933446 L-7.4769188276074 9.315040380933446 L-7.564633640673525 9.584998817073464 L-7.564633640673525 9.584998817073464 L-7.564633640673525 9.584998817073464 L-7.564633640673525 9.584998817073464 L-7.564633640673525 9.584998817073464 L-7.564633640673525 9.584998817073464 L-7.564633640673525 9.584998817073464 z"/>
<path fill="#a52a2a" stroke="#a52a2a" d="M-6.43537 9.585000000000006 L-6.43537 9.585000000000006 L-6.43537 9.585000000000006 L-6.95 9.585000000000006 L-7.05 9.585000000000006 L-7.56463 9.585000000000006 L-7.56463 9.585000000000006 L-7.56463 9.585000000000006 L-7.56463 9.585000000000006 L-7.56463 9.585000000000006 L-7.56463 9.585000000000006 L-7.56463 9.585000000000006 L-7.05 9.585000000000006 L-6.95 9.585000000000006 L-6.43537 9.585000000000006 L-6.43537 9.585000000000006 L-6.43537 9.585000000000006 L-6.43537 9.585000000000006 z"/>
<path fill="#a52a2a" stroke="#a52a2a" d="M-8.43536635932645 10.415001182926542 L-8.43536635932645 10.415001182926542 L-8.43536635932645 10.415001182926542 L-8.523081172392576 10.684959619066559 L-8.523081172392576 10.684959619066559 L-8.43536635932645 10.415001182926542 z"/>
<path fill="#a52a2a" stroke="#a52a2a" d="M-7.476919936064764 10.684960087999302 L-7.476919936064764 10.684960087999302 L-7.999999999999992 11.065000000000008 L-7.999999999999992 11.065000000000008 L-7.825639978688249 10.938320029333106 z"/>
<path fill="#a52a2a" stroke="#a52a2a" d="M-6.95 10.415000000000006 L-7.05 10.415000000000006 L-7.56463 10.415000000000006 L-7.56463 10.415000000000006 L-7.56463 10.415000000000006 L-7.56463 10.415000000000006 L-7.05 10.415000000000006 L-6.95 10.415000000000006 L-6.43537 10.415000000000006 L-6.43537 10.415000000000006 L-6.43537 10.415000000000006 L-6.43537 10.415000000000006 z"/>
<path fill="#a52a2a" stroke="#a52a2a" d="M-7.564633640673529 10.415001182926536 L-7.564633640673529 10.415001182926536 L-7.564633640673529 10.415001182926536 L-7.476918827607404 10.684959619066554 L-7.476918827607404 10.684959619066554 L-7.5435177332759125 10.479989263496698 L-7.564633640673529 10.415001182926536 z"/>
<path fill="#a52a2a" stroke="#a52a2a" d="M-5.999999999999993 8.93500000000001 L-5.999999999999993 8.93500000000001 L-6.099793956932611 9.007504553749492 L-6.174360021311736 9.061679970666912 L-6.523080063935222 9.315039912000715 L-6.523080063935222 9.315039912000715 z"/>
<path fill="#a52a2a" stroke="#a52a2a" d="M-4.95 10.415000000000006 L-5.05 10.415000000000006 L-5.56463 10.415000000000006 L-5.56463 10.415000000000006 L-5.56463 10.415000000000006 L-5.56463 10.415000000000006 L-5.05 10.415000000000006 L-4.95 10.415000000000006 L-4.43537 10.415000000000006 L-4.43537 10.415000000000006 L-4.43537 10.415000000000006 L-4.43537 10.415000000000006 z"/>
<path fill="#a52a2a" stroke="#a52a2a" d="M-5.476919936064764 10.684960087999302 L-5.476919936064764 10.684960087999302 L-5.999999999999992 11.065000000000008 L-5.999999999999992 11.065000000000008 L-5.825639978688249 10.938320029333106 z"/>
<path fill="#a52a2a" stroke="#a52a2a" d="M-5.564633640673529 10.415001182926536 L-5.564633640673529 10.415001182926536 L-5.564633640673529 10.415001182926536 L-5.476918827607404 10.684959619066554 L-5.476918827607404 10.684959619066554 L-5.5435177332759125 10.479989263496698 L-5.564633640673529 10.415001182926536 z"/>
<path fill="#a52a2a" stroke="#a52a2a" d="M-6.4353663593264505 10.415001182926542 L-6.4353663593264505 10.415001182926542 L-6.519770329657836 10.674769892887676 L-6.523081172392576 10.684959619066559 L-6.523081172392576 10.684959619066559 L-6.4353663593264505 10.415001182926542 L-6.4353663593264505 10.415001182926542 z"/>
<path fill="#a52a2a" stroke="#a52a2a" d="M-6.523080063935228 10.684960087999292 L-6.523080063935228 10.684960087999292 L-6.348720042623485 10.811640058666194 L-5.999999999999999 11.064999999999998 L-5.999999999999999 11.064999999999998 z"/>
<path fill="#a52a2a" stroke="#a52a2a" d="M-4.43537 9.585000000000006 L-4.43537 9.585000000000006 L-4.43537 9.585000000000006 L-4.95 9.585000000000006 L-5.05 9.585000000000006 L-5.56463 9.585000000000006 L-5.56463 9.585000000000006 L-5.56463 9.585000000000006 L-5.56463 9.585000000000006 L-5.56463 9.585000000000006 L-5.56463 9.585000000000006 L-5.56463 9.585000000000006 L-5.05 9.585000000000006 L-4.95 9.585000000000006 L-4.43537 9.585000000000006 L-4.43537 9.585000000000006 L-4.43537 9.585000000000006 L-4.43537 9.585000000000006 z"/>
<path fill="#a52a2a" stroke="#a52a2a" d="M-3.999999999999993 8.93500000000001 L-3.999999999999993 8.93500000000001 L-4.174360021311736 9.061679970666912 L-4.213050054404447 9.089789925118701 L-4.523080063935222 9.315039912000715 L-4.523080063935222 9.315039912000715 z"/>
<path fill="#a52a2a" stroke="#a52a2a" d="M-2.95 10.415000000000006 L-3.05 10.415000000000006 L-3.56463 10.415000000000006 L-3.56463 10.415000000000006 L-3.56463 10.415000000000006 L-3.56463 10.415000000000006 L-3.05 10.415000000000006 L-2.95 10.415000000000006 L-2.43537 10.415000000000006 L-2.43537 10.415000000000006 L-2.43537 10.415000000000006 L-2.43537 10.415000000000006 z"/>
<path fill="#a52a2a" stroke="#a52a2a" d="M-3.476919936064764 10.684960087999302 L-3.476919936064764 10.684960087999302 L-3.9999999999999925 11.065000000000008 L-3.9999999999999925 11.065000000000008 L-3.8256399786882493 10.938320029333106 z"/>
<path fill="#a52a2a" stroke="#a52a2a" d="M-3.564633640673529 10.415001182926536 L-3.564633640673529 10.415001182926536 L-3.564633640673529 10.415001182926536 L-3.4769188276074043 10.684959619066554 L-3.4769188276074043 10.684959619066554 L-3.5435177332759125 10.479989263496698 L-3.564633640673529 10.415001182926536 z"/>
<path fill="#a52a2a" stroke="#a52a2a" d="M-4.4353663593264505 10.415001182926542 L-4.4353663593264505 10.415001182926542 L-4.475757053481288 10.539310957381964 L-4.523081172392576 10.684959619066559 L-4.523081172392576 10.684959619066559 L-4.4353663593264505 10.415001182926542 L-4.4353663593264505 10.415001182926542 z"/>
<path fill="#a52a2a" stroke="#a52a2a" d="M-4.523080063935228 10.684960087999292 L-4.523080063935228 10.684960087999292 L-4.348720042623485 10.811640058666194 L-3.9999999999999996 11.064999999999998 L-3.9999999999999996 11.064999999999998 z"/>
<path fill="#a52a2a" stroke="#a52a2a" d="M-2.43537 9.585000000000006 L-2.43537 9.585000000000006 L-2.43537 9.585000000000006 L-2.43537 9.585000000000006 L-2.43537 9.585000000000006 L-2.43537 9.585000000000006 L-2.43537 9.585000000000006 L-2.95 9.585000000000006 L-3.05 9.585000000000006 L-3.56463 9.585000000000006 L-3.56463 9.585000000000006 L-3.56463 9.585000000000006 L-3.56463 9.585000000000006 L-3.56463 9.585000000000006 L-3.56463 9.585000000000006 L-3.56463 9.585000000000006 L-3.05 9.585000000000006 L-2.95 9.585000000000006 z"/>
<path fill="#a52a2a" stroke="#a52a2a" d="M-1.476919936064764 10.684960087999302 L-1.476919936064764 10.684960087999302 L-1.9999999999999925 11.065000000000008 L-1.9999999999999925 11.065000000000008 L-1.9815700850202318 11.05160988297969 L-1.8256399786882493 10.938320029333106 z"/>
<path fill="#a52a2a" stroke="#a52a2a" d="M-1.9999999999999931 8.93500000000001 L-1.9999999999999931 8.93500000000001 L-2.001500088547155 8.936089878125296 L-2.0423391389915295 8.96576118507649 L-2.174360021311736 9.061679970666912 L-2.2980471466059957 9.151543927359919 L-2.5230800639352218 9.315039912000715 L-2.5230800639352218 9.315039912000715 z"/>
<path fill="#a52a2a" stroke="#a52a2a" d="M-2.435366359326451 10.415001182926542 L-2.435366359326451 10.415001182926542 L-2.4619117313672434 10.496699437444681 L-2.523081172392576 10.684959619066559 L-2.523081172392576 10.684959619066559 L-2.435366359326451 10.415001182926542 L-2.435366359326451 10.415001182926542 z"/>
<path fill="#a52a2a" stroke="#a52a2a" d="M-2.5230800639352284 10.684960087999292 L-2.5230800639352284 10.684960087999292 L-2.3487200426234853 10.811640058666194 L-2.0015000885471617 11.063910121874711 L-1.9999999999999998 11.064999999999998 L-1.9999999999999998 11.064999999999998 z"/>
<path fill="#a52a2a" stroke="#a52a2a" d="M-0.95 10.415000000000006 L-1.05 10.415000000000006 L-1.56463 10.415000000000006 L-1.56463 10.415000000000006 L-1.56463 10.415000000000006 L-1.56463 10.415000000000006 L-1.05 10.415000000000006 L-0.95 10.415000000000006 L-0.43537 10.415000000000006 L-0.43537 10.415000000000006 L-0.43537 10.415000000000006 L-0.43537 10.415000000000006 z"/>
<path fill="#a52a2a" stroke="#a52a2a" d="M-1.5646336406735293 10.415001182926536 L-1.5646336406735293 10.415001182926536 L-1.5646336406735293 10.415001182926536 L-1.5646336406735293 10.415001182926536 L-1.4769188276074043 10.684959619066554 L-1.4769188276074043 10.684959619066554 L-1.5435177332759125 10.479989263496698 z"/>
<path fill="#a52a2a" stroke="#a52a2a" d="M-0.5230800639352284 10.684960087999292 L-0.5230800639352284 10.684960087999292 L-0.453600147079353 10.735440202437362 L-0.3487200426234853 10.811640058666194 L-0.15257066883155135 10.954150920567654 L5.1129847806328237e-17 11.064999999999998 L5.1129847806328237e-17 11.064999999999998 z"/>
<path fill="#a52a2a" stroke="#a52a2a" d="M0.5230800639352358 10.684960087999302 L0.5230800639352358 10.684960087999302 L7.336735258369952e-15 11.065000000000008 L7.336735258369952e-15 11.065000000000008 L0.1743600213117504 10.938320029333106 L0.18003026091437072 10.934200359117822 z"/>
<path fill="#a52a2a" stroke="#a52a2a" d="M1.05 10.415000000000006 L0.95 10.415000000000006 L0.43537 10.415000000000006 L0.43537 10.415000000000006 L0.43537 10.415000000000006 L0.43537 10.415000000000006 L0.95 10.415000000000006 L1.05 10.415000000000006 L1.56463 10.415000000000006 L1.56463 10.415000000000006 L1.56463 10.415000000000006 L1.56463 10.415000000000006 z"/>
<path fill="#a52a2a" stroke="#a52a2a" d="M0.4353663593264705 10.415001182926536 L0.4353663593264705 10.415001182926536 L0.4353663593264705 10.415001182926536 L0.4353663593264705 10.415001182926536 L0.5230811723925956 10.684959619066554 L0.5230811723925956 10.684959619066554 L0.47516876784132317 10.537500400352622 L0.45648226672408737 10.479989263496698 z"/>
<path fill="#a52a2a" stroke="#a52a2a" d="M-0.4353663593264512 10.415001182926542 L-0.4353663593264512 10.415001182926542 L-0.4478983064471525 10.453570550268674 L-0.5230811723925761 10.684959619066559 L-0.5230811723925761 10.684959619066559 L-0.4353663593264512 10.415001182926542 L-0.4353663593264512 10.415001182926542 z"/>
<path fill="#a52a2a" stroke="#a52a2a" d="M2.5230800639352355 10.684960087999302 L2.5230800639352355 10.684960087999302 L2.000000000000007 11.065000000000008 L2.000000000000007 11.065000000000008 L2.17436002131175 10.938320029333106 L2.2052420978177305 10.915882887398396 L2.3551896954135887 10.80693958077277 L2.3600670669137065 10.803395962953054 z"/>
<path fill="#a52a2a" stroke="#a52a2a" d="M1.4769199360647713 10.684960087999292 L1.4769199360647713 10.684960087999292 L1.4930325038573693 10.696666553735984 L1.6512799573765147 10.811640058666194 L1.6948699627044503 10.84331005133292 L1.699201898510437 10.846457386924559 L1.8297113919159274 10.941278084192083 L2 11.064999999999998 L2 11.064999999999998 z"/>
<path fill="#a52a2a" stroke="#a52a2a" d="M3.05 10.415000000000006 L2.95 10.415000000000006 L2.43537 10.415000000000006 L2.43537 10.415000000000006 L2.43537 10.415000000000006 L2.43537 10.415000000000006 L2.95 10.415000000000006 L3.05 10.415000000000006 L3.56463 10.415000000000006 L3.56463 10.415000000000006 L3.56463 10.415000000000006 L3.56463 10.415000000000006 z"/>
<path fill="#a52a2a" stroke="#a52a2a" d="M2.4353663593264705 10.415001182926536 L2.4353663593264705 10.415001182926536 L2.4353663593264705 10.415001182926536 L2.523081172392595 10.684959619066554 L2.523081172392595 10.684959619066554 L2.469489133000312 10.520020281705275 L2.456482266724087 10.479989263496698 L2.4353663593264705 10.415001182926536 z"/>
<path fill="#a52a2a" stroke="#a52a2a" d="M1.5646336406735486 10.415001182926542 L1.5646336406735486 10.415001182926542 L1.5646336406735486 10.415001182926542 L1.5535675218059013 10.449059194785924 L1.4769188276074237 10.684959619066559 L1.4769188276074237 10.684959619066559 L1.5646336406735486 10.415001182926542 z"/>
<path fill="#a52a2a" stroke="#a52a2a" d="M3.476919936064771 10.684960087999292 L3.476919936064771 10.684960087999292 L3.542299293872898 10.732460971900576 L3.5460697383346194 10.735200360151499 L3.6512799573765142 10.811640058666194 L3.659418028549273 10.817552713469137 L3.682197724787545 10.834103131561287 L3.8073266469888103 10.92501461502398 L4 11.064999999999998 L4 11.064999999999998 z"/>
<path fill="#a52a2a" stroke="#a52a2a" d="M4.17436002131175 10.938320029333106 L4.238656842618978 10.891605654237845 L4.384629975012564 10.785549965607746 L4.410479440352873 10.766769229711812 L4.523080063935235 10.684960087999302 L4.523080063935235 10.684960087999302 L4.000000000000007 11.065000000000008 L4.000000000000007 11.065000000000008 z"/>
<path fill="#a52a2a" stroke="#a52a2a" d="M3.5646336406735486 10.415001182926542 L3.5646336406735486 10.415001182926542 L3.555377343353626 10.443489136803267 L3.491517599241237 10.640029219946191 L3.4769188276074234 10.684959619066559 L3.4769188276074234 10.684959619066559 L3.5646336406735486 10.415001182926542 L3.5646336406735486 10.415001182926542 z"/>
<path fill="#a52a2a" stroke="#a52a2a" d="M5.05 10.415000000000006 L4.95 10.415000000000006 L4.43537 10.415000000000006 L4.43537 10.415000000000006 L4.43537 10.415000000000006 L4.43537 10.415000000000006 L4.95 10.415000000000006 L5.05 10.415000000000006 L5.56463 10.415000000000006 L5.56463 10.415000000000006 L5.56463 10.415000000000006 L5.56463 10.415000000000006 z"/>
<path fill="#a52a2a" stroke="#a52a2a" d="M4.43536635932647 10.415001182926536 L4.43536635932647 10.415001182926536 L4.43536635932647 10.415001182926536 L4.43536635932647 10.415001182926536 L4.523081172392595 10.684959619066554 L4.523081172392595 10.684959619066554 L4.520335178068925 10.676508317543417 L4.519465423138435 10.67383148711247 L4.462909473232344 10.499770171157186 L4.456482266724087 10.479989263496698 z"/>
<path fill="#a52a2a" stroke="#a52a2a" d="M7.0500000000000105 10.415 L7.0500000000000105 10.415 L7.0500000000000105 10.33743 L7.0500000000000105 10.28429 L7.0500000000000105 10.24561 L7.0500000000000105 10.2162 L7.0500000000000105 10.19307 L7.0500000000000105 10.17442 L7.0500000000000105 10.15905 L7.0500000000000105 10.14617 L7.0500000000000105 10.13833 L7.0500000000000105 10.11248 L7.0500000000000105 10.09476 L7.0500000000000105 10.08187 L7.0500000000000105 10.07207 L7.0500000000000105 10.06436 L7.0500000000000105 10.05814 L7.0500000000000105 10.05302 L7.0500000000000105 10.04872 L7.0500000000000105 9.85383 L7.0500000000000105 9.84095 L7.0500000000000105 9.82558 L7.0500000000000105 9.80693 L7.0500000000000105 9.7838 L7.0500000000000105 9.75439 L7.0500000000000105 9.71571 L7.0500000000000105 9.66257 L7.0500000000000105 9.585 L7.0500000000000105 9.585 z"/>
<path fill="#a52a2a" stroke="#a52a2a" d="M5.56463 9.585000000000006 L5.56463 9.585000000000006 L5.56463 9.585000000000006 L5.56463 9.585000000000006 L5.05 9.585000000000006 L4.95 9.585000000000006 L4.43537 9.585000000000006 L4.43537 9.585000000000006 L4.43537 9.585000000000006 L4.43537 9.585000000000006 L4.43537 9.585000000000006 L4.43537 9.585000000000006 L4.43537 9.585000000000006 L4.95 9.585000000000006 L5.05 9.585000000000006 L5.56463 9.585000000000006 z"/>
<path fill="#a52a2a" stroke="#a52a2a" d="M5.564633640673549 10.415001182926542 L5.564633640673549 10.415001182926542 L5.557774495626307 10.436111460717532 L5.513572618341059 10.572150850750582 L5.499643244823992 10.615021054307224 L5.498818454521274 10.617559497843521 L5.496209263910979 10.625589760830179 L5.476918827607423 10.684959619066559 L5.476918827607423 10.684959619066559 L5.564633640673549 10.415001182926542 L5.564633640673549 10.415001182926542 z"/>
<path fill="#a52a2a" stroke="#a52a2a" d="M6.523080063935235 10.684960087999302 L6.523080063935235 10.684960087999302 L6.000000000000007 11.065000000000008 L6.000000000000007 11.065000000000008 L6.17436002131175 10.938320029333106 L6.285067394838185 10.857886414302376 L6.425520772012125 10.755841062583531 L6.477311895435558 10.718212608843233 z"/>
<path fill="#a52a2a" stroke="#a52a2a" d="M5.476919936064771 10.684960087999292 L5.476919936064771 10.684960087999292 L5.4891294204652 10.69383079766122 L5.508457486460225 10.7078734595907 L5.61465150417523 10.785027929680407 L5.651279957376514 10.811640058666194 L5.659898627518274 10.817901889059033 L5.778169490703258 10.903830700986827 L6 11.064999999999998 L6 11.064999999999998 z"/>
<path fill="#a52a2a" stroke="#a52a2a" d="M6.43536635932647 10.415001182926536 L6.43536635932647 10.415001182926536 L6.43536635932647 10.415001182926536 L6.523081172392595 10.684959619066554 L6.523081172392595 10.684959619066554 L6.508076838374974 10.638781027274243 L6.503673475763289 10.625228870656047 L6.4842042100448465 10.565308632073506 L6.48193702871799 10.558330965428047 L6.481221711058443 10.556129444043409 L6.456482266724087 10.479989263496698 L6.455134653711811 10.475841737114333 L6.43536635932647 10.415001182926536 z"/>
<path fill="#a52a2a" stroke="#a52a2a" d="M7.05 10.415000000000006 L6.43537 10.415000000000006 L6.43537 10.415000000000006 L6.43537 10.415000000000006 L6.43537 10.415000000000006 L7.05 10.415000000000006 z"/>
<path fill="#a52a2a" stroke="#a52a2a" d="M-9.999999999999998 8.934999999999999 L-9.999999999999998 8.934999999999999 L-9.47691993606477 9.315039912000705 L-9.47691993606477 9.315039912000705 L-9.651279957376513 9.188359941333804 L-9.675982049490791 9.170412820882074 z"/>
<path fill="#a52a2a" stroke="#a52a2a" d="M-8.435366359326455 9.584998817073458 L-8.52308117239258 9.31504038093344 L-8.52308117239258 9.31504038093344 L-8.456482266724072 9.520010736503295 L-8.435366359326455 9.584998817073458 L-8.435366359326455 9.584998817073458 L-8.435366359326455 9.584998817073458 L-8.435366359326455 9.584998817073458 L-8.435366359326455 9.584998817073458 L-8.435366359326455 9.584998817073458 z"/>
<path fill="#a52a2a" stroke="#a52a2a" d="M-7.999999999999999 8.934999999999999 L-7.999999999999999 8.934999999999999 L-7.47691993606477 9.315039912000705 L-7.47691993606477 9.315039912000705 L-7.651279957376514 9.188359941333804 L-7.88982021671517 9.01505029828284 z"/>
<path fill="#a52a2a" stroke="#a52a2a" d="M-7.999999999999993 8.93500000000001 L-7.999999999999993 8.93500000000001 L-8.174360021311735 9.061679970666912 L-8.523080063935222 9.315039912000715 L-8.523080063935222 9.315039912000715 z"/>
<path fill="#a52a2a" stroke="#a52a2a" d="M-6.435366359326455 9.584998817073458 L-6.52308117239258 9.31504038093344 L-6.52308117239258 9.31504038093344 L-6.4564822667240716 9.520010736503295 L-6.435366359326455 9.584998817073458 L-6.435366359326455 9.584998817073458 L-6.435366359326455 9.584998817073458 L-6.435366359326455 9.584998817073458 L-6.435366359326455 9.584998817073458 L-6.435366359326455 9.584998817073458 z"/>
<path fill="#a52a2a" stroke="#a52a2a" d="M-5.4769188276074 9.315040380933446 L-5.4769188276074 9.315040380933446 L-5.564633640673525 9.584998817073464 L-5.564633640673525 9.584998817073464 L-5.564633640673525 9.584998817073464 L-5.564633640673525 9.584998817073464 L-5.564633640673525 9.584998817073464 L-5.564633640673525 9.584998817073464 L-5.564633640673525 9.584998817073464 z"/>
<path fill="#a52a2a" stroke="#a52a2a" d="M-5.999999999999999 8.934999999999999 L-5.999999999999999 8.934999999999999 L-5.47691993606477 9.315039912000705 L-5.47691993606477 9.315039912000705 L-5.651279957376514 9.188359941333804 z"/>
<path fill="#a52a2a" stroke="#a52a2a" d="M-3.4769188276074 9.315040380933446 L-3.4769188276074 9.315040380933446 L-3.564633640673525 9.584998817073464 L-3.564633640673525 9.584998817073464 L-3.564633640673525 9.584998817073464 L-3.564633640673525 9.584998817073464 L-3.564633640673525 9.584998817073464 L-3.564633640673525 9.584998817073464 L-3.564633640673525 9.584998817073464 z"/>
<path fill="#a52a2a" stroke="#a52a2a" d="M-4.435366359326455 9.584998817073458 L-4.52308117239258 9.31504038093344 L-4.52308117239258 9.31504038093344 L-4.4564822667240716 9.520010736503295 L-4.435366359326455 9.584998817073458 L-4.435366359326455 9.584998817073458 L-4.435366359326455 9.584998817073458 L-4.435366359326455 9.584998817073458 L-4.435366359326455 9.584998817073458 L-4.435366359326455 9.584998817073458 z"/>
<path fill="#a52a2a" stroke="#a52a2a" d="M-3.999999999999999 8.934999999999999 L-3.999999999999999 8.934999999999999 L-3.4769199360647707 9.315039912000705 L-3.4769199360647707 9.315039912000705 L-3.651279957376514 9.188359941333804 z"/>
<path fill="#a52a2a" stroke="#a52a2a" d="M-0.43537 9.585000000000006 L-0.43537 9.585000000000006 L-0.43537 9.585000000000006 L-0.95 9.585000000000006 L-1.05 9.585000000000006 L-1.56463 9.585000000000006 L-1.56463 9.585000000000006 L-1.56463 9.585000000000006 L-1.56463 9.585000000000006 L-1.56463 9.585000000000006 L-1.56463 9.585000000000006 L-1.56463 9.585000000000006 L-1.05 9.585000000000006 L-0.95 9.585000000000006 L-0.43537 9.585000000000006 L-0.43537 9.585000000000006 L-0.43537 9.585000000000006 L-0.43537 9.585000000000006 z"/>
<path fill="#a52a2a" stroke="#a52a2a" d="M-1.4769188276074001 9.315040380933446 L-1.4769188276074001 9.315040380933446 L-1.564633640673525 9.584998817073464 L-1.564633640673525 9.584998817073464 L-1.564633640673525 9.584998817073464 L-1.564633640673525 9.584998817073464 L-1.564633640673525 9.584998817073464 L-1.564633640673525 9.584998817073464 L-1.564633640673525 9.584998817073464 L-1.4778774826972316 9.31799081792125 z"/>
<path fill="#a52a2a" stroke="#a52a2a" d="M-2.435366359326455 9.584998817073458 L-2.52308117239258 9.31504038093344 L-2.52308117239258 9.31504038093344 L-2.456482266724072 9.520010736503295 L-2.435366359326455 9.584998817073458 L-2.435366359326455 9.584998817073458 L-2.435366359326455 9.584998817073458 L-2.435366359326455 9.584998817073458 L-2.435366359326455 9.584998817073458 L-2.435366359326455 9.584998817073458 z"/>
<path fill="#a52a2a" stroke="#a52a2a" d="M-0.43536635932645534 9.584998817073458 L-0.5230811723925803 9.31504038093344 L-0.5230811723925803 9.31504038093344 L-0.5129180173781506 9.346319355807111 L-0.511822558574944 9.349690831331394 L-0.45648226672407216 9.520010736503295 L-0.43536635932645534 9.584998817073458 L-0.43536635932645534 9.584998817073458 L-0.43536635932645534 9.584998817073458 L-0.43536635932645534 9.584998817073458 L-0.43536635932645534 9.584998817073458 L-0.43536635932645534 9.584998817073458 z"/>
<path fill="#a52a2a" stroke="#a52a2a" d="M-1.9999999999999993 8.934999999999999 L-1.9999999999999993 8.934999999999999 L-1.476919936064771 9.315039912000705 L-1.476919936064771 9.315039912000705 L-1.651279957376514 9.188359941333804 L-1.9815700850202385 8.948390117020319 z"/>
<path fill="#a52a2a" stroke="#a52a2a" d="M1.56463 9.585000000000006 L1.56463 9.585000000000006 L1.56463 9.585000000000006 L1.56463 9.585000000000006 L1.05 9.585000000000006 L0.95 9.585000000000006 L0.43537 9.585000000000006 L0.43537 9.585000000000006 L0.43537 9.585000000000006 L0.43537 9.585000000000006 L0.43537 9.585000000000006 L0.43537 9.585000000000006 L0.43537 9.585000000000006 L0.95 9.585000000000006 L1.05 9.585000000000006 L1.56463 9.585000000000006 L1.56463 9.585000000000006 L1.56463 9.585000000000006 z"/>
<path fill="#a52a2a" stroke="#a52a2a" d="M0.5230811723925997 9.315040380933446 L0.5230811723925997 9.315040380933446 L0.4353663593264747 9.584998817073464 L0.4353663593264747 9.584998817073464 L0.4353663593264747 9.584998817073464 L0.4353663593264747 9.584998817073464 L0.4353663593264747 9.584998817073464 L0.4353663593264747 9.584998817073464 L0.4353663593264747 9.584998817073464 L0.5085283203015872 9.359829454232901 L0.5220648420549211 9.318168324082052 z"/>
<path fill="#a52a2a" stroke="#a52a2a" d="M1.5646336406735446 9.584998817073458 L1.4769188276074194 9.31504038093344 L1.4769188276074194 9.31504038093344 L1.4870819826218493 9.346319355807111 L1.510577408734578 9.418630841953172 L1.5250257111199141 9.463098144344652 L1.5435177332759278 9.520010736503295 L1.5646336406735446 9.584998817073458 L1.5646336406735446 9.584998817073458 L1.5646336406735446 9.584998817073458 L1.5646336406735446 9.584998817073458 L1.5646336406735446 9.584998817073458 L1.5646336406735446 9.584998817073458 z"/>
<path fill="#a52a2a" stroke="#a52a2a" d="M2.0000000000000067 8.93500000000001 L2.0000000000000067 8.93500000000001 L1.8262193154850543 9.061259057846005 L1.8256399786882636 9.061679970666912 L1.792463155730227 9.08578434349003 L1.5828486759188847 9.238078177558691 L1.4769199360647782 9.315039912000715 L1.4769199360647782 9.315039912000715 z"/>
<path fill="#a52a2a" stroke="#a52a2a" d="M6.808792837314614e-15 8.93500000000001 L6.808792837314614e-15 8.93500000000001 L-0.09684077111089122 9.00535893865691 L-0.1337993388982025 9.03221090992856 L-0.1743600213117363 9.061679970666912 L-0.36420152706410114 9.199607898176579 L-0.5230800639352217 9.315039912000715 L-0.5230800639352217 9.315039912000715 z"/>
<path fill="#a52a2a" stroke="#a52a2a" d="M5.790722688616656e-16 8.934999999999999 L5.790722688616656e-16 8.934999999999999 L0.523080063935229 9.315039912000705 L0.523080063935229 9.315039912000705 L0.3487200426234859 9.188359941333804 z"/>
<path fill="#a52a2a" stroke="#a52a2a" d="M3.56463 9.585000000000006 L3.56463 9.585000000000006 L3.56463 9.585000000000006 L3.56463 9.585000000000006 L3.56463 9.585000000000006 L3.05 9.585000000000006 L2.95 9.585000000000006 L2.43537 9.585000000000006 L2.43537 9.585000000000006 L2.43537 9.585000000000006 L2.43537 9.585000000000006 L2.43537 9.585000000000006 L2.43537 9.585000000000006 L2.43537 9.585000000000006 L2.95 9.585000000000006 L3.05 9.585000000000006 L3.56463 9.585000000000006 L3.56463 9.585000000000006 z"/>
<path fill="#a52a2a" stroke="#a52a2a" d="M2.5230811723925997 9.315040380933446 L2.5230811723925997 9.315040380933446 L2.4353663593264745 9.584998817073464 L2.4353663593264745 9.584998817073464 L2.4353663593264745 9.584998817073464 L2.4353663593264745 9.584998817073464 L2.4353663593264745 9.584998817073464 L2.4353663593264745 9.584998817073464 L2.4353663593264745 9.584998817073464 L2.4986182744112546 9.39032943932223 L2.510399710938449 9.354069906078207 z"/>
<path fill="#a52a2a" stroke="#a52a2a" d="M3.5646336406735446 9.584998817073458 L3.4769188276074194 9.31504038093344 L3.4769188276074194 9.31504038093344 L3.487081982621849 9.346319355807111 L3.510577408734578 9.418630841953172 L3.525025711119914 9.463098144344652 L3.5435177332759276 9.520010736503295 L3.5646336406735446 9.584998817073458 L3.5646336406735446 9.584998817073458 L3.5646336406735446 9.584998817073458 L3.5646336406735446 9.584998817073458 L3.5646336406735446 9.584998817073458 L3.5646336406735446 9.584998817073458 z"/>
<path fill="#a52a2a" stroke="#a52a2a" d="M2.0000000000000004 8.934999999999999 L2.0000000000000004 8.934999999999999 L2.523080063935229 9.315039912000705 L2.523080063935229 9.315039912000705 L2.3487200426234858 9.188359941333804 z"/>
<path fill="#a52a2a" stroke="#a52a2a" d="M4.523081172392599 9.315040380933446 L4.523081172392599 9.315040380933446 L4.4353663593264745 9.584998817073464 L4.4353663593264745 9.584998817073464 L4.4353663593264745 9.584998817073464 L4.4353663593264745 9.584998817073464 L4.4353663593264745 9.584998817073464 L4.4353663593264745 9.584998817073464 L4.4353663593264745 9.584998817073464 L4.4910731267859045 9.413551015954326 L4.5015030564595335 9.381450993103902 z"/>
<path fill="#a52a2a" stroke="#a52a2a" d="M4.000000000000006 8.93500000000001 L4.000000000000006 8.93500000000001 L3.8256399786882636 9.061679970666912 L3.762809344825538 9.107329098229714 L3.7317589384840577 9.129888538948649 L3.5395191931692653 9.269558889492764 L3.476919936064778 9.315039912000715 L3.476919936064778 9.315039912000715 z"/>
<path fill="#a52a2a" stroke="#a52a2a" d="M5.564633640673544 9.584998817073458 L5.476918827607419 9.31504038093344 L5.476918827607419 9.31504038093344 L5.487081982621849 9.346319355807111 L5.510577408734577 9.418630841953172 L5.5250257111199135 9.463098144344652 L5.543517733275928 9.520010736503295 L5.564633640673544 9.584998817073458 L5.564633640673544 9.584998817073458 L5.564633640673544 9.584998817073458 L5.564633640673544 9.584998817073458 z"/>
<path fill="#a52a2a" stroke="#a52a2a" d="M4 8.934999999999999 L4 8.934999999999999 L4.523080063935229 9.315039912000705 L4.523080063935229 9.315039912000705 L4.348720042623485 9.188359941333804 z"/>
<path fill="#a52a2a" stroke="#a52a2a" d="M6.43537 9.585000000000006 L6.43537 9.585000000000006 L6.43537 9.585000000000006 L6.43537 9.585000000000006 L7.05 9.585000000000006 L7.05 9.585000000000006 L6.43537 9.585000000000006 z"/>
<path fill="#a52a2a" stroke="#a52a2a" d="M6.523081172392599 9.315040380933446 L6.523081172392599 9.315040380933446 L6.4353663593264745 9.584998817073464 L6.4353663593264745 9.584998817073464 L6.4353663593264745 9.584998817073464 L6.4353663593264745 9.584998817073464 L6.4353663593264745 9.584998817073464 L6.494491458152582 9.403030473782493 z"/>
<path fill="#a52a2a" stroke="#a52a2a" d="M6.000000000000006 8.93500000000001 L6.000000000000006 8.93500000000001 L5.8256399786882636 9.061679970666912 L5.709650771785393 9.14595106227146 L5.503389184389508 9.295808877408465 L5.476919936064777 9.315039912000715 L5.476919936064777 9.315039912000715 z"/>
<path fill="#a52a2a" stroke="#a52a2a" d="M6 8.934999999999999 L6 8.934999999999999 L6.523080063935229 9.315039912000705 L6.523080063935229 9.315039912000705 L6.348720042623485 9.188359941333804 z"/>
</svg>