<?xml version="1.0" encoding="UTF-8"?>
<!-- Generated by jsxcad -->
<!DOCTYPE svg PUBLIC "-//W3C//DTD SVG 1.1 Tiny//EN" "http://www.w3.org/Graphics/SVG/1.1/DTD/svg11-tiny.dtd">
<svg baseProfile="tiny" height="20.00000mm" width="40.00000mm" viewBox="-0.00000 -0.00000 40.00000 20.00000" version="1.1" stroke="black" stroke-width=".1" fill="none" xmlns="http://www.w3.org/2000/svg">
<path fill="#000000" stroke="#000000" d="M0.00000 4.00000 L0.00311 3.99958 L14.38054 2.03849 L21.56770 1.05815 L28.75486 0.07782 L29.22042 0.03409 L29.37561 0.01951 L29.84390 0.00488 L30.00000 0.00000 L30.46829 0.01463 L30.62439 0.01951 L31.08995 0.06324 L31.24514 0.07782 L31.71390 0.15178 L31.87015 0.17643 L32.33888 0.28132 L32.49512 0.31628 L32.93459 0.44394 L33.08108 0.48649 L33.52738 0.64679 L33.67615 0.70022 L34.11696 0.89101 L34.26389 0.95460 L34.68389 1.16897 L34.82389 1.24043 L35.22229 1.47613 L35.35509 1.55470 L35.74062 1.81630 L35.86913 1.90350 L36.24774 2.19684 L36.37394 2.29462 L36.72211 2.60125 L36.83817 2.70346 L37.18195 3.04724 L37.29654 3.16183 L37.60317 3.51001 L37.70538 3.62606 L37.99872 4.00466 L38.09650 4.13087 L38.35810 4.51640 L38.44530 4.64491 L38.68100 5.04331 L38.75957 5.17611 L38.97394 5.59611 L39.04540 5.73611 L39.23619 6.17691 L39.29978 6.32385 L39.46008 6.77015 L39.51351 6.91892 L39.64117 7.35839 L39.68372 7.50488 L39.78861 7.97361 L39.82357 8.12985 L39.89753 8.59861 L39.92218 8.75486 L39.96591 9.22042 L39.98049 9.37561 L39.99512 9.84390 L40.00000 10.00000 L39.98537 10.46829 L39.98049 10.62439 L39.93676 11.08995 L39.92218 11.24514 L39.84822 11.71390 L39.82357 11.87015 L39.71868 12.33888 L39.68372 12.49512 L39.55606 12.93459 L39.51351 13.08108 L39.35321 13.52738 L39.29978 13.67615 L39.10899 14.11696 L39.04540 14.26389 L38.83103 14.68389 L38.75957 14.82389 L38.52387 15.22229 L38.44530 15.35509 L38.18370 15.74062 L38.09650 15.86913 L37.80316 16.24774 L37.70538 16.37394 L37.39875 16.72211 L37.29654 16.83817 L36.95276 17.18195 L36.83817 17.29654 L36.48999 17.60317 L36.37394 17.70538 L35.99534 17.99872 L35.86913 18.09650 L35.48360 18.35810 L35.35509 18.44530 L34.95669 18.68100 L34.82389 18.75957 L34.40389 18.97394 L34.26389 19.04540 L33.82309 19.23619 L33.67615 19.29978 L33.22985 19.46008 L33.08108 19.51351 L32.64161 19.64117 L32.49512 19.68372 L32.02639 19.78861 L31.87015 19.82357 L31.40139 19.89753 L31.24514 19.92218 L30.77958 19.96591 L30.62439 19.98049 L30.15610 19.99512 L30.00000 20.00000 L29.53171 19.98537 L29.37561 19.98049 L28.91005 19.93676 L28.75486 19.92218 L7.18872 16.98054 L0.00311 16.00042 L0.00000 16.00000 L0.00000 10.69398 L0.00000 4.69398 z M13.00000 10.00000 L13.00976 10.31220 L13.03891 10.62257 L13.08821 10.93507 L13.15814 11.24756 L13.24324 11.54054 L13.35011 11.83807 L13.47730 12.13195 L13.62021 12.41194 L13.77735 12.67754 L13.95175 12.93457 L14.14731 13.18697 L14.35173 13.41908 L14.58092 13.64827 L14.81303 13.85269 L15.06543 14.04825 L15.32246 14.22265 L15.58806 14.37979 L15.86805 14.52270 L16.16193 14.64989 L16.45946 14.75676 L16.75244 14.84186 L17.06493 14.91179 L17.37743 14.96109 L17.68780 14.99024 L18.00000 15.00000 L18.31220 14.99024 L18.62257 14.96109 L18.93507 14.91179 L19.24756 14.84186 L19.54054 14.75676 L19.83807 14.64989 L20.13195 14.52270 L20.41194 14.37979 L20.67754 14.22265 L20.93457 14.04825 L21.18697 13.85269 L21.41908 13.64827 L21.64827 13.41908 L21.85269 13.18697 L22.04825 12.93457 L22.22265 12.67754 L22.37979 12.41194 L22.52270 12.13195 L22.64989 11.83807 L22.75676 11.54054 L22.84186 11.24756 L22.91179 10.93507 L22.96109 10.62257 L22.99024 10.31220 L23.00000 10.00000 L22.99024 9.68780 L22.96109 9.37743 L22.91179 9.06493 L22.84186 8.75244 L22.75676 8.45946 L22.64989 8.16193 L22.52270 7.86805 L22.37979 7.58806 L22.22265 7.32246 L22.04825 7.06543 L21.85269 6.81303 L21.64827 6.58092 L21.41908 6.35173 L21.18697 6.14731 L20.93457 5.95175 L20.67754 5.77735 L20.41194 5.62021 L20.13195 5.47730 L19.83807 5.35011 L19.54054 5.24324 L19.24756 5.15814 L18.93507 5.08821 L18.62257 5.03891 L18.31220 5.00976 L18.00000 5.00000 L17.68780 5.00976 L17.37743 5.03891 L17.06493 5.08821 L16.75244 5.15814 L16.45946 5.24324 L16.16193 5.35011 L15.86805 5.47730 L15.58806 5.62021 L15.32246 5.77735 L15.06543 5.95175 L14.81303 6.14731 L14.58092 6.35173 L14.35173 6.58092 L14.14731 6.81303 L13.95175 7.06543 L13.77735 7.32246 L13.62021 7.58806 L13.47730 7.86805 L13.35011 8.16193 L13.24324 8.45946 L13.15814 8.75244 L13.08821 9.06493 L13.03891 9.37743 L13.00976 9.68780 z M7.50000 14.00000 L7.49512 13.84390 L7.48054 13.68872 L7.45589 13.53246 L7.42093 13.37622 L7.37838 13.22973 L7.32495 13.08096 L7.26135 12.93403 L7.18989 12.79403 L7.11132 12.66123 L7.02412 12.53272 L6.92635 12.40652 L6.82413 12.29046 L6.70954 12.17587 L6.59348 12.07365 L6.46728 11.97588 L6.33877 11.88868 L6.20597 11.81011 L6.06597 11.73865 L5.91904 11.67505 L5.77027 11.62162 L5.62378 11.57907 L5.46754 11.54411 L5.31128 11.51946 L5.15610 11.50488 L5.00000 11.50000 L4.84390 11.50488 L4.68872 11.51946 L4.53246 11.54411 L4.37622 11.57907 L4.22973 11.62162 L4.08096 11.67505 L3.93403 11.73865 L3.79403 11.81011 L3.66123 11.88868 L3.53272 11.97588 L3.40652 12.07365 L3.29046 12.17587 L3.17587 12.29046 L3.07365 12.40652 L2.97588 12.53272 L2.88868 12.66123 L2.81011 12.79403 L2.73865 12.93403 L2.67505 13.08096 L2.62162 13.22973 L2.57907 13.37622 L2.54411 13.53246 L2.51946 13.68872 L2.50488 13.84390 L2.50000 14.00000 L2.50488 14.15610 L2.51946 14.31128 L2.54411 14.46754 L2.57907 14.62378 L2.62162 14.77027 L2.67505 14.91904 L2.73865 15.06597 L2.81011 15.20597 L2.88868 15.33877 L2.97588 15.46728 L3.07365 15.59348 L3.17587 15.70954 L3.29046 15.82413 L3.40652 15.92635 L3.53272 16.02412 L3.66123 16.11132 L3.79403 16.18989 L3.93403 16.26135 L4.08096 16.32495 L4.22973 16.37838 L4.37622 16.42093 L4.53246 16.45589 L4.68872 16.48054 L4.84390 16.49512 L5.00000 16.50000 L5.15610 16.49512 L5.31128 16.48054 L5.46754 16.45589 L5.62378 16.42093 L5.77027 16.37838 L5.91904 16.32495 L6.06597 16.26135 L6.20597 16.18989 L6.33877 16.11132 L6.46728 16.02412 L6.59348 15.92635 L6.70954 15.82413 L6.82413 15.70954 L6.92635 15.59348 L7.02412 15.46728 L7.11132 15.33877 L7.18989 15.20597 L7.26135 15.06597 L7.32495 14.91904 L7.37838 14.77027 L7.42093 14.62378 L7.45589 14.46754 L7.48054 14.31128 L7.49512 14.15610 z M6.49897 6.05554 L6.49897 5.94446 L6.49110 5.83685 L6.47485 5.72645 L6.45087 5.61924 L6.42016 5.51714 L6.38005 5.41224 L6.33348 5.31310 L6.28009 5.21810 L6.21908 5.12601 L6.15392 5.04164 L6.07860 4.95759 L6.00075 4.88264 L5.91742 4.81327 L5.82883 4.74978 L5.73274 4.69115 L5.63529 4.64118 L5.53714 4.59947 L5.43184 4.56351 L5.32487 4.53560 L5.21834 4.51598 L5.11096 4.50411 L5.00000 4.50000 L4.88904 4.50411 L4.78166 4.51598 L4.67513 4.53560 L4.56816 4.56351 L4.46286 4.59947 L4.36471 4.64118 L4.26726 4.69115 L4.17117 4.74978 L4.08258 4.81327 L3.99925 4.88264 L3.92140 4.95759 L3.84608 5.04164 L3.78092 5.12601 L3.71991 5.21810 L3.66652 5.31310 L3.61995 5.41224 L3.57984 5.51714 L3.54913 5.61924 L3.52515 5.72645 L3.50890 5.83685 L3.50103 5.94446 L3.50103 6.05554 L3.50890 6.16315 L3.52515 6.27355 L3.54913 6.38076 L3.57984 6.48286 L3.61995 6.58776 L3.66652 6.68690 L3.71991 6.78190 L3.78092 6.87399 L3.84608 6.95836 L3.92140 7.04241 L3.99925 7.11736 L4.08258 7.18673 L4.17117 7.25022 L4.26726 7.30885 L4.36471 7.35882 L4.46286 7.40053 L4.56816 7.43649 L4.67513 7.46440 L4.78166 7.48402 L4.88904 7.49589 L5.00000 7.50000 L5.11096 7.49589 L5.21834 7.48402 L5.32487 7.46440 L5.43184 7.43649 L5.53714 7.40053 L5.63529 7.35882 L5.73274 7.30885 L5.82883 7.25022 L5.91742 7.18673 L6.00075 7.11736 L6.07860 7.04241 L6.15392 6.95836 L6.21908 6.87399 L6.28009 6.78190 L6.33348 6.68690 L6.38005 6.58776 L6.42016 6.48286 L6.45087 6.38076 L6.47485 6.27355 L6.49110 6.16315 z"/>
<path fill="#000000" stroke="#000000" d="M7.49512 14.15610 L7.48054 14.31128 L7.45589 14.46754 L7.42093 14.62378 L7.37838 14.77027 L7.32495 14.91904 L7.26135 15.06597 L7.18989 15.20597 L7.11132 15.33877 L7.02412 15.46728 L6.92635 15.59348 L6.82413 15.70954 L6.70954 15.82413 L6.59348 15.92635 L6.46728 16.02412 L6.33877 16.11132 L6.20597 16.18989 L6.06597 16.26135 L5.91904 16.32495 L5.77027 16.37838 L5.62378 16.42093 L5.46754 16.45589 L5.31128 16.48054 L5.15610 16.49512 L5.00000 16.50000 L4.84390 16.49512 L4.68872 16.48054 L4.53246 16.45589 L4.37622 16.42093 L4.22973 16.37838 L4.08096 16.32495 L3.93403 16.26135 L3.79403 16.18989 L3.66123 16.11132 L3.53272 16.02412 L3.40652 15.92635 L3.29046 15.82413 L3.17587 15.70954 L3.07365 15.59348 L2.97588 15.46728 L2.88868 15.33877 L2.81011 15.20597 L2.73865 15.06597 L2.67505 14.91904 L2.62162 14.77027 L2.57907 14.62378 L2.54411 14.46754 L2.51946 14.31128 L2.50488 14.15610 L2.50000 14.00000 L2.50488 13.84390 L2.51946 13.68872 L2.54411 13.53246 L2.57907 13.37622 L2.62162 13.22973 L2.67505 13.08096 L2.73865 12.93403 L2.81011 12.79403 L2.88868 12.66123 L2.97588 12.53272 L3.07365 12.40652 L3.17587 12.29046 L3.29046 12.17587 L3.40652 12.07365 L3.53272 11.97588 L3.66123 11.88868 L3.79403 11.81011 L3.93403 11.73865 L4.08096 11.67505 L4.22973 11.62162 L4.37622 11.57907 L4.53246 11.54411 L4.68872 11.51946 L4.84390 11.50488 L5.00000 11.50000 L5.15610 11.50488 L5.31128 11.51946 L5.46754 11.54411 L5.62378 11.57907 L5.77027 11.62162 L5.91904 11.67505 L6.06597 11.73865 L6.20597 11.81011 L6.33877 11.88868 L6.46728 11.97588 L6.59348 12.07365 L6.70954 12.17587 L6.82413 12.29046 L6.92635 12.40652 L7.02412 12.53272 L7.11132 12.66123 L7.18989 12.79403 L7.26135 12.93403 L7.32495 13.08096 L7.37838 13.22973 L7.42093 13.37622 L7.45589 13.53246 L7.48054 13.68872 L7.49512 13.84390 L7.50000 14.00000 z"/>
<path fill="#000000" stroke="#000000" d="M3.50103 5.94446 L3.50890 5.83685 L3.52515 5.72645 L3.54913 5.61924 L3.57984 5.51714 L3.61995 5.41224 L3.66652 5.31310 L3.71991 5.21810 L3.78092 5.12601 L3.84608 5.04164 L3.92140 4.95759 L3.99925 4.88264 L4.08258 4.81327 L4.17117 4.74978 L4.26726 4.69115 L4.36471 4.64118 L4.46286 4.59947 L4.56816 4.56351 L4.67513 4.53560 L4.78166 4.51598 L4.88904 4.50411 L5.00000 4.50000 L5.11096 4.50411 L5.21834 4.51598 L5.32487 4.53560 L5.43184 4.56351 L5.53714 4.59947 L5.63529 4.64118 L5.73274 4.69115 L5.82883 4.74978 L5.91742 4.81327 L6.00075 4.88264 L6.07860 4.95759 L6.15392 5.04164 L6.21908 5.12601 L6.28009 5.21810 L6.33348 5.31310 L6.38005 5.41224 L6.42016 5.51714 L6.45087 5.61924 L6.47485 5.72645 L6.49110 5.83685 L6.49897 5.94446 L6.49897 6.05554 L6.49110 6.16315 L6.47485 6.27355 L6.45087 6.38076 L6.42016 6.48286 L6.38005 6.58776 L6.33348 6.68690 L6.28009 6.78190 L6.21908 6.87399 L6.15392 6.95836 L6.07860 7.04241 L6.00075 7.11736 L5.91742 7.18673 L5.82883 7.25022 L5.73274 7.30885 L5.63529 7.35882 L5.53714 7.40053 L5.43184 7.43649 L5.32487 7.46440 L5.21834 7.48402 L5.11096 7.49589 L5.00000 7.50000 L4.88904 7.49589 L4.78166 7.48402 L4.67513 7.46440 L4.56816 7.43649 L4.46286 7.40053 L4.36471 7.35882 L4.26726 7.30885 L4.17117 7.25022 L4.08258 7.18673 L3.99925 7.11736 L3.92140 7.04241 L3.84608 6.95836 L3.78092 6.87399 L3.71991 6.78190 L3.66652 6.68690 L3.61995 6.58776 L3.57984 6.48286 L3.54913 6.38076 L3.52515 6.27355 L3.50890 6.16315 L3.50103 6.05554 z"/>
<path fill="#000000" stroke="#000000" d="M22.99024 10.31220 L22.96109 10.62257 L22.91179 10.93507 L22.84186 11.24756 L22.75676 11.54054 L22.64989 11.83807 L22.52270 12.13195 L22.37979 12.41194 L22.22265 12.67754 L22.04825 12.93457 L21.85269 13.18697 L21.64827 13.41908 L21.41908 13.64827 L21.18697 13.85269 L20.93457 14.04825 L20.67754 14.22265 L20.41194 14.37979 L20.13195 14.52270 L19.83807 14.64989 L19.54054 14.75676 L19.24756 14.84186 L18.93507 14.91179 L18.62257 14.96109 L18.31220 14.99024 L18.00000 15.00000 L17.68780 14.99024 L17.37743 14.96109 L17.06493 14.91179 L16.75244 14.84186 L16.45946 14.75676 L16.16193 14.64989 L15.86805 14.52270 L15.58806 14.37979 L15.32246 14.22265 L15.06543 14.04825 L14.81303 13.85269 L14.58092 13.64827 L14.35173 13.41908 L14.14731 13.18697 L13.95175 12.93457 L13.77735 12.67754 L13.62021 12.41194 L13.47730 12.13195 L13.35011 11.83807 L13.24324 11.54054 L13.15814 11.24756 L13.08821 10.93507 L13.03891 10.62257 L13.00976 10.31220 L13.00000 10.00000 L13.00976 9.68780 L13.03891 9.37743 L13.08821 9.06493 L13.15814 8.75244 L13.24324 8.45946 L13.35011 8.16193 L13.47730 7.86805 L13.62021 7.58806 L13.77735 7.32246 L13.95175 7.06543 L14.14731 6.81303 L14.35173 6.58092 L14.58092 6.35173 L14.81303 6.14731 L15.06543 5.95175 L15.32246 5.77735 L15.58806 5.62021 L15.86805 5.47730 L16.16193 5.35011 L16.45946 5.24324 L16.75244 5.15814 L17.06493 5.08821 L17.37743 5.03891 L17.68780 5.00976 L18.00000 5.00000 L18.31220 5.00976 L18.62257 5.03891 L18.93507 5.08821 L19.24756 5.15814 L19.54054 5.24324 L19.83807 5.35011 L20.13195 5.47730 L20.41194 5.62021 L20.67754 5.77735 L20.93457 5.95175 L21.18697 6.14731 L21.41908 6.35173 L21.64827 6.58092 L21.85269 6.81303 L22.04825 7.06543 L22.22265 7.32246 L22.37979 7.58806 L22.52270 7.86805 L22.64989 8.16193 L22.75676 8.45946 L22.84186 8.75244 L22.91179 9.06493 L22.96109 9.37743 L22.99024 9.68780 L23.00000 10.00000 z M20.78949 11.61290 L20.78949 8.38710 L18.00000 6.77778 L15.21051 8.38710 L15.21051 11.61290 L18.00000 13.22222 z"/>
<path fill="#000000" stroke="#000000" d="M15.21051 8.38710 L18.00000 6.77778 L20.78949 8.38710 L20.78949 11.61290 L18.00000 13.22222 L15.21051 11.61290 z"/>
</svg>